<?xml version="1.0" encoding="utf-8"?>
<!-- Generator: Adobe Illustrator 26.5.0, SVG Export Plug-In . SVG Version: 6.00 Build 0)  -->
<svg version="1.1" id="Layer_1" xmlns="http://www.w3.org/2000/svg" xmlns:xlink="http://www.w3.org/1999/xlink" x="0px" y="0px"
	 viewBox="0 0 107.7 110.5" style="enable-background:new 0 0 107.7 110.5;" xml:space="preserve">
<style type="text/css">
	.st0{fill:#231F20;}
	.st1{fill:#8CC63F;}
</style>
<g id="Layer_5">
	<g>
		<g>
			<g>
				<path class="st0" d="M107.7,0.1c-1.8,6.2-3.8,12.4-5.4,18.6c-4.7,18.3-7.5,36.8-7.5,55.7c0,2.2,0.1,4.4,0.2,6.6
					c0.1,2.9-0.8,5.5-2.9,7.5c-5.5,5.5-11,10.9-16.5,16.3c-2.1,2-4.6,3.1-7.5,3.5c-21.1,2.7-42.2,3.1-63.3-0.1
					c-1.5-0.2-1.9-0.9-2.2-2.2c-2.7-13.2-3.1-26.6-2.1-40C2,46.1,6.1,26.7,12.2,7.8c0.6-1.7,1.4-2.3,3.1-2.4
					c23.8-1.3,47.5-2.7,71.3-4.1c5.8-0.3,11.7-0.7,17.5-1c0.6,0,1.1-0.2,1.7-0.3C106.5,0,107.1,0.1,107.7,0.1z M96.2,9.1
					c-3.4,0.2-6.5,0.3-9.7,0.5c-21.8,1.3-43.6,2.6-65.5,3.8c-1.5,0.1-2.1,0.6-2.6,2c-5,16.7-8.4,33.8-9.7,51.2
					c-0.8,10.8-0.6,21.5,1,32.2c0.2,1.3,0.6,1.9,2,2.1c16.4,1.9,32.9,1.7,49.3-0.1c4-0.4,7.2-2.9,8-6.9c0.5-2.7,0.6-5.6,0.5-8.4
					c-0.1-2.5-0.6-5-0.9-7.4c6,0.2,11.9,0.4,17.9,0.7C86,54.9,89.8,32,96.2,9.1z"/>
				<path class="st0" d="M105.9,1h0.5c-0.5,1.5-0.9,3.1-1.4,4.6c-1.2,4.2-2.5,8.5-3.7,12.8c-5.1,19.7-7.5,38-7.5,55.9
					c0,1.6,0,3.3,0.1,4.9c0,0.6,0,1.2,0,1.7c0.1,2.7-0.8,5-2.6,6.8c-4.8,4.8-10,9.9-16.5,16.3c-1.8,1.8-4.1,2.8-7,3.2
					c-11.4,1.5-22,2.2-32.4,2.2c-10.5,0-20.8-0.8-30.6-2.2c-0.9-0.1-1.1-0.3-1.3-1.4C1,93.5,0.3,80.6,1.4,66.1
					c1.4-19,5.4-38.5,11.7-58c0.4-1.3,0.9-1.6,2.2-1.7c18-1,36.2-2.1,53.9-3.1l17.4-1c2.8-0.2,5.5-0.3,8.2-0.5
					c3.1-0.2,6.2-0.3,9.2-0.5c0.5,0,0.9-0.1,1.3-0.2C105.6,1.1,105.8,1.1,105.9,1 M35.6,103.2c8.3,0,16.9-0.5,25.6-1.4
					c4.7-0.5,8-3.4,8.9-7.7c0.6-3,0.6-6,0.5-8.6c0-1.8-0.3-3.6-0.6-5.3c0-0.3-0.1-0.7-0.2-1l6,0.2l10.8,0.4h1.1v-1.1
					C87.2,57,90.3,34.3,97.3,9.4l0.4-1.3l-1.4,0.1c-1.1,0.1-2.2,0.1-3.2,0.2c-2.2,0.1-4.3,0.2-6.5,0.3C81,9,75.4,9.4,69.8,9.7
					c-16,1-32.5,1.9-48.7,2.8c-2,0.1-2.9,0.9-3.5,2.7c-5.3,18-8.5,34.8-9.8,51.4C7,77.8,7.3,88.7,8.8,99c0.2,1.4,0.7,2.7,2.9,2.9
					C19.5,102.7,27.6,103.2,35.6,103.2 M105.8,0c-0.5,0.1-1.1,0.2-1.7,0.3c-5.8,0.3-11.7,0.7-17.5,1C62.8,2.7,39.1,4.1,15.3,5.4
					c-1.8,0.1-2.6,0.7-3.1,2.4C6,26.8,2,46.1,0.5,66c-1,13.4-0.6,26.7,2.1,40c0.3,1.3,0.7,2,2.2,2.2c10.2,1.6,20.5,2.3,30.7,2.3
					c10.9,0,21.7-0.8,32.6-2.2c2.9-0.4,5.5-1.4,7.5-3.5c5.5-5.4,11-10.8,16.5-16.3c2.1-2.1,3-4.6,2.9-7.5c-0.1-2.2-0.1-4.4-0.2-6.6
					c0-18.9,2.8-37.4,7.5-55.7c1.6-6.2,3.6-12.4,5.4-18.6C107.1,0.1,106.5,0,105.8,0L105.8,0z M96.2,9.1C89.8,32,86,54.9,86.6,78.7
					c-6-0.2-11.9-0.4-17.9-0.7c0.3,2.4,0.9,4.9,0.9,7.4c0.1,2.8,0,5.7-0.5,8.4c-0.8,4-3.9,6.4-8,6.9c-8.5,0.9-17,1.4-25.5,1.4
					c-7.9,0-15.9-0.4-23.8-1.3c-1.5-0.2-1.9-0.8-2-2.1C8.2,88,8,77.3,8.8,66.5c1.3-17.4,4.8-34.4,9.7-51.2c0.4-1.4,1-1.9,2.6-2
					c21.8-1.2,43.6-2.5,65.5-3.8C89.7,9.4,92.8,9.3,96.2,9.1L96.2,9.1z"/>
			</g>
		</g>
		<g>
			<g>
				<path class="st0" d="M107.7,0.1c-1.8,6.2-3.8,12.4-5.4,18.6c-4.7,18.3-7.5,36.8-7.5,55.7c0,2.2,0.1,4.4,0.2,6.6
					c0.1,2.9-0.8,5.5-2.9,7.5c-5.5,5.5-11,10.9-16.5,16.3c-2.1,2-4.6,3.1-7.5,3.5c-21.1,2.7-42.2,3.1-63.3-0.1
					c-1.5-0.2-1.9-0.9-2.2-2.2c-2.7-13.2-3.1-26.6-2.1-40C2,46.1,6.1,26.7,12.2,7.8c0.6-1.7,1.4-2.3,3.1-2.4
					c23.8-1.3,47.5-2.7,71.3-4.1c5.8-0.3,11.7-0.7,17.5-1c0.6,0,1.1-0.2,1.7-0.3C106.5,0,107.1,0.1,107.7,0.1z M96.2,9.1
					c-3.4,0.2-6.5,0.3-9.7,0.5c-21.8,1.3-43.6,2.6-65.5,3.8c-1.5,0.1-2.1,0.6-2.6,2c-5,16.7-8.4,33.8-9.7,51.2
					c-0.8,10.8-0.6,21.5,1,32.2c0.2,1.3,0.6,1.9,2,2.1c16.4,1.9,32.9,1.7,49.3-0.1c4-0.4,7.2-2.9,8-6.9c0.5-2.7,0.6-5.6,0.5-8.4
					c-0.1-2.5-0.6-5-0.9-7.4c6,0.2,11.9,0.4,17.9,0.7C86,54.9,89.8,32,96.2,9.1z"/>
				<path class="st0" d="M105.9,1h0.5c-0.5,1.5-0.9,3.1-1.4,4.6c-1.2,4.2-2.5,8.5-3.7,12.8c-5.1,19.7-7.5,38-7.5,55.9
					c0,1.6,0,3.3,0.1,4.9c0,0.6,0,1.2,0,1.7c0.1,2.7-0.8,5-2.6,6.8c-4.8,4.8-10,9.9-16.5,16.3c-1.8,1.8-4.1,2.8-7,3.2
					c-11.4,1.5-22,2.2-32.4,2.2c-10.5,0-20.8-0.8-30.6-2.2c-0.9-0.1-1.1-0.3-1.3-1.4C1,93.5,0.3,80.6,1.4,66.1
					c1.4-19,5.4-38.5,11.7-58c0.4-1.3,0.9-1.6,2.2-1.7c18-1,36.2-2.1,53.9-3.1l17.4-1c2.8-0.2,5.5-0.3,8.2-0.5
					c3.1-0.2,6.2-0.3,9.2-0.5c0.5,0,0.9-0.1,1.3-0.2C105.6,1.1,105.8,1.1,105.9,1 M35.6,103.2c8.3,0,16.9-0.5,25.6-1.4
					c4.7-0.5,8-3.4,8.9-7.7c0.6-3,0.6-6,0.5-8.6c0-1.8-0.3-3.6-0.6-5.3c0-0.3-0.1-0.7-0.2-1l6,0.2l10.8,0.4h1.1v-1.1
					C87.2,57,90.3,34.3,97.3,9.4l0.4-1.3l-1.4,0.1c-1.1,0.1-2.2,0.1-3.2,0.2c-2.2,0.1-4.3,0.2-6.5,0.3C81,9,75.4,9.4,69.8,9.7
					c-16,1-32.5,1.9-48.7,2.8c-2,0.1-2.9,0.9-3.5,2.7c-5.3,18-8.5,34.8-9.8,51.4C7,77.8,7.3,88.7,8.8,99c0.2,1.4,0.7,2.7,2.9,2.9
					C19.5,102.7,27.6,103.2,35.6,103.2 M105.8,0c-0.5,0.1-1.1,0.2-1.7,0.3c-5.8,0.3-11.7,0.7-17.5,1C62.8,2.7,39.1,4.1,15.3,5.4
					c-1.8,0.1-2.6,0.7-3.1,2.4C6,26.8,2,46.1,0.5,66c-1,13.4-0.6,26.7,2.1,40c0.3,1.3,0.7,2,2.2,2.2c10.2,1.6,20.5,2.3,30.7,2.3
					c10.9,0,21.7-0.8,32.6-2.2c2.9-0.4,5.5-1.4,7.5-3.5c5.5-5.4,11-10.8,16.5-16.3c2.1-2.1,3-4.6,2.9-7.5c-0.1-2.2-0.1-4.4-0.2-6.6
					c0-18.9,2.8-37.4,7.5-55.7c1.6-6.2,3.6-12.4,5.4-18.6C107.1,0.1,106.5,0,105.8,0L105.8,0z M96.2,9.1C89.8,32,86,54.9,86.6,78.7
					c-6-0.2-11.9-0.4-17.9-0.7c0.3,2.4,0.9,4.9,0.9,7.4c0.1,2.8,0,5.7-0.5,8.4c-0.8,4-3.9,6.4-8,6.9c-8.5,0.9-17,1.4-25.5,1.4
					c-7.9,0-15.9-0.4-23.8-1.3c-1.5-0.2-1.9-0.8-2-2.1C8.2,88,8,77.3,8.8,66.5c1.3-17.4,4.8-34.4,9.7-51.2c0.4-1.4,1-1.9,2.6-2
					c21.8-1.2,43.6-2.5,65.5-3.8C89.7,9.4,92.8,9.3,96.2,9.1L96.2,9.1z"/>
			</g>
		</g>
		<g>
			<g>
				<path class="st0" d="M107.7,0.1c-1.8,6.2-3.8,12.4-5.4,18.6c-4.7,18.3-7.5,36.8-7.5,55.7c0,2.2,0.1,4.4,0.2,6.6
					c0.1,2.9-0.8,5.5-2.9,7.5c-5.5,5.5-11,10.9-16.5,16.3c-2.1,2-4.6,3.1-7.5,3.5c-21.1,2.7-42.2,3.1-63.3-0.1
					c-1.5-0.2-1.9-0.9-2.2-2.2c-2.7-13.2-3.1-26.6-2.1-40C2,46.1,6.1,26.7,12.2,7.8c0.6-1.7,1.4-2.3,3.1-2.4
					c23.8-1.3,47.5-2.7,71.3-4.1c5.8-0.3,11.7-0.7,17.5-1c0.6,0,1.1-0.2,1.7-0.3C106.5,0,107.1,0.1,107.7,0.1z M96.2,9.1
					c-3.4,0.2-6.5,0.3-9.7,0.5c-21.8,1.3-43.6,2.6-65.5,3.8c-1.5,0.1-2.1,0.6-2.6,2c-5,16.7-8.4,33.8-9.7,51.2
					c-0.8,10.8-0.6,21.5,1,32.2c0.2,1.3,0.6,1.9,2,2.1c16.4,1.9,32.9,1.7,49.3-0.1c4-0.4,7.2-2.9,8-6.9c0.5-2.7,0.6-5.6,0.5-8.4
					c-0.1-2.5-0.6-5-0.9-7.4c6,0.2,11.9,0.4,17.9,0.7C86,54.9,89.8,32,96.2,9.1z"/>
				<path class="st0" d="M105.9,1h0.5c-0.5,1.5-0.9,3.1-1.4,4.6c-1.2,4.2-2.5,8.5-3.7,12.8c-5.1,19.7-7.5,38-7.5,55.9
					c0,1.6,0,3.3,0.1,4.9c0,0.6,0,1.2,0,1.7c0.1,2.7-0.8,5-2.6,6.8c-4.8,4.8-10,9.9-16.5,16.3c-1.8,1.8-4.1,2.8-7,3.2
					c-11.4,1.5-22,2.2-32.4,2.2c-10.5,0-20.8-0.8-30.6-2.2c-0.9-0.1-1.1-0.3-1.3-1.4C1,93.5,0.3,80.6,1.4,66.1
					c1.4-19,5.4-38.5,11.7-58c0.4-1.3,0.9-1.6,2.2-1.7c18-1,36.2-2.1,53.9-3.1l17.4-1c2.8-0.2,5.5-0.3,8.2-0.5
					c3.1-0.2,6.2-0.3,9.2-0.5c0.5,0,0.9-0.1,1.3-0.2C105.6,1.1,105.8,1.1,105.9,1 M35.6,103.2c8.3,0,16.9-0.5,25.6-1.4
					c4.7-0.5,8-3.4,8.9-7.7c0.6-3,0.6-6,0.5-8.6c0-1.8-0.3-3.6-0.6-5.3c0-0.3-0.1-0.7-0.2-1l6,0.2l10.8,0.4h1.1v-1.1
					C87.2,57,90.3,34.3,97.3,9.4l0.4-1.3l-1.4,0.1c-1.1,0.1-2.2,0.1-3.2,0.2c-2.2,0.1-4.3,0.2-6.5,0.3C81,9,75.4,9.4,69.8,9.7
					c-16,1-32.5,1.9-48.7,2.8c-2,0.1-2.9,0.9-3.5,2.7c-5.3,18-8.5,34.8-9.8,51.4C7,77.8,7.3,88.7,8.8,99c0.2,1.4,0.7,2.7,2.9,2.9
					C19.5,102.7,27.6,103.2,35.6,103.2 M105.8,0c-0.5,0.1-1.1,0.2-1.7,0.3c-5.8,0.3-11.7,0.7-17.5,1C62.8,2.7,39.1,4.1,15.3,5.4
					c-1.8,0.1-2.6,0.7-3.1,2.4C6,26.8,2,46.1,0.5,66c-1,13.4-0.6,26.7,2.1,40c0.3,1.3,0.7,2,2.2,2.2c10.2,1.6,20.5,2.3,30.7,2.3
					c10.9,0,21.7-0.8,32.6-2.2c2.9-0.4,5.5-1.4,7.5-3.5c5.5-5.4,11-10.8,16.5-16.3c2.1-2.1,3-4.6,2.9-7.5c-0.1-2.2-0.1-4.4-0.2-6.6
					c0-18.9,2.8-37.4,7.5-55.7c1.6-6.2,3.6-12.4,5.4-18.6C107.1,0.1,106.5,0,105.8,0L105.8,0z M96.2,9.1C89.8,32,86,54.9,86.6,78.7
					c-6-0.2-11.9-0.4-17.9-0.7c0.3,2.4,0.9,4.9,0.9,7.4c0.1,2.8,0,5.7-0.5,8.4c-0.8,4-3.9,6.4-8,6.9c-8.5,0.9-17,1.4-25.5,1.4
					c-7.9,0-15.9-0.4-23.8-1.3c-1.5-0.2-1.9-0.8-2-2.1C8.2,88,8,77.3,8.8,66.5c1.3-17.4,4.8-34.4,9.7-51.2c0.4-1.4,1-1.9,2.6-2
					c21.8-1.2,43.6-2.5,65.5-3.8C89.7,9.4,92.8,9.3,96.2,9.1L96.2,9.1z"/>
			</g>
		</g>
	</g>
</g>
<g>
	<path class="st1" d="M96.2,9.1C89.8,32,86,54.9,86.6,78.7c-6-0.2-11.9-0.4-17.9-0.7c0.3,2.4,0.9,4.9,0.9,7.4c0.1,2.8,0,5.7-0.5,8.4
		c-0.8,4-3.9,6.4-8,6.9c-8.5,0.9-17,1.4-25.5,1.4c-7.9,0-15.9-0.4-23.8-1.3c-1.5-0.2-1.9-0.8-2-2.1C8.2,88,8,77.3,8.8,66.5
		c1.3-17.4,4.8-34.4,9.7-51.2c0.4-1.4,1-1.9,2.6-2c21.8-1.2,43.6-2.5,65.5-3.8C89.7,9.4,92.8,9.3,96.2,9.1L96.2,9.1z"/>
</g>
</svg>
