<?xml version="1.0" encoding="utf-8"?>
<!-- Generator: Adobe Illustrator 26.5.0, SVG Export Plug-In . SVG Version: 6.00 Build 0)  -->
<svg version="1.1" id="Layer_1" xmlns="http://www.w3.org/2000/svg" xmlns:xlink="http://www.w3.org/1999/xlink" x="0px" y="0px"
	 viewBox="0 0 131.1 116.2" style="enable-background:new 0 0 131.1 116.2;" xml:space="preserve">
<style type="text/css">
	.st0{fill:#FFFFFF;}
</style>
<g id="Layer_2_00000178911982370240285740000017368704179911193739_">
	<g>
		<g>
			<g>
				<path class="st0" d="M56.5,57.6c-5.5-1.5-10.9-1.7-16.3,0c-3.3,1-6.5,2.3-9.6,3.8c-10.1,4.8-22.3,1-27.9-8.9
					c-5.4-9.6-2.4-22.1,6.9-28.2c9.2-6.1,22.1-3.9,28.7,4.9c1.7,2.2,3.4,4.4,5.1,6.5c2.6,3.2,6.1,4.8,10.2,5.1
					c2.4,0.2,5.2,1.1,7.2,0.2c2-0.8,3.4-3.4,4.9-5.3C73.6,26,81.5,16.2,89.5,6.5c2.2-2.7,4.7-4.9,8.1-6c6.7-2.2,12.5,2.5,11.1,9.5
					c-0.5,2.5-1.7,5-3.2,7.1c-12,17.1-24,34.2-36.3,51.2c-3.8,5.3-4.7,10.8-2.8,16.9c0.5,1.8,1.1,3.6,1.4,5.5
					c2.1,11-4.5,21.5-15.5,24.7c-10,2.9-21.2-2.7-25.3-12.7C22.9,92.5,27.2,81,37,75.8c3.1-1.7,6.2-3.3,9.1-5.3
					C50.9,67.4,54.2,63,56.5,57.6z M9.8,46.1c2.2,6.4,9.1,9.8,15.5,7.7c6.4-2.2,9.8-9.2,7.6-15.7c-2.1-6.3-9.2-9.7-15.6-7.5
					C10.9,32.8,7.6,39.7,9.8,46.1z M58.3,90.6c-2.3-6.3-9.4-9.6-15.7-7.3S33,92.7,35.3,99c2.3,6.4,9.4,9.7,15.8,7.3
					C57.4,104,60.6,97,58.3,90.6z M71.4,56.3c2.4-0.9,3.6-3.4,2.7-5.8c-0.9-2.3-3.5-3.6-5.8-2.7c-2.2,0.9-3.5,3.4-2.7,5.7
					C66.5,55.9,69.1,57.2,71.4,56.3z"/>
			</g>
			<g>
				<path class="st0" d="M79.2,64.2c4.9-7.1,9.5-13.7,14.2-20.2c0.3-0.4,1-0.6,1.6-0.6c8,0.3,15.9,0.7,23.9,1c3,0.1,5.8,0.8,8.4,2.5
					c4.9,3.4,5.1,9.5,0.5,13.3c-2.3,2-5.1,3.1-8.1,3.2C106.4,63.7,93.1,63.9,79.2,64.2z"/>
			</g>
		</g>
	</g>
</g>
</svg>
