<?xml version="1.0" encoding="utf-8"?>
<!-- Generator: Adobe Illustrator 26.5.0, SVG Export Plug-In . SVG Version: 6.00 Build 0)  -->
<svg version="1.1" id="Layer_1" xmlns="http://www.w3.org/2000/svg" xmlns:xlink="http://www.w3.org/1999/xlink" x="0px" y="0px"
	 viewBox="0 0 125.5 97.8" style="enable-background:new 0 0 125.5 97.8;" xml:space="preserve">
<style type="text/css">
	.st0{fill:#8CC63F;}
	.st1{fill:#231F20;}
</style>
<g id="Layer_3">
	<g>
		<g>
			<g>
				<path class="st0" d="M58.5,90.6l-8.8-0.3c-1.5-0.1-3.1-0.1-4.6-0.2c-1.2,0-2.2-0.4-3.1-1.3c-0.9-0.8-1.8-1.7-2.6-2.6l-0.9-0.9
					c-3.6-3.7-7.6-6.2-12-7.9c-1.9-0.7-4-2-6.2-3.5c-0.6-0.3-1.1-0.7-1.6-1c-1.8-1.2-3.6-2.4-5.5-3.8c-0.5-0.4-1-0.7-1.5-1.1
					c-1.1-1.9-2-3.6-2.7-5.3c0.9,0.3,1.9,0.6,2.8,0.9c2.2,0.7,4.4,1.4,6.5,2.1c1.1,0.3,2.2,0.6,3.3,0.8c0.4,0.1,0.9,0.2,1.4,0.3
					l7.9,1.9c2.8,3.6,6,6.5,9.8,8.9c1.8,1.1,3.5,1.9,5.2,2.6c0.7,0.3,1.4,0.6,2.1,1l9.8,4.7l0.2-5.1c1.5,0.9,3.1,1.4,4.9,1.4
					c0.9,0,1.7-0.1,2.6-0.3c3.2-0.8,6.5-1.6,9.7-2.3c3.2-0.8,6.5-1.5,9.7-2.3c2.1-0.5,4.1-1.6,5.7-3c1.2-1.1,2.4-2.2,3.7-3.4
					l6.9,10.7l6.2-5.3c0.4-0.3,0.7-0.7,1.1-1c0.4-0.4,0.9-0.8,1.1-0.9c1-0.7,1.9-1.4,2.6-2.3c-0.5,1.1-0.9,2.2-1.3,3.2
					c-0.3,0.8-0.6,1.5-0.9,2.3c-4.2,2.2-8.9,4.4-14.8,7.3c-0.2,0-0.6,0.1-0.9,0.2l-0.4,0.1c-4.8,1-11,2.2-17.3,3.4
					c-0.5,0.1-0.9,0.1-1.4,0.1h-0.7c-4,0-7.7,0.7-11.2,1.4c-0.9,0.2-1.8,0.3-2.8,0.5C59.7,90.6,59.1,90.6,58.5,90.6L58.5,90.6
					L58.5,90.6L58.5,90.6z M114.4,66.8c0.2-1,0.2-2,0.2-3.1c-0.1-1.3-0.1-2.5-0.2-3.8c-0.1-3.2-0.2-6.4-0.6-9.7
					c-0.2-2.3-0.7-4.4-1.3-6.5c0.5,0.7,0.7,1.1,0.8,1.3c1,3,2,6.2,3,9.2c0.7,2.2,1.3,4.3,2,6.4c0,0.2,0.1,0.3,0.1,0.4
					C116.8,62.9,115.5,64.8,114.4,66.8z"/>
				<path class="st1" d="M50.1,0c-0.2,0-0.3,0-0.5,0c-1,0-2.1,0.3-3,0.8C40.3,4.4,34,8.1,27.7,11.7c-7.1,4-13.1,9.1-16.6,16.6
					c-0.5,1.1-1.1,2.1-1.7,3.2c-2.2,4-4.6,8-6.6,12.1c-1.2,2.4-2.1,5-2.5,7.6c-1.2,7.8,1.9,14.5,5.6,21c0.3,0.5,0.7,0.9,1.2,1.2
					c2.6,1.8,5.1,3.7,7.7,5.4c3,1.9,5.9,4,9.1,5.2c3.7,1.4,6.7,3.5,9.5,6.3c1.2,1.2,2.4,2.4,3.6,3.6c2.2,2.1,4.8,3.2,7.8,3.3
					c2.2,0.1,4.4,0.2,6.6,0.2c0,0.1,0,0.3,0,0.4c0.4,0,0.8,0,1.2,0c1.3,0,2.6,0,3.9,0c1.7,0,3.4-0.1,5-0.3c4.2-0.7,8.4-1.8,12.7-1.8
					c0.1,0,0.3,0,0.5,0c0.1,0,0.2,0,0.2,0c0.9,0,1.9-0.1,2.8-0.3c5.8-1.1,11.6-2.3,17.4-3.5c1-0.2,2-0.4,2.9-0.8
					c5.4-2.6,10.7-5.2,16-7.9c0.8-0.4,1.6-1.2,1.9-2.1c2.3-5.4,3.9-11.1,7.9-15.7c1.8-2,2.1-4.5,1.2-7.1c-1.7-5.2-3.2-10.5-5-15.8
					c-0.5-1.5-1.5-2.9-2.5-4.2c-3.7-4.5-7.9-8.5-11-13.3c-3.6-5.6-8.2-10.1-12.8-14.7C92.3,9,90.7,7.7,89,7
					c-4.2-1.9-8.5-3.7-12.9-5.2c-2.2-0.8-4.6-1.1-7-1.3c-2.9-0.3-5.9-0.2-8.9-0.3C56.8,0.2,53.5,0,50.1,0L50.1,0z M24.7,59.9
					c-1.7-0.4-3-0.7-4.3-1c-3.8-1.2-7.6-2.5-11.4-3.7c-1.2-0.4-1.6-1.1-1.3-2.3c0.4-1.5,0.5-3,1.2-4.3c2.9-5.6,6.2-11.1,9.1-16.7
					c2.9-5.8,7.4-9.6,12.9-12.8c6.2-3.5,12.3-7.1,18.4-10.7c0.5-0.3,1.2-0.5,1.9-0.5h0.1c6.5,0.2,12.9,0.3,19.4,0.7
					c1.5,0.1,3,0.8,4.5,1.4c3.5,1.4,7,2.8,10.4,4.3c1.1,0.5,2.2,1.3,3.1,2.1c2.5,2.3,4.8,4.8,7.2,7.2c0.9,0.8,1.1,1.5,0.3,2.6
					c-0.9,1.2-1.5,2.6-2.4,4c2.1,0.8,4,1.4,6,2.2c0.5,0.2,1.2,0.6,1.4,1.1c2,5.8,5.1,11.2,5.8,17.5c0.5,4.4,0.5,8.8,0.7,13.2
					c0.1,1.8-0.5,3.3-2.1,4.3c-1,0.7-1.8,1.5-2.9,2.4c-2.4-3.7-4.6-7.2-7.1-11.1c-3.5,3.3-6.6,6.3-9.8,9.2c-0.7,0.6-1.7,1.1-2.6,1.3
					c-6.5,1.6-12.9,3.1-19.4,4.7c-0.3,0.1-0.6,0.1-0.9,0.1c-0.7,0-1.2-0.2-1.8-0.8c-3.1-2.8-6.2-5.5-9.6-8.5
					c-0.1,3.2-0.2,5.9-0.3,9.1c-2.4-1.1-4.6-2-6.6-3.2c-5.5-3.4-9.3-8.2-12.1-14c-2-4.1-4.5-8-7.2-11.9C25,50.3,24.9,54.9,24.7,59.9
					L24.7,59.9z"/>
			</g>
			<g>
				<path class="st1" d="M91.2,41.2c0.5,2,1.2,4,1.6,6c0.1,0.5-0.2,1.2-0.6,1.7c-1.7,2.2-3.4,4.4-5.3,6.3c-0.9,1-2.2,1.6-3.5,2.1
					c-2,0.8-4.1,1.5-6.6,2.3c0.2-1.1,0.2-1.9,0.5-2.6c1.1-2.8,1.2-5.7,1-8.7c-0.1-1.6,0.4-2.4,2-2.9C84,44.2,87.5,42.6,91.2,41.2z"
					/>
			</g>
			<g>
				<path class="st1" d="M78.1,41.3c-0.2-3.2-0.4-5.9,2.4-7.8c1.2-0.8,3.9-0.9,4.7,0.3c0.2,0.4,0.2,1.3-0.1,1.6
					C82.9,37.3,80.6,39.2,78.1,41.3z"/>
			</g>
			<g>
				<path class="st0" d="M51.4,65.7c3.5,3.1,6.6,5.8,9.6,8.5c0.8,0.8,1.6,1,2.7,0.7c6.5-1.6,12.9-3.1,19.4-4.7
					c0.9-0.2,1.9-0.7,2.6-1.3c3.2-2.9,6.3-5.9,9.8-9.2c2.5,3.9,4.8,7.4,7.1,11.1c1-0.9,1.9-1.8,2.9-2.4c1.6-1,2.2-2.5,2.1-4.3
					c-0.2-4.4-0.3-8.8-0.7-13.2c-0.6-6.2-3.8-11.7-5.8-17.5c-0.2-0.5-0.9-0.9-1.4-1.1c-1.9-0.8-3.9-1.4-6-2.2c0.9-1.4,1.5-2.8,2.4-4
					c0.7-1,0.5-1.7-0.3-2.6c-2.4-2.4-4.8-4.8-7.2-7.2c-0.9-0.8-2-1.6-3.1-2.1c-3.4-1.5-6.9-2.9-10.4-4.3c-1.5-0.6-3-1.3-4.5-1.4
					C64.1,8.1,57.7,8,51.2,7.8c-0.6,0-1.4,0.2-1.9,0.5C43.1,11.8,37,15.4,30.9,19c-5.4,3.1-10,7-12.9,12.8
					c-2.8,5.7-6.1,11.1-9.1,16.7c-0.7,1.3-0.8,2.9-1.2,4.3C7.4,54,7.8,54.7,9,55.1c3.8,1.2,7.6,2.5,11.4,3.7c1.3,0.4,2.6,0.6,4.3,1
					c0.2-5,0.4-9.6,0.5-14.3c2.7,3.9,5.2,7.8,7.2,11.9c2.8,5.8,6.6,10.6,12.1,14c2,1.2,4.2,2.1,6.6,3.2
					C51.2,71.6,51.3,68.9,51.4,65.7z"/>
			</g>
		</g>
	</g>
</g>
</svg>
