<?xml version="1.0" encoding="utf-8"?>
<!-- Generator: Adobe Illustrator 26.5.0, SVG Export Plug-In . SVG Version: 6.00 Build 0)  -->
<svg version="1.1" id="Layer_1" xmlns="http://www.w3.org/2000/svg" xmlns:xlink="http://www.w3.org/1999/xlink" x="0px" y="0px"
	 viewBox="0 0 528 179" style="enable-background:new 0 0 528 179;" xml:space="preserve">
<style type="text/css">
	.st0{fill:#8CC63F;}
	.st1{fill:#231F20;}
	.st2{opacity:0.55;}
	.st3{opacity:0.49;}
	.st4{fill:#FCEE21;}
</style>
<g id="Layer_4">
	<g>
		<g>
			<path class="st0" d="M76.1,171.9c-38.1,0-69-31-69-69V76.1c0-38,30.9-69,69-69h375.8c38,0,69,31,69,69v26.8c0,38-31,69-69,69
				H76.1z"/>
			<path class="st1" d="M451.9,14.2c34.1,0,61.9,27.8,61.9,61.9v26.8c0,34.1-27.8,61.9-61.9,61.9H76.1c-34.1,0-61.9-27.8-61.9-61.9
				V76.1C14.2,42,42,14.2,76.1,14.2H451.9 M451.9,0H76.1C34.1,0,0,34.1,0,76.1v26.8c0,42,34.1,76.1,76.1,76.1h375.8
				c42,0,76.1-34.1,76.1-76.1V76.1C528,34.1,493.9,0,451.9,0L451.9,0z"/>
		</g>
		<g class="st2">
			<path d="M501.2,85.4c-0.4-1.2,0.3-2.3,1.5-3c1.4-0.9,3-1.5,4.7-0.9c3.5,1.2,4.1,5.1,2,7.6c-0.7,0.8-1.7,1.2-2.8,1.3
				c-0.6,0.1-1.2,0-1.8,0s-1.2-0.1-1.6-0.6c-0.3-0.3-0.7-0.7-1-1c-0.7-0.6-1-1.3-0.9-2.1C501.3,86.3,501.2,86,501.2,85.4z"/>
			<path d="M501.2,43.5c-0.3-1.2,0.3-2.3,1.5-3c1.4-0.9,3-1.5,4.7-0.9c3.5,1.2,4.2,5,2,7.6c-0.7,0.8-1.7,1.2-2.8,1.3
				c-0.7,0.1-1.4,0.1-2.2,0c-0.4-0.1-0.9-0.3-1.2-0.5c-0.4-0.3-0.7-0.7-1-1c-0.7-0.6-1.1-1.2-0.9-2.1
				C501.3,44.4,501.2,44.1,501.2,43.5z"/>
			<path d="M501.2,64.4c-0.3-1.2,0.2-2.3,1.4-3c1.4-0.9,3-1.5,4.7-0.9c3.5,1.2,4.2,5,2,7.6c-0.7,0.8-1.7,1.2-2.8,1.3
				c-0.6,0.1-1.2,0-1.8,0c-0.8,0.1-1.4-0.2-1.9-0.8c-0.2-0.3-0.5-0.5-0.8-0.7c-0.7-0.6-1.1-1.2-1-2.1
				C501.3,65.4,501.2,65,501.2,64.4z"/>
			<path d="M501.2,106.8c0-0.5,0-0.9,0-1.4c0-0.3,0.1-0.7,0.3-1c1-1.2,2.2-2.1,3.9-2.2c1.1,0,2.2-0.1,2.9,0.9
				c0.3,0.5,0.8,0.9,1.3,1.2c1.3,1.1,1.2,2.5,0.8,3.8c-0.9,2.8-3.8,3.9-6.6,2.5c-0.6-0.3-1.2-0.7-1.8-1.1c-0.6-0.4-0.9-1.1-0.8-1.8
				C501.3,107.5,501.2,107.1,501.2,106.8L501.2,106.8z"/>
			<path d="M501.3,128.2c-0.1-1.1,0.1-1.9,0.6-2.8c1.2-2.2,3.2-2.7,5.6-1.7c1.7,0.7,2.4,2.1,3.1,3.5c0.1,0.3,0.1,0.8,0,1
				c-0.5,0.9-0.9,1.8-1.7,2.6c-1.3,1.5-3.1,1.9-5.4,0.7c-0.1,0-0.2,0-0.3-0.1C501.9,130.7,500.9,129.7,501.3,128.2z"/>
			<path d="M495,38c-1.5-0.1-3-0.5-4-2.3c-1-1.9-0.6-3.6,0.4-5.2c0.8-1.3,3.3-1.9,4.8-1.2c0.5,0.2,1.1,0.5,1.5,0.8
				c2.3,1.7,2.5,4.1,0.6,6.2c-0.3,0.3-0.7,0.7-1,1C496.5,37.9,496.5,37.9,495,38z"/>
			<path d="M495.2,59c-2.2-0.2-3.7-1-4.5-2.9c-0.7-1.8-0.2-3.4,0.9-4.8c1-1.3,3.1-1.5,4.8-0.9c1.8,0.6,2.5,2,3.2,3.5
				c0.2,0.4,0.1,0.9-0.1,1.3c-0.5,1.5-1.6,2.6-2.8,3.5C496.4,58.9,495.7,58.9,495.2,59z"/>
			<path d="M494.4,70.8c1.6,0,2.6,0.7,3.7,1.5c0.9,0.7,1.2,1.7,1.7,2.6c0.1,0.3,0.1,0.7,0,1c-0.8,1.4-1.5,2.8-3.2,3.5
				c-1.4,0.6-2.4,0.6-3.7-0.1c-2-1.1-2.9-3.5-2.2-5.5C491.3,71.9,492.7,71.1,494.4,70.8z"/>
			<path d="M490.4,96.2c-0.2-1.2,0.6-2.2,1.2-3.1c0.2-0.3,0.5-0.4,0.8-0.6c0.2-0.1,0.5,0,0.7-0.1c0.9-0.2,1.6-1.1,2.7-0.5
				c1.2,0.7,2.6,1.2,3.2,2.6c0.2,0.4,0.5,0.8,0.6,1.2c0.1,0.3,0.1,0.7,0,1c-0.6,2-2,3.3-4,4c-1.1,0.4-3.5-0.4-4.2-1.4
				C490.9,98.5,490.2,97.5,490.4,96.2z"/>
			<path d="M490.4,117.2c-0.1-0.9,0.1-1.6,0.8-2.2c0.3-0.2,0.5-0.5,0.8-0.7c2.7-2.4,4.5-1.8,6.8,0.8c0.4,0.4,0.6,1,0.8,1.5
				c0.1,0.3,0.2,0.7,0.1,1c-0.7,2.2-2.2,3.5-4.4,4.1c-1.2,0.3-3.5-0.6-4-1.7C490.9,119.2,490.1,118.3,490.4,117.2z"/>
			<path d="M499.1,138.4c-0.1,0.8,0.2,1.6-0.4,2.3c-0.8,1-2,1.6-3.2,2c-0.3,0.1-0.7,0-1-0.1c-1.5-0.5-2.6-1.6-3.6-2.7
				c-0.6-0.7-0.5-2.9,0.2-3.6c0.5-0.5,0.9-1.1,1.5-1.5c0.8-0.5,1.7-1.1,2.5-1.1c1,0,2,0.6,2.8,1.2c0.8,0.5,1.5,1.2,1.2,2.3
				C499,137.7,499.1,138,499.1,138.4z"/>
			<path d="M488.2,44.1c0,2.4-0.3,2.8-3.1,3.7c-0.9,0.9-1.6,0.4-2.5,0c-1.1-0.5-1.8-1.4-2.7-2.3c-0.5-0.5-0.5-2.7,0-3.3
				c1-1.1,2-2.2,3.7-2.4c1.5-0.2,4.3,0.9,4.6,2.2C488.4,42.7,488.2,43.4,488.2,44.1z"/>
			<path d="M485,19.1c0.1,0,0.9-0.1,1.5,0.2c1,0.6,1.9,1.4,1.8,2.8c-0.1,0.6-0.1,1.2,0,1.7c0.2,1.1-0.5,1.8-1.2,2.3
				c-0.9,0.5-1.9,0.8-2.8,1.2c-0.1,0-0.2,0-0.3,0c-1.8-0.6-3.3-1.6-4-3.2c-0.5-1.1-0.6-2.5,0.6-3.5c0.3-0.2,0.5-0.5,0.8-0.7
				c0.6-0.7,1.3-1,2.2-0.9C483.7,19.1,484.1,19.1,485,19.1z"/>
			<path d="M488.3,65.2c0,2.3-0.5,2.6-2.9,3.6c-1.5,0.7-2.4,0.1-3.5-0.4c-0.5-0.3-0.9-0.8-1.3-1.2c-1.3-1.3-1.4-3.3,0-4.6
				c0.3-0.3,0.7-0.6,1-1c0.4-0.5,1-0.6,1.6-0.6s1.2,0,1.8,0c2.2,0,3.3,1.1,3.3,3.1C488.3,64.5,488.3,64.8,488.3,65.2z"/>
			<path d="M488.3,86c-0.1,0.8,0.2,1.6-0.5,2.3c-0.8,0.8-1.5,1.6-2.7,1.3c-0.2,0-0.5,0-0.7,0c-0.8-0.1-1.7,0-2.4-0.3
				c-1.2-0.6-1.7-1.9-2.2-3c-0.1-0.3-0.1-0.8,0-1c0.4-0.8,0.9-1.6,1.5-2.3c0.5-0.7,1.2-1.1,2.2-1c0.5,0,1,0,1.4,0
				c2.4,0,3.5,1,3.5,3.4C488.3,85.6,488.3,85.8,488.3,86z"/>
			<path d="M483.9,110.6c-0.6,0-1.5,0.2-2.2-0.5c-1-0.9-1.5-2-2-3.2c-0.1-0.2-0.1-0.5,0-0.7c0.1-0.3,0.4-0.6,0.5-0.9
				c1-2.8,3.3-3,6.1-2c0.9,0.3,1.2,0.9,1.6,1.6c0.7,1.2,0.5,2.5,0.2,3.7c-0.2,0.9-1.1,1.8-2.3,1.9
				C485.2,110.7,484.6,110.6,483.9,110.6z"/>
			<path d="M483.9,131.6c-0.5,0-1.4,0.2-2.1-0.4c-1-0.8-1.7-1.9-2.1-3.2c-0.1-0.3,0-0.7,0.1-1s0.3-0.6,0.5-0.9
				c1.3-2.6,2.7-2.5,5.7-1.9c1.2,0.2,1.7,1.2,2.1,2.2c0.6,1.8,0,3.4-1.2,4.8c-0.2,0.2-0.6,0.4-0.9,0.4
				C485.3,131.6,484.8,131.6,483.9,131.6z"/>
			<path d="M473,58.2c-1.6,0.4-2.5-0.5-3.3-1.6c-0.4-0.7-0.8-1.5-0.9-2.2c-0.1-1.8,2-3.8,3.8-3.8c0.4,0,0.7,0,1.1,0
				c0.8,0,1.4,0.1,1.9,0.7c0.3,0.3,0.7,0.7,1,1c1.2,1.2,1.1,3.1,0,4.3c-0.1,0.1-0.2,0.2-0.2,0.2C475.5,57.9,474.5,58.6,473,58.2z"/>
			<path d="M483.8,152.5c-1.4,0.4-2.3-0.4-3-1.4c-1.4-1.8-1.4-3.1,0.1-5c0.7-0.8,1.4-1.6,2.7-1.3c0.5,0.1,1,0,1.4,0
				c1.5,0.1,2.2,1.3,3,2.3c0.7,0.8,0.4,2,0.1,3c-0.1,0.4-0.6,0.7-0.9,1C486.3,152.3,485.2,152.9,483.8,152.5z"/>
			<path d="M473.1,79.1c-1.5,0.3-2.5-0.5-3.3-1.6c-0.3-0.5-0.6-1-0.8-1.5c-0.1-0.4-0.2-1,0-1.3c0.3-0.7,0.8-1.4,1.2-2.1
				c0.6-0.8,1.3-1.3,2.4-1.2c0.5,0.1,1,0,1.4,0c0.7,0,1.1,0.2,1.6,0.7c0.3,0.3,0.7,0.7,1,1c1.2,1.2,1.2,3.2,0,4.3
				c-0.2,0.2-0.4,0.3-0.5,0.5C475.4,79,474.3,79.4,473.1,79.1z"/>
			<path d="M472.8,37.2c-1.3,0.3-2.3-0.6-3-1.7c-1.2-1.7-1.2-2.7,0-4.4c0.1-0.2,0.3-0.4,0.5-0.5c0.7-0.7,1.3-1.3,2.5-1.1
				c0.3,0.1,0.7,0,1.1,0c0.8,0,1.4,0.1,1.9,0.7c0.3,0.3,0.7,0.7,1,1c1.2,1.2,1.2,3.1,0,4.3c-0.1,0.1-0.2,0.2-0.2,0.2
				C474.6,37.6,475.1,37.2,472.8,37.2z"/>
			<path d="M473.1,100.1c-1.8,0.4-2.8-0.6-3.5-1.9c-0.3-0.6-1.2-1.2-0.5-2.2s0.3-2.5,2-3c0.9-0.2,1.7-0.7,2.7-0.6
				c0.8,0,1.4,0.2,1.9,0.7c0.2,0.3,0.5,0.5,0.8,0.7c1.5,1.5,1.4,3.3,0,4.8C475.5,99.7,474.5,100.5,473.1,100.1z"/>
			<path d="M477.4,117.2c0.2,1.1-0.2,1.7-0.8,2.4c-1.5,1.7-2.7,2.3-5.7,0.9c-1-0.5-1.4-1.2-1.3-2.2c0-0.3,0-0.7,0-1
				c0-2.5,1.1-3.5,3.6-3.7c1.3-0.1,2.3,0.3,3.1,1.2C477,115.5,477.9,116.1,477.4,117.2z"/>
			<path d="M469.5,138.5c-0.3-1.9,1.1-2.9,2.5-3.8c0.9-0.6,2.2-0.5,3.1,0c1.5,0.9,2.3,2.3,2.4,4c0,0.4-0.2,0.9-0.4,1.3
				c-0.2,0.3-0.5,0.5-0.7,0.8c-1.7,1.7-2.7,1.7-5.1,0.8c-1.4-0.5-1.8-1.3-1.7-2.6C469.6,138.8,469.5,138.6,469.5,138.5z"/>
			<path d="M458.8,43.6c-0.2-0.9,0.3-1.5,1-2.1c1.8-1.8,2.8-1.9,5-0.8c1.2,0.6,1.5,1.7,1.9,2.8c0.3,0.7-0.3,1.3-0.6,1.9
				c-0.1,0.2-0.1,0.5-0.3,0.6c-1.1,1.6-2.8,2-4.7,1.4C459.4,46.9,458.6,45.2,458.8,43.6z"/>
			<path d="M462.8,26.8c-2.1,0.2-4.2-1.4-4-4.1c0.1-1.7,2.1-3.7,3.7-3.6c2.1,0.1,4.3,2.2,4.3,3.9C466.6,24.8,464.6,26.8,462.8,26.8z
				"/>
			<path d="M462.5,68.7c-0.8,0.1-1.4-0.1-1.9-0.7c-0.3-0.3-0.7-0.7-1-1c-1.2-1.2-1.2-3.2,0-4.3c0.2-0.2,0.5-0.5,0.8-0.7
				c1.5-1.5,4.3-1.1,5.5,0.7c0.3,0.5,0.5,1,0.8,1.5c0.1,0.2,0.2,0.5,0.1,0.7c-0.3,1.2-0.9,2.3-1.9,3.2
				C464.1,68.8,463.3,68.7,462.5,68.7z"/>
			<path d="M469.5,159.1c0-1.8,2-3.8,3.5-3.7c2.3,0,4.6,2.2,4.4,4c-0.3,2-2.4,3.6-4.4,3.7c-1.1,0-1.6-0.8-2.3-1.4
				C469.8,161,469.4,160.1,469.5,159.1z"/>
			<path d="M458.7,86c0-1.9,1.9-4,3.4-4c2.1,0,4.7,2.1,4.5,3.9c-0.1,1.9-2.2,3.7-4.3,3.8c-1,0.1-1.5-0.4-2.1-1
				C459.4,87.8,458.4,87.1,458.7,86z"/>
			<path d="M458.8,106.6c-0.2-0.9,0.3-1.5,0.9-2.1c0.9-0.8,1.9-1.5,3.1-1.5c1.8,0,4,2.3,3.9,3.9c-0.1,1.9-2.2,3.7-4.4,3.8
				c-1,0-1.5-0.5-2.1-1.1C458.4,107.8,458.8,108.3,458.8,106.6z"/>
			<path d="M462.8,123.9c1,0.3,2.1,0.7,2.9,1.6c0.4,0.5,0.7,1.2,0.9,1.8c0.1,0.3,0.1,0.7,0,1c-0.6,1.6-1.7,2.7-3.4,3.2
				c-0.3,0.1-0.8,0.1-1.1,0c-0.7-0.2-1.3-0.6-1.9-1c-1.3-0.9-1.9-2.4-1.5-3.9c0-0.1,0.1-0.2,0.1-0.3
				C459.8,125,461.1,124.4,462.8,123.9z"/>
			<path d="M455.2,54.6c0,1,0.2,1.8-0.5,2.3c-0.8,0.5-1.6,0.9-2.5,1.3c-0.2,0.1-0.5,0.1-0.7,0c-0.9-0.5-1.9-0.8-2.7-1.5
				c-1.2-1.2-1.2-3.4,0.1-4.6c1.9-1.7,3.2-1.7,5.2-0.1C455.1,52.8,455.3,53.8,455.2,54.6z"/>
			<path d="M465.8,148.5c0.4,2.2-0.3,3.2-1.8,3.6c-0.2,0.1-0.4,0.3-0.6,0.3c-0.5,0.1-1,0.2-1.4,0c-0.8-0.3-1.4-0.8-2.1-1.2
				c-1.7-1-1.7-4,0-5c0.7-0.4,1.4-0.8,2.1-1.2c0.2-0.1,0.5-0.1,0.7,0c1,0.6,2.1,1,2.9,1.9C466.2,147.7,465.8,148.5,465.8,148.5z"/>
			<path d="M455.2,34c0,0.7,0.2,1.4-0.5,1.9c-0.8,0.7-1.8,1.3-2.8,1.2c-1.3-0.1-2.4-0.8-3.3-1.8c-0.8-0.8-0.5-1.7-0.6-2.6
				c-0.1-0.8,0.4-1.3,1-1.8c1.9-1.7,3.2-1.8,5.2-0.2C455.1,31.8,455.2,32,455.2,34z"/>
			<path d="M455.1,75.3c0.3,1.2-0.5,2-1.3,2.6c-0.5,0.4-1.2,0.7-1.8,1c-0.2,0.1-0.5,0.2-0.7,0.1c-0.9-0.6-2.1-0.7-2.6-1.7
				c-0.3-0.8-1.2-1.6-0.8-2.5c0.6-1.1,0.8-2.3,2.4-2.8c0.8-0.2,1.4-0.6,2.2,0c0.3,0.3,0.9,0.4,1.2,0.7
				C454.7,73.4,455.4,74.1,455.1,75.3z"/>
			<path d="M451.5,93.1c0.7,0.1,1.5,0.1,2,0.4c1.3,0.7,2.2,2.9,1.5,4.2c-0.4,0.7-1,1.2-1.7,1.7c-0.5,0.4-1.4,0.8-1.9,0.7
				c-1-0.3-2-0.6-2.6-1.6c-0.2-0.4-0.4-0.8-0.6-1.2c-0.3-0.5-0.3-1.1,0-1.6c0-0.1,0.2-0.2,0.2-0.3C448.8,93.8,449.7,92.8,451.5,93.1
				z"/>
			<path d="M451.5,120.4c-0.4,0-0.7,0-1.1,0c-0.8,0-1.3-0.5-1.7-1.1c-0.2-0.4-0.4-0.8-0.6-1.2c-0.3-0.5-0.3-1.1,0-1.6s0.5-1,0.8-1.5
				s0.8-0.8,1.5-0.8c0.6,0,1.2,0,1.8,0c1.6,0,2.9,1.2,3,2.8C455.2,119.3,454.1,120.4,451.5,120.4z"/>
			<path d="M452.1,141.4c-1,0-1.3,0-1.7,0c-0.7,0-1.1-0.3-1.5-0.8c-0.4-0.6-0.7-1.2-0.9-1.8c-0.1-0.4,0-1,0.2-1.3
				c0.5-0.7,1.1-1.2,1.7-1.8c1.4-1.2,4.4-0.5,5.1,1.2c0.6,1.4-0.1,3.5-1.5,4.2C452.9,141.4,452.2,141.4,452.1,141.4z"/>
			<path d="M441.1,61.7c1.5,0,3,1,3.2,2.2c0.3,1.6-0.3,3.2-1.6,3.9c-1,0.5-3.1,0.2-3.9-0.7c-1.7-2-1.7-2.5-0.1-4.4
				C439.4,61.8,439.7,61.7,441.1,61.7z"/>
			<path d="M444.3,23.2c0,1.6-1.3,2.8-2.9,2.9c-2,0.1-3.1-0.7-3.9-2.8c-0.1-0.2-0.1-0.4-0.1-0.6c0.5-1.1,1-2.2,2.1-2.7
				c1.9-0.8,4.5-0.1,4.8,2.5C444.4,22.7,444.3,23,444.3,23.2z"/>
			<path d="M441,47c-1.7,0.1-2.5-1-3.2-2.2c-0.4-0.7-0.5-1.2,0-1.8c0.4-0.5,0.7-0.9,1-1.4c1-1.4,4.4-1.4,5.4,1
				C445,44.7,443.7,47.3,441,47z"/>
			<path d="M455.2,159.3c0,2-1.2,3.1-3.4,3c-1.8,0-3-1.2-3-3.1c0-2,1.2-3.2,3.2-3.2C454,156.1,455.2,157.3,455.2,159.3z"/>
			<path d="M441.4,82.7c1.9,0,3,1.4,3,3.5c-0.1,1.8-1.5,2.9-3.7,2.8c-1.7-0.1-2.8-1.4-2.8-3.3C437.9,83.7,439.2,82.6,441.4,82.7z"/>
			<path d="M440.9,109.9c-1.8,0-3-1.2-3-3.1c0-0.5-0.1-1,0.1-1.4c0.6-0.8,1.2-1.8,2.4-1.8c1.4,0,2.5,0.3,3.3,1.6
				c0.9,1.6,0.7,2.9-0.7,4.3C442.3,110.1,441.6,109.9,440.9,109.9z"/>
			<path d="M437.9,127.5c0-1.7,1.5-3,3.2-2.9c0.4,0,0.9,0.2,1.3,0.5c0.4,0.2,0.7,0.6,1,1c1.6,1.5,1.2,3.3-0.8,4.3
				c-1.8,0.9-2.8,0.7-4-0.7C437.8,129.1,437.8,128.9,437.9,127.5z"/>
			<path d="M441.3,145.6c0.2,0.1,0.5,0.1,0.7,0.2c0.6,0.5,1.2,1.1,1.8,1.7c0.8,0.8,0.8,1.7,0,2.4c-0.5,0.5-1,1-1.5,1.5
				c-0.8,0.7-2.3,0.7-3.2-0.1c-1.2-1-1.7-2.7-1.1-4C438.4,146.5,440.4,145.5,441.3,145.6z"/>
			<path d="M427.1,33.3c-0.1-1.2,0.3-1.9,1.4-2.3c0.4-0.2,0.8-0.5,1.3-0.6c0.4-0.1,1.1-0.1,1.4,0.1c3.2,2.6,3.4,3,0.5,5.6
				c-0.6,0.5-1.2,0.6-2,0.3c-0.2-0.1-0.4-0.3-0.6-0.4C427.4,35.6,426.8,34.6,427.1,33.3z"/>
			<path d="M427.1,54.3c-0.1-1.2,0.3-1.9,1.3-2.3c0.4-0.2,0.8-0.5,1.3-0.6c0.6-0.2,1.2-0.2,1.7,0.2c3,2.7,3,3,0,5.6
				c-0.5,0.4-1.1,0.4-1.7,0.2c-0.2-0.1-0.4-0.3-0.6-0.4C427.5,56.6,426.8,55.7,427.1,54.3z"/>
			<path d="M430.2,72.1c0.4,0.1,0.8,0.2,1,0.4c0.7,0.6,1.4,1.3,2,2c0.4,0.5,0.4,1.4-0.1,1.9c-0.6,0.6-1.2,1.2-1.8,1.7
				c-0.5,0.5-1.1,0.5-1.7,0.3c-0.6-0.2-1.1-0.5-1.6-0.8c-0.6-0.4-1.1-0.9-1.1-1.7c0-0.3,0-0.7,0-1c-0.1-1,0.4-1.5,1.2-1.9
				C428.9,72.6,429.6,72.4,430.2,72.1z"/>
			<path d="M432.8,96.4c0.2,1.5-0.8,2.2-1.8,2.9c-0.2,0.2-0.7,0.2-1,0.1s-0.6-0.3-1-0.4c-1-0.4-2-0.8-2-2.1c0-1.5,0.6-2.6,2-3.3
				c0.6-0.3,1-0.5,1.6-0.1c0.1,0.1,0.2,0.2,0.3,0.2C432.5,94.1,433.1,95.1,432.8,96.4z"/>
			<path d="M432.8,117.4c0.1,1.2-0.4,2-1.6,2.3c-0.5,0.2-1,0.9-1.6,0.5c-0.9-0.7-1.7-1.6-2.5-2.5c-0.2-0.2-0.2-0.8,0-1
				c0.8-0.9,1.6-1.7,2.4-2.5c0.1-0.1,0.2-0.1,0.3-0.1c1.1-0.1,2.9,1.4,2.9,2.5C432.8,117,432.8,117.2,432.8,117.4z"/>
			<path d="M432.8,138.6c0,0.1,0,0.6-0.2,1c-0.1,0.3-0.4,0.6-0.7,0.8c-1.7,1-4.3,0-4.9-1.8c-0.1-0.2-0.1-0.5,0-0.7
				c0.3-1,1.6-2,2.5-2.1c0.3,0,0.7,0,1.1,0c1.5,0,2.1,0.6,2.1,2.1C432.8,138,432.8,138.1,432.8,138.6z"/>
			<path d="M432.8,159.3c0,0.3,0,0.7,0,1c-0.1,0.6-0.8,1.3-1.5,1.3c-0.6,0-1.2,0-1.8,0c-1-0.1-1.7-0.7-1.8-1.8c0-0.5,0-0.9,0-1.4
				c0.1-1,0.8-1.6,1.8-1.7c0.4,0,0.7,0,1.1,0c1.5,0,2.1,0.7,2.1,2.2C432.8,159.1,432.8,159.2,432.8,159.3L432.8,159.3z"/>
			<path d="M420.1,62.4c-0.2,0,0.3-0.1,0.7,0.1s0.9,0.6,1,0.9c0.2,0.9,0.2,1.8,0,2.7c0,0.4-0.6,0.9-0.9,0.9c-0.9,0.2-1.9,0.2-2.8,0
				c-0.4,0-0.9-0.5-1-0.9c-0.2-0.9-0.2-1.8,0-2.7c0.1-0.4,0.8-0.8,1.3-1.1C418.7,62.3,419.1,62.4,420.1,62.4z"/>
			<path d="M417,22.7c0-0.2,0-0.5,0-0.7c0.1-0.6,0.8-1.4,1.3-1.5c2.9-0.2,4,0.1,3.7,3.4c0,0.1,0,0.2-0.1,0.3
				c-0.2,0.8-1.2,1.2-2.7,1.2c-1.1,0-2.1-0.6-2.2-1.3c0-0.1,0-0.2,0-0.3C417,23.3,417,23,417,22.7L417,22.7z"/>
			<path d="M422,43.9c0,0.5,0.1,0.9-0.1,1.2c-0.3,0.5-0.8,1.1-1.2,1.2c-2.6,0.3-4.1,0.2-3.7-3.2c0.1-0.8,0.8-1.5,1.6-1.5
				c0.2,0,0.5,0,0.7,0C421.3,41.2,422.2,42.2,422,43.9z"/>
			<path d="M418.8,130.2c-1.1-0.1-1.8-0.7-1.9-1.7c0-0.3,0-0.7,0-1c-0.1-0.9,0.2-1.7,1-2c1-0.4,2.1-0.4,2.9,0.5
				c0.3,0.3,0.7,0.7,0.9,1s0.2,0.7,0.2,1C421.7,129.3,420.2,130.3,418.8,130.2z"/>
			<path d="M417,106.7c0-0.1,0-0.2,0-0.3c-0.1-0.8,0.2-1.4,0.9-1.8c0.9-0.5,1.8-0.5,2.7,0c0.4,0.2,0.7,0.6,1,1
				c0.7,0.8,0.7,1.6-0.1,2.4c-0.5,0.5-1,1-1.7,1.2C418,109.7,417,108.7,417,106.7z"/>
			<path d="M417,85.9c0-0.1,0-0.2,0-0.3c-0.1-0.9,0.2-1.6,1.1-2c0.9-0.3,1.8-0.4,2.6,0.3c0.4,0.4,0.8,0.8,1.2,1.3
				c0.2,0.2,0.2,0.7,0.1,1c-0.4,1.5-2.4,2.6-3.8,2c-0.5-0.2-0.8-0.8-1.1-1.2C416.9,86.6,417,86.2,417,85.9L417,85.9z"/>
			<path d="M421.3,148.8c0,0.3,0,0.7,0,1c-0.2,1.1-1.9,1.7-2.8,1c-0.5-0.4-0.9-0.8-1.2-1.2c-0.4-0.5-0.4-1.1-0.1-1.6
				c0.4-0.5,0.9-1,1.5-1.5c0.8-0.6,2.4,0,2.6,0.9C421.3,147.9,421.3,148.4,421.3,148.8L421.3,148.8z"/>
			<path d="M410.5,33.4c0,0.3,0,0.7,0,1c-0.2,1.2-1.8,1.8-2.8,1.1c-0.4-0.3-0.7-0.6-1-1c-0.7-0.8-0.7-1.6,0.1-2.4
				c0.2-0.2,0.5-0.5,0.8-0.7c0.6-0.5,1.4-0.7,1.9-0.3c0.6,0.4,1.1,0.9,1.1,1.6C410.5,33,410.5,33.2,410.5,33.4L410.5,33.4z"/>
			<path d="M410.5,54.3c0,0.2,0,0.5,0,0.7c0,0.8-0.6,1.6-1.3,1.8s-1.4-0.1-1.9-0.6c-0.2-0.3-0.5-0.5-0.7-0.8
				c-0.4-0.5-0.5-1.4-0.1-1.9c0.4-0.4,0.8-0.9,1.2-1.2c0.9-0.8,2.6-0.1,2.8,1C410.5,53.6,410.5,53.9,410.5,54.3L410.5,54.3z"/>
			<path d="M410.5,75.4c0,0.3,0,0.7,0,1c-0.2,1.2-1.9,1.7-2.8,1c-0.5-0.4-0.9-0.8-1.2-1.3c-0.4-0.5-0.4-1.1,0-1.6s1-1,1.5-1.5
				c0.2-0.1,0.5-0.2,0.7-0.1C409.8,73.3,410.5,74.1,410.5,75.4z"/>
			<path d="M408.3,94.6c1.7,0,2.5,1.2,2.1,2.8c-0.2,0.7-0.9,0.6-1.4,1c-0.5,0.5-1.1,0.4-1.6-0.1c-0.2-0.2-0.5-0.5-0.8-0.7
				c-0.6-0.5-0.8-1.2-0.4-1.9c0.3-0.7,0.8-1.1,1.7-1.1C408.1,94.6,408.2,94.6,408.3,94.6z"/>
			<path d="M407.9,119c-0.3-0.2-0.8-0.3-1.2-0.7c-0.6-0.6-0.6-1.5,0-2.2c0.8-0.8,2.3-0.9,3.2-0.2c0.5,0.4,0.8,0.9,0.7,1.5
				s-0.7,1.4-1.3,1.5C408.9,119,408.5,119,407.9,119z"/>
			<path d="M399.7,64.8c0,0.9-0.8,1.8-1.7,1.8c-1,0-1.8-0.7-1.8-1.7c0-0.9,0.8-1.8,1.7-1.8C398.8,63.1,399.6,63.8,399.7,64.8z"/>
			<path d="M408.8,140c-0.9,0.1-1.8-0.6-1.9-1.6c-0.1-0.9,0.7-1.8,1.6-1.9c0.9-0.1,1.8,0.6,1.9,1.6C410.6,139,409.8,139.9,408.8,140
				z"/>
			<path d="M410.5,159c0.1,0.9-0.6,1.8-1.6,1.9c-1,0.1-1.9-0.6-2-1.5s0.6-1.8,1.6-1.9C409.4,157.4,410.4,158.1,410.5,159z"/>
			<path d="M398.1,24.6c-1,0.1-1.9-0.6-2-1.5s0.6-1.8,1.6-1.9c0.9-0.1,1.9,0.6,2,1.5C399.8,23.6,399,24.5,398.1,24.6z"/>
			<path d="M397.8,42.1c1,0,1.8,0.7,1.8,1.7c0,0.9-0.8,1.8-1.7,1.8c-1,0-1.8-0.7-1.9-1.7C396,43,396.8,42.2,397.8,42.1z"/>
			<path d="M399.6,86.4c-0.1,0.6-1.2,1.3-1.9,1.2c-1-0.1-1.7-1-1.6-1.8c0.1-1,0.9-1.6,1.9-1.6c0.1,0,0.2,0,0.3,0
				C398.7,84.3,399.7,85.9,399.6,86.4z"/>
			<path d="M399,106.7c0.1,0.8-0.6,1.7-1.3,1.8c-0.6,0.1-1.5-0.7-1.6-1.5c-0.1-0.7,0.6-1.7,1.3-1.8C398,105,398.9,105.8,399,106.7z"
				/>
			<path d="M399,127.8c0,0.7-0.4,1.1-1,1c-0.4-0.1-0.9-0.3-1.2-0.5c-0.4-0.3-0.4-0.8,0-1.1c0.4-0.2,0.8-0.4,1.2-0.5
				C398.6,126.6,399,127.1,399,127.8z"/>
			<path d="M398.9,148.6c0.1,0.7-0.2,1.1-0.9,1.1c-0.7,0.1-1.1-0.2-1.2-0.9c-0.1-0.7,0.2-1.1,0.9-1.1
				C398.5,147.6,398.9,148,398.9,148.6z"/>
			<path d="M386.9,32.2c0.4,0.5,0.8,0.8,1,1.3c0.1,0.3-0.9,0.9-1.3,0.8c-0.4-0.1-0.7-0.8-0.5-1.4C386.2,32.7,386.5,32.5,386.9,32.2z
				"/>
			<path d="M386.6,53.4c0.4,0,1.3,0.6,1.3,0.9c0,0.3-0.7,0.9-1.2,1c-0.4,0.1-0.7-0.3-0.8-0.9C386,53.8,386.2,53.5,386.6,53.4z"/>
			<path d="M386.9,158c0.4,0.5,0.8,0.8,1,1.3c0.1,0.3-0.9,0.9-1.3,0.8c-0.4-0.1-0.7-0.8-0.5-1.4C386.2,158.5,386.5,158.4,386.9,158z
				"/>
		</g>
		<g class="st3">
			<path class="st4" d="M23,82.3c-1.4-0.9-3-1.5-4.7-0.9c-3.5,1.2-4.1,5.1-2,7.6c0.7,0.8,1.7,1.2,2.8,1.3c0.6,0.1,1.2,0,1.8,0
				s1.2-0.1,1.6-0.6c0.3-0.3,0.7-0.7,1-1c0.7-0.6,1-1.3,0.9-2.1c0-0.3,0-0.7,0-1.3C24.8,84.2,24.1,83.1,23,82.3z"/>
			<path class="st4" d="M19.1,48.4c0.7,0.1,1.4,0.1,2.1,0c0.4-0.1,0.9-0.3,1.2-0.5c0.4-0.3,0.7-0.7,1-1c0.7-0.6,1.1-1.2,0.9-2.1
				c-0.1-0.3,0-0.7,0-1.3c0.3-1.2-0.3-2.3-1.4-3c-1.4-0.9-3-1.5-4.7-0.9c-3.5,1.2-4.2,5-2,7.6C17,47.9,18,48.3,19.1,48.4z"/>
			<path class="st4" d="M19.1,69.4c0.6,0.1,1.2,0,1.8,0c0.8,0.1,1.4-0.2,1.9-0.8c0.2-0.3,0.5-0.5,0.8-0.7c0.7-0.6,1.1-1.2,0.9-2.1
				c-0.1-0.3,0-0.7,0-1.3c0.3-1.2-0.2-2.3-1.4-3c-1.4-0.9-3-1.5-4.7-0.9c-3.5,1.2-4.2,5-2.1,7.6C16.9,68.9,18,69.2,19.1,69.4z"/>
			<path class="st4" d="M21.9,110.8c0.6-0.3,1.2-0.7,1.8-1.1c0.6-0.4,0.9-1.1,0.8-1.8c0-0.3,0-0.7,0-1l0,0c0-0.5,0-0.9,0-1.4
				c0-0.3-0.1-0.7-0.3-1c-1-1.2-2.2-2.1-3.9-2.2c-1.1,0-2.1-0.1-2.9,0.9c-0.4,0.5-0.8,0.9-1.3,1.2c-1.3,1.1-1.2,2.5-0.8,3.8
				C16.2,111,19.1,112.1,21.9,110.8z"/>
			<path class="st4" d="M23.8,125.5c-1.2-2.2-3.2-2.7-5.6-1.7c-1.7,0.7-2.4,2.1-3.1,3.5c-0.1,0.3-0.1,0.8,0.1,1
				c0.6,0.9,0.9,1.8,1.7,2.6c1.3,1.5,3.1,1.9,5.4,0.7c0.1,0,0.2,0,0.3-0.1c1.2-0.8,2.2-1.8,1.8-3.3
				C24.5,127.2,24.3,126.3,23.8,125.5z"/>
			<path class="st4" d="M28.4,37.2c0.8,0.7,0.8,0.7,2.2,0.7c1.5-0.1,3-0.5,4-2.3c1-1.9,0.6-3.6-0.4-5.2c-0.9-1.3-3.3-1.9-4.8-1.2
				c-0.5,0.2-1.1,0.5-1.5,0.8c-2.3,1.7-2.5,4.1-0.6,6.2C27.7,36.6,28.1,36.9,28.4,37.2z"/>
			<path class="st4" d="M28.9,58.6c0.4,0.3,1.1,0.3,1.5,0.4c2.2-0.2,3.7-1,4.5-2.9c0.7-1.8,0.2-3.4-0.9-4.8c-1-1.3-3.1-1.5-4.8-0.9
				c-1.8,0.6-2.5,2-3.2,3.5c-0.2,0.4-0.1,0.9,0.1,1.3C26.6,56.6,27.7,57.7,28.9,58.6z"/>
			<path class="st4" d="M29.2,79.4c1.4,0.6,2.4,0.6,3.7-0.1c1.9-1.1,2.9-3.5,2.2-5.5c-0.7-1.9-2.1-2.7-3.8-3c-1.6,0-2.6,0.7-3.7,1.5
				C26.7,73,26.4,74,26,74.9c-0.1,0.3-0.1,0.7,0,1C26.7,77.3,27.4,78.7,29.2,79.4z"/>
			<path class="st4" d="M30,100.8c1.1,0.4,3.5-0.4,4.2-1.4c0.6-0.9,1.3-1.9,1.1-3.2c0.2-1.2-0.6-2.2-1.2-3.1
				c-0.2-0.3-0.5-0.4-0.9-0.6c-0.2-0.1-0.5,0-0.7-0.1c-0.9-0.2-1.6-1.1-2.6-0.5c-1.2,0.7-2.6,1.2-3.2,2.6c-0.2,0.4-0.5,0.8-0.6,1.2
				c-0.1,0.3-0.1,0.7,0,1C26.6,98.8,28,100.1,30,100.8z"/>
			<path class="st4" d="M34.4,115c-0.3-0.2-0.5-0.5-0.8-0.7c-2.7-2.4-4.5-1.8-6.8,0.8c-0.4,0.4-0.6,1-0.8,1.5
				c-0.1,0.3-0.2,0.7-0.1,1c0.7,2.2,2.2,3.5,4.4,4.1c1.2,0.3,3.4-0.6,4-1.7c0.5-0.9,1.2-1.8,0.9-2.9C35.4,116.3,35.1,115.6,34.4,115
				z"/>
			<path class="st4" d="M33.2,134.9c-0.8-0.5-1.7-1.1-2.5-1.1c-1,0-2,0.6-2.9,1.2c-0.8,0.5-1.5,1.2-1.2,2.3c0.1,0.3,0,0.7,0,1.1
				c0.1,0.8-0.2,1.6,0.4,2.3c0.8,1,2,1.6,3.2,2c0.3,0.1,0.7,0,1-0.1c1.5-0.5,2.6-1.6,3.6-2.7c0.6-0.7,0.5-2.9-0.1-3.6
				C34.3,135.9,33.8,135.3,33.2,134.9z"/>
			<path class="st4" d="M40.6,47.8c0.9,0.9,1.6,0.4,2.5,0c1.1-0.5,1.9-1.4,2.6-2.3c0.5-0.5,0.5-2.7,0-3.3c-1-1.1-2-2.2-3.7-2.4
				c-1.5-0.2-4.3,0.9-4.6,2.2c-0.1,0.7,0,1.4,0,2.1C37.4,46.5,37.7,46.9,40.6,47.8z"/>
			<path class="st4" d="M45.2,20.7c-0.3-0.2-0.5-0.5-0.8-0.7c-0.6-0.7-1.3-1-2.2-0.9c-0.4,0-0.7,0-1.6,0c-0.1,0-0.9-0.1-1.5,0.2
				c-1,0.6-1.9,1.4-1.8,2.8c0.1,0.6,0.1,1.2,0,1.7c-0.2,1.1,0.4,1.8,1.2,2.3c0.9,0.5,1.9,0.8,2.8,1.2c0.1,0,0.2,0,0.4,0
				c1.8-0.6,3.3-1.6,4-3.2C46.4,23.2,46.5,21.7,45.2,20.7z"/>
			<path class="st4" d="M44.1,61.6c-0.4-0.5-1-0.6-1.6-0.6s-1.2,0-1.8,0c-2.1,0-3.3,1.1-3.3,3.1c0,0.3,0,0.7,0,1
				c0,2.3,0.5,2.6,2.9,3.6c1.5,0.7,2.4,0.1,3.5-0.4c0.5-0.3,0.9-0.8,1.3-1.2c1.3-1.3,1.4-3.3,0.1-4.6C44.8,62.2,44.5,61.9,44.1,61.6
				z"/>
			<path class="st4" d="M44.5,82.9c-0.5-0.7-1.2-1.1-2.2-1c-0.5,0-1,0-1.4,0c-2.4,0-3.5,1-3.5,3.4c0,0.2,0,0.5,0,0.7
				c0.1,0.8-0.2,1.6,0.5,2.3c0.8,0.8,1.4,1.6,2.7,1.3c0.2,0,0.5,0,0.7,0c0.8-0.1,1.7,0,2.4-0.3c1.2-0.6,1.7-1.9,2.2-3
				c0.1-0.3,0.1-0.8,0-1C45.6,84.5,45.1,83.7,44.5,82.9z"/>
			<path class="st4" d="M45.5,105.4c-1-2.8-3.3-3-6.1-2c-0.9,0.3-1.2,0.9-1.6,1.6c-0.7,1.2-0.5,2.5-0.2,3.7c0.2,0.9,1.1,1.8,2.3,1.9
				c0.6,0,1.2,0,2,0c0.6,0,1.4,0.2,2.2-0.5c1-0.9,1.5-2,2-3.2c0.1-0.2,0.1-0.5,0-0.7C45.9,106,45.6,105.8,45.5,105.4z"/>
			<path class="st4" d="M45.4,126.1c-1.3-2.6-2.7-2.5-5.7-1.9c-1.2,0.2-1.7,1.2-2.1,2.2c-0.6,1.8,0,3.4,1.2,4.8
				c0.2,0.2,0.6,0.4,0.9,0.4c0.6,0.1,1.2,0,2.1,0c0.5,0,1.4,0.2,2.1-0.4c1.1-0.8,1.7-1.9,2.1-3.2c0.1-0.3,0-0.7-0.1-1
				C45.8,126.7,45.5,126.4,45.4,126.1z"/>
			<path class="st4" d="M49.3,56.8c0.9,1.1,1.9,1.8,3.4,1.3c1.6,0.4,2.5-0.5,3.3-1.6c0.4-0.7,0.9-1.5,0.9-2.2c0.1-1.8-2-3.8-3.8-3.8
				c-0.4,0-0.7,0-1.1,0c-0.8,0-1.4,0.1-1.9,0.7c-0.3,0.3-0.7,0.7-1,1c-1.1,1.2-1.1,3.1,0,4.3C49.1,56.6,49.2,56.7,49.3,56.8z"/>
			<path class="st4" d="M42.1,144.9c-0.5,0.1-1,0-1.4,0c-1.5,0.1-2.2,1.3-3,2.3c-0.6,0.8-0.4,2-0.1,3c0.1,0.4,0.6,0.7,0.9,1
				c0.9,1.1,2,1.6,3.4,1.3c1.4,0.4,2.3-0.4,3-1.4c1.4-1.8,1.4-3.1-0.1-5C44.2,145.4,43.4,144.6,42.1,144.9z"/>
			<path class="st4" d="M49,77.5c0.2,0.2,0.4,0.3,0.5,0.5c0.8,1,1.8,1.4,3.1,1.2c1.6,0.3,2.5-0.5,3.3-1.6c0.3-0.5,0.6-1,0.8-1.5
				c0.1-0.4,0.2-1,0-1.3c-0.3-0.7-0.7-1.4-1.2-2.1c-0.6-0.8-1.3-1.3-2.4-1.2c-0.5,0.1-0.9,0-1.4,0c-0.7,0-1.1,0.2-1.6,0.7
				c-0.3,0.3-0.7,0.7-1,1C47.9,74.3,47.9,76.3,49,77.5z"/>
			<path class="st4" d="M55.5,30.7c-0.6-0.7-1.4-1.3-2.5-1.1c-0.4,0.1-0.7,0-1.1,0c-0.8,0-1.4,0.1-1.9,0.7c-0.3,0.3-0.7,0.7-1,1
				c-1.2,1.2-1.1,3.1,0,4.3c0.1,0.1,0.2,0.2,0.2,0.2c1.8,1.8,1.3,1.4,3.6,1.4c1.3,0.3,2.3-0.6,3-1.7c1.2-1.7,1.2-2.7,0-4.4
				C55.8,31,55.6,30.8,55.5,30.7z"/>
			<path class="st4" d="M54.6,93.1c-0.9-0.2-1.7-0.7-2.7-0.6c-0.8,0-1.4,0.2-1.9,0.7c-0.2,0.3-0.5,0.5-0.8,0.7
				c-1.5,1.5-1.4,3.3,0,4.8c0.9,1,1.9,1.8,3.3,1.3c1.8,0.4,2.8-0.6,3.5-1.9c0.3-0.6,1.2-1.2,0.5-2.2C55.9,95.1,56.3,93.5,54.6,93.1z
				"/>
			<path class="st4" d="M52.6,113.4c-1.3-0.1-2.3,0.3-3.1,1.2c-0.7,0.8-1.6,1.5-1.2,2.5c-0.1,1.1,0.2,1.7,0.8,2.4
				c1.5,1.7,2.7,2.3,5.7,0.9c1-0.5,1.4-1.2,1.4-2.2c0-0.3,0-0.7,0-1C56.1,114.7,55.1,113.6,52.6,113.4z"/>
			<path class="st4" d="M53.7,134.7c-0.9-0.6-2.1-0.5-3.1,0c-1.5,0.9-2.3,2.3-2.4,4c0,0.4,0.2,0.9,0.4,1.3c0.1,0.3,0.5,0.5,0.7,0.8
				c1.7,1.7,2.7,1.7,5.1,0.8c1.4-0.5,1.8-1.3,1.7-2.6c0-0.1,0-0.2,0-0.4C56.5,136.5,55,135.5,53.7,134.7z"/>
			<path class="st4" d="M60,46.1c1.1,1.6,2.8,2,4.7,1.4c1.6-0.6,2.5-2.3,2.3-3.8c0.2-0.9-0.3-1.5-0.9-2.1c-1.8-1.8-2.8-1.9-5-0.8
				c-1.2,0.6-1.5,1.7-1.9,2.8c-0.3,0.7,0.3,1.3,0.6,1.9C59.8,45.7,59.8,45.9,60,46.1z"/>
			<path class="st4" d="M62.9,26.8c2.1,0.2,4.2-1.4,4.1-4.1c-0.1-1.7-2.1-3.7-3.7-3.6C61.2,19.2,59,21.3,59,23
				C59.1,24.8,61.1,26.8,62.9,26.8z"/>
			<path class="st4" d="M65.4,62c-1.6-1.5-4.3-1.1-5.5,0.7c-0.3,0.5-0.6,1-0.8,1.5C59,64.4,59,64.7,59,64.9c0.3,1.2,0.9,2.3,1.9,3.2
				c0.7,0.7,1.5,0.6,2.3,0.6c0.8,0.1,1.4-0.1,1.9-0.7c0.3-0.3,0.7-0.7,1-1c1.2-1.2,1.2-3.2,0.1-4.3C65.9,62.5,65.7,62.2,65.4,62z"/>
			<path class="st4" d="M52.6,155.4c-2.3,0-4.6,2.2-4.4,4c0.3,2,2.4,3.6,4.4,3.7c1.1,0,1.6-0.8,2.3-1.4c0.9-0.7,1.3-1.6,1.1-2.6
				C56.1,157.4,54.2,155.3,52.6,155.4z"/>
			<path class="st4" d="M66.9,86c0-1.9-1.9-4-3.4-4c-2.1,0-4.6,2.1-4.5,3.9c0.1,1.9,2.2,3.7,4.3,3.8c0.9,0.1,1.5-0.4,2.1-1
				C66.3,87.8,67.3,87.1,66.9,86z"/>
			<path class="st4" d="M66,104.5c-0.9-0.8-1.9-1.5-3.1-1.5c-1.8,0-4,2.3-3.9,3.9c0.1,1.9,2.2,3.7,4.4,3.8c1,0,1.5-0.5,2.1-1.1
				c1.8-1.7,1.4-1.3,1.4-3C67.1,105.7,66.7,105,66,104.5z"/>
			<path class="st4" d="M66.8,126.3c-0.9-1.3-2.2-2-3.9-2.5c-1,0.3-2.1,0.7-2.9,1.6c-0.4,0.5-0.7,1.2-0.9,1.8c-0.1,0.3-0.1,0.7,0,1
				c0.6,1.6,1.7,2.7,3.4,3.2c0.3,0.1,0.8,0.1,1.1,0c0.6-0.2,1.3-0.6,1.9-1c1.3-0.9,1.9-2.4,1.5-3.9
				C66.9,126.6,66.9,126.5,66.8,126.3z"/>
			<path class="st4" d="M71.6,51.9c-1.1,0.8-1.2,1.9-1.1,2.7c0,1-0.2,1.8,0.5,2.3c0.8,0.5,1.6,0.9,2.4,1.3c0.2,0.1,0.5,0.1,0.7,0
				c0.9-0.5,1.9-0.8,2.7-1.5c1.2-1.2,1.2-3.4-0.1-4.6C74.9,50.3,73.6,50.3,71.6,51.9z"/>
			<path class="st4" d="M65.8,146.2c-0.7-0.4-1.4-0.8-2.1-1.2c-0.2-0.1-0.5-0.1-0.7,0c-1,0.6-2.1,1-2.9,1.9
				c-0.6,0.7-0.3,1.5-0.3,1.6c-0.4,2.2,0.3,3.2,1.8,3.6c0.2,0.1,0.4,0.3,0.6,0.3c0.4,0.1,1,0.2,1.4,0c0.8-0.3,1.4-0.8,2.1-1.2
				C67.5,150.2,67.4,147.2,65.8,146.2z"/>
			<path class="st4" d="M71,35.9c0.8,0.7,1.8,1.3,2.8,1.2c1.3-0.1,2.4-0.8,3.3-1.8c0.8-0.8,0.5-1.7,0.6-2.6c0.1-0.8-0.4-1.3-1-1.8
				c-1.9-1.7-3.2-1.8-5.1-0.2c-1,0.9-1.1,1.1-1.1,3.1C70.6,34.7,70.4,35.4,71,35.9z"/>
			<path class="st4" d="M75.3,72c-0.8-0.2-1.4-0.6-2.2,0c-0.4,0.3-0.9,0.4-1.2,0.7c-0.8,0.7-1.6,1.4-1.3,2.6c-0.3,1.2,0.5,2,1.3,2.6
				c0.5,0.4,1.2,0.7,1.8,1c0.2,0.1,0.5,0.2,0.7,0.1c0.9-0.6,2.1-0.7,2.6-1.7c0.3-0.8,1.2-1.6,0.8-2.5C77.1,73.8,76.8,72.5,75.3,72z"
				/>
			<path class="st4" d="M72.4,99.3c0.6,0.4,1.4,0.8,1.9,0.7c0.9-0.3,2.1-0.6,2.6-1.6c0.2-0.4,0.4-0.8,0.6-1.2c0.3-0.5,0.3-1.1,0-1.6
				c-0.1-0.1-0.1-0.2-0.2-0.3c-0.5-1.5-1.4-2.5-3.2-2.2c-0.7,0.1-1.4,0.1-2,0.4c-1.4,0.7-2.1,2.9-1.5,4.2
				C71.1,98.3,71.8,98.9,72.4,99.3z"/>
			<path class="st4" d="M76.7,115c-0.3-0.5-0.8-0.8-1.5-0.8c-0.6,0-1.2,0-1.8,0c-1.6,0-2.9,1.2-2.9,2.8c-0.1,2.4,1,3.5,3.6,3.5
				c0.4,0,0.7,0,1.1,0c0.8,0,1.3-0.5,1.7-1.1c0.2-0.4,0.4-0.8,0.6-1.2c0.3-0.5,0.3-1.1,0-1.6C77.3,116,77.1,115.4,76.7,115z"/>
			<path class="st4" d="M75.8,135.7c-1.4-1.2-4.4-0.5-5.1,1.2c-0.6,1.4,0.1,3.5,1.5,4.2c0.6,0.3,1.4,0.3,1.4,0.3c1,0,1.3,0,1.7,0
				c0.7,0,1.1-0.3,1.5-0.8c0.4-0.6,0.7-1.2,0.9-1.8c0.1-0.4,0-1-0.2-1.3C77,136.8,76.4,136.2,75.8,135.7z"/>
			<path class="st4" d="M84.6,61.7c-1.5,0-3,1-3.2,2.2c-0.3,1.6,0.4,3.2,1.6,3.9c1,0.5,3.1,0.2,3.9-0.7c1.7-2,1.7-2.5,0.1-4.4
				C86.3,61.8,86,61.7,84.6,61.7z"/>
			<path class="st4" d="M86.1,20c-1.9-0.8-4.5-0.1-4.8,2.5c0,0.2,0,0.5,0,0.7c0.1,1.6,1.3,2.8,2.9,2.9c2,0.1,3.1-0.7,3.9-2.8
				c0.1-0.2,0.1-0.4,0.1-0.6C87.8,21.6,87.2,20.5,86.1,20z"/>
			<path class="st4" d="M84.7,47c1.7,0.1,2.5-1,3.2-2.2c0.4-0.7,0.5-1.2,0-1.8c-0.4-0.5-0.6-0.9-1-1.4c-1-1.4-4.4-1.4-5.4,1
				C80.6,44.7,82,47.3,84.7,47z"/>
			<path class="st4" d="M73.8,156.1c-2.1,0-3.2,1.2-3.2,3.2s1.2,3.1,3.4,3c1.9,0,3-1.2,3.1-3.1C77.1,157.2,75.9,156.1,73.8,156.1z"
				/>
			<path class="st4" d="M84.3,82.7c-1.9,0-3.1,1.4-3,3.5c0.1,1.8,1.5,2.9,3.7,2.8c1.7-0.1,2.8-1.4,2.8-3.3
				C87.8,83.7,86.5,82.6,84.3,82.7z"/>
			<path class="st4" d="M87.7,105.5c-0.6-0.8-1.1-1.8-2.4-1.8c-1.4,0-2.5,0.3-3.3,1.6c-0.9,1.6-0.7,2.9,0.7,4.3
				c0.6,0.6,1.3,0.4,2,0.4c1.8,0,3-1.2,3-3.1C87.8,106.4,87.9,105.8,87.7,105.5z"/>
			<path class="st4" d="M84.7,124.6c-0.4,0-0.9,0.2-1.3,0.5c-0.4,0.2-0.7,0.6-1,1c-1.6,1.5-1.2,3.3,0.8,4.3c1.8,0.9,2.8,0.7,4-0.7
				c0.6-0.7,0.6-0.8,0.6-2.2C87.8,125.8,86.4,124.5,84.7,124.6z"/>
			<path class="st4" d="M84.4,145.6c-0.2,0.1-0.5,0.1-0.6,0.2c-0.6,0.5-1.2,1.1-1.8,1.7c-0.8,0.8-0.8,1.7-0.1,2.4
				c0.5,0.5,1,1,1.5,1.5c0.9,0.7,2.3,0.7,3.2-0.1c1.2-1,1.6-2.7,1.1-4C87.3,146.5,85.3,145.5,84.4,145.6z"/>
			<path class="st4" d="M94.2,36c0.6,0.5,1.2,0.6,2,0.3c0.2-0.1,0.4-0.3,0.6-0.4c1.5-0.4,2.1-1.4,1.9-2.7c0.1-1.2-0.4-1.9-1.4-2.3
				c-0.4-0.2-0.8-0.5-1.3-0.6c-0.4-0.1-1.1-0.1-1.4,0.1C91.4,33,91.3,33.4,94.2,36z"/>
			<path class="st4" d="M94.4,57.2c0.5,0.4,1.1,0.4,1.7,0.2c0.2-0.1,0.4-0.3,0.6-0.4c1.5-0.4,2.2-1.3,1.9-2.8
				c0.1-1.2-0.3-1.9-1.3-2.3c-0.4-0.2-0.8-0.5-1.3-0.6c-0.6-0.2-1.2-0.2-1.7,0.2C91.3,54.2,91.4,54.5,94.4,57.2z"/>
			<path class="st4" d="M96,78.4c0.6-0.2,1.1-0.5,1.6-0.8c0.6-0.4,1.1-0.9,1.1-1.7c0-0.3,0-0.7,0-1c0.1-1-0.4-1.5-1.2-1.9
				c-0.6-0.3-1.3-0.5-1.9-0.8c-0.4,0.1-0.8,0.2-1,0.4c-0.7,0.6-1.4,1.3-2,2c-0.4,0.5-0.4,1.4,0.1,1.9c0.6,0.6,1.2,1.2,1.8,1.7
				C94.8,78.5,95.4,78.6,96,78.4z"/>
			<path class="st4" d="M94.7,99.3c0.2,0.2,0.7,0.2,1,0.1s0.6-0.3,0.9-0.4c1-0.4,2-0.8,2-2.1c0-1.5-0.6-2.6-2-3.3
				c-0.6-0.3-1-0.5-1.6-0.1c-0.1,0.1-0.2,0.2-0.3,0.2c-1.5,0.4-2.1,1.4-1.9,2.7C92.7,97.9,93.7,98.6,94.7,99.3z"/>
			<path class="st4" d="M96.1,114.3c-0.1-0.1-0.2-0.1-0.3-0.1c-1.1-0.1-2.9,1.4-2.9,2.5c0,0.2,0,0.5,0,0.7c-0.1,1.2,0.4,2,1.6,2.3
				c0.5,0.2,1.1,0.9,1.6,0.5c0.9-0.7,1.7-1.6,2.5-2.5c0.2-0.2,0.2-0.8,0-1C97.8,115.9,97,115.1,96.1,114.3z"/>
			<path class="st4" d="M96.1,135.8c-0.4,0-0.7,0-1.1,0c-1.5,0-2.1,0.6-2.1,2.1c0,0.1,0,0.2,0,0.7c0,0.1,0,0.6,0.1,1
				c0.1,0.3,0.4,0.6,0.7,0.8c1.7,1,4.4,0,4.9-1.8c0.1-0.2,0.1-0.5,0-0.7C98.3,136.9,97,135.9,96.1,135.8z"/>
			<path class="st4" d="M96.1,156.8c-0.4,0-0.7,0-1.1,0c-1.5,0-2.1,0.7-2.1,2.2c0,0.1,0,0.2,0,0.3l0,0c0,0.3,0,0.7,0,1
				c0.1,0.6,0.9,1.3,1.5,1.3s1.2,0,1.8,0c1-0.1,1.7-0.7,1.8-1.8c0-0.5,0-0.9,0-1.4C97.8,157.5,97.1,156.8,96.1,156.8z"/>
			<path class="st4" d="M104.9,62.5c-0.4,0.2-0.9,0.6-1,0.9c-0.2,0.9-0.2,1.8-0.1,2.7c0.1,0.4,0.6,0.9,0.9,0.9
				c0.9,0.2,1.9,0.2,2.8,0c0.4,0,0.9-0.5,1-0.9c0.2-0.9,0.2-1.8,0-2.7c-0.1-0.4-0.8-0.8-1.3-1.1c-0.3-0.2-0.7,0-1.8,0
				C105.8,62.4,105.3,62.3,104.9,62.5z"/>
			<path class="st4" d="M103.8,24.2c0.2,0.8,1.2,1.2,2.7,1.2c1.1,0,2.1-0.6,2.2-1.3c0-0.1,0-0.2,0-0.3c0-0.3,0-0.7,0-1l0,0
				c0-0.2,0-0.5,0-0.7c-0.1-0.6-0.8-1.4-1.3-1.5c-2.9-0.2-4,0.1-3.6,3.4C103.7,24,103.7,24.1,103.8,24.2z"/>
			<path class="st4" d="M103.8,45.1c0.3,0.5,0.8,1.1,1.2,1.2c2.6,0.3,4.1,0.2,3.7-3.2c-0.1-0.8-0.8-1.5-1.6-1.5c-0.2,0-0.5,0-0.7,0
				c-2-0.2-2.9,0.8-2.7,2.5C103.7,44.4,103.6,44.8,103.8,45.1z"/>
			<path class="st4" d="M106.9,130.2c1.1-0.1,1.8-0.7,1.9-1.7c0-0.3,0-0.7,0-1c0.1-0.9-0.2-1.7-1-2c-1-0.4-2.1-0.4-2.9,0.5
				c-0.3,0.3-0.7,0.7-0.9,1s-0.2,0.7-0.1,1C104,129.3,105.5,130.3,106.9,130.2z"/>
			<path class="st4" d="M105.9,109.2c1.7,0.5,2.8-0.5,2.8-2.5c0-0.1,0-0.2,0-0.3c0.1-0.8-0.2-1.4-0.9-1.8c-0.9-0.5-1.8-0.5-2.7,0
				c-0.4,0.2-0.7,0.6-1,1c-0.7,0.8-0.7,1.6,0.1,2.4C104.8,108.5,105.3,109,105.9,109.2z"/>
			<path class="st4" d="M103.7,86.1c0.4,1.5,2.4,2.6,3.8,2c0.5-0.2,0.8-0.8,1.1-1.2c0.1-0.3,0-0.7,0-1l0,0c0-0.1,0-0.2,0-0.3
				c0.1-0.9-0.2-1.6-1.1-2c-0.9-0.3-1.9-0.4-2.6,0.3c-0.4,0.4-0.9,0.8-1.2,1.3C103.7,85.4,103.6,85.8,103.7,86.1z"/>
			<path class="st4" d="M107.1,146.5c-0.8-0.6-2.4,0-2.6,0.9c-0.1,0.4-0.1,0.9-0.1,1.4c0,0,0,0,0.1,0c0,0.3-0.1,0.7,0,1
				c0.2,1.1,1.9,1.7,2.8,1c0.5-0.4,0.9-0.8,1.2-1.2c0.4-0.5,0.4-1.1,0.1-1.6C108.1,147.5,107.6,147,107.1,146.5z"/>
			<path class="st4" d="M115.2,33.4c0,0.3,0,0.7,0,1c0.2,1.2,1.8,1.8,2.8,1.1c0.4-0.3,0.7-0.6,1-1c0.7-0.8,0.7-1.6-0.1-2.4
				c-0.2-0.2-0.5-0.5-0.8-0.7c-0.6-0.5-1.4-0.7-1.9-0.3c-0.6,0.4-1.1,0.9-1.1,1.6C115.2,33,115.2,33.2,115.2,33.4L115.2,33.4z"/>
			<path class="st4" d="M116.5,56.8c0.8,0.2,1.4-0.1,1.9-0.6c0.2-0.3,0.5-0.5,0.7-0.8c0.4-0.5,0.5-1.4,0.1-1.9
				c-0.4-0.4-0.8-0.9-1.2-1.2c-0.9-0.8-2.6-0.1-2.8,1c-0.1,0.3,0,0.7,0,1l0,0c0,0.2,0,0.5,0,0.7C115.3,55.8,115.8,56.6,116.5,56.8z"
				/>
			<path class="st4" d="M117.8,73.1c-0.1-0.1-0.5-0.2-0.7-0.1c-1.2,0.3-1.9,1.2-1.9,2.4c0,0.3,0,0.7,0,1c0.2,1.2,1.9,1.7,2.8,1
				c0.5-0.4,0.9-0.8,1.2-1.3c0.4-0.5,0.4-1.1,0-1.6C118.9,74,118.3,73.5,117.8,73.1z"/>
			<path class="st4" d="M117.7,94.6c-0.1,0-0.2,0-0.4,0c-1.7,0-2.5,1.2-2.1,2.8c0.2,0.7,0.9,0.6,1.4,1c0.5,0.5,1.1,0.4,1.6-0.1
				c0.2-0.2,0.5-0.5,0.8-0.7c0.6-0.5,0.8-1.2,0.4-1.9C119.1,95,118.5,94.5,117.7,94.6z"/>
			<path class="st4" d="M115.9,116c-0.5,0.4-0.8,0.9-0.7,1.5c0.1,0.6,0.7,1.4,1.3,1.5c0.3,0.1,0.7,0,1.4,0.1
				c0.3-0.2,0.9-0.3,1.2-0.7c0.6-0.6,0.6-1.5,0-2.2C118.3,115.4,116.8,115.2,115.9,116z"/>
			<path class="st4" d="M127.9,63.1c-1,0-1.8,0.7-1.9,1.7c0,0.9,0.8,1.8,1.7,1.8c1,0,1.8-0.7,1.9-1.7
				C129.6,64,128.9,63.2,127.9,63.1z"/>
			<path class="st4" d="M117.2,136.5c-0.9-0.1-1.8,0.6-1.9,1.6c-0.1,0.9,0.7,1.8,1.6,1.9c0.9,0.1,1.8-0.6,1.9-1.6
				C118.9,137.5,118.1,136.6,117.2,136.5z"/>
			<path class="st4" d="M117.2,157.5c-1-0.1-1.9,0.6-2,1.5s0.6,1.8,1.6,1.9c1,0.1,1.9-0.6,2-1.5
				C118.9,158.5,118.2,157.6,117.2,157.5z"/>
			<path class="st4" d="M127.6,24.6c1,0.1,1.9-0.6,2-1.5s-0.6-1.8-1.6-1.9c-0.9-0.1-1.9,0.6-2,1.5S126.7,24.5,127.6,24.6z"/>
			<path class="st4" d="M127.9,42.1c-1,0-1.8,0.7-1.9,1.7c0,0.9,0.8,1.8,1.7,1.8c1,0,1.8-0.7,1.9-1.7
				C129.6,43,128.9,42.2,127.9,42.1z"/>
			<path class="st4" d="M127.7,84.1c-0.1,0-0.2,0-0.4,0c-0.4,0.2-1.3,1.8-1.3,2.2c0.1,0.6,1.2,1.3,1.9,1.2c1-0.1,1.7-1,1.6-1.8
				C129.5,84.8,128.7,84.1,127.7,84.1z"/>
			<path class="st4" d="M128.3,105.1c-0.6-0.1-1.5,0.7-1.6,1.5s0.6,1.7,1.3,1.8c0.6,0.1,1.5-0.7,1.6-1.5
				C129.7,106.2,129,105.3,128.3,105.1z"/>
			<path class="st4" d="M129,127.2c-0.4-0.2-0.8-0.4-1.2-0.5c-0.6-0.1-1,0.3-1,1s0.4,1.1,1,1c0.4-0.1,0.9-0.3,1.2-0.5
				C129.5,128,129.5,127.5,129,127.2z"/>
			<path class="st4" d="M127.9,147.7c-0.7-0.1-1.1,0.2-1.2,0.9s0.2,1.1,0.9,1.1c0.7,0.1,1.1-0.2,1.2-0.9S128.6,147.8,127.9,147.7z"
				/>
			<path class="st4" d="M139.1,34.3c0.4-0.1,0.7-0.8,0.5-1.4c-0.1-0.2-0.5-0.4-0.8-0.7c-0.4,0.5-0.8,0.8-1,1.3
				C137.7,33.9,138.7,34.4,139.1,34.3z"/>
			<path class="st4" d="M138.9,55.3c0.4,0.1,0.7-0.3,0.8-0.9s-0.2-1-0.6-1s-1.3,0.6-1.3,0.9C137.7,54.6,138.4,55.2,138.9,55.3z"/>
			<path class="st4" d="M139.6,158.8c-0.1-0.2-0.5-0.4-0.8-0.7c-0.4,0.5-0.8,0.8-1,1.3c-0.1,0.3,0.9,0.9,1.3,0.8
				C139.6,160.1,139.9,159.3,139.6,158.8z"/>
		</g>
		<g>
			<path class="st1" d="M451.9,14.2c34.1,0,61.9,27.8,61.9,61.9v26.8c0,34.1-27.8,61.9-61.9,61.9H76.1c-34.1,0-61.9-27.8-61.9-61.9
				V76.1C14.2,42,42,14.2,76.1,14.2H451.9 M451.9,0H76.1C34.1,0,0,34.1,0,76.1v26.8c0,42,34.1,76.1,76.1,76.1h375.8
				c42,0,76.1-34.1,76.1-76.1V76.1C528,34.1,493.9,0,451.9,0L451.9,0z"/>
		</g>
	</g>
</g>
</svg>
