<?xml version="1.0" encoding="utf-8"?>
<!-- Generator: Adobe Illustrator 26.5.0, SVG Export Plug-In . SVG Version: 6.00 Build 0)  -->
<svg version="1.1" id="Layer_1" xmlns="http://www.w3.org/2000/svg" xmlns:xlink="http://www.w3.org/1999/xlink" x="0px" y="0px"
	 viewBox="0 0 1366 768" style="enable-background:new 0 0 1366 768;" xml:space="preserve">
<style type="text/css">
	.st0{clip-path:url(#SVGID_00000081642276850301468730000009803423892371461532_);}
	.st1{clip-path:url(#SVGID_00000090982931786498731470000000102392980725824402_);}
	.st2{fill:#0076C1;}
	.st3{fill:#FF161F;}
	.st4{clip-path:url(#SVGID_00000127752610606550351110000014325698288717474199_);}
	.st5{opacity:0.5;enable-background:new    ;}
	.st6{clip-path:url(#SVGID_00000016759582931732309490000015289126327686961554_);}
	.st7{clip-path:url(#SVGID_00000052818312928653384980000003819616103383752582_);}
	.st8{fill:#FFFFFF;}
	.st9{clip-path:url(#SVGID_00000097491462565269714450000010540568719404653469_);}
</style>
<g id="Layer_2_copy">
	<g>
		<g>
			<defs>
				<polygon id="SVGID_1_" points="629.11,546.11 704.94,497.14 650.01,767 2,767 2,-1 694.77,-1 640.39,291.96 737.89,181.14 				
					"/>
			</defs>
			<clipPath id="SVGID_00000057113777164329968120000016956444361612012170_">
				<use xlink:href="#SVGID_1_"  style="overflow:visible;"/>
			</clipPath>
			<g style="clip-path:url(#SVGID_00000057113777164329968120000016956444361612012170_);">
				<g>
					<defs>
						<rect id="SVGID_00000158719260445224363140000017719947166356222136_" x="2" y="-1" width="1363" height="768"/>
					</defs>
					<clipPath id="SVGID_00000077318048617071712170000013568216508023779512_">
						<use xlink:href="#SVGID_00000158719260445224363140000017719947166356222136_"  style="overflow:visible;"/>
					</clipPath>
					<g style="clip-path:url(#SVGID_00000077318048617071712170000013568216508023779512_);">
						<g>
							<polygon class="st2" points="629.11,546.11 704.94,497.14 650.01,767 2,767 2,-1 694.77,-1 640.39,291.96 737.89,181.14 
															"/>
							<polygon class="st3" points="1365,-1 1365,767 650.01,767 704.94,497.14 629.11,546.11 737.89,181.14 640.39,291.96 
								694.77,-1 							"/>
						</g>
					</g>
				</g>
				<g>
					<defs>
						<rect id="SVGID_00000049179942500641332340000018358066233154443911_" x="2" y="-1" width="1363" height="768"/>
					</defs>
					<clipPath id="SVGID_00000042011545803221389890000002015685855688755367_">
						<use xlink:href="#SVGID_00000049179942500641332340000018358066233154443911_"  style="overflow:visible;"/>
					</clipPath>
					<g style="clip-path:url(#SVGID_00000042011545803221389890000002015685855688755367_);">
						<polygon class="st5" points="622.93,-70.34 656.07,207.36 603.11,-68.13 						"/>
						<polygon class="st5" points="444.08,-60.18 593.09,223.55 426.04,-52.91 						"/>
						<polygon class="st5" points="176.31,-73.55 539.11,255.39 161.94,-61.8 						"/>
						<polygon class="st5" points="-87.72,20.68 499.41,299.78 -97.26,35.52 						"/>
						<polygon class="st5" points="-33.42,264.65 477.88,352.36 -37.02,281.27 						"/>
						<polygon class="st5" points="-8.54,453.42 476.63,407.99 -5.93,470.17 						"/>
						<polygon class="st5" points="-30.53,664 495.78,461.22 -21.93,679.25 						"/>
						<polygon class="st5" points="156.2,797.74 533.46,506.85 169.95,810 						"/>
						<polygon class="st5" points="419.67,781.53 585.97,540.4 437.23,789.6 						"/>
						<polygon class="st5" points="578.18,831.36 648.19,558.6 597.83,834.44 						"/>
						<polygon class="st5" points="747.15,837.35 714,559.65 766.97,835.15 						"/>
						<polygon class="st5" points="910.05,798.92 776.99,543.47 928.09,791.64 						"/>
						<polygon class="st5" points="1154.69,812.27 830.97,511.62 1169.2,800.64 						"/>
						<polygon class="st5" points="1404.88,722.05 870.67,467.24 1414.42,707.2 						"/>
						<polygon class="st5" points="1396.53,502.29 892.2,414.66 1400.17,485.67 						"/>
						<polygon class="st5" points="1390.93,312.23 893.45,359.03 1388.32,295.47 						"/>
						<polygon class="st5" points="1393.5,105.88 874.3,305.79 1384.9,90.63 						"/>
						<polygon class="st5" points="1198.68,-18.54 836.62,260.17 1184.92,-30.79 						"/>
						<polygon class="st5" points="960.36,-29.99 784.1,226.61 942.79,-38.06 						"/>
						<polygon class="st5" points="795.63,-82 721.83,208.08 775.98,-85.08 						"/>
					</g>
				</g>
				<g>
					<defs>
						<rect id="SVGID_00000046337396069429573130000001556992910287314594_" x="2" y="-1" width="1363" height="768"/>
					</defs>
					<clipPath id="SVGID_00000122709205455967806910000011376919045715930813_">
						<use xlink:href="#SVGID_00000046337396069429573130000001556992910287314594_"  style="overflow:visible;"/>
					</clipPath>
					<g style="clip-path:url(#SVGID_00000122709205455967806910000011376919045715930813_);">
						<polygon points="582.5,-66.48 642.44,207.9 571.81,-64.66 						"/>
						<polygon points="405.39,-44.91 580.91,227.68 395.89,-40.38 						"/>
						<polygon points="138.07,-41.84 394.62,159.24 130.78,-34.99 						"/>
						<polygon points="-116.6,68.02 219.72,202.11 -121.11,76.41 						"/>
						<polygon points="-41.33,308.62 360.49,351.73 -42.56,317.78 						"/>
						<polygon points="0.14,495.47 285.41,451.77 2.29,504.51 						"/>
						<polygon points="-3.47,706.4 331.5,552.45 1.87,714.44 						"/>
						<polygon points="194.74,828.31 443.49,608.38 202.73,834.58 						"/>
						<polygon points="457.06,795.96 599.38,544.21 466.97,799.8 						"/>
						<polygon points="619.61,835.38 662.92,558.77 630.44,836.44 						"/>
						<polygon points="788.61,830.41 728.67,556.03 799.3,828.59 						"/>
						<polygon points="947.52,781.55 790.2,536.25 957.02,777.02 						"/>
						<polygon points="1191.8,779.82 959.72,593.6 1199.17,773.03 						"/>
						<polygon points="1432.91,674.71 1005.46,502.59 1437.49,666.35 						"/>
						<polygon points="1405.52,455.63 978.5,411.11 1406.72,446.47 						"/>
						<polygon points="1383.11,266.39 1093.13,309.38 1381.03,257.34 						"/>
						<polygon points="1394.89,48.09 1094.32,183.02 1389.62,40.02 						"/>
						<polygon points="1162.29,-51.44 964.36,132.77 1154.09,-57.51 						"/>
						<polygon points="922.72,-48.05 771.73,219.73 912.81,-51.88 						"/>
						<polygon points="753.81,-89.3 717.01,147.92 742.97,-90.32 						"/>
					</g>
				</g>
				<g>
					<defs>
						<rect id="SVGID_00000018942775136442932790000005286391902781922973_" x="2" y="-1" width="1363" height="768"/>
					</defs>
					<clipPath id="SVGID_00000062176852967174528610000013534654533111973012_">
						<use xlink:href="#SVGID_00000018942775136442932790000005286391902781922973_"  style="overflow:visible;"/>
					</clipPath>
					<g style="clip-path:url(#SVGID_00000062176852967174528610000013534654533111973012_);">
						<polygon class="st8" points="684.35,196.99 667.08,-145.49 701.61,-145.49 						"/>
						<polygon class="st8" points="568.12,85.57 474.56,-114.76 507.47,-123.61 						"/>
						<polygon class="st8" points="473,135.37 233.38,-34.84 351.94,-108.59 						"/>
						<polygon class="st8" points="506.45,274.94 2.99,-16.18 23.29,-39.79 						"/>
						<polygon class="st8" points="475.54,327.12 -101.35,234.11 -55.86,115.78 						"/>
						<polygon class="st8" points="476.5,442.4 -56.25,607.23 -67.13,579.53 						"/>
						<polygon class="st8" points="383.98,574.51 49.26,852.97 -36.28,751.71 						"/>
						<polygon class="st8" points="557.45,535.18 333.24,820.82 305.31,803.67 						"/>
						<polygon class="st8" points="619.19,561.31 563.97,906.24 423.97,867.79 						"/>
						<polygon class="st8" points="687.46,570.03 704.72,912.5 670.2,912.5 						"/>
						<polygon class="st8" points="755.58,560.49 897.21,881.7 864.37,890.71 						"/>
						<polygon class="st8" points="816.88,533.63 1069.02,802.12 1041.08,819.28 						"/>
						<polygon class="st8" points="959.12,550.13 1404.79,746.44 1318.38,847.16 						"/>
						<polygon class="st8" points="896.27,439.89 1464.32,580.55 1453.65,608.31 						"/>
						<polygon class="st8" points="906.59,382.19 1406.43,321.3 1405.97,445.72 						"/>
						<polygon class="st8" points="895.3,324.62 1413.87,166.87 1424.54,194.62 						"/>
						<polygon class="st8" points="981.51,204.77 1303.89,-74.49 1391.51,25.48 						"/>
						<polygon class="st8" points="866.55,165.28 1059.32,-77.95 1087.01,-60.52 						"/>
						<polygon class="st8" points="752.62,205.71 807.83,-139.22 947.83,-100.78 						"/>
						<polygon class="st8" points="465.22,384.82 -116.79,394.4 -116.43,365.22 						"/>
					</g>
				</g>
				<g>
					<defs>
						<rect id="SVGID_00000072237913361578394790000003462478822742901903_" x="2" y="-1" width="1363" height="768"/>
					</defs>
					<clipPath id="SVGID_00000000929732375214438000000014891328698149588132_">
						<use xlink:href="#SVGID_00000072237913361578394790000003462478822742901903_"  style="overflow:visible;"/>
					</clipPath>
					<polygon style="clip-path:url(#SVGID_00000000929732375214438000000014891328698149588132_);" points="712.18,-46.07 
						655.47,293.96 628.15,284.27 728.15,175.02 764.48,135.33 749.68,183.65 638.09,548.02 623.47,539.88 696.32,487.61 
						726.34,466.08 718.92,499.18 648.11,815.35 632.68,813.1 690.95,495.11 713.55,506.68 634.73,552.34 614.32,564.16 
						620.11,544.19 726.12,178.64 747.65,187.27 652.64,299.66 613.99,345.37 625.32,289.96 694.52,-48.41 					"/>
				</g>
			</g>
		</g>
	</g>
</g>
</svg>
