<?xml version="1.0" encoding="utf-8"?>
<!-- Generator: Adobe Illustrator 26.5.0, SVG Export Plug-In . SVG Version: 6.00 Build 0)  -->
<svg version="1.1" id="Layer_4" xmlns="http://www.w3.org/2000/svg" xmlns:xlink="http://www.w3.org/1999/xlink" x="0px" y="0px"
	 viewBox="0 0 1366 768" style="enable-background:new 0 0 1366 768;" xml:space="preserve">
<style type="text/css">
	.st0{fill:#8CC63F;}
	.st1{fill:#231F20;}
	.st2{opacity:0.55;}
	.st3{opacity:0.49;}
	.st4{fill:#FCEE21;}
	.st5{fill:none;}
</style>
<g>
	<g>
		<path class="st0" d="M226.09,726.91c-38.05,0-69-30.95-69-69v-26.82c0-38.05,30.95-69,69-69h375.82c38.05,0,69,30.95,69,69v26.82
			c0,38.05-30.95,69-69,69H226.09z"/>
		<path class="st1" d="M601.91,569.17c34.14,0,61.92,27.77,61.92,61.92v26.82c0,34.14-27.77,61.92-61.92,61.92H226.09
			c-34.14,0-61.92-27.77-61.92-61.92v-26.82c0-34.14,27.77-61.92,61.92-61.92H601.91 M601.91,555H226.09
			c-42.02,0-76.09,34.07-76.09,76.09v26.82c0,42.02,34.07,76.09,76.09,76.09h375.82c42.02,0,76.09-34.07,76.09-76.09v-26.82
			C678,589.07,643.93,555,601.91,555L601.91,555z"/>
	</g>
	<g class="st2">
		<path d="M651.24,640.37c-0.36-1.2,0.32-2.26,1.48-3.03c1.41-0.93,2.98-1.46,4.69-0.87c3.54,1.21,4.13,5.08,1.96,7.58
			c-0.68,0.78-1.73,1.18-2.81,1.31c-0.59,0.07-1.2,0-1.79,0.02c-0.63,0.02-1.17-0.13-1.61-0.59c-0.33-0.34-0.66-0.68-1.02-0.98
			c-0.69-0.57-1.02-1.26-0.91-2.14C651.27,641.32,651.24,640.97,651.24,640.37z"/>
		<path d="M651.24,598.46c-0.32-1.18,0.26-2.27,1.45-3.04c1.42-0.93,2.98-1.48,4.69-0.91c3.53,1.18,4.18,4.99,2.03,7.57
			c-0.67,0.81-1.74,1.18-2.8,1.33c-0.7,0.1-1.44,0.08-2.15-0.01c-0.44-0.06-0.88-0.29-1.25-0.54c-0.39-0.26-0.67-0.66-1.04-0.96
			c-0.68-0.57-1.06-1.23-0.94-2.13C651.28,599.41,651.24,599.06,651.24,598.46z"/>
		<path d="M651.24,619.44c-0.31-1.17,0.25-2.26,1.44-3.05c1.42-0.94,2.99-1.48,4.69-0.92c3.53,1.17,4.19,4.96,2.05,7.57
			c-0.67,0.82-1.74,1.16-2.8,1.33c-0.58,0.09-1.2-0.01-1.79,0.03c-0.79,0.06-1.38-0.25-1.88-0.8c-0.24-0.26-0.49-0.51-0.76-0.74
			c-0.68-0.56-1.06-1.23-0.95-2.13C651.28,620.4,651.24,620.04,651.24,619.44z"/>
		<path d="M651.25,661.8c0-0.47-0.04-0.93,0.01-1.39c0.04-0.33,0.11-0.72,0.31-0.96c1.01-1.18,2.21-2.1,3.88-2.19
			c1.09-0.05,2.15-0.06,2.9,0.94c0.35,0.46,0.8,0.87,1.26,1.24c1.34,1.07,1.21,2.48,0.77,3.81c-0.91,2.8-3.84,3.89-6.58,2.53
			c-0.62-0.31-1.2-0.7-1.76-1.11c-0.61-0.44-0.89-1.06-0.82-1.82C651.27,662.5,651.24,662.14,651.25,661.8
			C651.24,661.8,651.24,661.8,651.25,661.8z"/>
		<path d="M651.26,683.25c-0.09-1.09,0.14-1.91,0.63-2.76c1.24-2.17,3.19-2.68,5.6-1.68c1.74,0.72,2.37,2.12,3.06,3.55
			c0.13,0.27,0.11,0.75-0.05,1c-0.55,0.87-0.94,1.8-1.67,2.6c-1.34,1.47-3.11,1.91-5.39,0.65c-0.1-0.05-0.24-0.04-0.33-0.1
			C651.9,685.68,650.87,684.74,651.26,683.25z"/>
		<path d="M645.04,592.95c-1.48-0.12-3.01-0.5-4.01-2.34c-1.04-1.93-0.62-3.56,0.4-5.18c0.85-1.34,3.26-1.9,4.76-1.22
			c0.53,0.24,1.09,0.48,1.54,0.82c2.3,1.74,2.51,4.09,0.57,6.21c-0.32,0.35-0.67,0.67-1.02,0.99
			C646.52,592.93,646.52,592.92,645.04,592.95z"/>
		<path d="M645.25,613.96c-2.19-0.17-3.74-0.95-4.53-2.93c-0.72-1.82-0.21-3.42,0.89-4.84c1.04-1.34,3.14-1.51,4.83-0.9
			c1.76,0.64,2.53,2.01,3.24,3.47c0.17,0.36,0.08,0.92-0.06,1.33c-0.5,1.48-1.6,2.57-2.83,3.49
			C646.38,613.9,645.68,613.86,645.25,613.96z"/>
		<path d="M644.43,625.79c1.58-0.02,2.63,0.72,3.66,1.5c0.88,0.67,1.17,1.7,1.65,2.61c0.14,0.27,0.12,0.74-0.02,1.01
			c-0.75,1.42-1.47,2.78-3.2,3.5c-1.36,0.56-2.39,0.57-3.66-0.13c-1.95-1.08-2.92-3.45-2.18-5.51
			C641.34,626.9,642.73,626.06,644.43,625.79z"/>
		<path d="M640.44,651.23c-0.16-1.25,0.64-2.16,1.21-3.14c0.16-0.27,0.54-0.43,0.85-0.57c0.2-0.09,0.47-0.04,0.71-0.08
			c0.89-0.16,1.63-1.08,2.65-0.51c1.21,0.68,2.6,1.16,3.21,2.57c0.18,0.42,0.49,0.79,0.63,1.22c0.11,0.31,0.14,0.71,0.04,1.02
			c-0.63,2.01-2.04,3.32-4.04,4.04c-1.07,0.39-3.48-0.36-4.17-1.37C640.9,653.47,640.25,652.46,640.44,651.23z"/>
		<path d="M640.44,672.21c-0.11-0.87,0.14-1.6,0.85-2.17c0.28-0.22,0.5-0.5,0.77-0.73c2.73-2.38,4.53-1.81,6.84,0.81
			c0.37,0.42,0.59,0.99,0.79,1.53c0.12,0.31,0.16,0.71,0.06,1.02c-0.66,2.16-2.18,3.5-4.37,4.11c-1.21,0.33-3.45-0.56-4.03-1.67
			C640.88,674.21,640.14,673.34,640.44,672.21z"/>
		<path d="M649.08,693.4c-0.07,0.76,0.2,1.59-0.39,2.31c-0.84,1.03-2,1.59-3.22,2.04c-0.3,0.11-0.71,0.02-1.04-0.08
			c-1.53-0.49-2.61-1.57-3.63-2.71c-0.63-0.71-0.51-2.86,0.15-3.58c0.48-0.52,0.94-1.09,1.53-1.46c0.77-0.48,1.68-1.09,2.51-1.06
			c0.97,0.04,1.99,0.61,2.85,1.15c0.79,0.49,1.46,1.22,1.25,2.32C649.03,692.67,649.08,693.02,649.08,693.4z"/>
		<path d="M638.24,599.09c0.03,2.44-0.27,2.79-3.1,3.71c-0.86,0.92-1.63,0.38-2.53-0.02c-1.14-0.51-1.85-1.43-2.65-2.26
			c-0.52-0.54-0.5-2.74,0-3.3c1-1.12,1.99-2.17,3.7-2.42c1.54-0.22,4.28,0.87,4.56,2.2C638.36,597.68,638.24,598.4,638.24,599.09z"
			/>
		<path d="M635.04,574.07c0.13,0.02,0.94-0.08,1.5,0.24c1.03,0.58,1.92,1.38,1.75,2.77c-0.07,0.57-0.09,1.17,0.01,1.73
			c0.19,1.11-0.45,1.83-1.24,2.33c-0.86,0.54-1.88,0.85-2.84,1.25c-0.1,0.04-0.25,0.04-0.35,0c-1.75-0.57-3.28-1.59-4.03-3.16
			c-0.51-1.06-0.62-2.5,0.62-3.5c0.27-0.22,0.53-0.47,0.76-0.74c0.58-0.65,1.26-1.04,2.18-0.92
			C633.74,574.1,634.1,574.07,635.04,574.07z"/>
		<path d="M638.28,620.17c-0.02,2.28-0.53,2.58-2.88,3.64c-1.49,0.67-2.44,0.14-3.52-0.44c-0.5-0.27-0.88-0.78-1.29-1.19
			c-1.33-1.33-1.36-3.27-0.05-4.59c0.33-0.33,0.69-0.64,1.01-0.98c0.44-0.45,0.97-0.63,1.6-0.6c0.6,0.02,1.19,0,1.79,0.01
			c2.15,0.03,3.3,1.1,3.34,3.12C638.28,619.47,638.28,619.82,638.28,620.17z"/>
		<path d="M638.28,641.04c-0.07,0.79,0.21,1.63-0.46,2.32c-0.75,0.76-1.45,1.59-2.74,1.32c-0.23-0.05-0.48,0.01-0.72-0.01
			c-0.82-0.09-1.73,0-2.43-0.33c-1.24-0.59-1.66-1.91-2.23-3.04c-0.14-0.28-0.14-0.75,0.01-1.02c0.43-0.81,0.93-1.6,1.48-2.34
			c0.51-0.69,1.23-1.07,2.17-0.97c0.47,0.05,0.96,0.01,1.44,0.01c2.43,0.02,3.46,1.02,3.48,3.36
			C638.28,640.57,638.28,640.8,638.28,641.04z"/>
		<path d="M633.86,665.63c-0.63-0.05-1.45,0.17-2.19-0.45c-1.03-0.86-1.54-1.99-2-3.16c-0.08-0.2-0.06-0.48,0.02-0.68
			c0.12-0.32,0.39-0.58,0.51-0.9c1.02-2.75,3.32-3.01,6.1-2.04c0.87,0.31,1.23,0.94,1.62,1.64c0.66,1.2,0.53,2.54,0.21,3.69
			c-0.25,0.91-1.09,1.8-2.31,1.89C635.22,665.66,634.63,665.63,633.86,665.63z"/>
		<path d="M633.88,686.59c-0.54-0.04-1.39,0.2-2.13-0.39c-1.05-0.84-1.67-1.93-2.06-3.16c-0.09-0.3,0.02-0.69,0.13-1
			c0.11-0.32,0.35-0.6,0.51-0.91c1.32-2.58,2.69-2.5,5.7-1.91c1.23,0.24,1.73,1.24,2.07,2.16c0.64,1.78,0.03,3.4-1.2,4.78
			c-0.21,0.23-0.61,0.38-0.94,0.42C635.35,686.64,634.75,686.59,633.88,686.59z"/>
		<path d="M623.03,613.15c-1.61,0.41-2.53-0.53-3.27-1.62c-0.44-0.65-0.85-1.45-0.88-2.19c-0.08-1.83,1.98-3.79,3.81-3.82
			c0.36-0.01,0.72,0.02,1.07,0c0.76-0.05,1.4,0.13,1.92,0.71c0.31,0.35,0.68,0.65,1.01,0.99c1.15,1.19,1.13,3.14-0.04,4.35
			c-0.08,0.08-0.18,0.16-0.25,0.25C625.53,612.87,624.49,613.56,623.03,613.15z"/>
		<path d="M633.75,707.52c-1.42,0.37-2.3-0.43-3.03-1.38c-1.42-1.83-1.39-3.11,0.13-4.95c0.67-0.82,1.44-1.57,2.72-1.32
			c0.46,0.09,0.96-0.02,1.43,0.03c1.48,0.13,2.22,1.31,2.97,2.28c0.65,0.84,0.43,2,0.1,2.99c-0.13,0.4-0.62,0.69-0.91,1.05
			C636.29,707.34,635.19,707.86,633.75,707.52z"/>
		<path d="M623.06,634.14c-1.55,0.32-2.51-0.51-3.29-1.6c-0.33-0.46-0.62-0.99-0.78-1.53c-0.13-0.41-0.18-0.95-0.01-1.33
			c0.32-0.73,0.75-1.43,1.24-2.06c0.59-0.75,1.31-1.35,2.44-1.15c0.46,0.08,0.95,0.04,1.43,0.01c0.66-0.04,1.14,0.25,1.57,0.68
			c0.33,0.33,0.68,0.65,1.01,0.99c1.17,1.2,1.17,3.15,0.02,4.35c-0.16,0.17-0.36,0.31-0.5,0.5
			C625.37,634,624.34,634.41,623.06,634.14z"/>
		<path d="M622.79,592.25c-1.33,0.31-2.27-0.58-3.04-1.66c-1.22-1.71-1.19-2.66,0-4.4c0.13-0.19,0.3-0.36,0.46-0.53
			c0.65-0.72,1.35-1.31,2.46-1.11c0.35,0.06,0.72,0.03,1.07,0.01c0.75-0.05,1.41,0.11,1.92,0.69c0.31,0.35,0.68,0.65,1.01,0.99
			c1.16,1.2,1.15,3.14-0.01,4.35c-0.08,0.08-0.17,0.17-0.25,0.25C624.6,592.57,625.09,592.19,622.79,592.25z"/>
		<path d="M623.1,655.1c-1.78,0.36-2.83-0.59-3.46-1.89c-0.3-0.62-1.25-1.23-0.52-2.16s0.29-2.51,1.99-2.98
			c0.89-0.25,1.71-0.65,2.69-0.63c0.76,0.02,1.39,0.17,1.9,0.74c0.23,0.26,0.5,0.49,0.75,0.74c1.48,1.48,1.44,3.3-0.03,4.83
			C625.49,654.73,624.53,655.52,623.1,655.1z"/>
		<path d="M627.44,672.18c0.15,1.09-0.25,1.72-0.84,2.37c-1.48,1.65-2.74,2.27-5.7,0.86c-0.98-0.47-1.44-1.15-1.35-2.2
			c0.03-0.35,0-0.7,0-1.05c0.01-2.45,1.07-3.53,3.56-3.74c1.3-0.11,2.29,0.3,3.14,1.25C626.97,670.47,627.88,671.14,627.44,672.18z"
			/>
		<path d="M619.55,693.46c-0.33-1.9,1.12-2.92,2.47-3.8c0.86-0.56,2.15-0.54,3.07,0.02c1.46,0.9,2.31,2.29,2.37,4.02
			c0.01,0.43-0.18,0.89-0.38,1.28c-0.15,0.3-0.48,0.51-0.73,0.76c-1.68,1.66-2.74,1.7-5.07,0.77c-1.36-0.54-1.84-1.33-1.72-2.64
			C619.56,693.76,619.55,693.64,619.55,693.46z"/>
		<path d="M608.75,598.64c-0.16-0.88,0.33-1.49,0.95-2.1c1.84-1.81,2.78-1.94,4.99-0.78c1.17,0.62,1.49,1.74,1.93,2.78
			c0.31,0.72-0.29,1.3-0.62,1.91c-0.11,0.2-0.13,0.45-0.26,0.64c-1.06,1.57-2.76,2.05-4.66,1.4
			C609.43,601.92,608.56,600.2,608.75,598.64z"/>
		<path d="M612.78,581.76c-2.12,0.19-4.25-1.41-4.05-4.09c0.12-1.66,2.09-3.68,3.66-3.59c2.08,0.12,4.34,2.17,4.27,3.88
			C616.59,579.81,614.6,581.77,612.78,581.76z"/>
		<path d="M612.49,623.7c-0.75,0.06-1.4-0.1-1.92-0.67c-0.31-0.35-0.68-0.65-1-0.98c-1.16-1.19-1.18-3.15-0.05-4.33
			c0.24-0.25,0.5-0.49,0.76-0.74c1.55-1.46,4.26-1.13,5.49,0.7c0.32,0.47,0.55,1,0.79,1.52c0.09,0.2,0.15,0.46,0.1,0.67
			c-0.3,1.24-0.9,2.31-1.86,3.23C614.1,623.75,613.31,623.69,612.49,623.7z"/>
		<path d="M619.55,714.12c0.03-1.75,1.99-3.76,3.54-3.74c2.26,0.03,4.63,2.22,4.37,4.05c-0.28,1.95-2.36,3.61-4.43,3.66
			c-1.14,0.03-1.62-0.8-2.34-1.36C619.77,716.02,619.38,715.13,619.55,714.12z"/>
		<path d="M608.74,640.96c0.01-1.88,1.87-3.95,3.4-3.98c2.14-0.05,4.65,2.12,4.52,3.91c-0.14,1.91-2.16,3.66-4.3,3.79
			c-0.95,0.06-1.53-0.43-2.13-1.01C609.39,642.85,608.41,642.13,608.74,640.96z"/>
		<path d="M608.75,661.59c-0.16-0.89,0.26-1.54,0.93-2.11c0.9-0.76,1.89-1.48,3.1-1.49c1.75-0.01,3.97,2.31,3.88,3.86
			c-0.11,1.92-2.2,3.69-4.36,3.81c-0.99,0.05-1.54-0.5-2.13-1.08C608.4,662.85,608.8,663.26,608.75,661.59z"/>
		<path d="M612.77,678.88c1.01,0.31,2.13,0.69,2.89,1.6c0.43,0.52,0.7,1.19,0.94,1.82c0.12,0.3,0.1,0.71-0.01,1.02
			c-0.58,1.6-1.71,2.7-3.38,3.22c-0.32,0.1-0.75,0.11-1.06-0.01c-0.65-0.25-1.29-0.57-1.88-0.95c-1.32-0.86-1.9-2.43-1.5-3.93
			c0.03-0.11,0.07-0.22,0.13-0.31C609.79,680.03,611.12,679.36,612.77,678.88z"/>
		<path d="M605.16,609.64c-0.04,1.03,0.17,1.81-0.52,2.26c-0.77,0.5-1.62,0.88-2.45,1.27c-0.19,0.09-0.5,0.08-0.7-0.01
			c-0.94-0.45-1.93-0.78-2.7-1.55c-1.23-1.23-1.22-3.4,0.12-4.58c1.92-1.69,3.2-1.68,5.16-0.13
			C605.14,607.75,605.27,608.81,605.16,609.64z"/>
		<path d="M615.81,703.51c0.36,2.23-0.3,3.15-1.77,3.57c-0.22,0.06-0.39,0.31-0.61,0.35c-0.45,0.07-0.98,0.18-1.36,0.03
			c-0.75-0.3-1.44-0.75-2.13-1.18c-1.7-1.05-1.66-4.05-0.05-5.04c0.69-0.43,1.39-0.84,2.11-1.21c0.18-0.09,0.51-0.11,0.67-0.01
			c0.98,0.61,2.11,0.99,2.88,1.93C616.15,702.68,615.8,703.49,615.81,703.51z"/>
		<path d="M605.15,589c-0.02,0.68,0.15,1.41-0.48,1.93c-0.81,0.68-1.76,1.33-2.79,1.25c-1.28-0.1-2.37-0.84-3.31-1.76
			c-0.79-0.78-0.54-1.69-0.62-2.58c-0.07-0.8,0.44-1.28,0.96-1.75c1.92-1.72,3.22-1.75,5.15-0.16
			C605.08,586.79,605.17,587.03,605.15,589z"/>
		<path d="M605.13,630.34c0.31,1.22-0.46,1.98-1.3,2.63c-0.54,0.42-1.2,0.7-1.83,1.01c-0.2,0.1-0.52,0.2-0.66,0.11
			c-0.86-0.57-2.13-0.65-2.56-1.71c-0.33-0.82-1.25-1.62-0.76-2.54c0.56-1.06,0.84-2.34,2.38-2.8c0.84-0.25,1.44-0.62,2.21,0.01
			c0.35,0.28,0.87,0.37,1.22,0.65C604.66,628.38,605.44,629.12,605.13,630.34z"/>
		<path d="M601.49,648.07c0.69,0.12,1.45,0.09,2.04,0.39c1.35,0.66,2.15,2.88,1.46,4.17c-0.36,0.68-1.05,1.25-1.71,1.71
			c-0.55,0.38-1.39,0.84-1.89,0.68c-0.95-0.31-2.05-0.64-2.61-1.62c-0.23-0.4-0.38-0.83-0.61-1.23c-0.31-0.55-0.29-1.09-0.03-1.64
			c0.05-0.1,0.15-0.19,0.18-0.3C598.84,648.76,599.68,647.78,601.49,648.07z"/>
		<path d="M601.54,675.42c-0.36,0-0.71-0.01-1.07,0c-0.82,0.03-1.3-0.48-1.69-1.07c-0.25-0.38-0.39-0.83-0.61-1.22
			c-0.31-0.55-0.3-1.09-0.02-1.64c0.26-0.51,0.49-1.04,0.81-1.51c0.33-0.48,0.79-0.84,1.46-0.83c0.59,0.01,1.19-0.02,1.78-0.01
			c1.63,0.04,2.89,1.24,2.95,2.77C605.24,674.32,604.1,675.43,601.54,675.42z"/>
		<path d="M602.09,696.38c-0.97,0-1.33-0.01-1.68,0c-0.67,0.02-1.13-0.35-1.46-0.84c-0.38-0.57-0.74-1.18-0.93-1.83
			c-0.12-0.39-0.04-0.97,0.2-1.3c0.48-0.65,1.09-1.22,1.7-1.76c1.4-1.22,4.41-0.47,5.11,1.25c0.56,1.37-0.14,3.53-1.5,4.19
			C602.94,696.39,602.18,696.37,602.09,696.38z"/>
		<path d="M591.1,616.71c1.49,0,3,1.02,3.22,2.18c0.31,1.62-0.35,3.19-1.64,3.89c-1.02,0.55-3.14,0.23-3.93-0.67
			c-1.71-1.96-1.74-2.46-0.14-4.37C589.43,616.77,589.69,616.71,591.1,616.71z"/>
		<path d="M594.34,578.2c-0.05,1.58-1.29,2.81-2.9,2.86c-1.99,0.07-3.11-0.73-3.93-2.79c-0.07-0.18-0.13-0.43-0.06-0.59
			c0.45-1.08,1-2.21,2.13-2.67c1.94-0.78,4.53-0.1,4.75,2.5C594.36,577.73,594.34,577.97,594.34,578.2z"/>
		<path d="M591.01,602.03c-1.74,0.14-2.46-1-3.21-2.24c-0.41-0.69-0.46-1.21,0.03-1.82c0.36-0.45,0.65-0.94,0.99-1.4
			c1.01-1.36,4.43-1.36,5.36,0.98C595.05,599.73,593.67,602.31,591.01,602.03z"/>
		<path d="M605.15,714.32c-0.02,2-1.24,3.08-3.43,3.05c-1.85-0.03-3.04-1.23-3.05-3.07c-0.01-2.04,1.18-3.22,3.25-3.22
			C603.98,711.07,605.16,712.26,605.15,714.32z"/>
		<path d="M591.37,637.68c1.91,0.05,3.05,1.39,2.98,3.49c-0.07,1.84-1.46,2.9-3.69,2.8c-1.73-0.07-2.82-1.37-2.8-3.31
			C587.88,638.73,589.19,637.62,591.37,637.68z"/>
		<path d="M590.9,664.94c-1.84-0.03-3.04-1.24-3.04-3.08c0-0.46-0.1-1.02,0.12-1.36c0.58-0.85,1.15-1.81,2.41-1.85
			c1.38-0.05,2.54,0.32,3.26,1.57c0.92,1.59,0.7,2.93-0.73,4.3C592.35,665.08,591.6,664.9,590.9,664.94z"/>
		<path d="M587.86,682.5c0.05-1.74,1.45-3.04,3.17-2.87c0.44,0.04,0.89,0.24,1.26,0.48c0.39,0.25,0.69,0.62,1.02,0.95
			c1.57,1.55,1.23,3.31-0.84,4.31c-1.83,0.89-2.77,0.74-4.01-0.65C587.85,684.06,587.82,683.94,587.86,682.5z"/>
		<path d="M591.32,700.61c0.22,0.07,0.49,0.09,0.65,0.22c0.62,0.53,1.23,1.08,1.8,1.66c0.78,0.79,0.79,1.65,0.05,2.42
			c-0.48,0.51-0.98,1-1.51,1.46c-0.85,0.74-2.32,0.69-3.22-0.06c-1.21-1.02-1.65-2.68-1.06-4.01
			C588.36,701.55,590.39,700.5,591.32,700.61z"/>
		<path d="M577.07,588.29c-0.12-1.21,0.35-1.92,1.36-2.33c0.44-0.18,0.82-0.52,1.27-0.61c0.44-0.09,1.07-0.13,1.36,0.11
			c3.2,2.59,3.36,2.99,0.46,5.59c-0.6,0.54-1.25,0.61-1.97,0.34c-0.22-0.08-0.39-0.3-0.61-0.36
			C577.41,590.61,576.81,589.64,577.07,588.29z"/>
		<path d="M577.07,609.27c-0.13-1.17,0.32-1.89,1.31-2.33c0.43-0.19,0.83-0.47,1.27-0.61c0.58-0.19,1.2-0.19,1.68,0.24
			c3.04,2.69,2.97,2.99-0.05,5.64c-0.48,0.42-1.1,0.38-1.69,0.18c-0.22-0.08-0.39-0.3-0.61-0.36
			C577.49,611.6,576.81,610.68,577.07,609.27z"/>
		<path d="M580.2,627.13c0.39,0.13,0.79,0.15,1.03,0.36c0.71,0.62,1.39,1.28,2.03,1.97c0.43,0.45,0.36,1.42-0.11,1.92
			c-0.57,0.6-1.17,1.17-1.78,1.73c-0.48,0.45-1.1,0.47-1.68,0.29c-0.56-0.17-1.09-0.46-1.59-0.76c-0.63-0.38-1.1-0.89-1.06-1.69
			c0.02-0.35,0.03-0.7,0-1.05c-0.09-0.95,0.44-1.54,1.22-1.94C578.89,627.63,579.56,627.4,580.2,627.13z"/>
		<path d="M582.8,651.42c0.18,1.52-0.82,2.21-1.79,2.87c-0.25,0.17-0.69,0.17-1.02,0.12s-0.63-0.3-0.95-0.42
			c-1.03-0.38-1.98-0.81-1.98-2.11c0-1.47,0.57-2.59,1.99-3.29c0.57-0.28,1.03-0.54,1.6-0.09c0.09,0.07,0.19,0.16,0.3,0.19
			C582.46,649.09,583.06,650.06,582.8,651.42z"/>
		<path d="M582.82,672.43c0.09,1.19-0.36,2.01-1.62,2.35c-0.54,0.15-1.05,0.91-1.58,0.5c-0.93-0.71-1.72-1.6-2.49-2.47
			c-0.18-0.2-0.18-0.8,0-1c0.76-0.88,1.61-1.69,2.44-2.52c0.07-0.07,0.22-0.08,0.33-0.08c1.12-0.07,2.87,1.44,2.92,2.54
			C582.83,671.97,582.82,672.2,582.82,672.43z"/>
		<path d="M582.82,693.59c-0.01,0.11,0,0.58-0.15,1c-0.11,0.3-0.38,0.61-0.66,0.78c-1.68,1-4.35,0.03-4.91-1.78
			c-0.07-0.21-0.06-0.47,0-0.68c0.29-0.97,1.57-2.03,2.52-2.1c0.35-0.03,0.71-0.02,1.06-0.01c1.49,0.04,2.1,0.64,2.14,2.1
			C582.82,693.02,582.82,693.13,582.82,693.59z"/>
		<path d="M582.79,714.27c0,0.35,0.03,0.7-0.01,1.04c-0.07,0.56-0.85,1.28-1.46,1.33c-0.59,0.04-1.19,0.05-1.78,0.02
			c-1.04-0.06-1.69-0.73-1.75-1.79c-0.02-0.46-0.02-0.92,0.01-1.38c0.07-1.01,0.76-1.64,1.84-1.7c0.36-0.02,0.71-0.01,1.07,0
			c1.48,0.05,2.07,0.65,2.11,2.15c0,0.12,0,0.23,0,0.35C582.81,714.27,582.8,714.27,582.79,714.27z"/>
		<path d="M570.14,617.44c-0.22-0.02,0.3-0.08,0.7,0.1s0.91,0.56,0.98,0.92c0.16,0.88,0.17,1.82,0.05,2.71
			c-0.05,0.36-0.57,0.88-0.94,0.94c-0.91,0.15-1.87,0.17-2.79,0.05c-0.37-0.05-0.9-0.55-0.97-0.91c-0.16-0.88-0.22-1.83-0.04-2.7
			c0.09-0.43,0.77-0.81,1.26-1.08C568.66,617.32,569.09,617.44,570.14,617.44z"/>
		<path d="M566.99,577.65c0-0.23-0.02-0.46,0-0.69c0.07-0.6,0.77-1.41,1.34-1.45c2.91-0.24,3.97,0.08,3.65,3.36
			c-0.01,0.11-0.03,0.23-0.06,0.33c-0.2,0.75-1.23,1.19-2.71,1.16c-1.14-0.02-2.08-0.58-2.22-1.32c-0.02-0.11-0.02-0.23-0.02-0.35
			C566.98,578.34,566.99,578,566.99,577.65L566.99,577.65z"/>
		<path d="M572.03,598.94c-0.02,0.48,0.09,0.9-0.09,1.15c-0.32,0.46-0.77,1.1-1.23,1.15c-2.62,0.27-4.08,0.24-3.73-3.24
			c0.08-0.78,0.81-1.48,1.63-1.55c0.24-0.02,0.48,0,0.71-0.02C571.29,596.23,572.22,597.18,572.03,598.94z"/>
		<path d="M568.85,685.21c-1.07-0.06-1.78-0.69-1.86-1.67c-0.03-0.34,0.01-0.69-0.02-1.03c-0.08-0.88,0.19-1.66,1.04-1.99
			c1.01-0.4,2.07-0.43,2.91,0.48c0.31,0.34,0.68,0.65,0.91,1.04c0.16,0.27,0.21,0.67,0.15,0.98
			C571.72,684.27,570.23,685.29,568.85,685.21z"/>
		<path d="M566.97,661.74c0-0.11,0.01-0.23,0-0.34c-0.08-0.75,0.2-1.38,0.86-1.75c0.87-0.48,1.81-0.45,2.66,0.03
			c0.4,0.22,0.7,0.61,1.02,0.95c0.71,0.78,0.71,1.64-0.09,2.41c-0.49,0.46-1.05,0.98-1.67,1.15
			C568,664.67,566.96,663.69,566.97,661.74z"/>
		<path d="M566.97,640.86c0-0.11,0.01-0.23,0-0.34c-0.09-0.89,0.23-1.64,1.08-1.96c0.88-0.33,1.85-0.41,2.64,0.31
			c0.43,0.39,0.85,0.8,1.16,1.28c0.17,0.25,0.2,0.68,0.12,0.98c-0.4,1.53-2.39,2.61-3.85,2c-0.47-0.2-0.82-0.77-1.09-1.25
			c-0.15-0.26-0.03-0.67-0.03-1.01C566.99,640.86,566.98,640.86,566.97,640.86z"/>
		<path d="M571.26,703.84c0,0.34,0.05,0.69-0.01,1.03c-0.2,1.14-1.86,1.72-2.8,0.96c-0.45-0.36-0.86-0.79-1.22-1.23
			c-0.39-0.49-0.41-1.12-0.06-1.6c0.4-0.55,0.92-1.04,1.46-1.47c0.77-0.61,2.38,0,2.59,0.94c0.09,0.44,0.07,0.91,0.1,1.36
			C571.3,703.84,571.28,703.84,571.26,703.84z"/>
		<path d="M560.46,588.44c0,0.34,0.04,0.69-0.01,1.03c-0.18,1.16-1.81,1.79-2.75,1.06c-0.37-0.28-0.7-0.62-1.01-0.96
			c-0.72-0.78-0.7-1.61,0.06-2.42c0.24-0.25,0.49-0.5,0.75-0.72c0.59-0.5,1.36-0.65,1.93-0.32c0.63,0.36,1.09,0.86,1.06,1.64
			c-0.01,0.23,0,0.46,0,0.69C560.48,588.44,560.47,588.44,560.46,588.44z"/>
		<path d="M560.49,609.29c0,0.23,0.01,0.46,0,0.69c-0.05,0.85-0.59,1.62-1.34,1.79s-1.38-0.06-1.89-0.64
			c-0.23-0.26-0.51-0.48-0.73-0.75c-0.44-0.52-0.5-1.42-0.09-1.9c0.37-0.44,0.78-0.87,1.23-1.23c0.94-0.75,2.59-0.14,2.78,1
			c0.06,0.33,0.01,0.68,0.01,1.03C560.47,609.29,560.48,609.29,560.49,609.29z"/>
		<path d="M560.46,630.41c0,0.35,0.05,0.7-0.01,1.04c-0.21,1.18-1.87,1.74-2.82,0.96c-0.45-0.37-0.87-0.8-1.22-1.26
			c-0.38-0.51-0.38-1.13,0-1.62c0.43-0.55,0.98-1.01,1.51-1.46c0.15-0.12,0.46-0.15,0.67-0.1
			C559.84,628.26,560.51,629.13,560.46,630.41z"/>
		<path d="M558.34,649.57c1.66,0,2.54,1.19,2.11,2.83c-0.19,0.7-0.94,0.62-1.36,0.98c-0.53,0.45-1.07,0.42-1.57-0.08
			c-0.25-0.25-0.5-0.5-0.77-0.74c-0.6-0.53-0.75-1.22-0.44-1.89c0.3-0.65,0.84-1.13,1.67-1.1
			C558.1,649.57,558.22,649.57,558.34,649.57z"/>
		<path d="M557.86,674.05c-0.29-0.15-0.85-0.34-1.25-0.7c-0.63-0.56-0.58-1.54-0.01-2.16c0.75-0.82,2.31-0.93,3.2-0.23
			c0.49,0.38,0.75,0.87,0.67,1.5c-0.08,0.6-0.71,1.41-1.26,1.52C558.87,674.04,558.5,674.02,557.86,674.05z"/>
		<path d="M549.68,619.79c0.04,0.93-0.75,1.76-1.73,1.8c-0.96,0.04-1.81-0.72-1.85-1.68c-0.04-0.94,0.75-1.76,1.73-1.8
			C548.79,618.07,549.63,618.84,549.68,619.79z"/>
		<path d="M558.84,694.98c-0.93,0.1-1.83-0.64-1.94-1.58c-0.1-0.91,0.66-1.78,1.63-1.88c0.93-0.1,1.82,0.63,1.94,1.58
			C560.58,694,559.82,694.88,558.84,694.98z"/>
		<path d="M560.47,714.03c0.1,0.92-0.63,1.81-1.59,1.92c-0.95,0.11-1.86-0.61-1.98-1.54c-0.11-0.92,0.63-1.81,1.59-1.92
			C559.44,712.38,560.36,713.1,560.47,714.03z"/>
		<path d="M548.08,579.64c-0.95,0.1-1.86-0.61-1.97-1.54c-0.11-0.92,0.63-1.81,1.59-1.92c0.94-0.11,1.86,0.61,1.98,1.54
			C549.78,578.64,549.04,579.54,548.08,579.64z"/>
		<path d="M547.82,597.14c0.96-0.04,1.81,0.72,1.85,1.68c0.04,0.93-0.75,1.76-1.73,1.8c-0.96,0.04-1.81-0.72-1.86-1.68
			C546.05,598.01,546.84,597.19,547.82,597.14z"/>
		<path d="M549.61,641.36c-0.06,0.57-1.16,1.28-1.89,1.2c-0.96-0.1-1.71-0.96-1.62-1.85c0.1-0.95,0.88-1.63,1.87-1.61
			c0.12,0,0.24,0,0.35,0.04C548.73,639.28,549.66,640.89,549.61,641.36z"/>
		<path d="M548.95,661.65c0.08,0.75-0.57,1.66-1.27,1.82c-0.62,0.14-1.48-0.7-1.58-1.53c-0.08-0.74,0.57-1.66,1.27-1.82
			C548,659.98,548.87,660.83,548.95,661.65z"/>
		<path d="M548.96,682.77c0,0.68-0.4,1.13-1.05,1.02c-0.43-0.07-0.86-0.28-1.24-0.5c-0.44-0.26-0.44-0.8,0-1.06
			c0.38-0.22,0.81-0.42,1.24-0.49C548.56,681.64,548.96,682.08,548.96,682.77z"/>
		<path d="M548.94,703.61c0.06,0.71-0.24,1.08-0.93,1.14c-0.73,0.06-1.12-0.23-1.18-0.91c-0.07-0.71,0.23-1.08,0.93-1.14
			C548.48,702.64,548.88,702.95,548.94,703.61z"/>
		<path d="M536.93,587.23c0.38,0.49,0.81,0.85,0.96,1.3c0.11,0.33-0.91,0.89-1.33,0.81c-0.43-0.08-0.72-0.82-0.47-1.41
			C536.2,587.69,536.55,587.54,536.93,587.23z"/>
		<path d="M536.64,608.42c0.41-0.03,1.3,0.57,1.33,0.9c0.03,0.31-0.71,0.93-1.21,1.02c-0.42,0.07-0.73-0.31-0.75-0.91
			C535.99,608.83,536.23,608.45,536.64,608.42z"/>
		<path d="M536.93,713.05c0.38,0.49,0.81,0.85,0.96,1.3c0.11,0.33-0.91,0.89-1.33,0.81c-0.43-0.08-0.72-0.82-0.47-1.41
			C536.2,713.51,536.55,713.36,536.93,713.05z"/>
	</g>
	<g class="st3">
		<path class="st4" d="M172.98,637.33c-1.41-0.93-2.98-1.46-4.69-0.87c-3.54,1.21-4.13,5.08-1.96,7.58
			c0.68,0.78,1.73,1.18,2.81,1.31c0.59,0.07,1.2,0,1.79,0.02c0.63,0.02,1.17-0.13,1.61-0.59c0.33-0.34,0.66-0.68,1.02-0.98
			c0.69-0.57,1.02-1.26,0.91-2.14c-0.04-0.34-0.01-0.7-0.01-1.3C174.81,639.16,174.14,638.1,172.98,637.33z"/>
		<path class="st4" d="M169.1,603.4c0.7,0.1,1.44,0.08,2.15-0.01c0.44-0.06,0.88-0.29,1.25-0.54c0.39-0.26,0.67-0.66,1.04-0.96
			c0.68-0.57,1.06-1.23,0.94-2.13c-0.05-0.34-0.01-0.7-0.01-1.3c0.32-1.18-0.26-2.27-1.45-3.04c-1.42-0.93-2.98-1.48-4.69-0.91
			c-3.53,1.18-4.18,4.99-2.03,7.57C166.97,602.88,168.03,603.26,169.1,603.4z"/>
		<path class="st4" d="M169.08,624.37c0.58,0.09,1.2-0.01,1.79,0.03c0.79,0.06,1.38-0.25,1.88-0.8c0.24-0.26,0.49-0.51,0.76-0.74
			c0.68-0.56,1.06-1.23,0.95-2.13c-0.05-0.34-0.01-0.7-0.01-1.3c0.31-1.17-0.25-2.26-1.44-3.05c-1.42-0.94-2.99-1.48-4.69-0.92
			c-3.53,1.17-4.19,4.96-2.05,7.57C166.95,623.86,168.03,624.2,169.08,624.37z"/>
		<path class="st4" d="M171.88,665.78c0.62-0.31,1.2-0.7,1.76-1.11c0.61-0.44,0.89-1.06,0.82-1.82c-0.03-0.35-0.01-0.7-0.01-1.05
			c0,0,0,0-0.01,0c0-0.47,0.04-0.93-0.01-1.39c-0.04-0.33-0.11-0.72-0.31-0.96c-1.01-1.18-2.21-2.1-3.88-2.19
			c-1.09-0.05-2.15-0.06-2.9,0.94c-0.35,0.46-0.8,0.87-1.26,1.24c-1.34,1.07-1.21,2.48-0.77,3.81
			C166.22,666.04,169.14,667.13,171.88,665.78z"/>
		<path class="st4" d="M173.82,680.49c-1.24-2.17-3.19-2.68-5.6-1.68c-1.74,0.72-2.37,2.12-3.06,3.55c-0.13,0.27-0.11,0.75,0.05,1
			c0.55,0.87,0.94,1.8,1.67,2.6c1.34,1.47,3.11,1.91,5.39,0.65c0.1-0.05,0.24-0.04,0.33-0.1c1.2-0.84,2.22-1.77,1.84-3.26
			C174.53,682.17,174.3,681.35,173.82,680.49z"/>
		<path class="st4" d="M178.4,592.22c0.77,0.7,0.78,0.7,2.25,0.72c1.48-0.12,3.01-0.5,4.01-2.34c1.04-1.93,0.62-3.56-0.4-5.18
			c-0.85-1.34-3.26-1.9-4.76-1.22c-0.53,0.24-1.09,0.48-1.54,0.82c-2.3,1.74-2.51,4.09-0.57,6.21
			C177.71,591.58,178.05,591.9,178.4,592.22z"/>
		<path class="st4" d="M178.9,613.58c0.42,0.31,1.11,0.28,1.54,0.37c2.19-0.17,3.74-0.95,4.53-2.93c0.72-1.82,0.21-3.42-0.89-4.84
			c-1.04-1.34-3.14-1.51-4.83-0.9c-1.76,0.64-2.53,2.01-3.24,3.47c-0.17,0.36-0.08,0.92,0.06,1.33
			C176.58,611.57,177.68,612.66,178.9,613.58z"/>
		<path class="st4" d="M179.19,634.41c1.36,0.56,2.39,0.57,3.66-0.13c1.95-1.08,2.92-3.45,2.18-5.51c-0.67-1.87-2.06-2.7-3.76-2.98
			c-1.58-0.02-2.63,0.72-3.66,1.5c-0.88,0.67-1.17,1.7-1.65,2.61c-0.14,0.27-0.12,0.74,0.02,1.01
			C176.73,632.33,177.45,633.69,179.19,634.41z"/>
		<path class="st4" d="M179.99,655.78c1.07,0.39,3.48-0.36,4.17-1.37c0.64-0.94,1.28-1.94,1.1-3.18c0.16-1.25-0.64-2.16-1.21-3.14
			c-0.16-0.27-0.54-0.43-0.85-0.57c-0.2-0.09-0.47-0.04-0.71-0.08c-0.89-0.16-1.63-1.08-2.65-0.51c-1.21,0.68-2.6,1.16-3.21,2.57
			c-0.18,0.42-0.49,0.79-0.63,1.22c-0.11,0.31-0.14,0.71-0.04,1.02C176.58,653.75,178,655.06,179.99,655.78z"/>
		<path class="st4" d="M184.41,670.05c-0.28-0.22-0.5-0.5-0.77-0.73c-2.73-2.38-4.53-1.81-6.84,0.81c-0.37,0.42-0.59,0.99-0.79,1.53
			c-0.12,0.31-0.16,0.71-0.06,1.02c0.66,2.16,2.18,3.5,4.37,4.11c1.21,0.33,3.45-0.56,4.03-1.67c0.47-0.89,1.2-1.76,0.9-2.9
			C185.37,671.34,185.12,670.61,184.41,670.05z"/>
		<path class="st4" d="M183.22,689.92c-0.77-0.48-1.68-1.09-2.51-1.06c-0.97,0.04-1.99,0.61-2.85,1.15
			c-0.79,0.49-1.46,1.22-1.25,2.32c0.06,0.34,0.01,0.69,0.01,1.07c0.07,0.76-0.2,1.59,0.39,2.31c0.84,1.03,2,1.59,3.22,2.04
			c0.3,0.11,0.71,0.02,1.04-0.08c1.53-0.49,2.61-1.57,3.63-2.71c0.63-0.71,0.51-2.86-0.15-3.58
			C184.27,690.86,183.81,690.29,183.22,689.92z"/>
		<path class="st4" d="M190.56,602.81c0.86,0.92,1.63,0.38,2.53-0.02c1.14-0.51,1.85-1.43,2.65-2.26c0.52-0.54,0.5-2.74,0-3.3
			c-1-1.12-1.99-2.17-3.7-2.42c-1.54-0.22-4.28,0.87-4.56,2.2c-0.14,0.67-0.02,1.38-0.02,2.07
			C187.43,601.54,187.73,601.89,190.56,602.81z"/>
		<path class="st4" d="M195.25,575.72c-0.27-0.22-0.53-0.47-0.76-0.74c-0.58-0.65-1.26-1.04-2.18-0.92
			c-0.35,0.04-0.72,0.01-1.65,0.01c-0.13,0.02-0.94-0.08-1.5,0.24c-1.03,0.58-1.92,1.38-1.75,2.77c0.07,0.57,0.09,1.17-0.01,1.73
			c-0.19,1.11,0.45,1.83,1.24,2.33c0.86,0.54,1.88,0.85,2.84,1.25c0.1,0.04,0.25,0.04,0.35,0c1.75-0.57,3.28-1.59,4.03-3.16
			C196.38,578.16,196.49,576.72,195.25,575.72z"/>
		<path class="st4" d="M194.15,616.6c-0.44-0.45-0.97-0.63-1.6-0.6c-0.6,0.02-1.19,0-1.79,0.01c-2.15,0.03-3.3,1.1-3.34,3.12
			c-0.01,0.35,0,0.69,0,1.04c0.02,2.28,0.53,2.58,2.88,3.64c1.49,0.67,2.44,0.14,3.52-0.44c0.5-0.27,0.88-0.78,1.29-1.19
			c1.33-1.33,1.36-3.27,0.05-4.59C194.84,617.25,194.48,616.94,194.15,616.6z"/>
		<path class="st4" d="M194.51,637.93c-0.51-0.69-1.23-1.07-2.17-0.97c-0.47,0.05-0.96,0.01-1.44,0.01
			c-2.43,0.02-3.46,1.02-3.48,3.36c0,0.23,0,0.47,0,0.7c0.07,0.79-0.21,1.63,0.46,2.32c0.75,0.76,1.45,1.59,2.74,1.32
			c0.23-0.05,0.48,0.01,0.72-0.01c0.82-0.09,1.73,0,2.43-0.33c1.24-0.59,1.66-1.91,2.23-3.04c0.14-0.28,0.14-0.75-0.01-1.02
			C195.56,639.46,195.06,638.68,194.51,637.93z"/>
		<path class="st4" d="M195.5,660.44c-1.02-2.75-3.32-3.01-6.1-2.04c-0.87,0.31-1.23,0.94-1.62,1.64c-0.66,1.2-0.53,2.54-0.21,3.69
			c0.25,0.91,1.09,1.8,2.31,1.89c0.59,0.04,1.19,0.01,1.96,0.01c0.63-0.05,1.45,0.17,2.19-0.45c1.03-0.86,1.54-1.99,2-3.16
			c0.08-0.2,0.06-0.48-0.02-0.68C195.88,661.02,195.62,660.75,195.5,660.44z"/>
		<path class="st4" d="M195.38,681.12c-1.32-2.58-2.69-2.5-5.7-1.91c-1.23,0.24-1.73,1.24-2.07,2.16c-0.64,1.78-0.03,3.4,1.2,4.78
			c0.21,0.23,0.61,0.38,0.94,0.42c0.59,0.07,1.2,0.02,2.07,0.02c0.54-0.04,1.39,0.2,2.13-0.39c1.05-0.84,1.67-1.93,2.06-3.16
			c0.09-0.3-0.02-0.69-0.13-1C195.78,681.71,195.53,681.43,195.38,681.12z"/>
		<path class="st4" d="M199.29,611.81c0.87,1.07,1.92,1.75,3.37,1.34c1.61,0.41,2.53-0.53,3.27-1.62c0.44-0.65,0.85-1.45,0.88-2.19
			c0.08-1.83-1.98-3.79-3.81-3.82c-0.36-0.01-0.72,0.02-1.07,0c-0.76-0.05-1.4,0.13-1.92,0.71c-0.31,0.35-0.68,0.65-1.01,0.99
			c-1.15,1.19-1.13,3.14,0.04,4.35C199.13,611.64,199.22,611.72,199.29,611.81z"/>
		<path class="st4" d="M192.13,699.88c-0.46,0.09-0.96-0.02-1.43,0.03c-1.48,0.13-2.22,1.31-2.97,2.28c-0.65,0.84-0.43,2-0.1,2.99
			c0.13,0.4,0.62,0.69,0.91,1.05c0.87,1.12,1.98,1.64,3.42,1.3c1.42,0.37,2.3-0.43,3.03-1.38c1.42-1.83,1.39-3.11-0.13-4.95
			C194.18,700.38,193.41,699.63,192.13,699.88z"/>
		<path class="st4" d="M199.01,632.5c0.16,0.17,0.36,0.31,0.5,0.5c0.81,1,1.84,1.41,3.12,1.15c1.55,0.32,2.51-0.51,3.29-1.6
			c0.33-0.46,0.62-0.99,0.78-1.53c0.13-0.41,0.18-0.95,0.01-1.33c-0.32-0.73-0.74-1.43-1.24-2.06c-0.59-0.75-1.31-1.35-2.44-1.15
			c-0.46,0.08-0.95,0.04-1.43,0.01c-0.66-0.04-1.14,0.25-1.57,0.68c-0.33,0.33-0.68,0.65-1.01,0.99
			C197.87,629.35,197.86,631.3,199.01,632.5z"/>
		<path class="st4" d="M205.48,585.66c-0.65-0.72-1.35-1.31-2.46-1.11c-0.35,0.06-0.72,0.03-1.07,0.01
			c-0.75-0.05-1.41,0.11-1.92,0.69c-0.31,0.35-0.68,0.65-1.01,0.99c-1.16,1.2-1.15,3.14,0.01,4.35c0.08,0.08,0.17,0.17,0.25,0.25
			c1.82,1.75,1.32,1.37,3.62,1.42c1.33,0.31,2.27-0.58,3.04-1.66c1.22-1.71,1.19-2.66,0-4.4C205.81,586,205.64,585.83,205.48,585.66
			z"/>
		<path class="st4" d="M204.59,648.07c-0.89-0.25-1.71-0.65-2.69-0.63c-0.76,0.02-1.39,0.17-1.9,0.74c-0.23,0.26-0.5,0.49-0.75,0.74
			c-1.48,1.48-1.44,3.3,0.03,4.83c0.94,0.98,1.9,1.77,3.32,1.35c1.78,0.36,2.83-0.59,3.46-1.89c0.3-0.62,1.25-1.23,0.52-2.16
			C205.85,650.12,206.28,648.55,204.59,648.07z"/>
		<path class="st4" d="M202.59,668.42c-1.3-0.11-2.29,0.3-3.14,1.25c-0.72,0.8-1.63,1.47-1.19,2.51c-0.15,1.09,0.25,1.72,0.84,2.37
			c1.48,1.65,2.74,2.27,5.7,0.86c0.98-0.47,1.44-1.15,1.35-2.2c-0.03-0.35,0-0.7,0-1.05C206.14,669.72,205.08,668.63,202.59,668.42z
			"/>
		<path class="st4" d="M203.68,689.66c-0.86-0.56-2.15-0.54-3.07,0.02c-1.46,0.9-2.31,2.29-2.37,4.02
			c-0.01,0.43,0.18,0.89,0.38,1.28c0.15,0.3,0.48,0.51,0.73,0.76c1.68,1.66,2.74,1.7,5.07,0.77c1.36-0.54,1.84-1.33,1.72-2.64
			c-0.01-0.12,0-0.23,0-0.42C206.48,691.55,205.03,690.54,203.68,689.66z"/>
		<path class="st4" d="M209.96,601.09c1.06,1.57,2.76,2.05,4.66,1.4c1.65-0.57,2.52-2.28,2.33-3.84c0.16-0.88-0.33-1.49-0.95-2.1
			c-1.84-1.81-2.78-1.94-4.99-0.78c-1.17,0.62-1.49,1.74-1.93,2.78c-0.31,0.72,0.29,1.3,0.62,1.91
			C209.81,600.65,209.83,600.9,209.96,601.09z"/>
		<path class="st4" d="M212.92,581.76c2.12,0.19,4.25-1.41,4.05-4.09c-0.12-1.66-2.09-3.68-3.66-3.59
			c-2.08,0.12-4.34,2.17-4.27,3.88C209.11,579.81,211.1,581.77,212.92,581.76z"/>
		<path class="st4" d="M215.43,616.98c-1.55-1.46-4.26-1.13-5.49,0.7c-0.32,0.47-0.55,1-0.79,1.52c-0.09,0.2-0.15,0.46-0.1,0.67
			c0.3,1.24,0.9,2.31,1.86,3.23c0.69,0.66,1.49,0.59,2.31,0.6c0.75,0.06,1.4-0.1,1.92-0.67c0.31-0.35,0.68-0.65,1-0.98
			c1.16-1.19,1.18-3.15,0.05-4.33C215.94,617.46,215.68,617.22,215.43,616.98z"/>
		<path class="st4" d="M202.61,710.38c-2.26,0.03-4.63,2.22-4.37,4.05c0.28,1.95,2.36,3.61,4.43,3.66c1.14,0.03,1.62-0.8,2.34-1.36
			c0.91-0.71,1.3-1.6,1.13-2.61C206.12,712.37,204.16,710.35,202.61,710.38z"/>
		<path class="st4" d="M216.95,640.96c-0.01-1.88-1.87-3.95-3.4-3.98c-2.14-0.05-4.65,2.12-4.52,3.91c0.14,1.91,2.16,3.66,4.3,3.79
			c0.95,0.06,1.53-0.43,2.13-1.01C216.3,642.85,217.29,642.13,216.95,640.96z"/>
		<path class="st4" d="M216.02,659.49c-0.9-0.76-1.89-1.48-3.1-1.49c-1.75-0.01-3.97,2.31-3.88,3.86c0.11,1.92,2.2,3.69,4.36,3.81
			c0.99,0.05,1.54-0.5,2.12-1.08c1.77-1.73,1.37-1.32,1.43-2.99C217.11,660.71,216.69,660.05,216.02,659.49z"/>
		<path class="st4" d="M216.79,681.35c-0.88-1.33-2.22-1.99-3.87-2.47c-1.01,0.31-2.13,0.69-2.89,1.6c-0.43,0.52-0.7,1.19-0.94,1.82
			c-0.12,0.3-0.1,0.71,0.01,1.02c0.58,1.6,1.71,2.7,3.38,3.22c0.32,0.1,0.75,0.11,1.06-0.01c0.65-0.25,1.29-0.57,1.88-0.95
			c1.32-0.86,1.9-2.43,1.5-3.93C216.89,681.56,216.85,681.45,216.79,681.35z"/>
		<path class="st4" d="M221.62,606.9c-1.07,0.85-1.19,1.91-1.09,2.74c0.04,1.03-0.17,1.81,0.52,2.26c0.77,0.5,1.62,0.88,2.45,1.27
			c0.19,0.09,0.5,0.08,0.7-0.01c0.94-0.45,1.93-0.78,2.7-1.55c1.23-1.23,1.22-3.4-0.12-4.58
			C224.86,605.34,223.59,605.35,221.62,606.9z"/>
		<path class="st4" d="M215.81,701.23c-0.69-0.43-1.39-0.84-2.11-1.21c-0.18-0.09-0.51-0.11-0.67-0.01
			c-0.98,0.61-2.11,0.99-2.88,1.93c-0.6,0.74-0.26,1.55-0.26,1.57c-0.36,2.23,0.3,3.15,1.77,3.57c0.22,0.06,0.39,0.31,0.61,0.35
			c0.45,0.07,0.98,0.18,1.36,0.03c0.75-0.3,1.44-0.75,2.13-1.18C217.46,705.23,217.42,702.23,215.81,701.23z"/>
		<path class="st4" d="M221.04,590.93c0.81,0.68,1.76,1.33,2.79,1.25c1.28-0.1,2.37-0.84,3.31-1.76c0.79-0.78,0.54-1.69,0.62-2.58
			c0.07-0.8-0.44-1.28-0.96-1.75c-1.92-1.72-3.22-1.75-5.15-0.16c-1.04,0.86-1.13,1.1-1.11,3.07
			C220.57,589.67,220.41,590.4,221.04,590.93z"/>
		<path class="st4" d="M225.29,627.03c-0.84-0.25-1.44-0.62-2.21,0.01c-0.35,0.28-0.87,0.37-1.22,0.65
			c-0.83,0.68-1.61,1.42-1.3,2.64c-0.31,1.22,0.46,1.98,1.3,2.63c0.54,0.42,1.2,0.7,1.83,1.01c0.2,0.1,0.52,0.2,0.66,0.11
			c0.86-0.57,2.13-0.65,2.56-1.71c0.33-0.82,1.25-1.62,0.76-2.54C227.11,628.78,226.83,627.5,225.29,627.03z"/>
		<path class="st4" d="M222.42,654.33c0.55,0.38,1.39,0.84,1.89,0.68c0.95-0.31,2.05-0.64,2.61-1.62c0.23-0.4,0.38-0.83,0.61-1.23
			c0.31-0.55,0.29-1.09,0.03-1.64c-0.05-0.1-0.15-0.19-0.18-0.3c-0.51-1.46-1.36-2.45-3.17-2.16c-0.69,0.12-1.45,0.09-2.04,0.39
			c-1.35,0.66-2.15,2.88-1.46,4.17C221.07,653.31,221.75,653.88,222.42,654.33z"/>
		<path class="st4" d="M226.74,669.97c-0.33-0.48-0.79-0.84-1.46-0.83c-0.59,0.01-1.19-0.02-1.78-0.01
			c-1.63,0.04-2.89,1.24-2.95,2.77c-0.09,2.41,1.04,3.52,3.61,3.51c0.36,0,0.71-0.01,1.07,0c0.82,0.03,1.3-0.48,1.69-1.07
			c0.25-0.38,0.39-0.83,0.61-1.22c0.31-0.55,0.3-1.09,0.02-1.64C227.29,670.98,227.07,670.44,226.74,669.97z"/>
		<path class="st4" d="M225.78,690.66c-1.4-1.22-4.41-0.47-5.11,1.25c-0.56,1.37,0.14,3.53,1.5,4.19c0.6,0.29,1.36,0.27,1.45,0.28
			c0.97,0,1.33-0.01,1.68,0c0.67,0.02,1.13-0.35,1.46-0.84c0.38-0.57,0.74-1.18,0.93-1.83c0.12-0.39,0.04-0.97-0.2-1.3
			C227.01,691.77,226.4,691.2,225.78,690.66z"/>
		<path class="st4" d="M234.6,616.71c-1.49,0-3,1.02-3.22,2.18c-0.31,1.62,0.35,3.19,1.64,3.89c1.02,0.55,3.14,0.23,3.93-0.67
			c1.71-1.96,1.74-2.46,0.14-4.37C236.27,616.77,236.01,616.71,234.6,616.71z"/>
		<path class="st4" d="M236.11,575c-1.94-0.78-4.53-0.1-4.75,2.5c-0.02,0.23,0,0.46,0,0.7c0.05,1.58,1.29,2.81,2.9,2.86
			c1.99,0.07,3.11-0.73,3.93-2.79c0.07-0.18,0.13-0.43,0.06-0.59C237.79,576.59,237.24,575.46,236.11,575z"/>
		<path class="st4" d="M234.69,602.03c1.74,0.14,2.46-1,3.21-2.24c0.41-0.69,0.46-1.21-0.03-1.82c-0.36-0.45-0.65-0.94-0.99-1.4
			c-1.01-1.36-4.43-1.36-5.36,0.98C230.65,599.73,232.03,602.31,234.69,602.03z"/>
		<path class="st4" d="M223.78,711.07c-2.07,0-3.25,1.18-3.23,3.24c0.01,2,1.24,3.08,3.43,3.05c1.85-0.03,3.04-1.23,3.05-3.07
			C227.05,712.25,225.85,711.07,223.78,711.07z"/>
		<path class="st4" d="M234.33,637.68c-1.91,0.05-3.05,1.39-2.98,3.49c0.07,1.84,1.46,2.9,3.69,2.8c1.73-0.07,2.82-1.37,2.8-3.31
			C237.81,638.73,236.51,637.62,234.33,637.68z"/>
		<path class="st4" d="M237.71,660.5c-0.58-0.85-1.15-1.81-2.41-1.85c-1.38-0.05-2.54,0.32-3.26,1.57c-0.92,1.59-0.7,2.93,0.73,4.3
			c0.59,0.56,1.33,0.38,2.03,0.42c1.84-0.03,3.04-1.24,3.04-3.08C237.83,661.4,237.94,660.84,237.71,660.5z"/>
		<path class="st4" d="M234.67,679.64c-0.44,0.04-0.89,0.24-1.26,0.48c-0.39,0.25-0.69,0.62-1.02,0.95
			c-1.57,1.55-1.23,3.31,0.84,4.31c1.83,0.89,2.77,0.74,4.01-0.65c0.6-0.67,0.63-0.79,0.59-2.23
			C237.79,680.76,236.39,679.46,234.67,679.64z"/>
		<path class="st4" d="M234.37,700.61c-0.22,0.07-0.49,0.09-0.65,0.22c-0.62,0.53-1.23,1.08-1.8,1.66
			c-0.78,0.79-0.79,1.65-0.05,2.42c0.48,0.51,0.98,1,1.51,1.46c0.85,0.74,2.32,0.69,3.22-0.06c1.21-1.02,1.65-2.68,1.06-4.01
			C237.34,701.55,235.3,700.5,234.37,700.61z"/>
		<path class="st4" d="M244.17,591.04c0.6,0.54,1.25,0.61,1.97,0.34c0.22-0.08,0.39-0.3,0.61-0.36c1.53-0.41,2.13-1.38,1.87-2.73
			c0.12-1.21-0.35-1.92-1.36-2.33c-0.44-0.18-0.82-0.52-1.27-0.61c-0.44-0.09-1.07-0.13-1.36,0.11
			C241.44,588.04,241.27,588.44,244.17,591.04z"/>
		<path class="st4" d="M244.41,612.2c0.48,0.42,1.1,0.38,1.69,0.18c0.22-0.08,0.39-0.3,0.61-0.36c1.49-0.42,2.18-1.34,1.91-2.75
			c0.13-1.17-0.32-1.89-1.31-2.33c-0.43-0.19-0.83-0.47-1.27-0.61c-0.58-0.19-1.2-0.19-1.68,0.24
			C241.32,609.25,241.39,609.55,244.41,612.2z"/>
		<path class="st4" d="M246,633.4c0.56-0.17,1.09-0.46,1.59-0.76c0.63-0.38,1.1-0.89,1.06-1.69c-0.02-0.35-0.03-0.7,0-1.05
			c0.09-0.95-0.44-1.54-1.22-1.94c-0.62-0.32-1.28-0.55-1.92-0.82c-0.39,0.13-0.79,0.15-1.03,0.36c-0.71,0.62-1.39,1.28-2.03,1.97
			c-0.43,0.45-0.36,1.42,0.11,1.92c0.57,0.6,1.17,1.17,1.78,1.73C244.81,633.55,245.43,633.57,246,633.4z"/>
		<path class="st4" d="M244.69,654.29c0.25,0.17,0.69,0.17,1.02,0.12s0.63-0.3,0.95-0.42c1.03-0.38,1.98-0.81,1.98-2.11
			c0-1.47-0.57-2.59-1.99-3.29c-0.57-0.28-1.03-0.54-1.6-0.09c-0.09,0.07-0.19,0.16-0.3,0.19c-1.52,0.4-2.12,1.37-1.86,2.73
			C242.71,652.94,243.72,653.62,244.69,654.29z"/>
		<path class="st4" d="M246.13,669.28c-0.07-0.07-0.22-0.08-0.33-0.08c-1.12-0.07-2.87,1.44-2.92,2.54c-0.01,0.23,0,0.47,0,0.7
			c-0.09,1.19,0.36,2.01,1.62,2.35c0.54,0.15,1.05,0.91,1.58,0.5c0.93-0.71,1.72-1.6,2.49-2.47c0.18-0.2,0.18-0.8,0-1
			C247.81,670.92,246.96,670.11,246.13,669.28z"/>
		<path class="st4" d="M246.08,690.81c-0.35-0.03-0.71-0.02-1.06-0.01c-1.49,0.04-2.1,0.64-2.14,2.1c0,0.11,0,0.23,0,0.69
			c0.01,0.11,0,0.58,0.15,1c0.11,0.3,0.38,0.61,0.66,0.78c1.68,1,4.35,0.03,4.91-1.78c0.07-0.21,0.06-0.47,0-0.68
			C248.31,691.94,247.03,690.88,246.08,690.81z"/>
		<path class="st4" d="M246.06,711.78c-0.36-0.02-0.71-0.01-1.07,0c-1.48,0.05-2.07,0.65-2.11,2.15c0,0.12,0,0.23,0,0.35
			c0.01,0,0.02,0,0.03,0c0,0.35-0.03,0.7,0.01,1.04c0.07,0.56,0.85,1.28,1.46,1.33c0.59,0.04,1.19,0.05,1.78,0.02
			c1.04-0.06,1.69-0.73,1.75-1.79c0.02-0.46,0.02-0.92-0.01-1.38C247.84,712.47,247.15,711.84,246.06,711.78z"/>
		<path class="st4" d="M254.86,617.53c-0.4,0.18-0.91,0.56-0.98,0.92c-0.16,0.88-0.17,1.82-0.05,2.71c0.05,0.36,0.57,0.88,0.94,0.94
			c0.91,0.15,1.87,0.17,2.79,0.05c0.37-0.05,0.9-0.55,0.97-0.91c0.16-0.88,0.22-1.83,0.04-2.7c-0.09-0.43-0.77-0.81-1.26-1.08
			c-0.27-0.15-0.7-0.03-1.75-0.03C255.78,617.42,255.26,617.35,254.86,617.53z"/>
		<path class="st4" d="M253.77,579.2c0.2,0.75,1.23,1.19,2.71,1.16c1.14-0.02,2.08-0.58,2.22-1.32c0.02-0.11,0.02-0.23,0.02-0.35
			c0-0.35,0-0.69,0-1.04h-0.01c0-0.23,0.02-0.46,0-0.69c-0.07-0.6-0.77-1.41-1.34-1.45c-2.91-0.24-3.97,0.08-3.65,3.36
			C253.72,578.97,253.74,579.09,253.77,579.2z"/>
		<path class="st4" d="M253.75,600.09c0.32,0.46,0.77,1.1,1.23,1.15c2.62,0.27,4.08,0.24,3.73-3.24c-0.08-0.78-0.81-1.48-1.63-1.55
			c-0.24-0.02-0.48,0-0.71-0.02c-1.96-0.2-2.89,0.75-2.7,2.51C253.69,599.42,253.58,599.85,253.75,600.09z"/>
		<path class="st4" d="M256.85,685.21c1.07-0.06,1.78-0.69,1.86-1.67c0.03-0.34-0.01-0.69,0.02-1.03c0.08-0.88-0.19-1.66-1.04-1.99
			c-1.01-0.4-2.07-0.43-2.91,0.48c-0.31,0.34-0.68,0.65-0.91,1.04c-0.16,0.27-0.21,0.67-0.15,0.98
			C253.98,684.27,255.47,685.29,256.85,685.21z"/>
		<path class="st4" d="M255.95,664.18c1.74,0.49,2.78-0.49,2.77-2.45c0-0.11-0.01-0.23,0-0.34c0.08-0.75-0.2-1.38-0.86-1.75
			c-0.87-0.48-1.81-0.45-2.66,0.03c-0.4,0.22-0.7,0.61-1.02,0.95c-0.71,0.78-0.71,1.64,0.09,2.41
			C254.76,663.5,255.33,664.01,255.95,664.18z"/>
		<path class="st4" d="M253.73,641.12c0.4,1.53,2.39,2.61,3.85,2c0.47-0.2,0.82-0.77,1.09-1.25c0.15-0.26,0.03-0.67,0.03-1.01
			c0.01,0,0.02,0,0.03,0c0-0.11-0.01-0.23,0-0.34c0.09-0.89-0.23-1.64-1.08-1.96c-0.88-0.33-1.85-0.41-2.64,0.31
			c-0.43,0.39-0.85,0.8-1.16,1.28C253.68,640.39,253.65,640.82,253.73,641.12z"/>
		<path class="st4" d="M257.07,701.53c-0.77-0.61-2.38,0-2.59,0.94c-0.09,0.44-0.07,0.91-0.1,1.36c0.02,0,0.04,0,0.06,0
			c0,0.34-0.05,0.69,0.01,1.03c0.2,1.14,1.86,1.72,2.8,0.96c0.45-0.36,0.86-0.79,1.22-1.23c0.39-0.49,0.41-1.12,0.06-1.6
			C258.13,702.45,257.61,701.96,257.07,701.53z"/>
		<path class="st4" d="M265.24,588.44c0,0.34-0.04,0.69,0.01,1.03c0.18,1.16,1.81,1.79,2.75,1.06c0.37-0.28,0.7-0.62,1.01-0.96
			c0.72-0.78,0.7-1.61-0.06-2.42c-0.24-0.25-0.49-0.5-0.75-0.72c-0.59-0.5-1.36-0.65-1.93-0.32c-0.63,0.36-1.09,0.86-1.06,1.64
			c0.01,0.23,0,0.46,0,0.69C265.22,588.44,265.23,588.44,265.24,588.44z"/>
		<path class="st4" d="M266.55,611.77c0.75,0.17,1.38-0.06,1.89-0.64c0.23-0.26,0.51-0.48,0.73-0.75c0.44-0.52,0.5-1.42,0.09-1.9
			c-0.37-0.44-0.78-0.87-1.23-1.23c-0.94-0.75-2.59-0.14-2.78,1c-0.06,0.33-0.01,0.68-0.01,1.03c-0.01,0-0.02,0-0.03,0
			c0,0.23-0.01,0.46,0,0.69C265.26,610.82,265.8,611.59,266.55,611.77z"/>
		<path class="st4" d="M267.78,628.07c-0.15-0.12-0.46-0.15-0.67-0.1c-1.25,0.29-1.92,1.16-1.87,2.44c0,0.35-0.05,0.7,0.01,1.04
			c0.21,1.18,1.87,1.74,2.82,0.96c0.45-0.37,0.87-0.8,1.22-1.26c0.38-0.51,0.38-1.13,0-1.62
			C268.87,628.99,268.32,628.52,267.78,628.07z"/>
		<path class="st4" d="M267.72,649.57c-0.12,0-0.24,0-0.36,0c-1.66,0-2.54,1.19-2.11,2.83c0.19,0.7,0.94,0.62,1.36,0.98
			c0.53,0.45,1.07,0.42,1.57-0.08c0.25-0.25,0.5-0.5,0.77-0.74c0.6-0.53,0.75-1.22,0.44-1.89
			C269.1,650.02,268.55,649.54,267.72,649.57z"/>
		<path class="st4" d="M265.89,670.96c-0.49,0.38-0.75,0.87-0.67,1.5c0.08,0.6,0.71,1.41,1.26,1.52c0.34,0.07,0.71,0.04,1.35,0.07
			c0.29-0.15,0.85-0.34,1.25-0.7c0.63-0.56,0.58-1.54,0.01-2.16C268.34,670.37,266.78,670.25,265.89,670.96z"/>
		<path class="st4" d="M277.87,618.11c-0.96-0.04-1.81,0.73-1.86,1.68c-0.04,0.93,0.75,1.76,1.73,1.8c0.96,0.04,1.81-0.72,1.85-1.68
			C279.65,618.98,278.86,618.16,277.87,618.11z"/>
		<path class="st4" d="M267.16,691.52c-0.93-0.1-1.82,0.63-1.94,1.58c-0.11,0.9,0.66,1.78,1.63,1.88c0.93,0.1,1.83-0.64,1.94-1.58
			C268.89,692.49,268.14,691.62,267.16,691.52z"/>
		<path class="st4" d="M267.2,712.49c-0.95-0.11-1.87,0.61-1.97,1.54c-0.1,0.92,0.63,1.81,1.59,1.92c0.95,0.11,1.86-0.61,1.98-1.54
			C268.9,713.49,268.16,712.6,267.2,712.49z"/>
		<path class="st4" d="M277.62,579.64c0.95,0.1,1.86-0.61,1.97-1.54c0.11-0.92-0.63-1.81-1.59-1.92c-0.94-0.11-1.86,0.61-1.98,1.54
			C275.92,578.64,276.66,579.54,277.62,579.64z"/>
		<path class="st4" d="M277.87,597.14c-0.96-0.04-1.81,0.72-1.85,1.68c-0.04,0.93,0.75,1.76,1.73,1.8c0.96,0.04,1.81-0.72,1.86-1.68
			C279.65,598.01,278.86,597.19,277.87,597.14z"/>
		<path class="st4" d="M277.72,639.09c-0.12,0-0.24,0-0.35,0.04c-0.41,0.15-1.34,1.76-1.29,2.22c0.06,0.57,1.16,1.28,1.89,1.2
			c0.96-0.1,1.71-0.96,1.62-1.85C279.5,639.75,278.71,639.07,277.72,639.09z"/>
		<path class="st4" d="M278.32,660.12c-0.62-0.14-1.49,0.71-1.57,1.53c-0.08,0.75,0.57,1.66,1.27,1.82c0.62,0.14,1.48-0.7,1.58-1.53
			C279.68,661.2,279.03,660.28,278.32,660.12z"/>
		<path class="st4" d="M279.03,682.23c-0.38-0.22-0.81-0.42-1.24-0.49c-0.65-0.1-1.05,0.34-1.05,1.02s0.4,1.13,1.05,1.02
			c0.43-0.07,0.86-0.28,1.24-0.5C279.47,683.03,279.47,682.49,279.03,682.23z"/>
		<path class="st4" d="M277.93,702.71c-0.72-0.07-1.12,0.24-1.18,0.9c-0.06,0.71,0.24,1.08,0.93,1.14c0.73,0.06,1.12-0.23,1.18-0.91
			C278.93,703.14,278.63,702.78,277.93,702.71z"/>
		<path class="st4" d="M289.14,589.34c0.43-0.08,0.72-0.82,0.47-1.41c-0.1-0.24-0.45-0.39-0.84-0.7c-0.38,0.49-0.81,0.85-0.96,1.3
			C287.7,588.86,288.71,589.42,289.14,589.34z"/>
		<path class="st4" d="M288.93,610.34c0.42,0.07,0.73-0.31,0.75-0.91s-0.21-0.98-0.63-1.01c-0.41-0.03-1.3,0.57-1.33,0.9
			C287.7,609.63,288.43,610.25,288.93,610.34z"/>
		<path class="st4" d="M289.6,713.75c-0.1-0.24-0.45-0.39-0.84-0.7c-0.38,0.49-0.81,0.85-0.96,1.3c-0.11,0.33,0.91,0.89,1.33,0.81
			C289.56,715.09,289.86,714.35,289.6,713.75z"/>
	</g>
	<g>
		<path class="st1" d="M601.91,569.17c34.14,0,61.92,27.77,61.92,61.92v26.82c0,34.14-27.77,61.92-61.92,61.92H226.09
			c-34.14,0-61.92-27.77-61.92-61.92v-26.82c0-34.14,27.77-61.92,61.92-61.92H601.91 M601.91,555H226.09
			c-42.02,0-76.09,34.07-76.09,76.09v26.82c0,42.02,34.07,76.09,76.09,76.09h375.82c42.02,0,76.09-34.07,76.09-76.09v-26.82
			C678,589.07,643.93,555,601.91,555L601.91,555z"/>
	</g>
</g>
<g>
	<g>
		<g>
			<path class="st5" d="M473.81,593.1c-1.8,6.2-3.76,12.36-5.37,18.61c-4.72,18.26-7.5,36.79-7.47,55.69c0,2.2,0.1,4.4,0.16,6.6
				c0.08,2.91-0.83,5.47-2.89,7.52c-5.47,5.46-10.97,10.89-16.48,16.3c-2.09,2.05-4.62,3.12-7.54,3.49
				c-21.11,2.7-42.2,3.13-63.3-0.09c-1.5-0.23-1.9-0.92-2.16-2.23c-2.71-13.21-3.15-26.56-2.14-39.96
				c1.49-19.88,5.57-39.26,11.73-58.22c0.56-1.73,1.39-2.29,3.14-2.39c23.77-1.34,47.54-2.74,71.3-4.13c5.83-0.34,11.66-0.65,17.5-1
				c0.56-0.03,1.1-0.18,1.66-0.28C472.56,593.05,473.18,593.08,473.81,593.1z M462.34,602.14c-3.43,0.17-6.55,0.3-9.68,0.49
				c-21.82,1.29-43.65,2.61-65.48,3.83c-1.55,0.09-2.15,0.58-2.57,2c-4.95,16.74-8.42,33.75-9.73,51.17
				c-0.81,10.75-0.58,21.47,0.98,32.15c0.19,1.28,0.58,1.89,2.04,2.06c16.44,1.86,32.86,1.71,49.29-0.09c4.05-0.44,7.19-2.89,8-6.86
				c0.55-2.73,0.59-5.6,0.52-8.4c-0.07-2.52-0.6-5.03-0.92-7.44c6.05,0.22,11.91,0.43,17.94,0.65
				C452.15,647.9,455.94,624.99,462.34,602.14z"/>
			<path class="st5" d="M472,594.03l0.49,0.02c-0.45,1.53-0.91,3.06-1.36,4.59c-1.25,4.19-2.55,8.51-3.66,12.82
				c-5.08,19.65-7.53,37.95-7.5,55.94c0,1.63,0.05,3.28,0.1,4.88c0.02,0.58,0.04,1.16,0.05,1.74c0.07,2.71-0.8,4.99-2.6,6.79
				c-4.76,4.75-9.99,9.93-16.47,16.29c-1.83,1.8-4.11,2.85-6.97,3.22c-11.4,1.46-22.01,2.17-32.43,2.17
				c-10.49,0-20.78-0.76-30.59-2.25c-0.91-0.14-1.11-0.35-1.34-1.44c-2.51-12.26-3.21-25.23-2.13-39.68
				c1.42-18.96,5.35-38.47,11.68-57.98c0.42-1.29,0.86-1.62,2.25-1.7c17.96-1.01,36.21-2.08,53.86-3.11l17.44-1.02
				c2.75-0.16,5.5-0.31,8.24-0.47c3.08-0.17,6.17-0.35,9.25-0.53c0.45-0.03,0.87-0.11,1.28-0.2
				C471.74,594.08,471.87,594.06,472,594.03 M401.73,696.17c8.33,0,16.94-0.48,25.58-1.43c4.68-0.51,8-3.37,8.87-7.66
				c0.6-2.95,0.61-6.02,0.54-8.63c-0.05-1.82-0.33-3.61-0.6-5.35c-0.05-0.34-0.11-0.68-0.16-1.02l5.99,0.22l10.75,0.39l1.06,0.04
				l-0.03-1.06c-0.53-21.71,2.6-44.37,9.58-69.27l0.37-1.34l-1.39,0.07c-1.11,0.06-2.18,0.11-3.24,0.16
				c-2.23,0.11-4.33,0.21-6.45,0.33c-5.6,0.33-11.2,0.66-16.79,1c-15.95,0.95-32.45,1.93-48.68,2.84c-1.95,0.11-2.92,0.87-3.47,2.72
				c-5.32,18-8.52,34.81-9.77,51.38c-0.84,11.21-0.51,22.1,0.98,32.37c0.2,1.36,0.69,2.65,2.91,2.91
				C385.61,695.72,393.66,696.17,401.73,696.17 M471.93,593.03c-0.55,0.1-1.1,0.25-1.66,0.28c-5.83,0.34-11.66,0.66-17.5,1
				c-23.77,1.38-47.53,2.79-71.3,4.13c-1.75,0.1-2.58,0.66-3.14,2.39c-6.16,18.96-10.24,38.33-11.73,58.22
				c-1,13.4-0.56,26.74,2.14,39.96c0.27,1.31,0.66,2,2.16,2.23c10.25,1.56,20.5,2.27,30.74,2.27c10.85,0,21.7-0.79,32.56-2.18
				c2.92-0.37,5.45-1.44,7.54-3.49c5.51-5.41,11.01-10.84,16.48-16.3c2.06-2.06,2.97-4.61,2.89-7.52c-0.06-2.2-0.15-4.4-0.16-6.6
				c-0.03-18.9,2.75-37.44,7.47-55.69c1.62-6.25,3.57-12.41,5.37-18.61C473.18,593.08,472.56,593.05,471.93,593.03L471.93,593.03z
				 M462.34,602.14c-6.4,22.86-10.19,45.76-9.61,69.56c-6.03-0.22-11.89-0.43-17.94-0.65c0.32,2.42,0.85,4.92,0.92,7.44
				c0.07,2.8,0.03,5.68-0.52,8.4c-0.81,3.97-3.94,6.42-8,6.86c-8.49,0.93-16.98,1.42-25.47,1.42c-7.94,0-15.87-0.43-23.81-1.33
				c-1.46-0.17-1.85-0.78-2.04-2.06c-1.56-10.68-1.79-21.41-0.98-32.15c1.31-17.42,4.78-34.44,9.73-51.17
				c0.42-1.42,1.02-1.92,2.57-2c21.83-1.22,43.65-2.55,65.48-3.83C455.79,602.44,458.91,602.31,462.34,602.14L462.34,602.14z"/>
		</g>
	</g>
	<g>
		<g>
			<path class="st1" d="M473.81,593.1c-1.8,6.2-3.76,12.36-5.37,18.61c-4.72,18.26-7.5,36.79-7.47,55.69c0,2.2,0.1,4.4,0.16,6.6
				c0.08,2.91-0.83,5.47-2.89,7.52c-5.47,5.46-10.97,10.89-16.48,16.3c-2.09,2.05-4.62,3.12-7.54,3.49
				c-21.11,2.7-42.2,3.13-63.3-0.09c-1.5-0.23-1.9-0.92-2.16-2.23c-2.71-13.21-3.15-26.56-2.14-39.96
				c1.49-19.88,5.57-39.26,11.73-58.22c0.56-1.73,1.39-2.29,3.14-2.39c23.77-1.34,47.54-2.74,71.3-4.13c5.83-0.34,11.66-0.65,17.5-1
				c0.56-0.03,1.1-0.18,1.66-0.28C472.56,593.05,473.18,593.08,473.81,593.1z M462.34,602.14c-3.43,0.17-6.55,0.3-9.68,0.49
				c-21.82,1.29-43.65,2.61-65.48,3.83c-1.55,0.09-2.15,0.58-2.57,2c-4.95,16.74-8.42,33.75-9.73,51.17
				c-0.81,10.75-0.58,21.47,0.98,32.15c0.19,1.28,0.58,1.89,2.04,2.06c16.44,1.86,32.86,1.71,49.29-0.09c4.05-0.44,7.19-2.89,8-6.86
				c0.55-2.73,0.59-5.6,0.52-8.4c-0.07-2.52-0.6-5.03-0.92-7.44c6.05,0.22,11.91,0.43,17.94,0.65
				C452.15,647.9,455.94,624.99,462.34,602.14z"/>
			<path class="st5" d="M472,594.03l0.49,0.02c-0.45,1.53-0.91,3.06-1.36,4.59c-1.25,4.19-2.55,8.51-3.66,12.82
				c-5.08,19.65-7.53,37.95-7.5,55.94c0,1.63,0.05,3.28,0.1,4.88c0.02,0.58,0.04,1.16,0.05,1.74c0.07,2.71-0.8,4.99-2.6,6.79
				c-4.76,4.75-9.99,9.93-16.47,16.29c-1.83,1.8-4.11,2.85-6.97,3.22c-11.4,1.46-22.01,2.17-32.43,2.17
				c-10.49,0-20.78-0.76-30.59-2.25c-0.91-0.14-1.11-0.35-1.34-1.44c-2.51-12.26-3.21-25.23-2.13-39.68
				c1.42-18.96,5.35-38.47,11.68-57.98c0.42-1.29,0.86-1.62,2.25-1.7c17.96-1.01,36.21-2.08,53.86-3.11l17.44-1.02
				c2.75-0.16,5.5-0.31,8.24-0.47c3.08-0.17,6.17-0.35,9.25-0.53c0.45-0.03,0.87-0.11,1.28-0.2
				C471.74,594.08,471.87,594.06,472,594.03 M401.73,696.17c8.33,0,16.94-0.48,25.58-1.43c4.68-0.51,8-3.37,8.87-7.66
				c0.6-2.95,0.61-6.02,0.54-8.63c-0.05-1.82-0.33-3.61-0.6-5.35c-0.05-0.34-0.11-0.68-0.16-1.02l5.99,0.22l10.75,0.39l1.06,0.04
				l-0.03-1.06c-0.53-21.71,2.6-44.37,9.58-69.27l0.37-1.34l-1.39,0.07c-1.11,0.06-2.18,0.11-3.24,0.16
				c-2.23,0.11-4.33,0.21-6.45,0.33c-5.6,0.33-11.2,0.66-16.79,1c-15.95,0.95-32.45,1.93-48.68,2.84c-1.95,0.11-2.92,0.87-3.47,2.72
				c-5.32,18-8.52,34.81-9.77,51.38c-0.84,11.21-0.51,22.1,0.98,32.37c0.2,1.36,0.69,2.65,2.91,2.91
				C385.61,695.72,393.66,696.17,401.73,696.17 M471.93,593.03c-0.55,0.1-1.1,0.25-1.66,0.28c-5.83,0.34-11.66,0.66-17.5,1
				c-23.77,1.38-47.53,2.79-71.3,4.13c-1.75,0.1-2.58,0.66-3.14,2.39c-6.16,18.96-10.24,38.33-11.73,58.22
				c-1,13.4-0.56,26.74,2.14,39.96c0.27,1.31,0.66,2,2.16,2.23c10.25,1.56,20.5,2.27,30.74,2.27c10.85,0,21.7-0.79,32.56-2.18
				c2.92-0.37,5.45-1.44,7.54-3.49c5.51-5.41,11.01-10.84,16.48-16.3c2.06-2.06,2.97-4.61,2.89-7.52c-0.06-2.2-0.15-4.4-0.16-6.6
				c-0.03-18.9,2.75-37.44,7.47-55.69c1.62-6.25,3.57-12.41,5.37-18.61C473.18,593.08,472.56,593.05,471.93,593.03L471.93,593.03z
				 M462.34,602.14c-6.4,22.86-10.19,45.76-9.61,69.56c-6.03-0.22-11.89-0.43-17.94-0.65c0.32,2.42,0.85,4.92,0.92,7.44
				c0.07,2.8,0.03,5.68-0.52,8.4c-0.81,3.97-3.94,6.42-8,6.86c-8.49,0.93-16.98,1.42-25.47,1.42c-7.94,0-15.87-0.43-23.81-1.33
				c-1.46-0.17-1.85-0.78-2.04-2.06c-1.56-10.68-1.79-21.41-0.98-32.15c1.31-17.42,4.78-34.44,9.73-51.17
				c0.42-1.42,1.02-1.92,2.57-2c21.83-1.22,43.65-2.55,65.48-3.83C455.79,602.44,458.91,602.31,462.34,602.14L462.34,602.14z"/>
		</g>
	</g>
	<g>
		<g>
			<path class="st5" d="M473.81,593.1c-1.8,6.2-3.76,12.36-5.37,18.61c-4.72,18.26-7.5,36.79-7.47,55.69c0,2.2,0.1,4.4,0.16,6.6
				c0.08,2.91-0.83,5.47-2.89,7.52c-5.47,5.46-10.97,10.89-16.48,16.3c-2.09,2.05-4.62,3.12-7.54,3.49
				c-21.11,2.7-42.2,3.13-63.3-0.09c-1.5-0.23-1.9-0.92-2.16-2.23c-2.71-13.21-3.15-26.56-2.14-39.96
				c1.49-19.88,5.57-39.26,11.73-58.22c0.56-1.73,1.39-2.29,3.14-2.39c23.77-1.34,47.54-2.74,71.3-4.13c5.83-0.34,11.66-0.65,17.5-1
				c0.56-0.03,1.1-0.18,1.66-0.28C472.56,593.05,473.18,593.08,473.81,593.1z M462.34,602.14c-3.43,0.17-6.55,0.3-9.68,0.49
				c-21.82,1.29-43.65,2.61-65.48,3.83c-1.55,0.09-2.15,0.58-2.57,2c-4.95,16.74-8.42,33.75-9.73,51.17
				c-0.81,10.75-0.58,21.47,0.98,32.15c0.19,1.28,0.58,1.89,2.04,2.06c16.44,1.86,32.86,1.71,49.29-0.09c4.05-0.44,7.19-2.89,8-6.86
				c0.55-2.73,0.59-5.6,0.52-8.4c-0.07-2.52-0.6-5.03-0.92-7.44c6.05,0.22,11.91,0.43,17.94,0.65
				C452.15,647.9,455.94,624.99,462.34,602.14z"/>
			<path class="st5" d="M472,594.03l0.49,0.02c-0.45,1.53-0.91,3.06-1.36,4.59c-1.25,4.19-2.55,8.51-3.66,12.82
				c-5.08,19.65-7.53,37.95-7.5,55.94c0,1.63,0.05,3.28,0.1,4.88c0.02,0.58,0.04,1.16,0.05,1.74c0.07,2.71-0.8,4.99-2.6,6.79
				c-4.76,4.75-9.99,9.93-16.47,16.29c-1.83,1.8-4.11,2.85-6.97,3.22c-11.4,1.46-22.01,2.17-32.43,2.17
				c-10.49,0-20.78-0.76-30.59-2.25c-0.91-0.14-1.11-0.35-1.34-1.44c-2.51-12.26-3.21-25.23-2.13-39.68
				c1.42-18.96,5.35-38.47,11.68-57.98c0.42-1.29,0.86-1.62,2.25-1.7c17.96-1.01,36.21-2.08,53.86-3.11l17.44-1.02
				c2.75-0.16,5.5-0.31,8.24-0.47c3.08-0.17,6.17-0.35,9.25-0.53c0.45-0.03,0.87-0.11,1.28-0.2
				C471.74,594.08,471.87,594.06,472,594.03 M401.73,696.17c8.33,0,16.94-0.48,25.58-1.43c4.68-0.51,8-3.37,8.87-7.66
				c0.6-2.95,0.61-6.02,0.54-8.63c-0.05-1.82-0.33-3.61-0.6-5.35c-0.05-0.34-0.11-0.68-0.16-1.02l5.99,0.22l10.75,0.39l1.06,0.04
				l-0.03-1.06c-0.53-21.71,2.6-44.37,9.58-69.27l0.37-1.34l-1.39,0.07c-1.11,0.06-2.18,0.11-3.24,0.16
				c-2.23,0.11-4.33,0.21-6.45,0.33c-5.6,0.33-11.2,0.66-16.79,1c-15.95,0.95-32.45,1.93-48.68,2.84c-1.95,0.11-2.92,0.87-3.47,2.72
				c-5.32,18-8.52,34.81-9.77,51.38c-0.84,11.21-0.51,22.1,0.98,32.37c0.2,1.36,0.69,2.65,2.91,2.91
				C385.61,695.72,393.66,696.17,401.73,696.17 M471.93,593.03c-0.55,0.1-1.1,0.25-1.66,0.28c-5.83,0.34-11.66,0.66-17.5,1
				c-23.77,1.38-47.53,2.79-71.3,4.13c-1.75,0.1-2.58,0.66-3.14,2.39c-6.16,18.96-10.24,38.33-11.73,58.22
				c-1,13.4-0.56,26.74,2.14,39.96c0.27,1.31,0.66,2,2.16,2.23c10.25,1.56,20.5,2.27,30.74,2.27c10.85,0,21.7-0.79,32.56-2.18
				c2.92-0.37,5.45-1.44,7.54-3.49c5.51-5.41,11.01-10.84,16.48-16.3c2.06-2.06,2.97-4.61,2.89-7.52c-0.06-2.2-0.15-4.4-0.16-6.6
				c-0.03-18.9,2.75-37.44,7.47-55.69c1.62-6.25,3.57-12.41,5.37-18.61C473.18,593.08,472.56,593.05,471.93,593.03L471.93,593.03z
				 M462.34,602.14c-6.4,22.86-10.19,45.76-9.61,69.56c-6.03-0.22-11.89-0.43-17.94-0.65c0.32,2.42,0.85,4.92,0.92,7.44
				c0.07,2.8,0.03,5.68-0.52,8.4c-0.81,3.97-3.94,6.42-8,6.86c-8.49,0.93-16.98,1.42-25.47,1.42c-7.94,0-15.87-0.43-23.81-1.33
				c-1.46-0.17-1.85-0.78-2.04-2.06c-1.56-10.68-1.79-21.41-0.98-32.15c1.31-17.42,4.78-34.44,9.73-51.17
				c0.42-1.42,1.02-1.92,2.57-2c21.83-1.22,43.65-2.55,65.48-3.83C455.79,602.44,458.91,602.31,462.34,602.14L462.34,602.14z"/>
		</g>
	</g>
</g>
<g>
	<g>
		<g>
			<path class="st1" d="M546.28,649.43c-5.52-1.51-10.93-1.69-16.26-0.04c-3.29,1.02-6.53,2.3-9.63,3.79
				c-10.06,4.82-22.29,0.99-27.9-8.89c-5.43-9.56-2.39-22.06,6.85-28.17c9.25-6.12,22.11-3.93,28.73,4.86
				c1.66,2.2,3.36,4.38,5.12,6.51c2.62,3.18,6.11,4.75,10.16,5.1c2.44,0.21,5.2,1.07,7.24,0.23c2.02-0.83,3.36-3.39,4.9-5.27
				c7.94-9.73,15.84-19.49,23.78-29.22c2.17-2.66,4.71-4.87,8.06-5.98c6.74-2.24,12.5,2.54,11.11,9.5c-0.5,2.5-1.71,5.03-3.19,7.14
				c-12,17.13-24.05,34.23-36.3,51.2c-3.83,5.31-4.73,10.78-2.84,16.9c0.55,1.8,1.07,3.62,1.42,5.47
				c2.09,11.01-4.5,21.5-15.45,24.69c-10.05,2.93-21.24-2.67-25.28-12.66c-4.11-10.15,0.23-21.67,10.03-26.89
				c3.1-1.65,6.2-3.33,9.11-5.28C540.68,659.22,544.01,654.82,546.28,649.43z M499.57,637.86c2.21,6.39,9.12,9.81,15.48,7.67
				c6.4-2.15,9.82-9.2,7.62-15.68c-2.13-6.29-9.24-9.72-15.56-7.49C500.71,624.6,497.36,631.48,499.57,637.86z M548.07,682.42
				c-2.32-6.31-9.38-9.61-15.67-7.31c-6.27,2.29-9.6,9.39-7.35,15.68c2.29,6.38,9.39,9.66,15.81,7.3
				C547.19,695.75,550.4,688.77,548.07,682.42z M561.23,648.13c2.41-0.87,3.6-3.4,2.72-5.78c-0.87-2.35-3.51-3.57-5.83-2.68
				c-2.24,0.86-3.45,3.44-2.67,5.71C556.26,647.74,558.87,648.98,561.23,648.13z"/>
		</g>
		<g>
			<path class="st1" d="M569.04,655.96c4.94-7.08,9.51-13.68,14.15-20.23c0.27-0.39,1.04-0.63,1.57-0.61
				c7.96,0.31,15.92,0.66,23.88,1.04c2.99,0.14,5.85,0.78,8.36,2.53c4.87,3.4,5.12,9.5,0.55,13.29c-2.35,1.95-5.13,3.08-8.12,3.15
				C596.15,655.49,582.86,655.69,569.04,655.96z"/>
		</g>
	</g>
</g>
<g>
	<g>
		<g>
			<path class="st0" d="M262.09,686.89l-8.83-0.32c-1.54-0.06-3.08-0.12-4.62-0.17c-1.25-0.04-2.18-0.44-3.13-1.34
				c-0.89-0.85-1.75-1.72-2.61-2.59l-0.87-0.88c-3.65-3.66-7.58-6.25-12.02-7.9c-1.94-0.72-3.99-2.05-6.17-3.47
				c-0.55-0.35-1.09-0.71-1.63-1.05c-1.81-1.15-3.59-2.44-5.47-3.82c-0.5-0.37-1-0.73-1.51-1.1c-1.05-1.88-1.96-3.64-2.67-5.33
				c0.95,0.31,1.89,0.61,2.84,0.92c2.18,0.71,4.35,1.42,6.54,2.1c1.13,0.35,2.22,0.6,3.27,0.84c0.45,0.1,0.93,0.21,1.44,0.33
				l7.95,1.93c2.77,3.59,6,6.52,9.75,8.86c1.75,1.09,3.5,1.88,5.18,2.63c0.67,0.3,1.36,0.61,2.06,0.95l9.76,4.7l0.19-5.11
				c1.5,0.92,3.15,1.38,4.92,1.38c0.85,0,1.7-0.11,2.59-0.33c3.24-0.8,6.48-1.57,9.72-2.35c3.23-0.77,6.46-1.54,9.68-2.34
				c2.11-0.52,4.12-1.58,5.66-2.99c1.23-1.12,2.44-2.25,3.66-3.4l6.9,10.71l6.17-5.31c0.38-0.33,0.74-0.66,1.09-0.97
				c0.42-0.38,0.85-0.77,1.07-0.92c1-0.66,1.86-1.43,2.58-2.28c-0.45,1.08-0.87,2.15-1.28,3.19c-0.3,0.77-0.61,1.54-0.92,2.31
				c-4.25,2.16-8.87,4.43-14.79,7.28c-0.19,0.05-0.59,0.13-0.9,0.19l-0.41,0.08c-4.76,0.96-11.02,2.22-17.3,3.44
				c-0.45,0.09-0.94,0.13-1.41,0.13l-0.69-0.01c-4.02,0-7.67,0.7-11.19,1.38c-0.92,0.18-1.84,0.35-2.77,0.52
				c-0.58,0.1-1.2,0.16-1.81,0.2v-0.09H262.09z M318.04,663.06c0.18-0.97,0.25-2,0.2-3.06c-0.06-1.26-0.11-2.53-0.16-3.79
				c-0.12-3.16-0.25-6.43-0.59-9.73c-0.23-2.27-0.72-4.42-1.34-6.45c0.52,0.71,0.7,1.12,0.75,1.28c1.04,3.03,2.02,6.18,2.97,9.23
				c0.67,2.15,1.34,4.3,2.03,6.44c0.05,0.16,0.08,0.28,0.09,0.36C320.4,659.17,319.12,661.1,318.04,663.06z"/>
			<path class="st1" d="M253.74,596.34c-0.16,0-0.33,0-0.49,0c-1.01,0-2.14,0.34-3.02,0.84c-6.33,3.6-12.58,7.35-18.94,10.91
				c-7.13,3.98-13.07,9.08-16.61,16.62c-0.51,1.08-1.11,2.11-1.68,3.16c-2.21,4.01-4.57,7.95-6.57,12.06
				c-1.17,2.39-2.12,5-2.54,7.62c-1.24,7.78,1.9,14.51,5.62,21.02c0.27,0.47,0.74,0.86,1.19,1.18c2.55,1.83,5.05,3.74,7.7,5.42
				c2.96,1.88,5.89,3.97,9.13,5.18c3.73,1.39,6.74,3.52,9.47,6.26c1.2,1.2,2.38,2.42,3.61,3.59c2.18,2.08,4.77,3.2,7.79,3.3
				c2.2,0.07,4.4,0.16,6.59,0.24c0,0.13,0,0.26,0,0.39c0.4-0.01,0.79-0.01,1.19-0.01c1.29,0,2.6,0.04,3.89,0.04
				c1.7,0,3.39-0.06,5.04-0.35c4.24-0.74,8.41-1.79,12.74-1.79c0.15,0,0.3,0,0.45,0c0.08,0,0.16,0,0.24,0
				c0.92,0,1.85-0.09,2.75-0.26c5.79-1.12,11.57-2.28,17.36-3.45c0.97-0.2,1.99-0.36,2.88-0.78c5.37-2.58,10.72-5.2,16.02-7.9
				c0.8-0.41,1.57-1.24,1.92-2.07c2.29-5.4,3.92-11.09,7.94-15.66c1.75-1.98,2.06-4.48,1.21-7.1c-1.71-5.25-3.25-10.55-5.03-15.77
				c-0.51-1.5-1.48-2.91-2.5-4.15c-3.66-4.47-7.93-8.53-11.04-13.34c-3.61-5.58-8.19-10.14-12.83-14.71c-1.36-1.34-3-2.56-4.74-3.34
				c-4.23-1.91-8.54-3.67-12.91-5.21c-2.21-0.78-4.61-1.11-6.96-1.33c-2.93-0.28-5.9-0.25-8.85-0.34
				C260.44,596.49,257.09,596.34,253.74,596.34L253.74,596.34z M228.29,656.24c-1.66-0.4-2.98-0.65-4.26-1.05
				c-3.83-1.2-7.63-2.47-11.45-3.69c-1.17-0.37-1.59-1.12-1.31-2.28c0.36-1.45,0.49-3.04,1.17-4.33c2.95-5.61,6.22-11.06,9.06-16.72
				c2.89-5.76,7.45-9.64,12.9-12.75c6.16-3.52,12.27-7.13,18.43-10.66c0.54-0.31,1.24-0.5,1.86-0.5c0.03,0,0.06,0,0.08,0
				c6.46,0.18,12.93,0.34,19.39,0.7c1.51,0.08,3.02,0.79,4.48,1.36c3.5,1.38,7,2.79,10.44,4.31c1.12,0.5,2.18,1.26,3.07,2.11
				c2.45,2.34,4.77,4.82,7.21,7.18c0.86,0.84,1.06,1.52,0.33,2.56c-0.85,1.22-1.53,2.56-2.38,4c2.1,0.77,4.05,1.44,5.96,2.2
				c0.53,0.21,1.23,0.6,1.39,1.07c1.96,5.81,5.13,11.25,5.77,17.47c0.45,4.36,0.51,8.77,0.73,13.15c0.09,1.82-0.52,3.26-2.1,4.31
				c-0.98,0.65-1.81,1.52-2.86,2.42c-2.35-3.65-4.64-7.2-7.13-11.06c-3.46,3.28-6.56,6.29-9.75,9.2c-0.7,0.64-1.67,1.12-2.59,1.35
				c-6.46,1.6-12.94,3.08-19.4,4.68c-0.32,0.08-0.61,0.12-0.89,0.12c-0.67,0-1.22-0.25-1.82-0.79c-3.06-2.78-6.18-5.48-9.64-8.54
				c-0.12,3.18-0.21,5.87-0.33,9.07c-2.38-1.14-4.59-1.98-6.57-3.21c-5.46-3.41-9.28-8.25-12.1-14.04
				c-1.99-4.1-4.48-7.96-7.17-11.89C228.64,646.61,228.47,651.25,228.29,656.24L228.29,656.24z"/>
		</g>
		<g>
			<path class="st1" d="M294.83,637.46c0.55,2.03,1.16,4.01,1.59,6.02c0.11,0.49-0.22,1.21-0.57,1.65
				c-1.72,2.16-3.42,4.36-5.33,6.35c-0.91,0.95-2.24,1.58-3.48,2.1c-2.02,0.84-4.12,1.47-6.56,2.32c0.19-1.06,0.19-1.87,0.48-2.56
				c1.15-2.81,1.24-5.74,1.03-8.7c-0.11-1.57,0.37-2.37,2.05-2.92C287.64,640.52,291.12,638.94,294.83,637.46z"/>
		</g>
		<g>
			<path class="st1" d="M281.74,637.56c-0.22-3.21-0.38-5.93,2.4-7.84c1.17-0.8,3.92-0.86,4.71,0.3c0.25,0.36,0.2,1.33-0.1,1.6
				C286.55,633.59,284.24,635.46,281.74,637.56z"/>
		</g>
	</g>
</g>
<g>
	<path class="st0" d="M254.98,662.04c3.47,3.06,6.59,5.76,9.64,8.54c0.84,0.76,1.58,0.95,2.7,0.67c6.46-1.6,12.94-3.08,19.4-4.68
		c0.92-0.23,1.89-0.71,2.59-1.35c3.19-2.91,6.3-5.92,9.75-9.2c2.49,3.86,4.78,7.41,7.13,11.06c1.04-0.9,1.88-1.77,2.86-2.42
		c1.58-1.05,2.19-2.5,2.1-4.31c-0.22-4.39-0.28-8.79-0.73-13.15c-0.64-6.21-3.81-11.65-5.77-17.47c-0.16-0.47-0.86-0.86-1.39-1.07
		c-1.91-0.76-3.86-1.43-5.96-2.2c0.85-1.44,1.53-2.78,2.38-4c0.73-1.04,0.54-1.72-0.33-2.56c-2.44-2.36-4.76-4.84-7.21-7.18
		c-0.89-0.85-1.95-1.62-3.07-2.11c-3.44-1.52-6.93-2.93-10.44-4.31c-1.45-0.57-2.96-1.28-4.48-1.36c-6.46-0.36-12.92-0.52-19.39-0.7
		c-0.65-0.02-1.38,0.18-1.95,0.5c-6.16,3.53-12.27,7.14-18.43,10.66c-5.44,3.11-10.01,6.99-12.9,12.75
		c-2.84,5.66-6.12,11.11-9.06,16.72c-0.68,1.29-0.81,2.88-1.17,4.33c-0.29,1.16,0.13,1.91,1.31,2.28c3.82,1.22,7.63,2.49,11.45,3.69
		c1.27,0.4,2.6,0.64,4.26,1.05c0.18-4.99,0.35-9.63,0.52-14.27c2.69,3.93,5.18,7.79,7.17,11.89c2.82,5.79,6.64,10.63,12.1,14.04
		c1.97,1.23,4.19,2.06,6.57,3.21C254.77,667.91,254.86,665.23,254.98,662.04z"/>
</g>
</svg>
