<?xml version="1.0" encoding="utf-8"?>
<!-- Generator: Adobe Illustrator 26.5.0, SVG Export Plug-In . SVG Version: 6.00 Build 0)  -->
<svg version="1.1" id="Layer_1" xmlns="http://www.w3.org/2000/svg" xmlns:xlink="http://www.w3.org/1999/xlink" x="0px" y="0px"
	 viewBox="0 0 807.99 405.59" style="enable-background:new 0 0 807.99 405.59;" xml:space="preserve">
<style type="text/css">
	.st0{fill:#E3B793;}
	.st1{fill:#231F20;}
</style>
<g>
	<g>
		<path class="st0" d="M674.79,157.58c-0.2-0.57-0.43-1.11-0.68-1.62c-0.06-0.13-0.12-0.25-0.18-0.37c-0.26-0.5-0.53-0.98-0.83-1.42
			c-0.02-0.03-0.04-0.05-0.06-0.08c-0.29-0.42-0.61-0.81-0.94-1.19c-0.08-0.1-0.17-0.19-0.25-0.28c-0.35-0.38-0.72-0.74-1.12-1.07
			c-0.04-0.04-0.09-0.07-0.13-0.11c-0.36-0.3-0.75-0.58-1.14-0.84c-0.1-0.07-0.2-0.14-0.31-0.2c-0.43-0.28-0.88-0.53-1.34-0.77
			c-0.07-0.03-0.14-0.06-0.21-0.1c-0.42-0.2-0.85-0.39-1.29-0.57c-0.11-0.05-0.23-0.09-0.34-0.14c-0.5-0.18-1-0.35-1.52-0.5
			c-0.09-0.03-0.18-0.05-0.28-0.07c-0.46-0.13-0.93-0.24-1.4-0.34c-0.12-0.03-0.24-0.05-0.36-0.08c-0.54-0.11-1.09-0.2-1.64-0.28
			c-0.11-0.02-0.22-0.03-0.33-0.04c-0.49-0.06-0.98-0.11-1.47-0.16c-0.12-0.01-0.24-0.02-0.36-0.03c-0.57-0.04-1.14-0.07-1.72-0.09
			c-0.13,0-0.25-0.01-0.38-0.01c-0.5-0.01-1-0.01-1.5-0.01c-0.12,0-0.23,0-0.35,0c-0.58,0.01-1.16,0.03-1.74,0.06
			c-0.13,0.01-0.27,0.02-0.4,0.02c-0.5,0.03-1,0.06-1.5,0.1c-0.1,0.01-0.21,0.02-0.31,0.02c-0.57,0.05-1.14,0.11-1.71,0.17
			c-0.05,0.01-0.1,0.01-0.15,0.02c0-0.01,0.01-0.03,0.01-0.04c1.22-2.87,2.22-5.74,3.02-8.57c5.38-17.3,2.16-32.25-9.12-36.45
			c-12.61-4.7-18.3,6.33-22.3,16.94c-5.05,13.39-12.12,22.34-19.67,32.52l0.79-0.07c-0.47,0.64-0.94,1.27-1.4,1.9
			c-0.16,0-0.31,0.01-0.47,0.02c-0.22,0-0.44,0.01-0.66,0.01c-1.84,0.04-3.7,0.06-5.59,0.05c-6.83-0.01-49.31-0.51-57.03-0.31
			c-2.18,0.01-4.77,0.1-7.65,0.28c-7.42-3.5-20.66-0.03-30.77,4.13c-7.24,1.45-14.68,3.29-21.79,5.59
			c-22.22,7.16-39.42,18.11-50.51,22.77c-10.91,4.59-21.17,0.98-31.21-0.24c0,0-13.15-1.59-26.25,3.05c0,0-104.1,0.64-128.1,0.64
			s-130-24-178-19l34,104l164.36-17.74l92.51-11.06l57.52-0.17c1.34,0.24,2.74,0.57,4.2,1.04c8.47,2.73,12.05,16.79,25.15,28.05
			c13.1,11.26,35.2,21.66,62.08,20.85c9.36,6.79,20.44,11.43,32.35,7.88c7.18-2.14,11.19-5.54,14.14-9.85
			c1.65-2.17,2.96-4.6,4.23-7.23c0.35,0.06,0.7,0.13,1.04,0.16c17.07,1.85,24.94-0.38,34.12-12.32c0.23-0.3,0.45-0.62,0.66-0.94
			c0.04-0.06,0.09-0.11,0.13-0.17c4.79-6.24,7.54-17.52,3.6-29.65c-2.39-7.37-9.15-17.08-9.15-17.08
			c18.15-10.07,31.64-22.71,41.54-34.99l-0.02,0.02l0.02-0.02c7.51-1.02,14.55-2.26,20.18-3.79c2.15-0.46,4.18-1.17,6.14-1.83
			C667.76,180.33,678.29,167.79,674.79,157.58z"/>
	</g>
	<g>
		<g>
			<g>
				<path class="st1" d="M215.09,184.35c-7.33-1.18-20.48-3.28-36.08-5.78c-15.62-2.47-33.74-5.2-51.05-7.15
					c-17.3-1.99-33.8-3.08-45.98-2.94c-3.05,0.11-5.82,0.22-8.26,0.35c-0.61,0.03-1.2,0.07-1.77,0.1c-0.57,0.04-1.12,0.13-1.64,0.19
					c-1.05,0.14-2.01,0.27-2.87,0.39c-3.45,0.51-5.35,0.96-5.31,1.34c0.04,0.35,2,0.54,5.44,0.6c0.86,0.01,1.81,0.01,2.84,0.02
					c0.52,0.01,1.06-0.02,1.62,0.01c0.56,0.03,1.15,0.06,1.75,0.09c2.41,0.12,5.14,0.22,8.14,0.32c12,0.67,28.28,2.28,45.43,4.59
					c17.15,2.28,35.18,5.13,50.78,7.62c15.59,2.5,28.76,4.61,36.15,5.62c3.68,0.58,8.83,1.36,15.1,2.09
					c1.57,0.17,3.21,0.34,4.91,0.53c1.75,0.09,3.56,0.18,5.43,0.28c3.62,0.03,7.39-0.03,11.35-0.04c15.81-0.1,34.09-0.27,51.45-0.53
					c34.71-0.52,65.71-1.41,65.71-2.83c0-1.53-31-2.11-65.71-2.25c-17.36-0.07-35.64-0.04-51.45,0.03
					c-3.94,0.01-7.76,0.06-11.32,0.04c-1.72-0.09-3.39-0.17-5-0.25c-1.65-0.17-3.24-0.33-4.77-0.49
					C223.88,185.6,218.76,184.88,215.09,184.35z"/>
			</g>
		</g>
	</g>
	<g>
		<g>
			<path class="st0" d="M394.49,186.14c10.04,1.22,20.3,4.83,31.21,0.24c11.08-4.66,28.29-15.61,50.51-22.77s47.66-9.97,60.2-10
				c7.72-0.21,50.2,0.29,57.03,0.31c2.28,0,4.51-0.02,6.71-0.07c7.55-10.18,15.24-20.96,20.29-34.35c4-10.61,9.69-21.64,22.3-16.94
				c12.71,4.73,14.64,25.05,6.09,45.07c10.34-1.19,22.43-0.32,25.96,9.96c3.5,10.21-7.03,22.76-23.85,28.41
				c-1.96,0.66-4.02,1.27-6.14,1.83c-5.63,1.53-12.67,2.77-20.18,3.79c0,0-23.38,24.93-41.54,35l-0.31,1.14
				c1.5,1.69,7.12,11.67,8.67,17.05c3.51,12.26,1.19,23.42-3.6,29.65c-9.17,11.94-17.04,14.17-34.12,12.32
				c-0.43-0.05-0.86-0.14-1.3-0.21c-3.65,7.8-7.27,13.9-18.12,17.13c-11.91,3.55-22.99-1.09-32.35-7.88
				c-26.88,0.81-48.98-9.6-62.08-20.85c-13.1-11.26-16.68-25.32-25.15-28.05s-15.08-1-18.49-1.66l-4.12-1.34
				c-8.29,0.49-23.88,0.13-23.88,0.13s-188.1,20.8-272.1,30.8"/>
			<g>
				<g>
					<path class="st1" d="M593.3,270.36c2.37-5.69,3.3-12.92,2.07-20.72c-0.3-1.96-0.75-3.9-1.33-5.93
						c-0.65-2.11-1.48-4.02-2.37-5.96c-0.9-1.93-1.88-3.85-2.95-5.79c-0.53-0.97-1.09-1.94-1.68-2.92c-0.3-0.49-0.59-0.98-0.93-1.49
						c-0.16-0.25-0.33-0.51-0.53-0.78c-0.16-0.24-0.43-0.59-0.69-0.9l0.61,2.62c0-0.01,0.01-0.03,0.01-0.03
						c0.01-0.01-0.01,0.01-0.02,0.01l0.68-0.4c0.93-0.56,1.89-1.09,2.78-1.71c0.91-0.6,1.83-1.21,2.76-1.82
						c0.9-0.64,1.8-1.29,2.71-1.95c3.6-2.66,7.21-5.51,10.78-8.59c3.58-3.07,7.16-6.3,10.74-9.7c1.79-1.7,3.58-3.44,5.38-5.22
						c0.89-0.9,1.79-1.8,2.69-2.7c0.66-0.68,1.32-1.36,1.99-2.05c1.53-0.23,3.08-0.45,4.63-0.68c1.89-0.3,3.8-0.62,5.71-0.98
						c3.82-0.73,7.75-1.55,11.61-2.77c7.78-2.1,15.82-5.79,22.24-11.92c3.2-3.05,5.99-6.88,7.43-11.58
						c0.63-2.38,0.85-4.95,0.42-7.51l-0.48-1.88c-0.17-0.63-0.45-1.17-0.68-1.76c-0.22-0.59-0.54-1.14-0.87-1.69
						c-0.32-0.55-0.64-1.11-1.07-1.6c-1.55-2.06-3.63-3.72-5.86-4.83s-4.57-1.77-6.89-2.18c-2.32-0.4-4.64-0.56-6.91-0.53
						c-0.57-0.01-1.14,0.02-1.71,0.04l-0.43,0.02c-0.04,0,0.02,0-0.01,0h-0.01l-0.04,0.01l0.01-0.04l0.33-0.95
						c0.21-0.59,0.39-1.2,0.58-1.8c0.75-2.42,1.37-4.88,1.84-7.39c0.93-5.02,1.31-10.22,0.63-15.48c-0.36-2.62-0.95-5.27-2.01-7.82
						c-0.51-1.28-1.18-2.52-1.92-3.72c-0.78-1.19-1.68-2.31-2.7-3.35c-1.05-1.01-2.22-1.91-3.48-2.66
						c-1.28-0.72-2.65-1.31-3.99-1.67c-2.66-0.82-5.73-1.2-8.74-0.44c-3.01,0.73-5.6,2.53-7.53,4.58c-1.95,2.06-3.41,4.35-4.63,6.66
						c-1.21,2.32-2.21,4.68-3.12,7.02l-1.32,3.39c-0.47,1.1-0.91,2.2-1.41,3.28c-3.91,8.71-9.19,16.74-14.81,24.48l-1.93,2.64
						c-0.03,0.05-0.06,0.1-0.13,0.09l-1.19,0.02c-2.37,0.04-4.74,0.07-7.13,0.05c-4.77-0.01-9.51-0.02-14.21-0.03
						c-9.4-0.01-18.65-0.02-27.69-0.03c-4.53,0.01-8.98-0.03-13.42,0.02c-4.48,0.1-8.89,0.44-13.2,0.88
						c-8.63,0.89-16.93,2.24-24.86,3.88c-7.92,1.7-15.49,3.66-22.55,6.08c-7.07,2.41-13.62,5.15-19.65,8
						c-6.04,2.83-11.57,5.75-16.66,8.45c-2.55,1.35-4.99,2.66-7.33,3.85s-4.61,2.34-6.74,3.17c-4.28,1.72-8.51,2.04-12.18,1.97
						c-3.68-0.11-6.84-0.56-9.42-0.88c-5.16-0.71-8.01-0.82-8.02-0.56c-0.02,0.23,2.72,0.78,7.82,1.9c2.56,0.53,5.73,1.19,9.57,1.49
						c3.81,0.26,8.39,0.11,13.14-1.6c2.37-0.84,4.66-1.91,7.09-3.05c2.41-1.14,4.9-2.38,7.48-3.66c5.16-2.57,10.71-5.32,16.72-7.99
						c6-2.69,12.48-5.25,19.42-7.49c6.93-2.25,14.39-4.06,22.19-5.62c7.81-1.51,16-2.73,24.47-3.51c4.23-0.39,8.52-0.67,12.86-0.72
						c4.38,0,8.87,0.08,13.38,0.11c9.03,0.09,18.27,0.18,27.65,0.27c4.69,0.04,9.42,0.09,14.19,0.13c2.37,0.04,4.79,0.02,7.21-0.01
						l2.42-0.02l0.85-0.01h0.42c0.13-0.02,0.18-0.2,0.28-0.29l1.01-1.36l2.33-3.15c5.75-7.82,11.3-16.14,15.48-25.31
						c0.54-1.14,1.01-2.31,1.51-3.47l1.37-3.46c0.88-2.23,1.81-4.4,2.89-6.44c2.14-4.04,5.06-7.62,8.72-8.46
						c1.81-0.45,3.83-0.24,5.85,0.4c1.05,0.28,1.94,0.69,2.82,1.17c0.85,0.52,1.65,1.13,2.37,1.83c2.9,2.87,4.42,7.23,4.99,11.68
						c0.56,4.49,0.23,9.17-0.63,13.73c-0.43,2.28-1.01,4.54-1.7,6.76c-0.18,0.55-0.34,1.11-0.54,1.66l-0.29,0.82
						c-0.15,0.47-0.41,1.11-0.63,1.65c-0.9,2.27-1.82,4.52-2.74,6.76c2.16-0.22,4.33-0.44,6.51-0.62l1.63-0.14
						c0.25-0.02,0.58-0.03,0.8-0.04l0.38-0.01c0.51-0.01,1.02-0.04,1.53-0.03c2.03-0.02,4.02,0.13,5.93,0.46
						c1.9,0.33,3.71,0.87,5.3,1.66c1.58,0.8,2.9,1.88,3.89,3.21c0.97,1.3,1.73,2.97,2.02,4.52c0.26,1.6,0.13,3.27-0.3,4.93
						c-1.03,3.31-3.18,6.46-5.92,9.03c-2.72,2.6-5.9,4.76-9.26,6.49c-3.38,1.75-6.9,3.02-10.62,4.04
						c-3.65,1.16-7.34,1.93-11.05,2.64c-1.85,0.35-3.7,0.66-5.55,0.95c-0.92,0.14-1.85,0.28-2.76,0.42
						c-1.26,0.18-2.51,0.35-3.75,0.52c-0.67,0.7-1.33,1.4-2,2.1l-1.31,1.35c-0.88,0.89-1.76,1.77-2.64,2.65
						c-1.76,1.75-3.52,3.46-5.28,5.14c-3.52,3.34-7.03,6.52-10.51,9.51c-3.48,3.01-6.97,5.77-10.42,8.33
						c-0.87,0.63-1.73,1.25-2.59,1.86c-0.87,0.58-1.74,1.15-2.6,1.72c-0.85,0.59-1.73,1.08-2.59,1.6c-0.68,0.4-1.35,0.8-2.02,1.2
						c-0.21,0.14-0.47,0.24-0.64,0.41l-0.2,0.74l-0.4,1.47l-0.35,1.28l0.96,1.35c0.09,0.12,0.17,0.21,0.32,0.43
						c0.13,0.18,0.27,0.38,0.41,0.6c0.28,0.41,0.55,0.87,0.82,1.31c0.54,0.9,1.07,1.81,1.57,2.73c1.01,1.83,1.95,3.65,2.79,5.44
						c0.83,1.78,1.59,3.57,2.1,5.19c0.49,1.73,0.91,3.49,1.17,5.19c1.11,6.83,0.27,13.08-1.65,17.71c-0.53,1.34-1.26,2.65-2.12,3.9
						c-0.4,0.6-0.99,1.29-1.53,1.97c-0.54,0.7-1.14,1.33-1.74,2.01c-0.59,0.69-1.26,1.28-1.9,1.94c-0.69,0.58-1.35,1.25-2.1,1.77
						c-1.45,1.17-3.09,2.07-4.86,2.83c-1.77,0.76-3.74,1.24-5.86,1.51c-1.04,0.17-2.16,0.2-3.27,0.29c-1.13,0.01-2.27,0.06-3.45,0
						c-1.17-0.02-2.38-0.1-3.59-0.19c-0.61-0.03-1.22-0.1-1.84-0.16l-0.93-0.09l-0.66-0.06c-0.33-0.02-0.65-0.09-0.97-0.14
						c-0.64-0.09-1.27-0.18-1.91-0.28l-0.48-0.07c-0.07,0.01-0.19-0.08-0.21,0.02l-0.1,0.22l-0.42,0.88l-0.84,1.77l-0.62,1.26
						c-0.57,1.14-1.16,2.24-1.81,3.3c-0.64,1.07-1.36,2.05-2.12,3.01c-0.79,0.92-1.62,1.8-2.57,2.57c-1.87,1.57-4.12,2.77-6.61,3.71
						c-5.01,1.91-10.54,2.41-16.09,1.05c-2.77-0.65-5.52-1.7-8.2-3.05c-1.35-0.66-2.66-1.43-3.97-2.23c-0.66-0.4-1.3-0.84-1.95-1.26
						l-0.96-0.67l-0.89-0.63l-0.5-0.35c-0.09-0.05-0.16-0.14-0.26-0.15h-0.31c-1.85,0.01-3.72,0.01-5.6,0.02
						c-1.6-0.08-3.22-0.16-4.84-0.24c-1.62-0.17-3.25-0.29-4.87-0.49c-1.62-0.26-3.26-0.43-4.89-0.76
						c-6.52-1.19-13.05-3.11-19.38-5.75c-6.3-2.71-12.45-6.1-18.02-10.36c-2.8-2.14-5.4-4.42-7.77-7.01
						c-2.39-2.58-4.55-5.42-6.64-8.41c-2.11-2.99-4.11-6.15-6.59-9.28c-1.29-1.55-2.71-3.11-4.54-4.46
						c-0.48-0.31-0.98-0.62-1.48-0.92c-0.48-0.32-1.08-0.5-1.62-0.74c-0.58-0.26-1.06-0.39-1.55-0.53c-0.49-0.15-0.98-0.29-1.48-0.4
						c-3.97-1-8.15-1.17-12.01-1.02c-0.96,0.03-1.89,0.06-2.75,0.07c-0.42,0-0.82-0.02-1.18-0.04c-0.1,0-0.16-0.02-0.24-0.03
						l-0.11-0.02h-0.04c-0.03,0,0.03,0.01-0.06-0.02l-0.34-0.11l-2.71-0.87l-1.02-0.33c-0.22-0.1-0.45-0.09-0.68-0.07l-0.67,0.03
						l-1.39,0.07c-3.72,0.15-7.51,0.18-11.3,0.18l-5.68-0.03l-2.84-0.04l-1.42-0.02l-0.41-0.01c-0.22-0.02-0.49,0.02-0.65,0.04
						l-0.71,0.08c-15.13,1.75-30.25,3.5-45.17,5.23c-59.67,6.93-116.13,13.6-157.65,18.72c-20.76,2.56-37.79,4.73-49.62,6.35
						c-5.92,0.81-10.53,1.48-13.66,2c-3.13,0.52-4.78,0.88-4.76,1.06c0.04,0.39,6.73-0.02,18.62-1.07s28.97-2.73,49.77-4.87
						c41.61-4.28,98.13-10.41,157.83-17c14.92-1.65,30.05-3.33,45.19-5.01l0.71-0.08l0.1-0.01l0.25,0.01l1.44,0.03l2.87,0.05
						l5.74,0.05c3.83,0.01,7.66,0,11.53-0.14l1.46-0.07c0.08,0,0.09,0,0.08,0l0,0h0.01l0.29,0.09l2.71,0.88l0.34,0.11l0.26,0.08
						c0.11,0.03,0.22,0.09,0.34,0.09c0.47,0.07,0.72,0.11,1.05,0.15l0.87,0.06l0.81,0.02c1.04,0,2-0.03,2.94-0.06
						c3.71-0.13,7.16,0.03,10.51,0.88c0.42,0.09,0.83,0.21,1.25,0.34c0.41,0.12,0.86,0.24,1.12,0.38c0.31,0.15,0.63,0.22,0.93,0.42
						l0.91,0.56c1.2,0.89,2.34,2.1,3.44,3.42c2.17,2.74,4.18,5.9,6.34,8.99c2.16,3.1,4.48,6.18,7.09,9.01
						c2.6,2.85,5.51,5.42,8.5,7.71c6,4.6,12.54,8.21,19.24,11.11c6.73,2.83,13.66,4.86,20.59,6.14c1.73,0.35,3.47,0.54,5.19,0.81
						c1.73,0.22,3.46,0.35,5.17,0.53c1.72,0.11,3.43,0.17,5.14,0.25c1.44,0,2.87-0.01,4.3-0.01l1.14,0.8
						c0.71,0.46,1.41,0.94,2.14,1.38c1.45,0.89,2.91,1.73,4.43,2.48c3.02,1.52,6.19,2.73,9.47,3.51c3.27,0.78,6.65,1.08,9.96,0.84
						c3.3-0.23,6.53-1,9.44-2.11c2.95-1.11,5.82-2.63,8.26-4.68c1.23-1.01,2.31-2.15,3.31-3.33c0.96-1.2,1.84-2.42,2.58-3.67
						c0.76-1.24,1.43-2.49,2.04-3.72l0.26-0.52v-0.01c0-0.01,0.01-0.01,0.02-0.01c0,0,0.01,0,0,0c0.02,0-0.07-0.01,0.05,0l0.25,0.02
						l0.98,0.09c0.65,0.06,1.29,0.13,1.95,0.16c1.3,0.09,2.58,0.18,3.87,0.2c1.27,0.06,2.57,0.01,3.83-0.01
						c1.28-0.09,2.54-0.14,3.79-0.34c2.5-0.33,4.98-0.93,7.25-1.9c2.26-0.96,4.37-2.16,6.14-3.58c0.93-0.67,1.7-1.44,2.53-2.15
						c0.74-0.76,1.53-1.48,2.18-2.25c0.67-0.76,1.35-1.49,1.93-2.25c0.6-0.77,1.19-1.44,1.77-2.31
						C591.75,273.67,592.65,272,593.3,270.36z"/>
				</g>
			</g>
		</g>
		<g>
			<g>
				<g>
					<g>
						<path class="st1" d="M606.82,212.62c2.12-1.64,7.36-6.21,11.48-10.94c4.15-4.69,7.19-9.4,6.32-10.09
							c-0.83-0.65-4.64,3.3-9.02,7.52c-4.36,4.26-9.37,8.75-11.33,10.47c-2.03,1.64-7.3,5.81-12.23,9.39
							c-4.91,3.61-9.46,6.67-8.95,7.61c0.52,0.97,5.69-1.21,11.02-4.51C599.45,218.82,604.85,214.43,606.82,212.62z"/>
					</g>
				</g>
			</g>
			<g>
				<g>
					<g>
						<path class="st1" d="M632.47,100.3c-1.6,0.57-3.76,1.73-5.67,3.7c-1.93,1.94-3.64,4.52-5.09,7.41
							c-0.73,1.44-1.42,2.96-2.05,4.53c-0.64,1.57-1.23,3.19-1.83,4.72c-1.23,3.11-2.66,6.21-4.21,9.16
							c-3.1,5.91-6.68,11.2-9.23,15.19c-2.56,3.98-4.06,6.67-3.61,7c0.42,0.3,2.55-1.88,5.62-5.53c3.05-3.65,7.04-8.83,10.49-14.87
							c1.73-3.01,3.31-6.23,4.65-9.46c0.68-1.64,1.26-3.19,1.89-4.67c0.61-1.49,1.26-2.9,1.94-4.22c1.34-2.64,2.83-4.87,4.35-6.41
							c1.51-1.57,3.02-2.37,4.13-2.82c1.12-0.42,2.8-0.68,4.88-0.4c0.52,0.12,1.07,0.13,1.63,0.33c0.56,0.18,1.15,0.36,1.74,0.55
							c0.56,0.26,1.13,0.52,1.72,0.8c0.57,0.3,1.09,0.71,1.67,1.07c2.17,1.59,4,4.02,5.16,6.92c1.18,2.89,1.74,6.17,1.89,9.4
							c0.11,1.62,0.01,3.23-0.04,4.8c-0.08,0.79-0.16,1.56-0.23,2.32c-0.04,0.38-0.08,0.76-0.12,1.14
							c-0.06,0.37-0.12,0.74-0.18,1.11c-0.12,0.73-0.24,1.45-0.35,2.15c-0.15,0.7-0.3,1.37-0.44,2.03c-0.15,0.66-0.27,1.3-0.42,1.91
							c-0.16,0.61-0.32,1.2-0.47,1.76c-0.14,0.57-0.28,1.11-0.41,1.62c-0.15,0.51-0.3,0.99-0.43,1.44c-0.26,0.9-0.48,1.7-0.63,2.36
							c-0.04,0.13-0.05,0.21-0.08,0.34c-0.01,0.08-0.02,0.16-0.03,0.23c-0.01,0.15-0.03,0.29-0.04,0.42
							c-0.02,0.26-0.03,0.49-0.02,0.68c0.01,0.37,0.07,0.59,0.2,0.63c0.13,0.04,0.31-0.1,0.53-0.41c0.11-0.16,0.23-0.35,0.36-0.59
							c0.06-0.12,0.13-0.25,0.2-0.39c0.03-0.07,0.07-0.14,0.11-0.22c0.02-0.03,0.06-0.1,0.08-0.12c0.35-0.59,0.75-1.33,1.18-2.2
							c0.22-0.43,0.45-0.9,0.68-1.39c0.21-0.51,0.43-1.04,0.66-1.6c0.22-0.56,0.46-1.15,0.7-1.76c0.23-0.62,0.42-1.27,0.64-1.94
							c0.21-0.67,0.44-1.37,0.64-2.09c0.17-0.73,0.35-1.48,0.53-2.24c0.09-0.38,0.18-0.77,0.27-1.16c0.07-0.4,0.13-0.8,0.2-1.2
							c0.13-0.81,0.27-1.63,0.38-2.48c0.14-1.7,0.33-3.44,0.27-5.23c-0.03-3.56-0.55-7.3-1.9-10.78c-1.32-3.47-3.6-6.64-6.43-8.72
							c-0.73-0.48-1.43-1-2.16-1.39c-0.76-0.35-1.5-0.69-2.22-1.02c-0.74-0.25-1.46-0.46-2.16-0.67c-0.69-0.23-1.44-0.28-2.11-0.41
							C636.5,99.23,634.05,99.65,632.47,100.3z"/>
					</g>
				</g>
			</g>
			<g>
				<g>
					<g>
						<path class="st1" d="M596.11,156.67c5.08-0.02,12.2-0.17,20.72-1.02c4.26-0.42,8.86-1.03,13.71-1.84
							c2.43-0.4,4.91-0.87,7.45-1.38c2.58-0.52,5.03-1.07,7.6-1.48c5.09-0.81,10.49-1.29,15.59-0.45c2.52,0.43,4.95,1.21,6.87,2.56
							c1.93,1.32,3.31,3.21,4.09,5.5c0.72,2.16,0.62,4.58-0.18,6.94c-0.79,2.37-2.24,4.64-4,6.68c-1.76,2.06-3.88,3.87-6.17,5.45
							c-1.11,0.83-2.34,1.51-3.53,2.24c-1.24,0.64-2.45,1.33-3.74,1.87c-1.26,0.6-2.57,1.08-3.86,1.57
							c-1.32,0.49-2.72,0.96-4.01,1.37c-1.3,0.42-2.54,0.69-3.97,0.98c-1.38,0.28-2.75,0.59-4.12,0.85
							c-5.48,1.06-10.87,1.86-16.06,2.6c-10.38,1.39-19.96,2.34-28.08,3.05c-16.26,1.44-26.7,1.92-26.71,2.68
							c-0.01,0.75,10.54,1.4,26.95,0.79c8.2-0.3,17.87-0.91,28.42-2.03c5.27-0.6,10.76-1.29,16.39-2.26
							c1.41-0.23,2.82-0.52,4.24-0.79c1.38-0.25,2.96-0.57,4.41-1.01c1.47-0.44,2.83-0.87,4.25-1.37c1.44-0.51,2.88-1.02,4.28-1.67
							c1.43-0.57,2.79-1.32,4.18-2.02c1.34-0.8,2.72-1.54,4-2.46c2.61-1.76,5.08-3.81,7.22-6.26c2.14-2.43,4.01-5.24,5.14-8.5
							c1.14-3.23,1.39-7.03,0.24-10.48c-0.55-1.65-1.35-3.24-2.4-4.68c-1.05-1.43-2.35-2.68-3.77-3.67
							c-2.86-2.01-6.07-2.99-9.14-3.53c-6.18-1.01-12.01-0.44-17.45,0.41c-2.72,0.42-5.38,1.02-7.82,1.51
							c-2.48,0.5-4.91,0.95-7.27,1.35c-4.73,0.8-9.19,1.4-13.33,1.82c-8.28,0.85-15.22,1.05-20.19,1.13
							c-10.06-0.06-28.1-0.18-49.49-0.31c-2.68-0.01-5.4-0.02-8.18-0.03c-2.75-0.04-5.65,0.05-8.54,0.22
							c-5.79,0.34-11.65,0.96-17.56,1.8c-11.8,1.69-23.77,4.21-35.14,7.82c-11.39,3.61-21.95,8.45-31.36,13.31
							c-4.71,2.43-9.15,4.85-13.33,7.05c-2.09,1.1-4.11,2.14-6.08,3.07c-1.98,0.98-3.78,1.63-5.66,2.14
							c-3.73,0.98-7.34,1.05-10.53,0.91c-3.2-0.16-6.01-0.54-8.33-0.79c-4.65-0.55-7.33-0.54-7.37-0.18
							c-0.04,0.39,2.48,1.03,7.02,2.14c2.28,0.53,5.07,1.19,8.42,1.61c3.34,0.41,7.28,0.59,11.55-0.29c0.54-0.09,1.07-0.24,1.6-0.38
							c0.53-0.15,1.09-0.27,1.62-0.47c0.54-0.19,1.08-0.38,1.63-0.57c0.52-0.21,1.04-0.43,1.57-0.64c2.1-0.88,4.21-1.86,6.36-2.9
							c4.27-2.09,8.8-4.31,13.53-6.62c9.43-4.55,19.82-9.06,30.89-12.39c11.07-3.34,22.81-5.69,34.36-7.27
							c5.78-0.79,11.52-1.37,17.11-1.67c2.8-0.15,5.52-0.23,8.31-0.19c2.77,0.02,5.49,0.03,8.16,0.05
							C568.02,156.64,586,156.72,596.11,156.67z"/>
					</g>
				</g>
			</g>
			<g>
				<g>
					<g>
						<path class="st1" d="M510.89,229.58c0.44,0.4-0.22,1.58-1.12,3.61c-0.89,2.03-1.93,5.03-1.81,8.93
							c0.1,3.86,1.29,8.6,3.78,13.26c2.49,4.67,6.27,9.32,11.04,13.35c2.39,2.01,5.81,4.56,10.21,7.02c4.4,2.45,9.8,4.82,15.9,6.38
							c3.07,0.74,6.21,1.24,9.63,1.56c3.37,0.31,6.81,0.51,10.17,0.23c3.34-0.31,6.6-1.11,9.44-2.83c2.85-1.68,5.35-4.05,7.59-6.64
							c0.55-0.66,1.09-1.32,1.64-1.98c0.49-0.65,0.97-1.29,1.39-1.99c0.84-1.38,1.58-2.84,2.13-4.35c1.15-3.01,1.73-6.15,1.95-9.18
							c0.4-6.08-0.84-11.72-2.62-16.12c-1.83-4.44-3.8-7.93-5.13-10.36c-1.35-2.42-2.12-3.78-1.99-3.87s1.15,1.11,2.75,3.4
							c1.59,2.3,3.82,5.66,5.96,10.14c2.12,4.52,3.7,10.38,3.53,16.93c-0.11,3.26-0.61,6.68-1.77,10.03
							c-0.55,1.69-1.32,3.33-2.23,4.93c-0.45,0.8-0.99,1.58-1.53,2.33c-0.55,0.71-1.1,1.42-1.66,2.13c-2.28,2.8-4.95,5.52-8.24,7.57
							c-3.27,2.09-7.15,3.14-10.86,3.56c-3.73,0.4-7.37,0.24-10.86,0c-3.45-0.24-6.99-0.73-10.26-1.47
							c-6.55-1.55-12.32-3.99-17.05-6.55c-4.73-2.57-8.41-5.28-10.99-7.45c-5.15-4.34-9.31-9.45-12.04-14.74
							c-2.73-5.3-3.94-10.69-3.75-15.32c0.16-4.66,1.92-8.24,3.52-10.2C509.24,229.88,510.54,229.25,510.89,229.58z"/>
					</g>
				</g>
			</g>
			<g>
				<g>
					<g>
						<path class="st1" d="M508.51,255.86c-0.08,0.57-1.05,0.82-2.73,1.02c-1.67,0.2-4.07,0.31-6.91,0.75
							c-2.79,0.48-6.18,1.31-8.77,3.43c-1.28,1.05-2.28,2.44-2.86,4.13c-0.45,1.45-0.34,3.46,0.16,5.48
							c0.49,2.03,1.51,4.84,3.26,7.94c1.74,3.09,4.15,6.56,7.32,9.57c1.6,1.5,3.48,3.05,5.38,4.5c1.91,1.48,3.95,2.85,6.07,4.11
							c4.24,2.51,8.93,4.45,13.7,5.14c2.38,0.41,4.76,0.38,7.06,0.18c0.57-0.07,1.14-0.15,1.71-0.22c0.57-0.08,1.11-0.24,1.66-0.35
							c1.1-0.21,2.17-0.55,3.22-0.88c4.16-1.35,7.53-3.56,9.84-6.03c2.34-2.45,3.78-4.94,4.83-6.62c1.02-1.71,1.62-2.67,1.77-2.6
							c0.13,0.06-0.19,1.15-0.96,3.01c-0.4,0.93-0.9,2.05-1.6,3.31c-0.68,1.26-1.57,2.65-2.72,4.06c-1.15,1.41-2.6,2.81-4.34,4.05
							c-1.74,1.24-3.75,2.32-5.94,3.17c-1.1,0.41-2.22,0.83-3.42,1.12c-0.6,0.15-1.19,0.35-1.8,0.46c-0.62,0.11-1.24,0.22-1.87,0.33
							c-2.52,0.34-5.17,0.47-7.82,0.14c-5.31-0.55-10.51-2.51-15.13-5.05c-2.31-1.28-4.52-2.68-6.58-4.18
							c-2.08-1.5-3.98-2.98-5.84-4.63c-3.69-3.35-6.35-7.05-8.34-10.43c-1.99-3.39-3.2-6.57-3.81-9.07
							c-0.58-2.48-0.9-5.17-0.04-7.95c0.84-2.49,2.44-4.65,4.31-6.11c1.87-1.48,3.9-2.36,5.79-2.93c1.9-0.58,3.69-0.79,5.31-0.93
							c3.24-0.19,5.8,0.14,7.53,0.56C507.69,254.8,508.58,255.37,508.51,255.86z"/>
					</g>
				</g>
			</g>
			<g>
				<g>
					<g>
						<path class="st1" d="M555.21,234.46c1.04-1.32,2.13-0.46,3.42,0.63c0.65,0.54,2.09,2.03,3.23,3.5
							c1.15,1.46,2.01,2.89,1.69,3.22s-1.76-0.48-3.29-1.47c-1.53-0.99-3.16-2.15-3.79-2.68
							C555.22,236.6,554.25,235.69,555.21,234.46z"/>
					</g>
				</g>
			</g>
			<g>
				<g>
					<g>
						<path class="st1" d="M559.86,238.38c-0.69-0.87,0.14-1.53,1.23-2.11c0.54-0.3,1.96-0.82,3.27-1.01
							c1.31-0.21,2.49-0.13,2.53,0.18c0.05,0.3-0.97,0.76-2.05,1.33c-1.09,0.55-2.23,1.22-2.69,1.48
							C561.21,238.75,560.51,239.2,559.86,238.38z"/>
					</g>
				</g>
			</g>
			<g>
				<path class="st0" d="M502.2,192.4c1.51,12.16,4.6,25.6,13.11,35.17c7.6,8.55,21.32,15.29,33.36,9.61
					c4.1-1.93,8.84-6.03,9.08-11.05c0.19-4.08-10.3-30.18-12.56-36.06c-6.89-17.96-6.47-29.27-14.8-35.24
					c-9.44-6.77-32.85,2.43-42.15,7.94"/>
				<g>
					<g>
						<path class="st1" d="M550.85,212.03c0.83,2.39,2.04,5.76,3.25,9.75c0.16,0.5,0.3,1.01,0.43,1.51
							c0.13,0.51,0.29,1.04,0.37,1.51c0.05,0.24,0.1,0.49,0.15,0.74c0,0.14,0.01,0.27,0.04,0.41c0,0.35-0.07,0.81-0.17,1.22
							c-0.42,1.69-1.67,3.5-3.44,5.03c-3.54,3.11-8.79,4.83-14.14,4.38c-5.38-0.43-10.81-2.82-15.29-6.14
							c-4.54-3.3-7.97-7.65-10.48-12.12c-2.5-4.48-4.12-9.01-5.32-12.9c-1.19-3.91-1.97-7.21-2.6-9.49
							c-0.63-2.29-1.08-3.58-1.45-3.53c-0.32,0.04-0.48,1.41-0.38,3.81s0.45,5.85,1.3,10.02c0.87,4.15,2.25,9.05,4.74,14.07
							c1.25,2.5,2.79,5.02,4.66,7.42c1.87,2.4,4.12,4.64,6.62,6.59c4.99,3.88,11.15,6.82,17.78,7.45
							c6.61,0.64,13.42-1.46,18.07-5.55c2.33-2.02,4.31-4.61,5.11-7.75c0.19-0.79,0.31-1.55,0.32-2.39
							c-0.02-0.46-0.06-0.92-0.11-1.37c-0.07-0.33-0.14-0.66-0.2-0.98c-0.13-0.67-0.3-1.23-0.45-1.8c-0.15-0.58-0.31-1.13-0.48-1.65
							c-1.31-4.22-2.57-7.57-3.47-9.99c-0.86-2.43-2.09-5.8-3.63-9.83c-0.77-2.01-1.61-4.18-2.51-6.49
							c-0.9-2.31-1.87-4.73-2.77-7.22c-1.86-5.01-3.39-10.54-5.06-16.36c-0.86-2.91-1.76-5.91-3.12-8.9
							c-1.31-2.98-3.39-5.95-6.14-8.03c-0.63-0.53-1.45-1.06-2.25-1.45c-0.8-0.41-1.63-0.72-2.45-0.96
							c-1.64-0.48-3.27-0.7-4.83-0.77c-3.14-0.13-6.07,0.24-8.8,0.77c-5.47,1.08-10.19,2.82-14.08,4.48
							c-7.78,3.37-12.17,6.7-11.81,7.26c0.38,0.63,5.14-1.69,12.95-4.23c3.89-1.25,8.54-2.61,13.65-3.36
							c2.54-0.37,5.21-0.57,7.8-0.37c1.3,0.1,2.57,0.33,3.73,0.71c0.58,0.19,1.14,0.42,1.64,0.7c0.52,0.28,0.95,0.56,1.45,1.01
							c4.02,3.11,5.67,8.86,7.27,14.55c1.57,5.74,3.14,11.54,5.05,16.75c0.94,2.63,1.92,5.06,2.82,7.36s1.75,4.46,2.53,6.46
							C548.67,206.33,549.94,209.65,550.85,212.03z"/>
					</g>
				</g>
			</g>
			<g>
				<g>
					<g>
						<path class="st1" d="M502.64,193.01c0.8-0.13,1.43,1.39,1.72,3.98c0.17,2.57-0.04,6.14-0.85,9.92
							c-0.09,0.47-0.19,1.04-0.33,1.66c-0.16,0.62-0.34,1.31-0.53,2.06c-0.36,1.51-0.9,3.2-1.49,5.03
							c-1.22,3.64-2.79,7.73-4.51,11.48c-3.41,7.53-7.2,13.78-7.62,13.54c-0.39-0.21,2.63-6.8,5.42-14.44
							c1.42-3.81,2.73-7.9,3.75-11.49c0.48-1.8,0.95-3.46,1.25-4.91c0.17-0.72,0.32-1.39,0.46-1.99c0.13-0.6,0.21-1.13,0.3-1.58
							c0.78-3.61,0.98-6.89,1.26-9.26C501.61,194.66,501.85,193.14,502.64,193.01z"/>
					</g>
				</g>
			</g>
		</g>
	</g>
</g>
</svg>
