<?xml version="1.0" encoding="utf-8"?>
<!-- Generator: Adobe Illustrator 26.5.0, SVG Export Plug-In . SVG Version: 6.00 Build 0)  -->
<svg version="1.1" id="Layer_1" xmlns="http://www.w3.org/2000/svg" xmlns:xlink="http://www.w3.org/1999/xlink" x="0px" y="0px"
	 viewBox="0 0 807.99 405.59" style="enable-background:new 0 0 807.99 405.59;" xml:space="preserve">
<style type="text/css">
	.st0{fill:#E3B793;}
	.st1{fill:#231F20;}
</style>
<g>
	<g>
		<path class="st0" d="M62.14,170.55c48-5,154,19,178,19s128.1-0.64,128.1-0.64l16.99-1.13c11.62,0.03,32-4.37,38.22-9.08
			c9.25-7,18.82-34.44,27.43-39.02c8.61-4.57,30.98-14.55,70.68-3.76c27.13-7.53,39.75-9.07,74.54-24.17
			c11.41-4.95,37.46-17.5,47.1-0.99c6.19,10.62-3.46,16.71-11.97,21.01c-13.14,6.64-30.1,13.21-43.25,19.83
			c-4.16,2.09-14.62,8.25-19.29,12.22c2.61,2.58,4.14,6.34,4.84,11.4c0.41,2.99,0.54,5.66,0.43,8.08
			c0.47,11.61-4.66,17.09-11.23,19.82c0,0-9.29,3.25-20.73,4.1c11.64,1.55,19.76,4.79,19.76,4.79c6.5,2.41,10.66,6.69,11.32,14.22
			c0.72,3.32,0.6,7.25-0.61,11.91c-1.57,6.04-4.43,10.47-9.19,13.02c9.3,5.51,22.73,13.62,39.97,19.34
			c8.96,2.97,26.82,12.17,20.06,25.2c-9.47,18.26-31.67,6.51-42.67,1.21c-11-5.3-44.23-23.74-52.73-25.24
			c-15.01-2.65-30.27-1.73-45.38-3.05c-14.53-1.27-29.01-5.27-41.98-11.97c-10.84-5.6-21.66-15.23-34.6-14.47l-13.83,1.44
			c-8.29,0.49-23.88,0.13-23.88,0.13s-188.1,20.8-272.1,30.8"/>
		<g>
			<g>
				<path class="st1" d="M576.67,186.96c0.03-0.47,0.05-0.95,0.08-1.44c0-0.48-0.01-0.96-0.01-1.45l-0.01-0.73v0.04l0.01-0.18
					l0.01-0.37c0.02-0.49,0.02-0.99,0.02-1.49c-0.01-2-0.16-4.06-0.44-6.14c-0.28-2.11-0.7-4.34-1.52-6.62
					c-0.41-1.14-0.92-2.29-1.58-3.41l-0.46-0.74l-0.08-0.12l-0.03-0.03c0-0.01,0.03-0.02,0.04-0.03c0.26-0.19,0.53-0.38,0.8-0.58
					c1.12-0.78,2.27-1.57,3.47-2.34c2.39-1.55,4.92-3.09,7.54-4.6c1.31-0.75,2.65-1.51,3.99-2.21c1.33-0.68,2.78-1.4,4.22-2.08
					c2.89-1.39,5.88-2.76,8.97-4.13c6.21-2.74,12.69-5.6,19.43-8.57c3.37-1.52,6.8-3.11,10.26-4.83c1.73-0.85,3.5-1.76,5.26-2.79
					s3.53-2.15,5.22-3.57c1.68-1.41,3.32-3.09,4.55-5.28c1.24-2.16,1.85-4.93,1.53-7.52c-0.1-0.63-0.22-1.26-0.34-1.89
					c-0.19-0.59-0.39-1.17-0.6-1.76c-0.18-0.61-0.49-1.1-0.75-1.64c-0.28-0.53-0.52-1.08-0.86-1.57c-1.23-2.02-2.88-3.91-4.89-5.37
					c-2-1.47-4.32-2.49-6.66-3.08c-2.35-0.6-4.73-0.8-7.07-0.76c-4.67,0.08-9.16,1.05-13.5,2.33c-4.35,1.29-8.57,2.94-12.73,4.71
					c-4.15,1.81-8.21,3.58-12.39,5.33c-8.34,3.48-16.91,6.79-25.74,9.66c-8.83,2.9-17.97,5.26-27.3,7.68
					c-2.33,0.61-4.67,1.23-7.02,1.85c-2.18,0.59-4.36,1.18-6.55,1.78c-2.07-0.51-4.15-1.02-6.23-1.53c-2.44-0.51-4.9-0.97-7.35-1.45
					c-9.88-1.63-20.1-2.26-30.32-1.17c-5.1,0.52-10.19,1.53-15.16,3.04c-1.24,0.4-2.47,0.8-3.7,1.24c-1.21,0.48-2.44,0.9-3.63,1.44
					c-1.2,0.5-2.38,1.06-3.55,1.63l-1.73,0.89c-0.26,0.12-0.66,0.37-1,0.58c-0.37,0.21-0.67,0.46-0.98,0.69
					c-2.42,1.93-4,4.1-5.52,6.25c-1.5,2.16-2.83,4.37-4.11,6.57c-2.55,4.41-4.91,8.84-7.39,13.13c-1.24,2.14-2.51,4.24-3.87,6.23
					c-1.35,1.98-2.8,3.87-4.36,5.31c-0.4,0.34-0.76,0.68-1.2,0.94l-0.63,0.42c-0.22,0.14-0.48,0.26-0.72,0.39l-0.73,0.39l-0.79,0.36
					c-0.53,0.24-1.05,0.48-1.61,0.69c-2.19,0.89-4.51,1.6-6.85,2.26c-4.69,1.3-9.51,2.28-14.33,2.97c-2.41,0.34-4.82,0.62-7.21,0.75
					c-1.18,0.1-2.43,0.08-3.66,0.14l-3.72,0.25c-2.48,0.17-4.95,0.34-7.42,0.51l-3.7,0.25l-1.85,0.13l-1.85,0.02
					c-4.92,0.04-9.83,0.07-14.72,0.11c-39.08,0.32-76.8,0.62-111.39,0.9c-8.31-0.17-16.77-1.51-24.87-2.62
					c-8.13-1.15-16.04-2.4-23.71-3.58c-15.34-2.37-29.71-4.56-42.9-6.34c-26.38-3.59-48.09-5.49-63.2-5.68
					c-0.94-0.02-1.86-0.05-2.75-0.07c-0.89,0-1.76,0.03-2.6,0.05c-1.68,0.04-3.25,0.08-4.7,0.12c-1.46,0.05-2.8,0.06-4.03,0.14
					c-1.23,0.12-2.34,0.23-3.34,0.33c-3.98,0.42-6.05,0.72-6.03,0.91c0.06,0.47,8.44-0.35,23.44,0.44c15,0.75,36.55,3.12,62.81,7.11
					c13.13,1.98,27.45,4.36,42.76,6.9c7.66,1.26,15.56,2.59,23.72,3.83c8.19,1.18,16.48,2.62,25.48,2.88
					c34.64-0.06,72.4-0.13,111.54-0.2c4.89-0.01,9.81-0.03,14.74-0.04c0.62-0.01,1.23,0.01,1.85-0.01l1.85-0.12l3.7-0.24
					c2.47-0.16,4.94-0.32,7.41-0.48l3.71-0.24c1.25-0.04,2.49-0.03,3.79-0.13c2.58-0.14,5.12-0.42,7.64-0.77
					c5.05-0.71,10.05-1.71,15.01-3.07c2.48-0.69,4.95-1.44,7.41-2.43c0.62-0.22,1.23-0.51,1.85-0.79c0.61-0.26,1.23-0.58,1.85-0.91
					c0.61-0.3,1.24-0.71,1.87-1.13c0.63-0.39,1.2-0.91,1.74-1.38c2.12-1.96,3.7-4.1,5.19-6.25c1.48-2.16,2.81-4.35,4.09-6.55
					c2.56-4.4,4.93-8.83,7.43-13.1c1.25-2.13,2.52-4.23,3.89-6.18c1.35-1.94,2.85-3.82,4.38-5c0.19-0.15,0.38-0.29,0.55-0.39
					c0.17-0.11,0.34-0.22,0.64-0.36l1.61-0.82c1.08-0.52,2.17-1.03,3.28-1.49c1.09-0.5,2.23-0.88,3.35-1.32
					c1.14-0.39,2.27-0.77,3.42-1.13c4.6-1.38,9.34-2.32,14.14-2.79c9.59-0.99,19.3-0.4,28.77,1.19c2.36,0.47,4.72,0.91,7.06,1.41
					l3.49,0.86l1.74,0.43l0.99,0.24l0.91,0.23c0.15,0.02,0.29,0.11,0.44,0.07l0.44-0.12c2.49-0.67,4.98-1.34,7.46-2.01
					c2.34-0.61,4.66-1.22,6.99-1.83c9.31-2.4,18.61-4.8,27.63-7.75c9.02-2.93,17.74-6.29,26.18-9.8c2.1-0.89,4.2-1.78,6.28-2.67
					c2.06-0.9,4.11-1.79,6.15-2.67c4.05-1.73,8.07-3.29,12.1-4.48c4.02-1.19,8.08-2.03,11.96-2.09c3.87-0.07,7.54,0.73,10.25,2.74
					c1.36,0.99,2.5,2.28,3.4,3.76c0.85,1.49,1.61,3.06,1.72,4.5c0.15,1.45-0.13,2.79-0.86,4.1s-1.87,2.54-3.2,3.65
					c-1.32,1.12-2.86,2.11-4.44,3.03c-1.59,0.93-3.23,1.78-4.92,2.61c-3.36,1.67-6.73,3.24-10.06,4.74
					c-6.72,2.98-13.2,5.84-19.4,8.59c-3.11,1.39-6.15,2.79-9.1,4.21c-1.49,0.71-2.9,1.41-4.39,2.18c-1.46,0.77-2.83,1.54-4.19,2.33
					c-2.71,1.57-5.3,3.15-7.79,4.78c-1.25,0.81-2.46,1.64-3.66,2.48l-0.94,0.68c-0.55,0.4-1.09,0.84-1.62,1.26
					c-1.05,0.85-2.1,1.7-3.13,2.54c0.79,0.83,1.67,1.72,2.45,2.57c0.45,0.44,0.66,0.81,0.98,1.22l0.11,0.15l0.05,0.08l0.09,0.14
					l0.18,0.28c0.45,0.77,0.83,1.6,1.14,2.47c0.63,1.73,1,3.59,1.25,5.45c0.25,1.88,0.39,3.71,0.4,5.45c0,0.43-0.01,0.87-0.01,1.29
					l-0.01,0.32l-0.01,0.16c-0.01,0.15,0,0.19,0,0.39l0.01,0.63c0,0.42,0.01,0.83,0.01,1.24c-0.02,0.4-0.04,0.8-0.06,1.19
					c-0.15,2.57-0.73,5.19-1.98,7.54c-1.25,2.33-3.28,4.3-6.01,5.7c-0.33,0.19-0.69,0.34-1.05,0.5l-0.39,0.18l-0.58,0.19
					c-0.82,0.26-1.66,0.51-2.52,0.74c-1.72,0.48-3.5,0.91-5.33,1.3c-3.65,0.78-7.5,1.37-11.49,1.67l-26.45,2.03l26.29,3.6
					c4.72,0.65,9.61,1.65,14.53,3.11c2.44,0.74,4.99,1.55,7.06,2.63c2.12,1.09,3.9,2.57,5.08,4.49c0.6,0.96,1.06,2.02,1.38,3.17
					c0.17,0.57,0.28,1.18,0.39,1.79l0.12,0.94c0.01,0.04,0.07,0.61,0.12,0.82l0.09,0.46c0.43,2.45,0.3,5.12-0.21,7.82
					c-0.53,2.72-1.35,5.44-2.66,7.75c-0.65,1.16-1.42,2.22-2.32,3.15c-0.11,0.12-0.23,0.22-0.35,0.34l-0.17,0.17l-0.12,0.11
					c-0.15,0.14-0.18,0.14-0.28,0.22l-0.97,0.73c-0.16,0.12-0.32,0.25-0.49,0.36l-0.58,0.34c-1.55,0.89-3.1,1.79-4.66,2.69
					c2.81,1.67,5.64,3.34,8.48,5.03c1.52,0.89,3.06,1.79,4.62,2.67c3.12,1.77,6.32,3.5,9.61,5.16c6.59,3.31,13.53,6.35,20.85,8.83
					l1.36,0.47c0.42,0.14,0.84,0.29,1.26,0.45c0.84,0.31,1.68,0.65,2.51,1.01c1.66,0.72,3.3,1.52,4.87,2.42
					c3.14,1.78,6.11,3.95,8.24,6.55c2.12,2.62,3.09,5.56,2.22,8.5c-0.07,0.37-0.25,0.73-0.36,1.11c-0.15,0.37-0.33,0.73-0.5,1.1
					c-0.44,0.76-0.85,1.54-1.37,2.23c-0.99,1.41-2.16,2.63-3.51,3.57c-2.69,1.91-6.15,2.64-9.81,2.44
					c-3.66-0.19-7.45-1.19-11.17-2.52c-3.74-1.34-7.41-3.05-11.15-4.87c-1.91-0.92-3.72-1.8-5.59-2.76
					c-1.86-0.96-3.72-1.91-5.59-2.87c-7.48-3.88-15.02-7.84-22.73-11.66c-3.85-1.92-7.75-3.79-11.76-5.56
					c-1.01-0.44-2-0.89-3.05-1.29c-1.03-0.42-2.06-0.84-3.17-1.2c-0.57-0.18-1.04-0.4-1.68-0.54c-0.61-0.15-1.24-0.32-1.84-0.45
					c-1.1-0.17-2.19-0.36-3.29-0.52c-17.58-2.52-35.18-0.79-51.93-3.75c-8.4-1.43-16.63-3.84-24.45-7.14
					c-1.95-0.84-3.88-1.71-5.77-2.66c-1.91-0.93-3.71-1.95-5.56-3.03c-3.67-2.17-7.34-4.54-11.27-6.66c-3.9-2.14-8.13-4-12.71-4.98
					c-1.16-0.19-2.31-0.44-3.49-0.49c-0.59-0.04-1.17-0.12-1.77-0.11l-1.82,0.02c-0.64-0.01-1.12,0.08-1.66,0.13l-1.6,0.17
					l-3.19,0.34c-2.13,0.23-4.25,0.45-6.37,0.68l-1.59,0.17l-1.5,0.08l-3.14,0.11c-4.2,0.1-8.42,0.11-12.61,0.08
					c-2.14-0.03-4.28-0.05-6.41-0.08c-2.15,0.25-4.3,0.49-6.44,0.73c-4.15,0.48-8.28,0.96-12.39,1.44
					c-8.21,0.96-16.34,1.9-24.36,2.83c-64.14,7.47-121.38,14.24-162.59,19.29c-20.6,2.52-37.19,4.62-48.62,6.16
					c-5.72,0.77-10.14,1.4-13.14,1.88c-2.99,0.48-4.56,0.8-4.54,0.95c0.01,0.16,1.6,0.14,4.62-0.06c3.02-0.2,7.47-0.56,13.21-1.08
					c11.48-1.04,28.11-2.69,48.75-4.83c41.28-4.27,98.59-10.47,162.77-17.53c8.02-0.88,16.15-1.78,24.37-2.69
					c4.11-0.45,8.24-0.91,12.39-1.37c2.03-0.22,4.06-0.45,6.1-0.67c2.04,0.04,4.09,0.07,6.15,0.11c4.23,0.05,8.49,0.07,12.78-0.02
					l3.24-0.09l1.69-0.08l1.6-0.16c2.12-0.22,4.25-0.43,6.38-0.65l3.2-0.32l1.6-0.16c0.51-0.04,1.12-0.15,1.55-0.12
					c1.84-0.07,3.81,0.12,5.72,0.5c3.84,0.83,7.6,2.45,11.26,4.48c3.68,2,7.29,4.35,11.08,6.61c1.89,1.12,3.87,2.25,5.87,3.23
					c1.99,1.02,4.02,1.94,6.06,2.82c8.2,3.5,16.83,6.05,25.62,7.58c4.39,0.77,8.86,1.3,13.26,1.59c4.41,0.31,8.8,0.46,13.16,0.6
					c8.71,0.27,17.3,0.51,25.66,1.71c1.04,0.14,2.08,0.33,3.12,0.49l1.3,0.33c0.41,0.08,0.93,0.31,1.39,0.45
					c0.94,0.3,1.91,0.7,2.87,1.09c0.96,0.37,1.93,0.81,2.9,1.23c3.86,1.71,7.7,3.57,11.51,5.47c7.62,3.8,15.14,7.76,22.63,11.66
					c1.88,0.97,3.76,1.94,5.63,2.91c1.87,0.96,3.83,1.91,5.68,2.81c3.77,1.84,7.65,3.65,11.7,5.12c4.05,1.45,8.3,2.62,12.82,2.87
					c2.25,0.12,4.58-0.02,6.88-0.56c2.29-0.54,4.54-1.5,6.5-2.88c1.96-1.36,3.61-3.1,4.93-4.96c0.68-0.93,1.22-1.91,1.77-2.89
					c0.25-0.53,0.51-1.07,0.74-1.62c0.19-0.58,0.44-1.12,0.58-1.73c0.66-2.36,0.7-5.01,0.01-7.39c-0.64-2.4-1.9-4.45-3.29-6.21
					c-2.86-3.48-6.33-5.92-9.87-7.95c-1.78-1.01-3.59-1.9-5.43-2.7c-0.92-0.4-1.85-0.77-2.8-1.12c-0.47-0.18-0.95-0.34-1.42-0.5
					l-1.33-0.46c-7.03-2.38-13.73-5.31-20.12-8.52c-3.2-1.61-6.31-3.3-9.37-5.03c-1.69-0.98-3.37-1.95-5.02-2.9l0.81-0.79
					c1.28-1.32,2.34-2.81,3.2-4.34c1.72-3.09,2.65-6.31,3.28-9.47c0.61-3.2,0.8-6.55,0.22-9.88l-0.12-0.62
					c-0.03-0.14,0,0.06-0.04-0.26l-0.15-1.23c-0.14-0.82-0.3-1.64-0.54-2.45c-0.46-1.62-1.14-3.2-2.04-4.65
					c-1.81-2.93-4.52-5.1-7.27-6.5c-2.81-1.44-5.46-2.23-8.08-3.04c-5.24-1.55-10.4-2.59-15.4-3.27l-0.16,5.6
					c4.29-0.34,8.37-0.97,12.24-1.8c1.94-0.41,3.82-0.88,5.65-1.39c0.92-0.26,1.82-0.52,2.73-0.81l0.7-0.23
					c0.47-0.17,0.57-0.24,0.84-0.35c0.46-0.2,0.91-0.41,1.35-0.65c3.56-1.8,6.6-4.7,8.34-8.02
					C575.82,193.47,576.5,190.04,576.67,186.96z"/>
			</g>
		</g>
	</g>
	<g>
		<g>
			<g>
				<path class="st1" d="M527.66,164.2c-0.14-0.53,1.18-1.33,3.73-2.29c2.55-0.95,6.31-2.08,11.09-3.09
					c2.39-0.49,5.04-0.96,7.95-1.25c2.91-0.27,6.07-0.44,9.49,0.02c1.71,0.23,3.48,0.62,5.25,1.33c1.76,0.7,3.5,1.76,4.97,3.18
					c1.47,1.41,2.64,3.15,3.47,4.98c0.84,1.83,1.39,3.75,1.77,5.67c0.19,0.96,0.36,2.02,0.48,3.12c0.06,0.56,0.12,1.13,0.19,1.73
					c0.04,0.6,0.08,1.22,0.12,1.86c0.11,2.56,0.06,5.45-0.54,8.59c-0.61,3.12-1.85,6.53-4.15,9.52c-2.3,3-5.62,5.36-9.26,6.87
					c-3.65,1.53-7.59,2.34-11.55,2.84c-3.96,0.48-7.95,0.77-12.06,0.88c-4.09,0.08-8.24-0.03-12.37-0.56
					c-4.12-0.52-8.25-1.44-12.11-3.06c-3.86-1.58-7.43-4.06-9.96-7.32c-1.28-1.61-2.24-3.43-2.92-5.28
					c-0.38-0.92-0.59-1.87-0.85-2.8c-0.16-0.95-0.4-1.87-0.45-2.81c-0.04-0.46-0.09-0.93-0.13-1.39c-0.01-0.46-0.02-0.91-0.03-1.37
					c0-0.47-0.05-0.85,0.02-1.44c0.05-0.54,0.19-1.06,0.37-1.53c0.74-1.88,1.95-3.22,3.14-4.4c2.42-2.34,5.01-4.01,7.41-5.43
					c4.84-2.81,9.1-4.51,12.1-5.5C525.85,164.31,527.63,164.06,527.66,164.2c0.04,0.16-1.64,0.7-4.5,1.95
					c-2.85,1.25-6.94,3.18-11.51,6.14c-2.26,1.49-4.69,3.23-6.81,5.45c-1.04,1.1-2.02,2.36-2.47,3.68
					c-0.23,0.68-0.24,1.19-0.17,2.11c0.02,0.42,0.05,0.84,0.07,1.26c0.06,0.42,0.11,0.83,0.17,1.26c0.08,0.85,0.32,1.67,0.49,2.51
					c0.26,0.81,0.47,1.65,0.83,2.44c0.65,1.6,1.52,3.13,2.66,4.48c2.25,2.72,5.39,4.81,8.93,6.16c3.53,1.38,7.39,2.16,11.31,2.56
					c3.92,0.41,7.91,0.44,11.85,0.28c3.93-0.18,7.89-0.55,11.65-1.07c3.75-0.54,7.33-1.36,10.45-2.73c3.12-1.35,5.71-3.3,7.48-5.67
					c1.77-2.37,2.75-5.1,3.24-7.75c0.92-5.33,0.25-10.26-0.34-13.6c-0.64-3.35-1.89-6.35-3.95-8.31c-2.02-2-4.85-2.97-7.73-3.39
					c-2.88-0.44-5.8-0.35-8.52-0.18c-2.73,0.19-5.29,0.52-7.63,0.86c-4.68,0.69-8.49,1.39-11.16,1.73
					C529.33,164.7,527.79,164.71,527.66,164.2z"/>
			</g>
		</g>
	</g>
	<g>
		<g>
			<g>
				<path class="st1" d="M498.83,218.83c0.28,0.05,0.46,0.43,0.58,1.09c0.11,0.66,0.14,1.61,0.21,2.81
					c0.14,2.37,0.23,5.83,1.72,9.51c0.75,1.83,1.88,3.67,3.51,5.33c1.62,1.66,3.68,3.17,6.1,4.43c4.86,2.55,10.95,4.2,17.45,5.61
					c3.29,0.67,7.75,1.59,13.03,2.67c1.29,0.24,2.63,0.53,4.03,0.69c0.69,0.09,1.4,0.21,2.12,0.28c0.72,0.06,1.44,0.11,2.18,0.17
					c2.93,0.15,6.02,0.07,8.99-0.7c2.94-0.77,5.77-2.22,7.78-4.68c2.07-2.4,3.45-5.57,4.29-8.98c0.87-3.4,1.24-6.94,0.62-10.26
					c-0.6-3.32-2.35-6.3-4.88-8.51c-2.52-2.23-5.68-3.74-8.88-4.78c-3.22-1.04-6.51-1.66-9.7-2.02c-6.47-0.59-12.46-1.32-17.45-1.49
					c-5.01-0.19-9.1,0.29-11.92,0.76c-2.82,0.49-4.41,0.86-4.46,0.69c-0.04-0.13,1.46-0.79,4.26-1.57
					c2.81-0.76,6.99-1.54,12.13-1.62c2.57-0.05,5.36,0.05,8.31,0.21c2.97,0.17,6.03,0.32,9.37,0.54c3.32,0.26,6.8,0.78,10.3,1.79
					c3.48,1.02,7.05,2.55,10.11,5.1c1.52,1.27,2.89,2.8,3.95,4.55c1.07,1.74,1.83,3.69,2.25,5.68c0.84,4,0.47,8.07-0.4,11.83
					c-0.19,0.95-0.51,1.88-0.77,2.82c-0.31,0.93-0.66,1.85-1.03,2.75c-0.45,0.88-0.8,1.8-1.37,2.63l-0.79,1.26l-0.93,1.18
					c-2.49,3.17-6.18,5.16-9.71,6.13c-3.57,0.98-7.06,1.1-10.28,0.99c-0.8-0.05-1.6-0.1-2.38-0.16s-1.53-0.18-2.28-0.27
					c-1.5-0.16-2.92-0.44-4.29-0.68c-5.34-1.03-9.8-1.88-13.14-2.6c-6.64-1.44-13.08-3.15-18.57-6.11
					c-2.73-1.47-5.18-3.31-7.11-5.44c-1.95-2.11-3.28-4.53-4.06-6.84c-0.8-2.31-1.01-4.49-1.06-6.36c-0.01-0.94,0.01-1.8,0.11-2.59
					c0.07-0.79,0.17-1.5,0.32-2.13c0.24-1.27,0.58-2.21,0.89-2.83C498.29,219.08,498.57,218.79,498.83,218.83z"/>
			</g>
		</g>
	</g>
	<g>
		<path class="st0" d="M490.32,166.09c-3.31,11.79-5.66,25.39-1.52,37.5c3.7,10.82,13.75,22.34,27.05,21.77
			c4.53-0.2,10.49-2.14,12.65-6.68c1.76-3.69,2.17-31.82,2.37-38.11c0.6-19.23,5.36-29.49-0.01-38.22
			c-6.09-9.89-31.23-10.46-41.94-8.98"/>
		<g>
			<g>
				<path class="st1" d="M527.59,203.01c-0.16,2.53-0.34,6.1-0.78,10.25c-0.05,0.52-0.11,1.04-0.19,1.56
					c-0.07,0.52-0.14,1.07-0.24,1.54c-0.05,0.24-0.09,0.49-0.14,0.74c-0.05,0.13-0.1,0.26-0.12,0.39c-0.14,0.33-0.38,0.72-0.63,1.06
					c-1.04,1.4-2.9,2.59-5.12,3.31c-4.47,1.5-9.97,1.05-14.74-1.43c-4.8-2.48-8.87-6.78-11.73-11.57c-2.91-4.8-4.4-10.14-4.98-15.23
					c-0.58-5.1-0.32-9.9,0.08-13.96c0.42-4.06,0.97-7.41,1.28-9.76c0.31-2.35,0.39-3.72,0.03-3.81c-0.32-0.09-0.99,1.11-1.82,3.37
					c-0.83,2.26-1.85,5.57-2.68,9.74c-0.81,4.16-1.43,9.21-1.08,14.81c0.19,2.79,0.63,5.71,1.43,8.65c0.79,2.94,2,5.87,3.56,8.64
					c3.1,5.51,7.64,10.6,13.51,13.74c5.84,3.15,12.94,3.84,18.81,1.87c2.93-0.96,5.76-2.59,7.71-5.17c0.48-0.66,0.88-1.31,1.22-2.08
					c0.16-0.43,0.3-0.87,0.43-1.3c0.06-0.33,0.13-0.66,0.19-0.98c0.14-0.67,0.2-1.25,0.28-1.84s0.15-1.16,0.2-1.71
					c0.43-4.4,0.56-7.98,0.67-10.56c0.15-2.57,0.31-6.16,0.46-10.47c0.06-2.15,0.13-4.48,0.2-6.96c0.06-2.48,0.1-5.09,0.24-7.73
					c0.23-5.34,0.95-11.03,1.66-17.05c0.33-3.01,0.67-6.13,0.57-9.41c-0.06-3.25-0.83-6.8-2.55-9.78c-0.38-0.73-0.93-1.54-1.51-2.21
					c-0.58-0.69-1.23-1.29-1.89-1.83c-1.33-1.08-2.74-1.91-4.16-2.57c-2.84-1.33-5.69-2.13-8.42-2.7
					c-5.47-1.12-10.49-1.34-14.72-1.31c-8.48,0.09-13.81,1.47-13.7,2.13c0.1,0.73,5.39,0.43,13.57,1.11
					c4.07,0.35,8.89,0.9,13.88,2.18c2.49,0.64,5.02,1.48,7.34,2.68c1.16,0.59,2.24,1.3,3.16,2.1c0.46,0.4,0.89,0.83,1.24,1.28
					c0.37,0.46,0.66,0.89,0.95,1.49c2.5,4.42,1.8,10.36,1.08,16.23c-0.77,5.9-1.57,11.85-1.82,17.4c-0.15,2.79-0.19,5.41-0.25,7.88
					s-0.11,4.79-0.17,6.93C527.78,196.91,527.67,200.47,527.59,203.01z"/>
			</g>
		</g>
	</g>
	<g>
		<g>
			<g>
				<path class="st1" d="M490.49,166.83c0.79,0.19,0.78,1.84,0.05,4.34c-0.84,2.43-2.41,5.65-4.62,8.81
					c-0.27,0.4-0.57,0.88-0.95,1.4c-0.39,0.51-0.82,1.08-1.28,1.69c-0.91,1.25-2.07,2.6-3.32,4.06c-2.53,2.88-5.56,6.05-8.6,8.84
					c-6.05,5.63-11.97,9.92-12.27,9.54c-0.28-0.35,5.05-5.25,10.59-11.22c2.78-2.97,5.57-6.23,7.9-9.14
					c1.14-1.47,2.21-2.82,3.05-4.05c0.43-0.6,0.83-1.16,1.19-1.66c0.35-0.5,0.63-0.96,0.89-1.35c2.12-3.03,3.57-5.97,4.74-8.05
					C488.9,167.95,489.71,166.64,490.49,166.83z"/>
			</g>
		</g>
	</g>
</g>
</svg>
