<?xml version="1.0" encoding="utf-8"?>
<!-- Generator: Adobe Illustrator 26.5.0, SVG Export Plug-In . SVG Version: 6.00 Build 0)  -->
<svg version="1.1" id="Layer_1" xmlns="http://www.w3.org/2000/svg" xmlns:xlink="http://www.w3.org/1999/xlink" x="0px" y="0px"
	 viewBox="0 0 807.99 405.59" style="enable-background:new 0 0 807.99 405.59;" xml:space="preserve">
<style type="text/css">
	.st0{fill:#E3B793;}
	.st1{fill:#231F20;}
	.st2{fill:none;stroke:#231F20;stroke-width:1.9306;stroke-miterlimit:10;}
</style>
<g>
	<g>
		<path class="st0" d="M96.14,275.25c84-10,272.1-30.8,272.1-30.8l3.21-1.36c4.38,0.03,14.88-0.7,19.26-0.63
			c4.66,0.08,9.36,0.19,13.89,1.26c10.55,2.49,20.03,7.78,27.67,15.48c7.64,7.69,12.82,14.06,21.76,19.45
			c4.87,2.94,14.46,8.57,19.92,10.18c6.28,1.84,16.66,4.37,25.41,4.7c3.53,1.67,7.21,2.71,10.39,3.15c7.25,1,15.2,0.24,21.15-4.04
			c1.35-0.96,2.6-2.12,3.73-3.51c2.96-3.63,3.99-8.27,4.29-12.87h-0.01c4.93-0.9,9.59-3.01,12.81-6.76
			c0.39-0.45,0.76-0.92,1.11-1.42c2.56-3.75,4.43-8.78,5.17-13.77c0.44-3,0.48-5.97,0.02-8.65c-0.08-0.47-0.19-0.94-0.33-1.4
			c-0.97-3.23-3.28-6.12-5.98-8.61c1.67-0.84,3.32-1.76,4.91-2.82c9.92-6.61,13.44-18.11,9.92-31.55c-1.34-5.1-4.76-9.63-9-12.93
			l0,0c1.67-1.96,2.97-4.19,3.8-6.63c0.2-0.53,0.38-1.09,0.51-1.67c0.35-1.47,0.4-3.15,0.23-4.92c-0.05-0.48-0.11-0.97-0.18-1.46
			c-0.29-1.84-0.79-3.73-1.42-5.54c-0.79-2.27-1.79-4.42-2.84-6.19c-0.42-0.71-0.85-1.36-1.28-1.93c-3.1-4.16-6.93-7.19-11.18-9.58
			c-2.13-1.19-4.36-2.22-6.66-3.15s-4.67-1.75-7.07-2.53c-0.83-0.27-1.7-0.5-2.6-0.72c-9.89-2.62-20.87-2.36-31.04-1.98
			c-0.11,0-0.22,0.01-0.33,0.02l-0.28,0.24c-1.26,0.03-2.49,0.05-3.65,0.06c-9.69,0.12-20.09-6.97-26.45-13.73
			c-9.14-9.74-8.48-23.64-12.68-35.76c-3.95-11.4-9.98-23.05-22.91-25.05c-9.13-1.41-21.93,1.87-25.09,11.72
			c-2.96,9.23,5.02,18.34,8.99,25.95c6.91,13.23,12.21,27.92,12.87,42.95c0.41,9.51-6.46,27.24-6.46,27.24
			c-1.34,3.63-5.93,9.35-9.95,11.28c-4.77,2.29-27.37,4.86-37.38,3.61l-2.07-0.19l-4.2-0.75c0,0-104.1,0.64-128.1,0.64
			s-130-24-178-19"/>
		<g>
			<g>
				<path class="st1" d="M530.84,147.36c3.38,1.28,7.26,2.43,10.97,4.33c3.74,1.86,7.47,4.31,10.57,7.73
					c0.76,0.85,1.55,1.77,2.16,2.73c0.31,0.48,0.64,0.93,0.94,1.45s0.58,1.05,0.85,1.61c1.08,2.21,1.98,4.65,2.55,7.16
					c0.54,2.49,0.85,5.16,0.24,7.29c-0.19,0.57-0.34,1.18-0.6,1.82c-0.23,0.6-0.5,1.19-0.81,1.77c-0.15,0.29-0.32,0.58-0.48,0.86
					l-0.26,0.42l-0.14,0.21l-0.24,0.35c-0.87,1.24-1.98,2.47-2.97,3.68l0,0c-0.35,0.42-1.14,1.38-1.93,2.34
					c0.65-0.01,0.8,0.02,1.14,0.03l0.92,0.04l1.85,0.09c1.59-0.08,1.62,0.44,2.03,0.74c0.36,0.32,0.7,0.67,1.04,1.02
					c0.67,0.7,1.3,1.45,1.89,2.22c1.18,1.55,2.13,3.28,2.82,5.09c0.16,0.46,0.32,0.92,0.44,1.38c0.14,0.46,0.24,1.02,0.37,1.52
					c0.27,1.03,0.41,2.08,0.6,3.14c0.27,2.11,0.42,4.26,0.28,6.39c-0.28,4.25-1.51,8.5-4.06,12.01c-1.25,1.76-2.79,3.35-4.55,4.72
					l-1.36,0.99c-0.48,0.32-0.98,0.63-1.48,0.93l-0.65,0.38l-0.83,0.46c-0.56,0.3-1.13,0.6-1.71,0.9c-1.16,0.59-2.32,1.18-3.49,1.77
					c1.52,1.46,3.24,2.96,4.65,4.48c0.17,0.18,0.38,0.4,0.51,0.56l0.22,0.27l0.43,0.54c0.28,0.36,0.54,0.73,0.79,1.1
					c0.49,0.75,0.91,1.51,1.22,2.29c0.15,0.39,0.31,0.78,0.38,1.17c0.09,0.4,0.2,0.76,0.26,1.24c0.52,3.67,0.05,7.73-1.04,11.58
					c-0.56,1.93-1.28,3.82-2.18,5.61c-0.45,0.89-0.95,1.75-1.5,2.56c-0.56,0.74-1.09,1.47-1.78,2.14c-1.31,1.32-2.91,2.41-4.69,3.24
					c-0.89,0.42-1.82,0.77-2.78,1.07c-0.24,0.07-0.48,0.15-0.73,0.21c-0.29,0.07-0.34,0.11-1.04,0.25c-1.1,0.24-2.25,0.47-3.33,0.68
					l0,0l-2.07,0.41l-0.26,0.05l-0.13,0.03c0.02,0.04,0.07,0.1,0.11,0.15l0.46,0.63l0.93,1.26l0.46,0.63l0.23,0.31
					c0.02,0.07-0.01,0.12-0.01,0.19l-0.06,0.5l-0.09,0.66c-0.13,0.88-0.29,1.74-0.5,2.58c-0.43,1.67-1.04,3.26-1.9,4.64
					c-0.84,1.36-2.01,2.66-3.31,3.73c-1.32,1.07-2.81,1.97-4.42,2.65c-3.23,1.37-6.91,1.97-10.65,1.93
					c-1.86-0.01-3.78-0.18-5.62-0.46c-1.82-0.3-3.66-0.77-5.44-1.39c-0.89-0.31-1.77-0.65-2.64-1.03l-0.93-0.42
					c-0.44-0.3-0.98-0.18-1.5-0.25c-0.49-0.03-0.97-0.04-1.46-0.09c-1.95-0.14-3.93-0.37-5.9-0.67c-3.95-0.6-7.92-1.43-11.86-2.43
					l-2.95-0.78c-0.96-0.27-2.02-0.56-2.83-0.83c-1.76-0.6-3.6-1.45-5.41-2.33c-3.63-1.79-7.23-3.82-10.81-5.93
					c-0.88-0.53-1.8-1.06-2.66-1.59c-0.85-0.52-1.69-1.07-2.51-1.63c-1.64-1.14-3.23-2.37-4.76-3.68c-3.07-2.62-5.95-5.58-8.87-8.61
					l-4.44-4.55c-1.54-1.54-3.17-3.06-4.87-4.45c-3.42-2.79-7.14-5.22-11.09-7.19c-3.95-1.97-8.1-3.52-12.37-4.58
					c-4.36-1.15-8.85-1.41-13.08-1.5c-2.09-0.06-4.34-0.06-6.44,0.03s-4.2,0.18-6.3,0.28c-2.07,0.09-4.15,0.18-6.21,0.27l-1.52,0.04
					l-0.89,0.01h-0.75c-0.24,0.07-0.46,0.19-0.69,0.28l-2.69,1.15c-35.82,4.17-70.67,8.22-102.79,11.96
					c-32.23,3.84-61.74,7.36-86.75,10.34c-25,3.04-45.51,5.61-59.74,7.51c-7.12,0.95-12.67,1.74-16.44,2.33
					c-3.77,0.59-5.74,1-5.72,1.19c0.03,0.18,2.05,0.11,5.87-0.16c3.81-0.27,9.4-0.76,16.56-1.43c14.31-1.34,34.87-3.43,59.91-6.07
					c25.04-2.69,54.57-5.85,86.84-9.32c32.37-3.56,67.48-7.42,103.57-11.38l3.05-1.28c0.02-0.01,0.05-0.02,0.08-0.01l0.67-0.01
					l1.6-0.03c2.1-0.08,4.19-0.16,6.29-0.24c2.08-0.08,4.16-0.16,6.24-0.25c2.09-0.08,4.03-0.07,6.14,0
					c4.14,0.11,8.12,0.37,11.92,1.39c3.9,0.98,7.69,2.41,11.28,4.22s6.97,4.03,10.08,6.59c1.56,1.28,3.01,2.65,4.45,4.09l4.37,4.52
					c2.92,3.04,5.9,6.14,9.22,8.99c1.66,1.42,3.39,2.77,5.19,4.03c0.91,0.62,1.82,1.23,2.76,1.8c0.93,0.58,1.81,1.1,2.73,1.65
					c3.64,2.16,7.32,4.25,11.16,6.15c1.94,0.94,3.88,1.86,6.05,2.61c1.16,0.39,2.1,0.64,3.14,0.93l3.06,0.82
					c4.09,1.04,8.21,1.92,12.39,2.56c2.09,0.32,4.2,0.57,6.33,0.73c0.53,0.05,1.07,0.06,1.6,0.1c-0.02,0,0,0,0,0l0.46,0.21
					c1,0.44,2.02,0.84,3.06,1.2c2.07,0.72,4.18,1.27,6.36,1.63c2.17,0.33,4.29,0.52,6.47,0.54c4.32,0.04,8.74-0.62,12.86-2.36
					c4.13-1.75,7.83-4.62,10.29-8.56c1.22-1.96,2.03-4.09,2.57-6.19c0.27-1.06,0.47-2.11,0.62-3.16l0.13-1.02h0.01l0.61-0.16
					c0.3-0.08,0.6-0.17,0.9-0.26c1.19-0.37,2.36-0.81,3.51-1.35c2.28-1.06,4.45-2.51,6.27-4.34c0.91-0.89,1.71-1.94,2.46-2.97
					c0.69-1.02,1.3-2.07,1.84-3.14c1.08-2.14,1.93-4.35,2.58-6.6c1.26-4.5,1.85-9.16,1.2-13.92c-0.07-0.57-0.24-1.23-0.39-1.87
					c-0.14-0.64-0.37-1.24-0.6-1.84c-0.47-1.18-1.07-2.26-1.73-3.27c-0.33-0.5-0.68-0.98-1.04-1.45l-0.55-0.68l-0.3-0.36l0,0l0,0
					l0.17-0.1c0.58-0.34,1.15-0.7,1.71-1.08l1.68-1.21c2.18-1.69,4.12-3.69,5.7-5.92s2.82-4.68,3.63-7.22
					c0.82-2.54,1.27-5.13,1.44-7.69c0.16-2.56-0.02-5.07-0.33-7.51c-0.21-1.21-0.38-2.42-0.68-3.59c-0.15-0.6-0.25-1.16-0.43-1.78
					c-0.17-0.62-0.38-1.23-0.59-1.83c-0.9-2.38-2.13-4.56-3.59-6.49c-0.73-0.97-1.5-1.88-2.33-2.73c-0.42-0.42-0.83-0.84-1.26-1.24
					l-0.03-0.03l0,0l0.01-0.01c0,0.01,0.01-0.01-0.01,0.01l0.09-0.14l0.18-0.27l0.34-0.55c0.22-0.37,0.44-0.75,0.64-1.13
					c0.4-0.76,0.76-1.55,1.07-2.35c0.3-0.75,0.54-1.59,0.8-2.43c0.51-1.78,0.56-3.58,0.47-5.21c-0.11-1.64-0.34-3.21-0.69-4.71
					c-0.7-3-1.72-5.76-2.99-8.35c-0.32-0.65-0.66-1.29-1.02-1.91c-0.36-0.63-0.8-1.24-1.2-1.85c-0.8-1.23-1.69-2.26-2.61-3.29
					c-3.71-4.07-8.07-6.88-12.21-8.92c-4.16-2.1-8.13-3.26-11.71-4.59c-2.4-0.72-4.89-1.39-7.58-1.87
					c-2.69-0.49-5.52-0.83-8.48-1.04c-5.92-0.42-12.29-0.3-19.07-0.02l-0.93,0.04l-0.72,0.6c-0.09,0.08-0.18,0.15-0.28,0.24
					l1.72-0.64c-1.06,0.02-2.13,0.04-3.21,0.05c-0.58,0.02-0.98-0.02-1.47-0.03c-0.47,0.01-0.96-0.07-1.44-0.13
					c-1.93-0.24-3.92-0.77-5.89-1.53c-3.95-1.53-7.84-3.96-11.46-6.93c-1.78-1.49-3.59-3.15-5.1-4.9c-0.78-0.84-1.43-1.8-2.1-2.74
					c-0.6-1.01-1.22-2.01-1.72-3.11c-1.04-2.17-1.87-4.53-2.56-7.01c-0.68-2.5-1.23-5.11-1.79-7.81s-1.1-5.48-1.83-8.33
					c-0.37-1.42-0.76-2.85-1.24-4.29c-0.47-1.44-0.96-2.79-1.51-4.2c-1.08-2.79-2.33-5.58-3.87-8.31c-1.54-2.72-3.4-5.39-5.73-7.76
					c-2.32-2.37-5.16-4.41-8.36-5.75c-3.2-1.34-6.67-1.98-10.07-2.02c-3.41-0.03-6.83,0.43-10.16,1.46
					c-3.31,1.08-6.6,2.72-9.33,5.33c-2.68,2.63-4.73,6.18-5.15,10.1c-0.29,1.95-0.11,3.9,0.23,5.74c0.34,1.86,0.98,3.56,1.64,5.23
					c1.42,3.27,3.2,6.22,4.94,9.05c0.87,1.42,1.72,2.81,2.49,4.19c0.38,0.67,0.75,1.4,1.13,2.14c0.38,0.73,0.75,1.46,1.11,2.2
					c2.91,5.9,5.43,12.04,7.33,18.4c1.89,6.35,3.2,12.92,3.52,19.55c0.18,3.03-0.39,6.3-1.07,9.57c-0.71,3.27-1.63,6.55-2.66,9.81
					c-0.51,1.63-1.06,3.25-1.63,4.86l-0.88,2.4c-0.24,0.63-0.58,1.28-0.96,1.95c-1.57,2.62-3.79,5.23-6.17,6.96
					c-0.6,0.43-1.17,0.8-1.76,1.01l-0.44,0.18c-0.16,0.06-0.36,0.11-0.54,0.16c-0.38,0.1-0.72,0.23-1.13,0.32
					c-1.58,0.4-3.25,0.71-4.93,1c-3.37,0.56-6.8,0.98-10.23,1.31c-6.87,0.61-13.77,0.99-20.37,0.17l-3.57-0.63l-0.63-0.11
					c-0.26-0.05-0.68-0.01-0.77-0.02l-0.93,0.01l-1.86,0.01c-2.48,0.02-4.97,0.04-7.44,0.05c-4.96,0.04-9.9,0.07-14.84,0.11
					c-9.86,0.07-19.66,0.15-29.36,0.22c-19.4,0.16-38.42,0.32-56.76,0.47c-4.58,0.04-9.13,0.08-13.62,0.12c-1.12,0-2.26,0.05-3.35,0
					c-1.08-0.05-2.16-0.1-3.23-0.15l-1.61-0.08l-1.63-0.17c-1.09-0.11-2.17-0.22-3.25-0.33c-8.66-0.97-17.16-2.24-25.41-3.49
					c-16.5-2.52-32.07-4.97-46.44-7.02c-14.37-2.08-27.56-3.67-39.25-4.88c-5.86-0.51-11.32-1.11-16.4-1.37
					c-2.54-0.16-4.97-0.31-7.29-0.46c-2.32-0.12-4.55-0.14-6.65-0.21c-2.1-0.05-4.09-0.1-5.97-0.15c-1.88,0.04-3.63,0.08-5.27,0.12
					c-1.63,0.04-3.14,0.09-4.53,0.12c-1.38,0.01-2.64,0.22-3.76,0.3c-4.49,0.45-6.85,0.78-6.84,0.97c0.04,0.54,9.52-0.37,26.22,0.71
					c2.09,0.14,4.28,0.24,6.59,0.42c2.3,0.21,4.72,0.43,7.23,0.67c5.03,0.39,10.46,1.12,16.28,1.75
					c11.62,1.46,24.73,3.26,39.04,5.55c14.32,2.25,29.83,4.89,46.34,7.58c8.26,1.34,16.76,2.69,25.57,3.76
					c1.11,0.12,2.22,0.24,3.33,0.36l1.67,0.18l1.72,0.1c1.15,0.06,2.3,0.12,3.46,0.18c1.15,0.06,2.25,0.01,3.38,0.03
					c4.5-0.01,9.04-0.01,13.63-0.02c18.35-0.04,37.37-0.07,56.79-0.11c9.71-0.03,19.51-0.05,29.38-0.08
					c4.93-0.01,9.88-0.03,14.84-0.04c2.48-0.01,4.96-0.02,7.45-0.02l1.86-0.01h0.93c0.34,0.01-0.06-0.03,0.44,0.05l3.78,0.68
					l2.71,0.26c0.92,0.09,1.83,0.18,2.75,0.21c1.83,0.1,3.63,0.1,5.43,0.07c3.59-0.07,7.14-0.29,10.68-0.61
					c3.54-0.32,7.07-0.74,10.62-1.32c1.78-0.3,3.54-0.62,5.37-1.07c0.44-0.09,0.93-0.26,1.39-0.39c0.24-0.07,0.46-0.13,0.71-0.22
					l0.78-0.31c1.06-0.41,1.97-1,2.8-1.58c1.66-1.19,3.03-2.53,4.3-3.96c1.27-1.43,2.39-2.95,3.4-4.64
					c0.49-0.85,0.97-1.75,1.35-2.75l0.93-2.51c0.59-1.67,1.17-3.35,1.7-5.04c1.08-3.37,2.05-6.79,2.82-10.29
					c0.19-0.88,0.38-1.75,0.53-2.65c0.17-0.89,0.31-1.79,0.42-2.7c0.14-0.9,0.19-1.85,0.26-2.78c0.03-0.93,0.05-1.98,0-2.86
					c-0.33-7.16-1.72-14.16-3.71-20.86c-2-6.71-4.63-13.13-7.64-19.26c-0.37-0.77-0.76-1.53-1.14-2.29
					c-0.38-0.75-0.77-1.52-1.21-2.3c-0.85-1.53-1.74-2.99-2.6-4.4c-1.74-2.83-3.36-5.56-4.56-8.33c-1.14-2.76-1.83-5.54-1.47-8.1
					c0.02-0.65,0.27-1.25,0.39-1.88l0.36-0.9c0.12-0.3,0.22-0.61,0.4-0.88l0.47-0.85c0.16-0.28,0.39-0.52,0.57-0.79
					c0.35-0.55,0.85-0.99,1.3-1.48c1.92-1.84,4.45-3.15,7.13-4.02c2.71-0.84,5.58-1.22,8.4-1.2c2.83,0.04,5.53,0.57,7.99,1.59
					c2.46,1.03,4.65,2.59,6.54,4.52c3.79,3.87,6.35,8.99,8.37,14.18c0.5,1.29,1,2.64,1.41,3.93c0.43,1.28,0.79,2.6,1.14,3.92
					c0.68,2.65,1.21,5.36,1.78,8.08c0.56,2.72,1.14,5.45,1.88,8.16c0.75,2.71,1.69,5.4,2.92,7.96c0.59,1.29,1.34,2.51,2.07,3.72
					c0.82,1.17,1.62,2.33,2.58,3.37c1.83,2.1,3.75,3.85,5.75,5.52c4.02,3.29,8.34,6.01,13,7.81c2.33,0.89,4.74,1.55,7.21,1.85
					c0.62,0.07,1.23,0.16,1.86,0.16c0.6,0.01,1.29,0.06,1.8,0.03c1.09-0.02,2.18-0.04,3.25-0.06l0.96-0.02l0.74-0.62
					c0.1-0.08,0.19-0.16,0.28-0.24l-1.64,0.64c6.69-0.28,12.88-0.41,18.46-0.03c2.79,0.19,5.42,0.5,7.89,0.94
					C526.44,146.13,528.75,146.74,530.84,147.36z"/>
			</g>
		</g>
	</g>
	<g>
		<g>
			<g>
				<g>
					<g>
						<path class="st1" d="M489.02,262.07c0.41,0.4,0.22,1.12,0.03,2.14c-0.08,0.47-0.21,1.27-0.41,2.06
							c-0.11,0.4-0.18,0.84-0.28,1.3s-0.22,0.93-0.29,1.44c-0.38,2-0.64,4.39-0.35,6.93c0.18,1.26,0.48,2.57,0.98,3.85
							c0.5,1.29,1.22,2.55,2.1,3.74c0.89,1.19,2.24,2.75,4.23,4.26c1.96,1.53,4.5,3.02,7.45,4.24c2.96,1.21,6.26,2.15,9.77,2.56
							c3.51,0.42,7.13,0.52,10.5-0.14c1.68-0.32,3.29-0.81,4.79-1.46c1.48-0.68,2.82-1.53,4.02-2.47c0.57-0.5,1.16-0.98,1.65-1.52
							c0.52-0.52,0.99-1.04,1.39-1.6c0.83-1.1,1.45-2.25,1.94-3.36c0.97-2.22,1.43-4.22,1.75-5.61c0.31-1.39,0.5-2.19,0.66-2.18
							c0.15,0.01,0.27,0.83,0.24,2.29c-0.04,1.46-0.22,3.59-1.01,6.11c-0.4,1.26-0.97,2.61-1.8,3.94c-0.4,0.67-0.9,1.33-1.43,1.95
							c-0.5,0.65-1.12,1.24-1.73,1.86c-1.28,1.18-2.76,2.26-4.42,3.14c-1.67,0.86-3.48,1.53-5.36,2c-3.77,0.96-7.76,1.03-11.56,0.74
							c-3.83-0.28-7.59-1.18-10.89-2.41c-3.32-1.24-6.26-2.84-8.6-4.58c-2.36-1.71-4.07-3.6-5.18-5.09
							c-1.11-1.5-2.03-3.12-2.66-4.79s-1-3.37-1.18-4.99c-0.28-3.26,0.23-6.14,0.97-8.38c0.16-0.57,0.38-1.09,0.58-1.57
							c0.21-0.48,0.39-0.95,0.62-1.35c0.46-0.83,0.79-1.46,1.29-2.08C487.79,261.9,488.68,261.71,489.02,262.07z"/>
					</g>
				</g>
			</g>
			<g>
				<g>
					<g>
						<path class="st1" d="M491.02,232.21c0.15,0.24,0.07,0.56-0.06,1c-0.14,0.43-0.33,0.99-0.53,1.79
							c-0.39,1.75-1.17,4.24-1.64,7.36c-0.48,3.1-0.73,6.89,0,10.88c0.76,3.96,2.5,8.13,6.21,10.56c1.88,1.33,4.77,2.84,8.47,4.17
							c3.72,1.31,8.19,2.51,13.13,3.44c2.47,0.48,5.04,0.91,7.69,1.29c2.65,0.37,5.39,0.77,8.06,0.97c2.68,0.17,5.39,0.15,8.01-0.23
							c2.6-0.42,5.13-1.15,7.25-2.48c0.53-0.33,1.05-0.67,1.52-1.07c0.5-0.36,0.92-0.82,1.35-1.24c0.44-0.43,0.78-0.94,1.17-1.4
							c0.35-0.53,0.72-1.04,1.03-1.58c1.31-2.15,2.29-4.46,3.03-6.72c1.49-4.55,1.94-9,1.55-12.66c-0.16-1.8-0.74-3.35-1.42-4.67
							c-0.67-1.32-1.43-2.38-2.07-3.24c-1.3-1.71-2.15-2.61-2.03-2.73c0.09-0.1,1.14,0.57,2.72,2.14c0.78,0.79,1.69,1.82,2.54,3.17
							c0.85,1.33,1.66,3.06,1.98,5.07c0.7,3.93,0.48,8.69-0.87,13.62c-0.68,2.47-1.61,4.99-2.96,7.43
							c-0.32,0.62-0.71,1.21-1.08,1.82c-0.45,0.58-0.85,1.21-1.36,1.76c-0.51,0.55-1.01,1.12-1.6,1.59
							c-0.56,0.52-1.17,0.95-1.8,1.38c-2.53,1.7-5.47,2.65-8.39,3.22c-2.94,0.53-5.89,0.63-8.78,0.53
							c-2.91-0.13-5.66-0.46-8.37-0.77c-2.71-0.32-5.36-0.69-7.92-1.13c-5.11-0.85-9.82-2.01-13.84-3.36
							c-4.01-1.38-7.32-3.04-9.6-4.65c-0.57-0.42-1.14-0.77-1.68-1.3c-0.55-0.49-1.09-0.97-1.54-1.53l-0.7-0.81l-0.6-0.86
							l-0.58-0.86l-0.48-0.9c-1.27-2.39-1.98-4.85-2.38-7.2c-0.77-4.73-0.3-8.99,0.53-12.4c0.84-3.43,2.09-5.98,3.14-7.66
							c0.58-0.89,1.26-1.5,1.81-1.76C490.51,231.93,490.89,232,491.02,232.21z"/>
					</g>
				</g>
			</g>
			<g>
				<g>
					<g>
						<path class="st1" d="M492.38,197.42c0.16,0.23,0.06,0.62-0.25,1.13c-0.15,0.26-0.36,0.54-0.61,0.85
							c-0.26,0.31-0.57,0.65-0.84,1.09c-0.29,0.42-0.62,0.87-0.99,1.35c-0.3,0.52-0.63,1.09-0.98,1.69
							c-0.34,0.61-0.58,1.32-0.92,2.03c-0.14,0.37-0.24,0.77-0.36,1.16c-0.11,0.4-0.28,0.79-0.34,1.23
							c-0.78,3.41-0.76,7.83,0.48,12.49c0.08,0.28,0.16,0.57,0.25,0.86c0.1,0.32,0.21,0.65,0.32,0.98c0.17,0.57,0.35,1.15,0.57,1.72
							c0.43,1.14,0.97,2.25,1.63,3.31s1.44,2.06,2.34,2.98c0.44,0.46,0.93,0.9,1.43,1.31l0.73,0.55l0.82,0.51
							c1.13,0.66,2.59,1.33,4.34,1.95c1.76,0.6,3.8,1.15,6.06,1.63c4.53,0.94,9.94,1.55,15.82,1.84c2.92,0.12,6.04,0.22,9.08,0.18
							c3.05-0.1,6.16-0.41,9.23-1.08c6.13-1.27,12.19-3.91,17.17-7.53c2.43-1.85,4.47-4.09,5.98-6.59c1.52-2.49,2.49-5.22,2.98-7.93
							c0.49-2.72,0.52-5.41,0.3-7.92c-0.22-2.5-0.65-4.91-1.24-6.96c-1.27-4.12-3.52-7.06-5.14-8.95c-1.66-1.89-2.75-2.83-2.64-2.97
							c0.08-0.11,1.36,0.59,3.29,2.34c1.88,1.75,4.49,4.63,6.14,9.02c0.78,2.22,1.33,4.61,1.71,7.28c0.36,2.65,0.47,5.55,0.05,8.55
							c-0.41,3-1.37,6.09-2.98,8.96c-1.6,2.88-3.84,5.5-6.49,7.65c-5.35,4.16-11.7,7.11-18.31,8.67c-3.29,0.8-6.63,1.22-9.9,1.39
							c-3.28,0.12-6.35,0.07-9.39,0.01c-12.07-0.34-22.54-2.2-28.34-5.69l-1.07-0.67l-1.04-0.78c-0.64-0.53-1.23-1.07-1.79-1.65
							c-1.12-1.16-2.11-2.42-2.92-3.75c-0.82-1.33-1.48-2.71-1.99-4.1c-0.26-0.69-0.48-1.4-0.67-2.09c-0.09-0.3-0.19-0.6-0.28-0.9
							c-0.09-0.34-0.18-0.68-0.27-1.02c-1.33-5.34-1.23-10.49,0.04-14.6c0.12-0.52,0.35-1,0.53-1.47c0.2-0.47,0.37-0.94,0.58-1.37
							c0.5-0.84,0.91-1.65,1.42-2.33c0.54-0.67,1.03-1.28,1.52-1.81c0.54-0.48,1.05-0.91,1.51-1.27c0.44-0.39,0.9-0.64,1.31-0.84
							s0.76-0.36,1.05-0.46C491.87,197.19,492.24,197.2,492.38,197.42z"/>
					</g>
				</g>
			</g>
			<g>
				<path class="st0" d="M531.69,163.21c-5.91-1.17-13.85-2.5-21.81-2.28c-4.76,0.13-9.53,0.82-13.87,2.42
					c-9.03,3.34-17.18,12.13-15.36,21.58c1.26,6.5,6.56,10.64,12.78,12.92c7.7,2.82,16.92,2.79,25.02,2.5
					c12.11-0.43,26.29-1.9,35.91-9.97c3.48-2.91,6.47-5.9,7.53-10.34c1.42-5.98-2.07-15.45-5.5-20.04
					c-6.21-8.32-15.31-12.13-24.92-15.26c-10.53-3.43-26.7-2.52-37.9-2.38c-9.69,0.12-20.09-6.97-26.45-13.73
					c-9.14-9.74-8.48-23.64-12.68-35.76c-3.95-11.4-9.98-23.05-22.91-25.05c-9.13-1.41-21.93,1.87-25.09,11.72
					c-2.96,9.23,5.02,18.34,8.99,25.95"/>
				<g>
					<g>
						<path class="st1" d="M535.23,148.87c2.26,0.86,4.95,1.93,7.78,3.46c1.42,0.75,2.87,1.64,4.31,2.66s2.87,2.2,4.2,3.57
							c1.32,1.37,2.66,2.92,3.65,4.59c1.04,1.73,1.95,3.73,2.69,5.82c0.72,2.1,1.29,4.33,1.49,6.54c0.11,1.1,0.08,2.18-0.05,3.18
							c-0.12,0.94-0.48,2-0.93,2.94c-0.91,1.92-2.48,3.68-4.4,5.4c-0.48,0.43-0.98,0.87-1.49,1.28c-0.5,0.38-0.99,0.77-1.49,1.16
							c-1.04,0.72-2.12,1.43-3.27,2.04c-4.58,2.49-9.92,4.01-15.49,4.9s-11.39,1.2-17.22,1.36c-5.8,0.15-11.54-0.01-16.88-1.21
							c-2.65-0.61-5.2-1.47-7.46-2.71c-2.26-1.23-4.25-2.79-5.62-4.7c-1.37-1.89-2.19-4.13-2.29-6.4c-0.12-2.26,0.42-4.52,1.42-6.59
							c2.02-4.16,5.67-7.4,9.44-9.53c3.79-2.11,7.98-3.12,11.84-3.67c3.88-0.53,7.5-0.59,10.7-0.52c3.2,0.08,5.98,0.3,8.27,0.5
							c4.58,0.41,7.18,0.65,7.25,0.26c0.06-0.33-2.41-1.21-6.98-2.18c-2.29-0.48-5.1-0.97-8.39-1.29c-3.29-0.32-7.07-0.5-11.25-0.13
							c-4.16,0.39-8.77,1.25-13.32,3.56c-2.24,1.15-4.41,2.63-6.39,4.45c-1.98,1.82-3.79,4-5.12,6.6c-1.34,2.58-2.18,5.62-2.07,8.78
							c0.07,3.15,1.16,6.32,3.02,8.97c1.85,2.67,4.41,4.71,7.14,6.24c2.73,1.55,5.69,2.59,8.7,3.32c6.02,1.44,12.16,1.64,18.15,1.56
							c5.96-0.11,11.98-0.37,17.96-1.28c5.96-0.92,11.92-2.53,17.28-5.42c1.34-0.71,2.62-1.54,3.87-2.4c0.6-0.46,1.2-0.93,1.8-1.39
							c0.56-0.46,1.1-0.92,1.65-1.41c2.16-1.93,4.32-4.23,5.7-7.12c0.68-1.45,1.19-2.9,1.42-4.54c0.22-1.57,0.22-3.08,0.09-4.5
							c-0.27-2.85-0.95-5.44-1.79-7.89c-0.87-2.44-1.9-4.72-3.2-6.86c-1.34-2.21-2.88-3.97-4.47-5.6c-1.59-1.62-3.27-3-4.95-4.17
							c-1.67-1.18-3.33-2.18-4.92-3.01c-3.18-1.69-6.08-2.81-8.48-3.69c-1.2-0.45-2.52-0.92-3.95-1.4
							c-1.41-0.48-3.15-0.99-4.89-1.37c-3.53-0.79-7.48-1.22-11.75-1.46c-4.28-0.25-8.87-0.26-13.72-0.19
							c-2.41,0.05-4.88,0.09-7.42,0.14c-0.63,0.01-1.26,0.02-1.89,0.03c-0.55-0.03-1.11-0.02-1.67-0.07
							c-1.13-0.11-2.27-0.3-3.43-0.59c-4.63-1.17-9.27-3.72-13.5-6.98c-2.1-1.63-4.17-3.45-5.97-5.44
							c-1.77-1.88-3.19-4.12-4.34-6.55c-2.31-4.88-3.44-10.54-4.67-16.33c-0.61-2.9-1.26-5.85-2.13-8.79
							c-0.9-2.98-1.95-5.74-3.14-8.52c-2.39-5.5-5.52-10.91-10.19-14.94c-2.31-2-5-3.58-7.83-4.59c-0.72-0.22-1.43-0.44-2.14-0.65
							c-0.72-0.14-1.44-0.29-2.16-0.43c-1.43-0.25-2.86-0.33-4.26-0.37c-5.59-0.03-10.95,1.27-15.37,3.95
							c-2.2,1.34-4.13,3.07-5.56,5.09c-1.42,2.02-2.35,4.27-2.72,6.52c-0.35,2.26-0.15,4.43,0.29,6.36
							c0.43,1.95,1.16,3.63,1.87,5.17c1.49,3.04,3.09,5.41,4.41,7.32c1.33,1.91,2.38,3.36,3.12,4.35c0.73,0.98,1.18,1.48,1.34,1.4
							c0.17-0.08,0.02-0.74-0.44-1.91c-0.47-1.16-1.28-2.79-2.36-4.83c-1.06-2.04-2.41-4.5-3.57-7.41
							c-1.15-2.88-2.03-6.33-1.33-9.81c0.38-1.72,1.18-3.44,2.35-4.95c1.17-1.52,2.74-2.83,4.59-3.87c3.7-2.09,8.45-3.11,13.27-2.95
							c0.6,0.05,1.2,0.07,1.81,0.13c0.59,0.1,1.21,0.13,1.79,0.27c0.59,0.13,1.17,0.26,1.77,0.39c0.57,0.19,1.14,0.38,1.72,0.57
							c2.26,0.86,4.38,2.16,6.25,3.84c3.77,3.37,6.53,8.17,8.68,13.32c1.07,2.58,2.06,5.32,2.83,7.98c0.77,2.7,1.36,5.53,1.94,8.41
							c1.17,5.74,2.26,11.82,4.92,17.58c1.32,2.86,3.05,5.61,5.21,7.94c2.07,2.29,4.3,4.27,6.64,6.11
							c4.69,3.62,9.86,6.56,15.53,8.02c1.42,0.36,2.86,0.6,4.32,0.74c0.73,0.06,1.47,0.06,2.2,0.09c0.65-0.01,1.3-0.02,1.94-0.03
							c2.53-0.05,5.01-0.1,7.41-0.15c4.78-0.08,9.25-0.08,13.33,0.15c4.07,0.22,7.77,0.61,10.9,1.29c1.59,0.34,2.93,0.71,4.33,1.18
							C532.83,148.02,534.09,148.46,535.23,148.87z"/>
					</g>
				</g>
			</g>
			<g>
				<g>
					<g>
						<path class="st1" d="M525.33,162.07c-1.23-1.13-0.68-1.75,0.08-2.41c0.37-0.33,1.46-0.96,2.55-1.25
							c1.08-0.3,2.14-0.24,2.28,0.22c0.13,0.44-0.46,1.1-1.07,1.83c-0.62,0.71-1.25,1.47-1.55,1.74
							C527.01,162.73,526.48,163.13,525.33,162.07z"/>
					</g>
				</g>
			</g>
			<path class="st2" d="M469.43,210.34c-9.41,7.53-23.06,9.34-34.1,4.51"/>
		</g>
	</g>
</g>
</svg>
