<?xml version="1.0" encoding="utf-8"?>
<!-- Generator: Adobe Illustrator 26.5.0, SVG Export Plug-In . SVG Version: 6.00 Build 0)  -->
<svg version="1.1" id="Layer_1" xmlns="http://www.w3.org/2000/svg" xmlns:xlink="http://www.w3.org/1999/xlink" x="0px" y="0px"
	 viewBox="0 0 807.99 405.59" style="enable-background:new 0 0 807.99 405.59;" xml:space="preserve">
<style type="text/css">
	.st0{fill:#E3B793;}
	.st1{fill:none;}
	.st2{fill:#231F20;}
</style>
<g>
	<g>
		<path class="st0" d="M62.14,169.52c48-5,154,19,178,19s128.1-0.64,128.1-0.64c2.1-0.64,9.53-4.05,9.53-4.05
			c10.1,0.63,20.55,3.64,31.17-1.57c10.79-5.3,27.33-17.23,49.1-25.66c21.77-8.44,42.73-11.31,55.25-12.07
			c17.03-1.03,36.87-9.2,50.7-18.39c13.64-9.06,24.56-18.07,35.99-29.79c7.72-7.91,22.35-20.99,33.71-12.32
			c8.58,6.55,6.72,22.78-4.07,36.87c-14.34,18.73-41.93,38.83-65.5,53.81c4.34,1.92,8.66,3.88,12.48,6.7
			c8.19,6.05,15.35,15.64,17.52,25.7c2.83,13.1-6.14,23.63-18.14,27.52c-0.2,0.07-0.41,0.11-0.61,0.18
			c2.76,8.23,3.01,16.93,0.18,22.93c-6.44,13.61-15.84,18.14-32.99,17.29c-0.43-0.02-0.87-0.09-1.31-0.13
			c-3.19,8-6.45,14.3-17.1,18.15c-11.69,4.23-23.01,0.25-32.75-5.99c0,0,0,0-0.01,0c-26.79,2.36-49.46-6.74-63.18-17.22
			c-13.73-10.48-18.12-24.31-26.73-26.54c-8.62-2.23-15.11-0.13-18.56-0.59h-14.71c0,0-188.1,20.8-272.1,30.8"/>
		<g>
			<path class="st1" d="M62.14,169.52c48-5,154,19,178,19s128.1-0.64,128.1-0.64c2.1-0.64,9.53-4.05,9.53-4.05
				c10.1,0.63,20.55,3.64,31.17-1.57c10.79-5.3,27.33-17.23,49.1-25.66c21.77-8.44,42.73-11.31,55.25-12.07
				c17.03-1.03,36.87-9.2,50.7-18.39c13.64-9.06,24.56-18.07,35.99-29.79c7.72-7.91,22.35-20.99,33.71-12.32
				c8.58,6.55,6.72,22.78-4.07,36.87c-14.34,18.73-41.93,38.83-65.5,53.81c4.34,1.92,8.66,3.88,12.48,6.7
				c8.19,6.05,15.35,15.64,17.52,25.7c2.83,13.1-6.14,23.63-18.14,27.52c-0.2,0.07-0.41,0.11-0.61,0.18
				c2.76,8.23,3.01,16.93,0.18,22.93c-6.44,13.61-15.84,18.14-32.99,17.29c-0.43-0.02-0.87-0.09-1.31-0.13
				c-3.19,8-6.45,14.3-17.1,18.15c-11.69,4.23-23.01,0.25-32.75-5.99c0,0,0,0-0.01,0c-26.79,2.36-49.46-6.74-63.18-17.22
				c-13.73-10.48-18.12-24.31-26.73-26.54c-8.62-2.23-15.11-0.13-18.56-0.59h-14.71c0,0-188.1,20.8-272.1,30.8"/>
			<g>
				<path class="st2" d="M609.48,145.26c5.87-4.99,12.69-11.15,19.55-19.14c0.83-1.03,1.67-2.07,2.53-3.13
					c0.84-1.08,1.66-2.24,2.47-3.41c1.55-2.4,3.07-4.93,4.29-7.71s2.3-5.73,2.94-8.92c0.63-3.19,0.91-6.6,0.36-10.15
					c-0.07-0.88-0.39-1.77-0.59-2.66c-0.23-0.89-0.65-1.76-0.99-2.64c-0.47-0.84-0.91-1.71-1.49-2.5c-0.63-0.76-1.19-1.59-1.97-2.23
					l-1.12-1l-1.19-0.84c-0.41-0.26-0.85-0.5-1.28-0.75c-0.44-0.23-0.9-0.43-1.36-0.64c-1.86-0.79-3.91-1.19-5.92-1.22
					c-4.07-0.06-7.85,1.23-11.2,2.94c-3.37,1.73-6.42,3.92-9.3,6.31c-2.87,2.38-5.59,5.06-8.17,7.69c-2.57,2.6-5.22,5.18-7.98,7.72
					c-5.51,5.07-11.43,9.94-17.76,14.56c-3.16,2.3-6.43,4.58-9.76,6.75c-3.3,2.14-6.77,4.12-10.35,5.95
					c-7.18,3.63-14.84,6.67-22.81,8.81c-3.98,1.06-8.05,1.89-12.15,2.34l-3.08,0.26c-1.09,0.08-2.19,0.14-3.29,0.24
					c-2.19,0.18-4.38,0.4-6.57,0.66c-8.76,1.05-17.53,2.7-26.23,4.95c-8.69,2.28-17.31,5.15-25.67,8.77
					c-8.38,3.58-16.43,7.89-24.3,12.43c-3.89,2.28-7.79,4.57-11.68,6.86c-1.94,1.13-3.87,2.22-5.81,3.26
					c-1.98,1.05-3.76,1.86-5.73,2.47c-3.91,1.2-8.13,1.38-12.45,1.11c-2.17-0.14-4.37-0.39-6.6-0.64l-3.39-0.36l-1.72-0.16
					l-2.4-0.18l-4.1,1.86c-1.16,0.51-2.31,1.02-3.46,1.5c-0.57,0.24-1.15,0.47-1.68,0.67l-0.23,0.09c-0.01,0-0.02,0.01-0.03,0.01
					l-0.7,0.01l-3.82,0.03c-5.09,0.04-10.18,0.07-15.24,0.11c-10.12,0.07-20.18,0.15-30.12,0.22c-19.89,0.16-39.34,0.32-58.07,0.47
					c-4.68,0.04-9.32,0.08-13.91,0.12c-1.15,0.01-2.29,0.02-3.43,0.03c-1.13,0-2.3,0.05-3.38-0.03c-2.19-0.11-4.35-0.15-6.57-0.43
					c-8.82-0.84-17.49-2.19-25.89-3.43c-16.81-2.55-32.65-5.06-47.27-7.15c-14.61-2.11-28-3.74-39.87-4.99
					c-2.97-0.27-5.84-0.53-8.62-0.78c-1.39-0.12-2.75-0.24-4.08-0.36c-1.34-0.09-2.65-0.17-3.94-0.25
					c-2.57-0.16-5.03-0.31-7.39-0.46c-2.35-0.14-4.61-0.15-6.74-0.22c-2.13-0.05-4.15-0.1-6.04-0.15c-1.9,0.04-3.68,0.08-5.33,0.12
					c-1.65,0.05-3.18,0.09-4.58,0.13c-1.4,0-2.66,0.22-3.8,0.31c-4.53,0.47-6.91,0.81-6.88,1.02c0.03,0.19,2.45,0.22,6.97,0.1
					c2.25-0.13,5.05-0.01,8.33,0.07c1.64,0.04,3.4,0.08,5.29,0.12c1.88,0.12,3.88,0.24,6,0.38c2.11,0.15,4.34,0.23,6.68,0.44
					c2.34,0.21,4.78,0.44,7.33,0.67c1.28,0.11,2.58,0.23,3.9,0.35c1.33,0.15,2.68,0.31,4.05,0.46c2.75,0.31,5.61,0.64,8.56,0.97
					c11.79,1.5,25.1,3.36,39.65,5.67c14.55,2.3,30.33,4.99,47.15,7.72c8.42,1.33,17.06,2.76,26.11,3.7c2.23,0.3,4.59,0.37,6.93,0.5
					c1.19,0.09,2.3,0.04,3.45,0.05c1.14,0,2.29,0,3.43,0c4.59-0.01,9.23-0.01,13.91-0.02c18.73-0.03,38.19-0.07,58.07-0.1
					c9.94-0.02,19.99-0.05,30.12-0.07c5.06-0.01,10.14-0.03,15.24-0.04l3.82-0.01h1.21c0.31,0.04,0.6-0.08,0.89-0.18l0.41-0.14
					l0.25-0.09c0.66-0.24,1.27-0.49,1.88-0.74c1.21-0.5,2.4-1.01,3.58-1.53l2.91-1.3l0.98,0.08l1.64,0.16l3.33,0.37
					c2.24,0.26,4.52,0.52,6.85,0.68c4.65,0.31,9.61,0.16,14.37-1.28c2.35-0.7,4.69-1.77,6.7-2.84c2.05-1.09,4.05-2.21,6.02-3.35
					c3.9-2.27,7.8-4.55,11.69-6.82c7.77-4.45,15.63-8.63,23.75-12.08c8.09-3.49,16.45-6.25,24.88-8.45
					c8.45-2.17,16.98-3.77,25.48-4.77c2.13-0.25,4.25-0.46,6.37-0.63c1.06-0.1,2.12-0.15,3.17-0.23l3.35-0.28
					c4.45-0.49,8.78-1.36,13-2.48c8.43-2.26,16.42-5.42,23.94-9.22c3.75-1.91,7.39-3.99,10.88-6.25c3.46-2.25,6.76-4.55,10.02-6.93
					c6.5-4.74,12.6-9.76,18.26-14.97c2.83-2.6,5.55-5.25,8.18-7.91c2.59-2.66,5.08-5.1,7.75-7.32c2.65-2.2,5.4-4.16,8.24-5.62
					c2.83-1.45,5.77-2.38,8.49-2.33c1.36,0.02,2.65,0.28,3.84,0.78c0.29,0.14,0.59,0.26,0.88,0.42l0.85,0.5l0.82,0.57l0.69,0.64
					c0.51,0.37,0.83,0.93,1.25,1.39c0.38,0.5,0.65,1.08,0.97,1.62c0.21,0.62,0.52,1.18,0.68,1.82c0.13,0.65,0.39,1.25,0.43,1.93
					c0.42,2.64,0.22,5.43-0.3,8.12c-0.54,2.69-1.48,5.28-2.55,7.73c-1.07,2.46-2.43,4.73-3.82,6.89c-0.74,1.06-1.46,2.09-2.24,3.1
					c-0.8,1-1.59,1.98-2.37,2.95c-6.5,7.61-13.12,13.65-18.84,18.54c-5.17,4.4-11.41,9.31-18.66,14.58
					c-3.61,2.64-7.5,5.35-11.6,8.15c-2.06,1.38-4.17,2.81-6.35,4.23c-1.44,0.94-2.9,1.88-4.37,2.84c-2.23,1.43-4.47,2.87-6.75,4.33
					c2.73,1.22,5.59,2.46,8.32,3.73c1.52,0.72,1.86,0.89,2.58,1.26c0.66,0.34,1.31,0.68,1.95,1.04c1.28,0.72,2.52,1.5,3.7,2.36
					c1.19,0.88,2.37,1.82,3.5,2.85c4.52,4.07,8.51,9.22,11.1,15.11c0.67,1.47,1.17,3,1.63,4.54c0.17,0.78,0.43,1.57,0.52,2.33
					c0.12,0.77,0.28,1.54,0.28,2.31c0.18,3.09-0.32,6.25-1.76,9.1c-1.41,2.85-3.51,5.47-6.2,7.53l-1.01,0.77
					c-0.34,0.25-0.71,0.46-1.07,0.7c-0.7,0.49-1.47,0.87-2.23,1.29c-0.37,0.22-0.78,0.38-1.17,0.56c-0.42,0.18-0.75,0.35-1.24,0.55
					l-2.58,0.84c-0.85,0.28-1.7,0.56-2.69,0.83c0.36,1.15,0.73,2.31,1.09,3.46c0.19,0.59,0.36,1.16,0.51,1.73
					c0.09,0.34,0.16,0.56,0.22,0.85c0.27,1.1,0.51,2.2,0.67,3.32c0.35,2.23,0.52,4.5,0.4,6.73c-0.1,2.23-0.48,4.42-1.22,6.41
					c-0.2,0.51-0.37,0.94-0.64,1.47l-0.8,1.57c-0.25,0.54-0.58,1.01-0.86,1.52c-0.3,0.5-0.58,1.02-0.92,1.48
					c-2.53,3.89-5.95,6.92-10.19,8.66c-2.13,0.85-4.43,1.41-6.81,1.76c-2.39,0.35-4.87,0.43-7.38,0.45l-1.89-0.05l-1.32-0.05
					c-0.67-0.07-1.31-0.12-1.96-0.18l-0.98-0.08l-0.24-0.02c-0.08-0.01-0.08,0.13-0.12,0.19l-0.18,0.46l-0.74,1.82l-0.37,0.91
					l-0.28,0.65l-0.38,0.87c-1.03,2.29-2.14,4.46-3.58,6.3c-2.77,3.73-7.07,6.18-11.82,7.68c-4.65,1.47-9.68,1.55-14.57,0.39
					c-2.45-0.57-4.86-1.42-7.22-2.48l-1.75-0.84l-1.73-0.91c-0.58-0.31-1.14-0.65-1.71-0.97c-0.29-0.16-0.56-0.34-0.85-0.51
					l-1.22-0.75c-0.33-0.07-0.67-0.13-0.99-0.21l-0.49-0.14c-0.16-0.05-0.32-0.11-0.51-0.06l-4.75,0.28l-4.41,0.06l-4.41-0.15
					c-1.47-0.09-2.94-0.24-4.41-0.36c-5.87-0.62-11.7-1.79-17.36-3.53c-5.66-1.75-11.16-4.05-16.36-6.88
					c-1.32-0.67-2.56-1.49-3.84-2.22c-1.23-0.81-2.49-1.58-3.68-2.46c-2.44-1.68-4.62-3.56-6.75-5.57
					c-4.24-4.07-7.75-8.83-11.58-13.73c-1.96-2.42-4.03-4.95-7-7.01c-0.35-0.27-0.76-0.49-1.17-0.71c-0.42-0.21-0.81-0.45-1.25-0.63
					c-0.89-0.32-1.86-0.68-2.61-0.81c-1.6-0.38-3.22-0.63-4.85-0.77c-3.25-0.32-6.52-0.08-9.53,0.2c-0.75,0.07-1.48,0.13-2.15,0.17
					c-0.34,0.02-0.66,0.02-0.94,0.02c-0.16,0.01-0.27-0.01-0.4-0.02l-0.41-0.03c-0.08-0.01-0.2,0-0.25-0.01h-0.14
					c-1.51,0-3.01,0.01-4.52,0.01c-3.01,0.01-6.01,0.01-9,0.02h-0.56h-0.34c-0.17-0.01-0.37,0.02-0.5,0.04l-1.11,0.13l-2.23,0.26
					c-1.48,0.17-2.96,0.34-4.44,0.51c-47.32,5.54-92.42,10.82-131.54,15.4c-39.1,4.65-72.2,8.66-95.52,11.63
					c-11.66,1.49-20.87,2.71-27.16,3.62s-9.66,1.51-9.64,1.74c0.02,0.25,3.43,0.09,9.76-0.42s15.58-1.36,27.27-2.51
					c23.38-2.3,56.54-5.78,95.7-9.99c39.14-4.28,84.29-9.22,131.66-14.4c1.48-0.16,2.96-0.33,4.45-0.49l2.23-0.25l1.11-0.12
					c0.15-0.01-0.01,0,0.27-0.01h0.56c2.99,0.01,6,0.01,9.01,0.02c1.5,0,3.01,0.01,4.52,0.01h0.2h0.01
					c-0.11-0.01,0.08,0.01,0.1,0.01c0.25,0.02,0.52,0.05,0.74,0.05c0.47,0.01,0.91,0.01,1.33-0.01c0.84-0.04,1.62-0.1,2.38-0.17
					c3.01-0.28,5.8-0.45,8.59-0.17c1.39,0.13,2.77,0.34,4.12,0.67c0.75,0.14,1.19,0.37,1.73,0.53c0.26,0.09,0.51,0.27,0.77,0.4
					c0.26,0.14,0.52,0.26,0.77,0.46c2.04,1.41,3.94,3.6,5.78,5.92c3.67,4.7,7.41,9.84,12,14.28c2.3,2.2,4.77,4.33,7.37,6.13
					c1.28,0.95,2.63,1.78,3.95,2.65c1.37,0.8,2.69,1.67,4.1,2.39c5.54,3.04,11.37,5.5,17.37,7.37c6.01,1.86,12.18,3.12,18.4,3.79
					c1.56,0.13,3.11,0.3,4.67,0.39l4.68,0.17l4.67-0.05l4.3-0.26c0.01,0,0.01,0,0.02,0l0,0c0.01,0.01-0.04-0.02,0.07,0.04l0.46,0.28
					c0.3,0.19,0.6,0.38,0.92,0.55c0.62,0.35,1.24,0.72,1.87,1.06l1.91,1l1.95,0.93c2.63,1.19,5.39,2.18,8.25,2.85
					c5.7,1.38,11.9,1.31,17.54-0.47c2.81-0.87,5.45-2.02,8-3.61c1.27-0.77,2.46-1.71,3.6-2.69c1.1-1.03,2.16-2.12,3.05-3.31
					c1.85-2.36,3.16-4.95,4.29-7.47l0.52-1.21l0,0c0.9,0.03,1.79,0.05,2.68,0.08c2.73-0.01,5.47-0.1,8.23-0.5
					c2.75-0.41,5.51-1.06,8.17-2.13c5.34-2.14,9.85-6.2,12.79-10.77c0.41-0.56,0.73-1.14,1.08-1.73c0.33-0.58,0.71-1.15,0.99-1.75
					l0.9-1.78c0.3-0.57,0.6-1.3,0.85-1.96c1-2.7,1.45-5.45,1.58-8.14c0.14-2.69-0.06-5.33-0.47-7.9c-0.19-1.29-0.47-2.55-0.77-3.8
					l-0.24-0.92l0.36-0.13c0.86-0.4,1.89-0.81,2.79-1.29c0.91-0.5,1.84-0.97,2.7-1.56c0.43-0.29,0.88-0.55,1.3-0.85l1.24-0.94
					c3.28-2.52,5.99-5.81,7.82-9.54c1.87-3.71,2.57-7.95,2.32-11.96c-0.28-4.07-1.42-7.7-2.9-11.11c-3-6.8-7.45-12.48-12.53-17.07
					c-1.27-1.15-2.6-2.21-3.96-3.22c-1.39-1.01-2.82-1.9-4.25-2.7c-0.72-0.4-1.43-0.79-2.15-1.15c-0.52-0.26-1.04-0.51-1.55-0.77
					l-0.08-0.03c0.8-0.53,1.59-1.05,2.37-1.56c2.2-1.44,4.33-2.89,6.42-4.29c4.15-2.84,8.08-5.59,11.74-8.28
					C597.87,154.8,604.21,149.78,609.48,145.26z"/>
			</g>
		</g>
	</g>
	<g>
		<g>
			<g>
				<g>
					<path class="st2" d="M494.92,247.97c-0.04,0.57-0.99,0.89-2.62,1.16c-1.62,0.28-3.96,0.47-6.66,1.07
						c-2.64,0.63-5.8,1.67-7.81,4.12c-0.26,0.3-0.45,0.65-0.7,0.97c-0.24,0.33-0.38,0.73-0.58,1.09c-0.33,0.75-0.65,1.66-0.73,2.36
						c-0.22,1.56,0.14,3.54,0.82,5.48c0.66,1.95,1.9,4.59,3.82,7.49c0.94,1.46,2.08,2.96,3.36,4.47s2.75,3,4.39,4.35
						c1.68,1.37,3.59,2.81,5.5,4.17c1.92,1.38,3.94,2.69,6.04,3.86c2.09,1.2,4.28,2.22,6.53,3c1.12,0.43,2.27,0.69,3.41,1
						c1.16,0.21,2.31,0.45,3.47,0.52l0.87,0.08c0.29,0.01,0.58,0.01,0.87,0.01c0.58-0.01,1.15,0.03,1.72-0.01
						c1.14-0.11,2.27-0.16,3.37-0.42c2.21-0.38,4.32-1.09,6.29-1.91c1.96-0.82,3.74-1.8,5.27-2.92c1.53-1.12,2.8-2.38,3.86-3.65
						c2.1-2.54,3.38-5.04,4.29-6.74c0.9-1.72,1.43-2.69,1.58-2.63c0.14,0.06-0.11,1.13-0.75,2.99c-0.66,1.84-1.7,4.53-3.74,7.44
						c-1.02,1.45-2.32,2.92-3.92,4.26s-3.49,2.52-5.55,3.52c-4.08,1.97-9.12,3.44-14.36,3.12c-1.31-0.03-2.61-0.24-3.92-0.43
						c-1.28-0.28-2.59-0.54-3.83-0.96c-2.52-0.77-4.95-1.81-7.22-3.01c-2.29-1.19-4.46-2.51-6.5-3.89c-2.07-1.38-3.97-2.73-5.85-4.2
						c-1.91-1.5-3.58-3.11-5.02-4.75c-1.45-1.63-2.72-3.25-3.79-4.85c-2.16-3.16-3.6-6.13-4.41-8.48c-0.79-2.34-1.37-4.83-1.01-7.54
						c0.12-0.68,0.23-1.38,0.46-1.93c0.23-0.58,0.36-1.17,0.67-1.71c0.3-0.54,0.53-1.1,0.88-1.59c0.36-0.49,0.68-0.99,1.08-1.43
						c1.55-1.8,3.48-3,5.3-3.74c1.84-0.75,3.59-1.14,5.18-1.34c3.18-0.38,5.69-0.13,7.39,0.21
						C494.07,246.96,494.96,247.46,494.92,247.97z"/>
				</g>
			</g>
		</g>
		<g>
			<g>
				<g>
					<path class="st2" d="M495.77,221.59c0.45,0.37,0.02,1.46-0.73,3.22c-0.71,1.77-1.72,4.28-1.88,7.5
						c-0.17,3.21,0.68,7.09,2.65,11.14c1.93,4.08,4.78,8.19,8.66,11.67c1.92,1.75,4.75,3.92,8.45,6.03c1.83,1.05,3.94,2.11,6.18,3.2
						c2.24,1.08,4.61,2.17,7.11,3.19c4.99,2.02,10.52,3.82,16.23,4.25c5.89,0.35,12.01,0.44,17.43-1.16
						c2.7-0.79,5.18-2.04,7.27-3.72c2.1-1.67,3.8-3.73,5.21-5.88c0.34-0.55,0.7-1.07,1.01-1.62c0.3-0.56,0.6-1.11,0.9-1.65
						c0.59-1.08,1.02-2.14,1.36-3.24c0.69-2.18,0.98-4.37,1.08-6.38c0.2-4.04-0.32-7.38-0.72-9.67c-0.42-2.3-0.74-3.59-0.58-3.64
						c0.13-0.04,0.74,1.15,1.46,3.43c0.7,2.28,1.52,5.66,1.59,9.92c0.03,2.12-0.13,4.47-0.76,6.93c-0.3,1.22-0.75,2.5-1.33,3.68
						c-0.29,0.59-0.57,1.19-0.87,1.79c-0.31,0.6-0.67,1.18-1,1.79c-1.41,2.38-3.2,4.75-5.52,6.75c-2.31,2.01-5.13,3.56-8.14,4.54
						c-3.01,1-6.16,1.5-9.28,1.75c-3.13,0.22-6.23,0.21-9.31,0.1c-6.38-0.31-12.29-2.12-17.54-4.12c-2.63-1.01-5.11-2.09-7.43-3.16
						c-2.31-1.08-4.48-2.12-6.5-3.24c-4.01-2.21-7.17-4.58-9.31-6.54c-4.33-3.88-7.57-8.56-9.62-13.13
						c-2.14-4.54-3.08-9.35-2.53-13.34c0.52-4,2.22-6.86,3.58-8.49C494.3,221.84,495.39,221.27,495.77,221.59z"/>
				</g>
			</g>
		</g>
		<g>
			<g>
				<g>
					<path class="st2" d="M546.37,185.39c0.36-1.63,3.53-0.93,7.29,0.29c1.89,0.58,6.35,2.35,10.13,4.39
						c3.8,1.99,6.86,4.28,6.61,4.68c-0.24,0.39-3.63-1.12-7.58-2.51c-3.93-1.44-8.36-2.79-10.18-3.36
						C549,187.7,546.02,186.92,546.37,185.39z"/>
				</g>
			</g>
		</g>
		<g>
			<g>
				<g>
					<path class="st2" d="M556.43,236.81c0.93,0.25,2.63,0.59,4.68,0.8c2.05,0.19,4.46,0.21,6.72-0.09
						c2.26-0.31,4.35-0.92,5.77-1.64c1.43-0.74,2.2-1.52,1.99-2.14c-0.2-0.6-1.24-0.76-2.69-0.76c-1.42,0.02-3.35,0.05-5.38,0.08
						c-2.01-0.02-4.11-0.15-5.93-0.34c-1.82-0.21-3.35-0.44-4.21-0.58c-1.69-0.41-6.03-1.56-9.93-2.93
						c-1.96-0.64-3.82-1.34-5.3-1.68c-1.47-0.34-2.54-0.35-2.84,0.2c-0.32,0.59,0.3,1.46,1.49,2.46c1.18,1,2.91,2.17,4.91,3.14
						C549.66,235.38,554.52,236.57,556.43,236.81z"/>
				</g>
			</g>
		</g>
		<g>
			<g>
				<g>
					<path class="st2" d="M579.98,181.04c-0.57-0.5-1.34-1.15-2.4-1.92c-1.08-0.79-2.38-1.55-3.81-2.28
						c-2.87-1.45-6.27-2.67-9.53-3.59c-3.27-0.91-6.39-1.53-8.72-1.77c-2.33-0.24-3.88-0.15-4.06,0.5
						c-0.34,1.25,5.31,3.26,11.4,5.52c3.04,1.15,6.19,2.42,8.7,3.72c1.25,0.65,2.37,1.29,3.22,1.89c0.88,0.6,1.66,1.2,2.19,1.6
						c1.02,0.89,2.81,2.51,4.77,4.61c1.97,2.09,4.04,4.71,5.79,7.34c1.77,2.62,3.18,5.27,4.21,7.26c1.03,1.99,1.76,3.32,2.39,3.19
						s0.85-1.73,0.44-4.14c-0.41-2.4-1.52-5.55-3.21-8.6c-1.67-3.06-3.85-6.04-6.01-8.36C583.21,183.68,581.17,181.94,579.98,181.04
						z"/>
				</g>
			</g>
		</g>
		<g>
			<g>
				<g>
					<path class="st2" d="M562.4,191.03c-0.52-0.99,0.5-1.53,1.8-2.11c0.65-0.29,2.28-0.84,3.8-1.13c1.51-0.31,2.9-0.36,2.97-0.05
						c0.07,0.3-1.13,0.88-2.46,1.55c-1.33,0.66-2.78,1.4-3.4,1.68C563.89,191.52,562.89,191.96,562.4,191.03z"/>
				</g>
			</g>
		</g>
		<g>
			<g>
				<g>
					<path class="st2" d="M535.81,238.42c-0.4,2.53-0.92,6.1-1.73,10.24c-0.1,0.51-0.21,1.04-0.32,1.58
						c-0.12,0.52-0.25,1.04-0.37,1.58c-0.13,0.5-0.29,1.02-0.43,1.45c-0.03,0.06-0.06,0.13-0.09,0.19l-0.04,0.1l-0.02,0.05
						l-0.01,0.03l0.37,0.25c0.2,0.12-0.78-0.46-0.38-0.21l-0.01,0.02l-0.02,0.03l-0.05,0.06l-0.09,0.13l-0.18,0.27
						c-1.03,1.37-2.92,2.47-5.18,3.07c-1.13,0.3-2.34,0.49-3.58,0.55c-0.62,0.03-1.23,0.04-1.86-0.01c-0.63-0.07-1.27-0.13-1.91-0.2
						c-2.54-0.41-5.04-1.35-7.35-2.77c-4.64-2.84-8.38-7.5-10.83-12.56c-2.51-5.07-3.54-10.57-3.65-15.74
						c-0.1-5.18,0.61-9.97,1.4-14.01c0.81-4.04,1.69-7.34,2.23-9.67s0.75-3.69,0.4-3.83c-0.31-0.12-1.09,1.02-2.15,3.21
						c-1.05,2.19-2.39,5.42-3.62,9.52c-1.21,4.1-2.3,9.12-2.47,14.78c-0.07,2.82,0.11,5.8,0.66,8.82c0.54,3.03,1.5,6.07,2.82,8.99
						c2.64,5.81,6.8,11.32,12.48,14.91c2.82,1.79,6.01,3.03,9.25,3.57c0.81,0.09,1.62,0.18,2.43,0.27c0.81,0.06,1.64,0.06,2.44,0.03
						c1.6-0.08,3.17-0.31,4.7-0.71c3.01-0.8,6.02-2.34,8.03-4.99c0.23-0.34,0.46-0.67,0.68-1.01c0.21-0.42,0.4-0.85,0.58-1.28
						c0.24-0.71,0.42-1.34,0.58-1.97c0.14-0.6,0.28-1.2,0.41-1.78c0.11-0.57,0.22-1.13,0.33-1.68c0.82-4.36,1.29-7.94,1.65-10.52
						c0.4-2.57,0.9-6.15,1.46-10.46c0.27-2.15,0.56-4.49,0.87-6.97c0.29-2.49,0.62-5.06,1.02-7.71c0.82-5.33,2.13-10.98,3.41-16.99
						c0.61-3.01,1.21-6.16,1.25-9.54c0.06-1.67-0.16-3.42-0.51-5.13c-0.24-0.84-0.46-1.7-0.78-2.5c-0.36-0.81-0.63-1.58-1.17-2.42
						c-1-1.62-2.23-2.83-3.48-3.9c-1.25-1.07-2.57-1.92-3.87-2.74c-2.62-1.58-5.25-2.83-7.81-3.91c-5.12-2.13-9.93-3.59-14.05-4.64
						c-4.12-1.04-7.57-1.65-10-1.87c-2.42-0.25-3.91,0-3.88,0.36c0.02,0.35,1.24,0.7,3.51,1.45c2.26,0.74,5.51,1.77,9.43,3.15
						c3.91,1.39,8.5,3.12,13.27,5.38c2.38,1.14,4.79,2.42,7.09,3.92c2.25,1.49,4.48,3.29,5.63,5.25c0.28,0.42,0.5,1.1,0.74,1.67
						c0.23,0.6,0.36,1.23,0.53,1.85c0.22,1.28,0.38,2.58,0.3,3.97c-0.08,2.74-0.65,5.64-1.28,8.55c-1.32,5.82-2.73,11.71-3.59,17.24
						c-0.43,2.78-0.76,5.44-1.05,7.9c-0.3,2.47-0.58,4.8-0.83,6.95C536.58,232.3,536.13,235.87,535.81,238.42z"/>
				</g>
			</g>
		</g>
		<g>
			<g>
				<g>
					<path class="st2" d="M502.13,199c0.77,0.28,0.56,1.91-0.45,4.31c-1.11,2.32-3.04,5.34-5.6,8.23c-0.31,0.37-0.67,0.81-1.1,1.29
						c-0.44,0.46-0.93,0.98-1.47,1.54c-1.05,1.14-2.35,2.35-3.76,3.66c-2.84,2.58-6.22,5.37-9.56,7.81
						c-6.66,4.9-13.02,8.49-13.27,8.08c-0.24-0.38,5.62-4.64,11.8-9.94c3.1-2.63,6.25-5.56,8.89-8.18c1.3-1.33,2.52-2.55,3.49-3.67
						c0.5-0.55,0.96-1.05,1.37-1.51c0.4-0.46,0.74-0.89,1.04-1.24c2.45-2.77,4.23-5.52,5.62-7.46
						C500.43,199.94,501.38,198.72,502.13,199z"/>
				</g>
			</g>
		</g>
	</g>
</g>
</svg>
