<?xml version="1.0" encoding="utf-8"?>
<!-- Generator: Adobe Illustrator 26.5.0, SVG Export Plug-In . SVG Version: 6.00 Build 0)  -->
<svg version="1.1" id="Layer_1" xmlns="http://www.w3.org/2000/svg" xmlns:xlink="http://www.w3.org/1999/xlink" x="0px" y="0px"
	 viewBox="0 0 807.99 405.59" style="enable-background:new 0 0 807.99 405.59;" xml:space="preserve">
<style type="text/css">
	.st0{fill:#E3B793;}
	.st1{fill:#231F20;}
</style>
<g>
	<g>
		<path class="st0" d="M62.14,169.86c48-5,154,19,178,19s128.1-0.64,128.1-0.64c8.83,0.73,34.87-2.6,40.94-7.19l16.2-4.46
			c0.99-15.79,15.34-29,31.46-27.27c24.12-0.97,45.78-4.55,56.6-7.21c12.73-3.12,26.63-2.1,38.37,3.93
			c10.14,5.21,18.52,15.45,23.09,25.75c2.38,5.36,2.47,17.36,1.51,23.64c10.17-0.07,16.69-0.23,26.04-4.26
			c8.31-3.59,13.18-6.77,21.72-9.76c8.54-2.98,20.16-8.31,27.65-3.24c9.6,6.5,9.49,19.41,3.65,29.43
			c-5.38,9.22-12.86,12.64-22.65,16.9c-10.1,4.39-32.72,9.93-49.63,12.27c16.7,2.02,31.96,2.05,40.18,2.72
			c4.57,0.37,9.21,0.64,13.58,2.05s8.52,4.14,10.58,8.24c3.43,6.83-0.08,15.55-6.1,20.26c-6.02,4.71-13.99,5.79-21.57,6.77
			c-23.99,3.09-53.36,0.63-66.15-2.86c2.47,3.77,8.25,9.79,13.1,13.8c12.3,10.16,18.02,11.64,27.56,24.04
			c8.08,10.5-3.67,20.77-9.53,22.3c-12.7,3.33-24.55-3.81-35.12-11.59c-15.01-11.05-31.56-30.92-50.2-30.57
			c-13.72,0.26-63.71,0.32-76.58-34.43l2.94-0.45c-10.57-5.46-21.12-14.85-33.73-14.11c-8.29,0.49-23.88,0.13-23.88,0.13
			s-188.1,20.8-272.1,30.8"/>
		<g>
			<g>
				<path class="st1" d="M598.18,235.36c-4.49-0.32-9.39-0.74-14.66-1.38l0.05,5.52c10.84-1.55,23.12-3.98,36.59-7.75
					c3.37-0.97,6.8-2.01,10.31-3.3c3.59-1.34,6.9-2.85,10.45-4.54c3.5-1.74,7.14-3.79,10.35-6.69c1.6-1.44,3.09-3.06,4.4-4.8
					c1.31-1.76,2.43-3.63,3.44-5.63c0.97-2.01,1.75-4.13,2.34-6.34c0.54-2.22,0.87-4.53,0.91-6.9c-0.01-2.37-0.32-4.8-1.06-7.17
					c-0.71-2.37-1.94-4.65-3.56-6.62l-0.6-0.74c-0.21-0.24-0.45-0.45-0.67-0.68c-0.47-0.43-0.89-0.92-1.4-1.3l-1.52-1.16
					c-0.55-0.37-1.18-0.7-1.77-1.04c-2.49-1.24-5.22-1.67-7.76-1.64c-5.12,0.1-9.72,1.58-14.15,3.09c-2.16,0.78-4.33,1.56-6.52,2.35
					c-2.25,0.78-4.52,1.68-6.73,2.65c-4.45,1.95-8.63,4.21-12.9,6.15c-4.29,1.99-8.5,3.55-13.05,4.29c-2.27,0.37-4.6,0.57-6.99,0.68
					c-1.2,0.05-2.41,0.08-3.63,0.1l-0.43,0.01l0,0l0.08-1.13l0.08-1.46c0.08-1.94,0.08-3.89,0.02-5.84
					c-0.07-1.95-0.19-3.92-0.44-5.9c-0.26-1.99-0.6-4-1.29-6.11c-0.18-0.52-0.41-1.1-0.62-1.59l-0.64-1.36
					c-0.42-0.91-0.9-1.79-1.36-2.68c-0.97-1.75-1.98-3.49-3.12-5.14c-2.23-3.35-4.83-6.47-7.73-9.34c-2.91-2.85-6.17-5.44-9.8-7.53
					c-3.65-2.05-7.48-3.62-11.48-4.75c-7.99-2.22-16.46-2.67-24.69-1.45c-2.05,0.29-4.12,0.73-6.12,1.2
					c-1.89,0.45-3.81,0.88-5.74,1.27c-3.86,0.79-7.76,1.47-11.69,2.08c-7.85,1.23-15.78,2.16-23.74,2.84
					c-3.98,0.34-7.97,0.61-11.96,0.81l-2.63,0.12c-1.11-0.04-2.22-0.15-3.33-0.12c-1.11,0.09-2.23,0.09-3.33,0.26
					c-1.09,0.21-2.21,0.32-3.27,0.63c-8.65,2.18-16.01,8.16-20.23,15.84c-0.58,0.94-0.99,1.96-1.44,2.96
					c-0.49,0.99-0.77,2.06-1.13,3.09c-0.39,1.03-0.54,2.13-0.8,3.2l-0.17,0.81l-0.1,0.82l-0.04,0.33v0.06
					c0.01,0.04-0.02,0.05-0.05,0.05l-0.45,0.13l-2.9,0.8l-5.8,1.61l-2.89,0.8l-1.45,0.4l-0.89,0.25l-0.35,0.1l-0.31,0.19l-0.61,0.37
					c-0.54,0.4-1.41,0.74-2.18,1.11c-0.88,0.3-1.7,0.66-2.63,0.92c-3.62,1.12-7.46,1.92-11.29,2.58c-3.84,0.66-7.72,1.17-11.58,1.54
					c-1.93,0.18-3.86,0.33-5.77,0.4c-0.96,0.04-1.91,0.07-2.84,0.06c-0.47,0.01-0.94,0-1.38-0.03l-0.67-0.03l-0.43-0.02
					c-0.28-0.02-0.38,0-0.5-0.01c-7.86,0.06-15.66,0.11-23.4,0.17c-30.96,0.25-60.89,0.49-88.96,0.72
					c-3.51,0.03-6.99,0.06-10.44,0.09c-1.72,0.01-3.44,0.03-5.15,0.04c-1.65-0.07-3.29-0.15-4.93-0.22
					c-6.64-0.6-13.21-1.45-19.63-2.38c-12.84-1.84-25.12-3.82-36.76-5.58c-23.26-3.58-43.96-6.39-61.25-8.06
					c-4.33-0.38-8.43-0.81-12.31-1.07c-3.88-0.24-7.54-0.47-10.94-0.68c-3.41-0.09-6.58-0.18-9.49-0.26
					c-0.73-0.02-1.44-0.03-2.13-0.05c-0.7,0.01-1.38,0.03-2.04,0.04c-1.33,0.03-2.58,0.06-3.77,0.09c-1.19,0.03-2.31,0.06-3.36,0.09
					c-0.53,0.02-1.03,0.03-1.52,0.05c-0.49,0.04-0.96,0.09-1.42,0.13c-1.82,0.19-3.35,0.35-4.58,0.48c-2.47,0.29-3.73,0.5-3.71,0.64
					c0.02,0.13,1.32,0.18,3.8,0.14c1.24-0.03,2.77-0.07,4.58-0.11c0.45-0.01,0.92-0.04,1.41-0.04c0.49,0.01,1,0.03,1.52,0.04
					c1.05,0.03,2.16,0.05,3.35,0.08c1.18,0.02,2.43,0.05,3.75,0.08c0.66,0.01,1.33,0.03,2.02,0.04c0.69,0.04,1.4,0.09,2.12,0.13
					c2.89,0.17,6.03,0.36,9.42,0.57c3.38,0.3,7.01,0.63,10.87,0.98c3.86,0.35,7.93,0.88,12.23,1.35
					c17.19,2.03,37.77,5.16,60.97,9.01c11.61,1.9,23.86,4.01,36.74,5.98c6.44,1,13.04,1.92,19.89,2.58c1.75,0.09,3.5,0.19,5.26,0.28
					c1.71,0,3.43,0,5.15,0c3.45,0,6.93-0.01,10.44-0.01c28.07-0.05,58-0.11,88.97-0.17c7.74-0.02,15.55-0.04,23.41-0.06h0.17
					c0.09,0-0.12-0.01-0.01,0l0.4,0.02l0.8,0.04c0.54,0.04,1.05,0.03,1.56,0.03c1.04,0.01,2.05-0.01,3.07-0.05
					c2.03-0.07,4.03-0.22,6.04-0.39c4.01-0.36,8-0.88,11.99-1.55c3.99-0.68,7.97-1.49,11.99-2.71c2.02-0.66,4-1.27,6.17-2.68
					l4.96-1.36l5.8-1.59l2.9-0.79l2.47-0.68l1.4-0.38c0.11-0.04,0.05-0.22,0.09-0.32l0.04-0.36l0.08-0.72l0.3-2.54l0.08-0.68
					l0.15-0.67c0.22-0.88,0.34-1.79,0.68-2.65c0.3-0.86,0.54-1.75,0.95-2.57c0.38-0.83,0.72-1.68,1.21-2.46
					c3.55-6.41,9.78-11.39,16.85-13.12c0.87-0.25,1.78-0.33,2.67-0.51c0.9-0.13,1.81-0.12,2.71-0.2c0.9-0.02,1.81,0.08,2.71,0.11
					l0.38,0.02c0.12,0.01,0.26,0.01,0.35,0l0.39-0.02l0.76-0.03l1.52-0.07c4.06-0.18,8.11-0.45,12.16-0.79
					c8.09-0.67,16.14-1.6,24.13-2.84c4-0.62,7.98-1.3,11.94-2.1c1.98-0.39,3.96-0.83,5.95-1.31c1.88-0.44,3.72-0.83,5.6-1.08
					c7.5-1.1,15.18-0.66,22.34,1.34c3.56,1.02,7.03,2.45,10.18,4.23c3.13,1.81,6.03,4.1,8.64,6.67c2.6,2.59,4.96,5.42,6.98,8.47
					c1.04,1.51,1.95,3.09,2.83,4.68c0.41,0.81,0.85,1.61,1.23,2.43l0.57,1.23c0.16,0.39,0.28,0.69,0.41,1.07
					c0.49,1.51,0.81,3.26,1.03,5.01c0.23,1.76,0.34,3.57,0.4,5.38s0.05,3.62-0.02,5.41l-0.07,1.34l-0.13,1.66
					c-0.21,1.87-0.47,3.75-0.72,5.61c2.34-0.02,4.67-0.04,6.99-0.06c1.26-0.02,2.52-0.05,3.79-0.11c2.54-0.11,5.11-0.32,7.68-0.74
					c5.13-0.81,10.09-2.67,14.5-4.72c4.47-2.03,8.67-4.29,12.83-6.11c2.09-0.92,4.17-1.75,6.31-2.49c2.19-0.79,4.36-1.57,6.52-2.35
					c4.22-1.47,8.43-2.72,12.3-2.77c1.92-0.02,3.7,0.3,5.17,1.04c0.35,0.22,0.71,0.39,1.07,0.63l1.1,0.84
					c0.38,0.27,0.66,0.63,1,0.93c0.16,0.16,0.33,0.31,0.48,0.48l0.42,0.53c2.34,2.76,3.31,6.45,3.33,10.13
					c-0.04,1.86-0.3,3.71-0.73,5.53c-0.48,1.81-1.13,3.56-1.93,5.24c-0.84,1.65-1.79,3.26-2.88,4.72c-1.1,1.45-2.31,2.78-3.64,3.97
					c-2.64,2.4-5.79,4.21-9.05,5.83c-3.28,1.57-6.72,3.13-9.92,4.32c-3.29,1.21-6.63,2.24-9.9,3.18c-13.13,3.7-25.28,6.14-35.8,7.66
					l-21.16,3.06l21.21,2.51c5.4,0.64,10.4,1.06,14.95,1.37c4.31,0.3,9.01,0.55,14.05,0.77c2.51,0.12,5.1,0.24,7.79,0.37
					c1.34,0.08,2.65,0.16,4.03,0.28c1.37,0.12,2.76,0.24,4.17,0.36c2.77,0.27,5.52,0.67,8.11,1.5c2.54,0.82,5.02,2.12,6.88,3.96
					c1.86,1.84,3.04,4.16,3.15,6.83c0.14,2.66-0.68,5.56-2.22,8.13c-1.58,2.59-3.78,4.74-6.59,6.31c-2.79,1.58-6.08,2.59-9.6,3.3
					c-1.76,0.35-3.58,0.63-5.45,0.89c-1.88,0.27-3.78,0.48-5.67,0.69c-1.89,0.24-3.83,0.35-5.76,0.53c-1.94,0.12-3.9,0.25-5.88,0.33
					c-7.91,0.31-16.09,0.23-24.44-0.33c-4.17-0.27-8.39-0.65-12.62-1.2c-1.06-0.12-2.12-0.28-3.17-0.44l-1.59-0.24l-2.25-0.39
					c-1.06-0.17-2.18-0.43-3.28-0.65l-3.49-0.85c-2.29-0.57-4.59-1.13-6.9-1.7c1.21,1.77,2.42,3.54,3.63,5.32l0.91,1.33l1.02,1.39
					c0.74,0.94,1.51,1.9,2.37,2.86l1.28,1.44l1,1.06l1.41,1.44c0.95,0.95,1.92,1.89,2.91,2.81c0.99,0.92,2.01,1.82,3.07,2.71
					c1.05,0.86,2.09,1.71,3.15,2.54c2.12,1.68,4.31,3.28,6.48,4.86c4.39,3.16,8.59,6.17,12.19,9.91c1.81,1.87,3.54,3.85,5.17,5.97
					c0.45,0.55,0.74,0.97,1.06,1.45l0.42,0.71l0.36,0.72c0.43,0.97,0.67,1.98,0.72,2.99c0.24,4.07-3.08,8.49-7.16,11.07
					c-1.01,0.64-2.1,1.17-3.02,1.41l-1.84,0.39c-0.62,0.12-1.25,0.15-1.87,0.24c-2.5,0.22-5.06,0.02-7.59-0.53
					c-5.08-1.11-9.99-3.59-14.67-6.57c-2.34-1.49-4.66-3.11-6.94-4.8c-2.24-1.68-4.45-3.45-6.64-5.3
					c-4.39-3.69-8.75-7.58-13.36-11.3s-9.51-7.28-15.04-10.06c-0.7-0.34-1.38-0.7-2.09-1.02l-2.18-0.87l-1.09-0.43
					c-0.37-0.13-0.76-0.23-1.14-0.34l-2.29-0.66c-0.77-0.2-1.57-0.3-2.36-0.45c-0.8-0.11-1.57-0.33-2.39-0.32
					c-1.61-0.08-3.3-0.18-4.68-0.11c-5.79,0.08-11.58-0.11-17.33-0.65c-11.46-1.11-22.89-3.54-33.01-8.54
					c-5.01-2.54-9.68-5.7-13.49-9.67l-0.73-0.73l-0.67-0.78l-1.33-1.57c-0.78-1.12-1.67-2.17-2.35-3.36
					c-1.52-2.28-2.62-4.8-3.65-7.32l-2.04,3.46c0.98-0.15,1.96-0.31,2.94-0.46l7.81-1.22l-7.02-3.64c-4.7-2.44-9.26-5.52-14.15-8.27
					c-4.87-2.73-10.25-5.2-16.2-5.9c-0.74-0.06-1.48-0.13-2.23-0.17l-2.24,0.03c-1.37,0.06-2.65,0.13-4,0.17
					c-2.66,0.08-5.34,0.11-8.01,0.12c-2.67-0.01-5.34-0.02-7.99-0.03c-1.39-0.02-2.79-0.04-4.17-0.05
					c-1.36,0.16-2.72,0.32-4.08,0.47c-21.07,2.45-41.6,4.84-61.29,7.13c-39.39,4.65-75.48,8.92-106.09,12.54
					c-30.61,3.67-55.74,6.76-73.2,9.02c-8.73,1.13-15.55,2.05-20.18,2.74s-7.08,1.14-7.06,1.32c0.02,0.2,2.49,0.1,7.15-0.25
					s11.51-0.97,20.27-1.81c17.52-1.68,42.71-4.28,73.36-7.54c30.65-3.32,66.78-7.23,106.22-11.49c19.71-2.17,40.25-4.43,61.35-6.76
					c1.28-0.14,2.57-0.28,3.85-0.43c1.26,0.02,2.53,0.05,3.8,0.07c2.68,0.04,5.37,0.07,8.07,0.07s5.41-0.01,8.15-0.08
					c1.35-0.03,2.78-0.1,4.11-0.15l1.82-0.01l1.82,0.15c4.87,0.59,9.63,2.71,14.25,5.34c4.65,2.63,9.2,5.74,14.29,8.42l0.81-4.96
					c-0.98,0.15-1.96,0.3-2.94,0.45l-3.3,0.5l1.22,3.04c1.15,2.86,2.39,5.71,4.1,8.31c0.77,1.35,1.76,2.55,2.65,3.82l1.5,1.78
					l0.76,0.88l0.81,0.83c4.29,4.5,9.46,8,14.9,10.78c5.48,2.72,11.24,4.74,17.11,6.19c5.86,1.47,11.82,2.41,17.79,3
					c5.97,0.58,11.96,0.79,17.92,0.72c1.56-0.06,2.8,0.05,4.12,0.1c0.66-0.02,1.31,0.18,1.96,0.27c0.65,0.13,1.31,0.19,1.96,0.37
					l1.94,0.57c0.32,0.1,0.65,0.18,0.97,0.29l0.95,0.38l1.9,0.76c0.63,0.28,1.24,0.61,1.86,0.91c4.94,2.49,9.57,5.83,14.02,9.44
					c4.46,3.61,8.78,7.47,13.25,11.24c2.23,1.89,4.53,3.74,6.9,5.53c2.36,1.75,4.76,3.44,7.26,5.03c4.98,3.18,10.42,6,16.49,7.35
					c3.02,0.67,6.18,0.93,9.31,0.65c0.78-0.1,1.57-0.16,2.34-0.3l2.3-0.49c1.81-0.49,3.26-1.26,4.63-2.11
					c2.7-1.73,5.02-3.89,6.86-6.58c1.83-2.64,3.11-6.01,2.95-9.56c-0.07-1.75-0.5-3.49-1.19-5.04l-0.56-1.13
					c-0.2-0.36-0.42-0.71-0.63-1.07c-0.44-0.67-0.95-1.38-1.37-1.89c-1.73-2.24-3.6-4.4-5.58-6.44c-1.99-2.05-4.14-3.95-6.34-5.68
					c-2.2-1.73-4.42-3.31-6.58-4.88c-2.16-1.57-4.27-3.12-6.3-4.73c-1.02-0.8-2.03-1.63-3.02-2.44c-0.97-0.81-1.92-1.65-2.85-2.51
					c-0.93-0.86-1.85-1.74-2.74-2.64l-1.32-1.36l-0.34-0.36l0,0c0,0-0.01,0,0.01,0l0.98,0.17l1.65,0.25c1.1,0.17,2.2,0.33,3.29,0.46
					c4.37,0.57,8.7,0.96,12.98,1.23c8.55,0.57,16.92,0.65,25.05,0.33c2.03-0.08,4.05-0.22,6.05-0.34c2-0.19,3.99-0.3,5.96-0.55
					c1.98-0.22,3.91-0.44,5.83-0.71c1.93-0.27,3.86-0.56,5.79-0.95c3.85-0.78,7.74-1.93,11.28-3.93c1.76-1,3.42-2.2,4.9-3.63
					c1.46-1.42,2.72-3,3.75-4.7c2.03-3.41,3.23-7.35,3.02-11.38c-0.1-2.01-0.58-4.02-1.46-5.83c-0.84-1.82-2.04-3.4-3.39-4.72
					c-2.71-2.65-5.93-4.27-9.14-5.3c-3.2-1.01-6.34-1.43-9.27-1.72c-1.47-0.14-2.9-0.25-4.28-0.36c-1.39-0.11-2.82-0.21-4.17-0.28
					c-2.71-0.12-5.32-0.24-7.85-0.36C607.07,235.88,602.42,235.65,598.18,235.36z"/>
			</g>
		</g>
	</g>
	<g>
		<g>
			<g>
				<path class="st1" d="M661.44,192.24c-0.03-1.39-0.26-3.06-0.73-4.93c-0.55-1.85-1.35-3.92-2.73-5.9
					c-1.4-1.97-3.24-3.81-5.61-5.3c-2.47-1.52-5.51-2.23-8.49-2.24c-5.99,0.04-11.79,2.09-17.42,4.11c-2.79,1-5.71,2.04-8.55,3.2
					c-2.84,1.16-5.63,2.41-8.34,3.66c-5.44,2.49-10.61,4.99-15.57,6.62c-4.95,1.69-9.65,2.62-13.7,3.02
					c-4.05,0.41-7.42,0.39-9.77,0.4c-2.36,0.01-3.7,0.05-3.74,0.34c-0.03,0.24,1.26,0.67,3.63,1.08c2.36,0.4,5.82,0.78,10.06,0.66
					s9.26-0.85,14.51-2.42c2.62-0.77,5.31-1.73,8-2.84c2.68-1.09,5.38-2.28,8.11-3.47s5.48-2.37,8.26-3.46
					c2.78-1.1,5.58-2.05,8.44-3.04c5.6-1.98,11.1-3.78,16.05-3.78c2.45,0.03,4.65,0.58,6.39,1.65c1.8,1.13,3.32,2.61,4.4,4.13
					c1.09,1.54,1.72,3.18,2.19,4.66c0.39,1.51,0.61,2.88,0.65,4.04c0.08,2.31-0.16,5.66-1.58,9.41c-0.67,1.89-1.62,3.84-2.87,5.79
					c-1.24,1.95-2.77,3.86-4.61,5.6c-1.86,1.72-4.03,3.26-6.44,4.64s-5.04,2.61-7.75,3.82c-5.43,2.44-11.01,4.71-16.61,6.45
					c-11.2,3.51-22.38,4.7-30.61,5.73c-8.24,1-13.53,1.84-13.48,2.36c0.05,0.55,5.38,0.53,13.69,0.12c4.16-0.22,9.07-0.53,14.44-1.2
					s11.19-1.76,17.02-3.43c5.83-1.68,11.65-3.96,17.17-6.37c2.76-1.21,5.52-2.47,8.14-3.95s5.09-3.21,7.22-5.18
					c2.12-1.98,3.88-4.19,5.27-6.39c1.4-2.2,2.5-4.45,3.25-6.61C661.31,198.93,661.58,195,661.44,192.24z"/>
			</g>
		</g>
	</g>
	<g>
		<path class="st0" d="M545.2,170.46c-17.63,2.77-41.8,9.73-45.05,30.66c-2.26,14.57,5.7,28.48,21.91,25.53
			c9.02-1.64,15.84-8.27,23.59-12.61c10.25-5.75,13.26-5.4,23.59-10.82c11.37-5.96,10.04-21.57,5.65-31.46
			c-4.56-10.29-12.94-20.54-23.09-25.75c-11.74-6.03-25.65-7.05-38.37-3.93c-10.82,2.65-29.07,6.24-54.8,8.88"/>
		<g>
			<g>
				<path class="st1" d="M572.4,197.29c-1.01,1.23-2.38,2.57-4.34,3.62c-2.27,1.18-4.85,2.41-7.73,3.61
					c-2.88,1.19-6.23,2.37-9.71,3.99c-1.74,0.8-3.49,1.69-5.24,2.66c-1.75,0.94-3.59,2.05-5.31,3.19
					c-3.48,2.28-6.85,4.76-10.44,6.71c-3.58,1.97-7.41,3.27-11.42,3.34h-1.48c-0.49-0.02-0.96-0.13-1.44-0.18
					c-0.98-0.06-1.87-0.43-2.8-0.66c-1.76-0.71-3.43-1.65-4.81-3c-2.75-2.7-4.5-6.53-5.12-10.55c-0.38-2-0.38-4.06-0.32-6.09
					c0.18-2.03,0.43-4.03,0.98-5.92c1.09-3.78,3.06-7.15,5.55-9.94c2.5-2.78,5.43-5.02,8.4-6.81c2.97-1.81,5.98-3.2,8.8-4.35
					c5.66-2.28,10.57-3.58,13.96-4.55c3.41-0.95,5.33-1.54,5.27-1.91c-0.05-0.32-2.08-0.34-5.65,0.09
					c-3.56,0.46-8.67,1.33-14.72,3.34c-3.02,1.01-6.27,2.31-9.56,4.12c-3.29,1.8-6.64,4.14-9.61,7.23
					c-2.95,3.09-5.42,7.04-6.82,11.49c-1.34,4.47-1.78,9.24-1.06,14.06c0.66,4.79,2.69,9.69,6.38,13.41
					c1.85,1.85,4.16,3.23,6.58,4.2c1.25,0.36,2.49,0.82,3.77,0.94c0.64,0.08,1.27,0.21,1.91,0.24l1.89,0.02
					c2.5-0.06,4.96-0.42,7.29-1.13c2.33-0.7,4.51-1.67,6.53-2.76c4.04-2.18,7.51-4.73,10.85-6.9c1.68-1.11,3.26-2.06,4.94-2.97
					c1.67-0.92,3.31-1.75,4.93-2.5c3.22-1.51,6.44-2.66,9.5-3.93c3.05-1.27,5.78-2.6,8.14-3.86c2.68-1.45,4.65-3.38,6.02-5.14
					c1.34-1.79,2.59-4.19,3.35-7.04c0.76-2.85,1.03-6.12,0.77-9.57c-0.27-3.46-1.04-7.12-2.39-10.84c-0.72-1.87-1.52-3.7-2.48-5.49
					c-0.93-1.81-1.99-3.61-3.16-5.39c-2.32-3.56-5.12-7.01-8.38-10.19c-1.65-1.57-3.41-3.08-5.29-4.47
					c-1.9-1.37-3.92-2.64-6.05-3.73c-8.47-4.28-18.21-6.08-27.5-5.65c-4.63,0.22-9.24,0.98-13.45,2.12
					c-4.12,1.05-8.18,1.96-12.08,2.79c-7.81,1.65-15.01,2.95-21.13,4.01c-12.24,2.1-20.15,3.32-20.08,4.02
					c0.06,0.7,8.08,0.52,20.52-0.82c6.22-0.68,13.53-1.66,21.48-3.08c3.98-0.71,8.11-1.52,12.34-2.48c4.11-1,8.26-1.58,12.57-1.72
					c8.56-0.24,17.4,1.52,24.97,5.43c7.45,3.86,13.4,10.2,17.64,16.68c1.07,1.63,2.03,3.27,2.88,4.93c0.88,1.65,1.6,3.31,2.22,4.89
					c1.18,3.23,1.86,6.45,2.1,9.39c0.24,2.95,0.02,5.64-0.56,7.85C574.23,194.25,573.33,195.99,572.4,197.29z"/>
			</g>
		</g>
	</g>
	<g>
		<path class="st0" d="M465.52,169.48c11.38,5.45,21.03,14.43,27.28,25.39c4.86,8.53,7.68,18.65,5.63,28.25
			c-2.06,9.6-9.83,18.3-19.58,19.44c-9.45,1.1-19.18-5.71-21.37-14.97c-0.75-3.15-0.71-6.47-1.69-9.56
			c-2.16-6.87-8.74-11.21-14.86-15"/>
		<g>
			<g>
				<path class="st1" d="M496.12,234.48c1.23-1.66,2.77-4.14,3.92-7.44c0.61-1.63,1.03-3.51,1.35-5.45
					c0.29-1.96,0.41-4.06,0.34-6.22c-0.13-4.33-1.11-8.9-2.72-13.28c-1.61-4.39-3.92-8.57-6.52-12.34c-2.63-3.76-5.58-7.13-8.6-9.9
					c-3.01-2.78-6.04-5-8.74-6.64c-5.42-3.28-9.37-4.34-9.64-3.72c-0.31,0.65,3.1,2.64,7.8,6.38c2.35,1.87,5,4.2,7.63,6.98
					c2.64,2.77,5.23,6.03,7.53,9.59c2.28,3.58,4.29,7.44,5.66,11.41c1.38,3.96,2.19,7.98,2.29,11.68c0.05,1.85-0.05,3.62-0.29,5.27
					c-0.27,1.65-0.6,3.15-1.08,4.49c-0.91,2.71-2.15,4.78-3.12,6.18c-1.02,1.36-2.57,3.2-4.82,4.9c-1.14,0.81-2.42,1.63-3.88,2.26
					c-1.46,0.61-3.07,1.08-4.78,1.29c-3.38,0.39-7.22-0.46-10.57-2.46c-3.35-1.98-6.17-5.11-7.54-8.68
					c-0.33-0.9-0.62-1.78-0.82-2.76c-0.2-0.97-0.36-1.99-0.51-3.05c-0.32-2.09-0.67-4.37-1.57-6.46c-0.84-2.08-2.04-3.85-3.31-5.31
					c-1.28-1.46-2.63-2.63-3.91-3.6c-2.57-1.94-4.86-3.13-6.48-3.88c-1.63-0.73-2.63-0.99-2.8-0.71c-0.2,0.31,0.48,1.09,1.8,2.26
					c1.3,1.18,3.27,2.73,5.37,4.78c2.09,2.04,4.32,4.66,5.39,7.93c0.57,1.6,0.77,3.45,0.98,5.55c0.11,1.05,0.22,2.16,0.41,3.33
					c0.18,1.16,0.51,2.4,0.91,3.58c1.65,4.77,5.15,8.83,9.37,11.44c4.21,2.64,9.24,3.84,13.87,3.33c2.28-0.27,4.41-0.89,6.31-1.7
					c1.89-0.83,3.52-1.87,4.95-2.91C493.09,238.45,494.93,236.16,496.12,234.48z"/>
			</g>
		</g>
	</g>
</g>
</svg>
