<?xml version="1.0" encoding="utf-8"?>
<!-- Generator: Adobe Illustrator 26.5.0, SVG Export Plug-In . SVG Version: 6.00 Build 0)  -->
<svg version="1.1" id="Layer_1" xmlns="http://www.w3.org/2000/svg" xmlns:xlink="http://www.w3.org/1999/xlink" x="0px" y="0px"
	 viewBox="0 0 807.99 405.59" style="enable-background:new 0 0 807.99 405.59;" xml:space="preserve">
<style type="text/css">
	.st0{fill:#E3B793;}
	.st1{fill:#231F20;}
</style>
<g>
	<path class="st0" d="M62.14,170.24c48-5,154,19,178,19s128.1-0.64,128.1-0.64c8.83,0.73,34.87-2.6,40.94-7.19
		c9.02-6.82,14.59-32.02,26.75-42.4c23.39-19.98,13.95-50.19,15.41-58.48s17.19-14.93,27.05,0c16.08,24.37-3.98,57.8,4.39,62.87
		c33.48-1.55,69.09-23.59,94.76-43.02c9.67-7.32,34.26-24.26,43.65-8.16c8.2,14.05-7.25,25.89-17.96,32.05
		c-10.71,6.16-21.66,12.73-32.31,19.27c-5.5,3.38-10.95,6.86-16.26,10.53c-2.75,1.91-12.05,6.88-9.35,11.37
		c1.04,1.72,2.21,2.11,8.62,2.01c11.7-0.18,54.1-7.74,75.69-12.57c9.15-2.05,30.45-3.39,32.51,13.18
		c2.68,21.62-30.7,19.67-53.37,21.86c-12.13,1.17-46.32,5.01-54.34,6.09c-3.86,0.52-7.74,2.8-8.71,5.24
		c-0.97,2.44,2.44,5.25,5.85,6.76c7.01,3.11,31.97,7.05,43.31,9.93c16.33,4.14,62.63,3.17,57.51,25.83
		c-3.14,13.9-18.01,12.75-29.1,10.64c-17.38-3.31-34.3-7.47-51.95-9.4c-9.14-1-18.24-2.28-27.39-3.19c-3.88-0.39-5.6,0-6.58,2.44
		c-0.97,2.44,0.73,4.63,2.68,6.09c6.33,4.74,14.01,8.32,20.78,12.41c11.38,6.89,23.1,13.14,34.55,19.88
		c7.94,4.67,17.06,11.71,11.74,21.84c-9.32,17.76-33.93-2.65-44.66-7.82s-43.13-23.15-51.42-24.61
		c-14.64-2.58-29.52-1.69-44.25-2.97c-14.17-1.24-28.28-5.14-40.94-11.67c-10.57-5.46-21.12-14.85-33.73-14.11
		c-8.29,0.49-23.88,0.13-23.88,0.13s-188.1,20.8-272.1,30.8"/>
	<g>
		<g>
			<path class="st1" d="M649.78,187.77c1.5-0.5,3.05-1.04,4.59-1.81c1.55-0.72,3.1-1.66,4.58-2.84c2.98-2.28,5.46-6.18,5.88-10.39
				c0.25-2.09,0.17-4.14-0.2-6.21c-0.38-2.07-1.1-4.2-2.29-6.15c-1.17-1.96-2.83-3.67-4.72-4.99c-1.89-1.32-3.99-2.29-6.14-2.94
				c-4.32-1.33-8.83-1.63-13.35-1.44c-2.27,0.11-4.54,0.35-6.84,0.75c-2.37,0.42-4.46,0.94-6.68,1.41
				c-8.84,1.87-18.19,3.68-27.96,5.43c-9.77,1.74-19.99,3.48-30.56,4.9c-2.64,0.34-5.31,0.68-7.96,0.91l-1.99,0.17l-1.94,0.09
				c-1.32,0.04-2.7,0.04-3.96-0.01c-0.62-0.03-1.23-0.08-1.69-0.17c-0.48-0.09-0.66-0.2-0.62-0.18c0,0.01-0.04-0.03-0.15-0.19
				c-0.11-0.17-0.1-0.19-0.13-0.24c-0.03-0.08-0.03-0.13,0.04-0.38c0.14-0.51,0.86-1.45,1.73-2.24c0.88-0.82,1.93-1.61,3.05-2.37
				c1.13-0.78,2.27-1.47,3.59-2.35c1.19-0.81,2.38-1.62,3.58-2.44c2.39-1.6,4.82-3.18,7.29-4.75c4.92-3.15,10.09-6.14,15.25-9.24
				c5.18-3.09,10.42-6.21,15.71-9.37c2.66-1.59,5.34-3.18,8.04-4.78c2.77-1.65,5.48-3.47,8.07-5.54c2.59-2.06,5.07-4.37,7.23-7.11
				c2.14-2.73,3.99-5.96,4.74-9.72c0.37-1.86,0.43-3.83,0.16-5.74c-0.27-1.91-0.86-3.75-1.67-5.43c-0.81-1.65-1.85-3.27-3.15-4.73
				c-1.35-1.44-3.01-2.66-4.83-3.49c-1.83-0.83-3.79-1.3-5.7-1.41c-1.91-0.13-3.77,0.02-5.57,0.31c-3.59,0.62-6.92,1.82-10.09,3.22
				c-6.33,2.87-12.1,6.61-17.62,10.66c-5.42,4.06-10.76,8.01-16.35,11.8c-5.58,3.77-11.29,7.4-17.16,10.82
				c-5.89,3.38-11.91,6.54-18.1,9.41c-6.21,2.8-12.58,5.27-19.09,7.28c-6.52,1.97-13.21,3.36-19.95,4.04l-2.53,0.21l-0.47,0.04
				c-0.01,0-0.02-0.01-0.03-0.01c0-0.01-0.02-0.01-0.01-0.04c-0.08-0.11-0.15-0.4-0.22-0.66c-0.08-0.25-0.09-0.62-0.15-0.92
				c-0.03-0.34-0.03-0.72-0.05-1.07c0.03-3.05,0.69-6.51,1.3-9.92c1.27-6.87,2.62-13.96,2.83-21.26c0.24-7.26-0.66-14.85-3.71-21.78
				c-0.75-1.73-1.63-3.4-2.64-5c-0.97-1.61-2.14-3.19-3.5-4.62c-2.68-2.85-6.28-5.19-10.39-5.97c-4.08-0.8-8.43-0.09-12.01,2.06
				c-0.9,0.53-1.75,1.15-2.54,1.87c-0.79,0.71-1.51,1.52-2.13,2.44c-0.62,0.91-1.15,1.92-1.49,3.03c-0.36,1.11-0.5,2.31-0.52,3.28
				c-0.06,1.99,0.09,3.75,0.2,5.53l0.38,5.21c0.23,3.44,0.34,6.83,0.23,10.2c-0.24,6.72-1.39,13.35-4.05,19.33
				c-1.32,2.99-2.98,5.8-4.96,8.37c-0.48,0.66-1,1.28-1.54,1.89l-0.8,0.92l-0.85,0.87c-0.56,0.59-1.14,1.16-1.75,1.7
				c-0.6,0.55-1.18,1.06-1.89,1.75c-0.66,0.66-1.39,1.28-1.98,1.98l-1.79,2.1c-1.07,1.45-2.17,2.9-3.09,4.42
				c-1.93,3-3.56,6.09-5.1,9.18c-1.55,3.09-2.98,6.19-4.45,9.22c-1.45,3.04-2.93,6.02-4.59,8.77c-1.64,2.72-3.57,5.31-5.73,6.56
				c-0.27,0.17-0.65,0.31-0.97,0.46c-0.34,0.15-0.64,0.32-1.03,0.44c-0.74,0.25-1.43,0.56-2.21,0.77c-1.51,0.48-3.08,0.88-4.65,1.27
				c-6.32,1.45-12.82,2.41-19.24,2.98c-3.2,0.27-6.44,0.47-9.47,0.35l-0.56-0.03c0,0-0.28-0.02-0.49-0.02h-0.31l-1.22,0.01
				l-2.43,0.02c-1.62,0.01-3.24,0.02-4.85,0.04c-12.92,0.1-25.61,0.19-38.05,0.29c-24.87,0.21-48.68,0.4-71.11,0.59
				c-2.8,0.03-5.58,0.05-8.34,0.07c-0.68,0-1.39,0.03-2.05,0l-1.99-0.09c-1.33-0.08-2.63-0.06-3.98-0.24
				c-5.34-0.49-10.61-1.18-15.78-1.89c-10.35-1.46-20.31-3.04-29.84-4.51c-19.07-2.96-36.47-5.56-51.87-7.45
				c-15.4-1.88-28.79-3.18-39.82-3.76c-2.75-0.22-5.37-0.21-7.81-0.3c-2.45-0.05-4.74-0.17-6.88-0.15c-4.27,0.1-7.89,0.12-10.82,0.3
				c-5.85,0.54-8.91,0.91-8.88,1.1c0.01,0.09,0.8,0.12,2.31,0.11s3.74-0.07,6.65-0.18c2.92-0.01,6.52,0.12,10.77,0.18
				c2.12,0.07,4.4,0.25,6.84,0.38c2.44,0.17,5.03,0.23,7.77,0.52c10.96,0.86,24.28,2.41,39.61,4.53c15.33,2.13,32.67,4.94,51.71,8.1
				c9.52,1.57,19.47,3.24,29.86,4.8c5.2,0.76,10.5,1.5,15.97,2.05c1.35,0.18,2.78,0.18,4.18,0.28l2.11,0.11
				c0.7,0.02,1.38,0.01,2.07,0.01c2.76,0,5.54-0.01,8.35-0.01c22.43-0.04,46.25-0.08,71.12-0.12c12.44-0.03,25.14-0.06,38.05-0.09
				c1.61,0,3.23-0.01,4.86-0.01l2.44-0.01h1.22c0.31,0,0.1,0,0.43,0.01l0.66,0.03c3.47,0.15,6.77-0.06,10.11-0.33
				c6.65-0.57,13.27-1.52,19.93-3.02c1.66-0.4,3.33-0.83,5-1.35c0.84-0.24,1.68-0.59,2.52-0.88c0.42-0.14,0.85-0.37,1.28-0.56
				c0.43-0.22,0.84-0.34,1.29-0.64l1.33-0.83c0.38-0.31,0.74-0.65,1.11-0.97c0.35-0.33,0.76-0.65,1.06-1l0.91-1.06
				c0.64-0.7,1.13-1.45,1.65-2.18c0.54-0.73,1-1.49,1.45-2.24c1.82-3.01,3.36-6.1,4.84-9.17c1.49-3.07,2.92-6.14,4.45-9.13
				c1.52-3,3.09-5.95,4.89-8.7c1.78-2.75,3.73-5.4,6.07-7.46c0.52-0.51,1.25-1.16,1.91-1.76c0.68-0.59,1.32-1.24,1.95-1.89
				l0.95-0.98l0.9-1.03l0.9-1.03l0.84-1.08c2.23-2.89,4.11-6.07,5.59-9.42c2.99-6.71,4.24-14.03,4.5-21.2
				c0.13-3.6,0.01-7.18-0.21-10.71l-0.37-5.25c-0.11-1.71-0.23-3.45-0.17-4.95c0.02-0.79,0.12-1.31,0.3-1.88s0.47-1.13,0.86-1.67
				c0.75-1.07,1.83-2.03,3.06-2.74c2.47-1.45,5.51-1.93,8.33-1.35c2.84,0.58,5.44,2.23,7.55,4.49c1.06,1.13,2.01,2.39,2.83,3.8
				c0.42,0.7,0.86,1.38,1.21,2.12c0.37,0.73,0.76,1.44,1.05,2.21c2.62,6,3.44,12.74,3.19,19.48c-0.22,6.78-1.5,13.55-2.8,20.46
				c-0.61,3.49-1.34,6.95-1.39,10.92c0.02,1.01,0.07,2.06,0.36,3.22l0.24,0.88c0.11,0.32,0.24,0.58,0.43,0.96
				c0.1,0.19,0.17,0.39,0.3,0.56c0.13,0.17,0.27,0.32,0.41,0.48c0.28,0.31,0.54,0.65,0.84,0.94l0.98,0.78
				c0.16,0.14,0.32,0.28,0.54,0.24l0.61,0.03c0.41,0.03,0.82-0.05,1.23-0.07l0.83-0.07l2.69-0.22c7.16-0.72,14.2-2.19,21-4.23
				c6.79-2.09,13.38-4.65,19.78-7.53c6.37-2.94,12.55-6.19,18.57-9.63c6-3.49,11.82-7.19,17.5-11.02
				c5.66-3.82,11.2-7.92,16.53-11.91c5.31-3.89,10.83-7.44,16.6-10.04c2.88-1.27,5.83-2.3,8.74-2.8c2.89-0.46,5.76-0.39,8.03,0.7
				c1.14,0.53,2.15,1.28,3.04,2.21c0.85,0.98,1.59,2.11,2.21,3.37c1.19,2.48,1.57,5.11,1.05,7.68c-0.51,2.58-1.88,5.08-3.67,7.34
				c-1.79,2.27-3.98,4.32-6.32,6.18c-2.35,1.87-4.86,3.56-7.46,5.11c-2.68,1.59-5.34,3.18-7.98,4.75
				c-5.32,3.17-10.58,6.31-15.78,9.41c-5.19,3.11-10.36,6.11-15.36,9.31c-2.51,1.59-4.98,3.19-7.41,4.83
				c-1.2,0.82-2.4,1.63-3.59,2.45c-1.09,0.72-2.4,1.52-3.63,2.37c-1.25,0.86-2.49,1.78-3.69,2.9c-0.6,0.56-1.19,1.18-1.75,1.9
				c-0.55,0.73-1.1,1.58-1.46,2.68c-0.36,1.08-0.48,2.51-0.05,3.78c0.11,0.31,0.21,0.62,0.36,0.89c0.14,0.29,0.29,0.55,0.43,0.75
				c0.28,0.43,0.67,0.95,1.22,1.4c0.53,0.44,1.16,0.79,1.7,0.98c0.56,0.22,1.04,0.32,1.5,0.41c0.91,0.16,1.69,0.21,2.45,0.25
				c1.52,0.06,2.91,0.05,4.34,0.01l2.18-0.1l2.11-0.18c2.8-0.25,5.51-0.59,8.2-0.94c10.74-1.44,20.98-3.19,30.81-4.96
				s19.21-3.6,28.13-5.49c2.22-0.47,4.49-1.02,6.47-1.37c2.06-0.36,4.13-0.58,6.16-0.68c4.06-0.18,8.02,0.12,11.47,1.18
				c3.45,1.05,6.27,2.93,7.82,5.54c0.79,1.3,1.3,2.75,1.58,4.28c0.29,1.54,0.34,3.13,0.17,4.54c-0.14,1.44-0.61,2.72-1.27,3.86
				c-0.67,1.14-1.53,2.15-2.62,2.99c-2.11,1.72-4.79,2.85-7.4,3.71c-5.71,1.79-12.61,2.63-20.18,3.21
				c-3.79,0.29-7.77,0.52-11.92,0.79c-2.08,0.14-4.2,0.29-6.38,0.48c-2.17,0.19-4.32,0.47-6.54,0.7
				c-8.84,0.99-18.26,2.04-28.19,3.14c-4.97,0.55-10.07,1.12-15.29,1.71c-1.31,0.15-2.62,0.29-3.94,0.44l-0.99,0.11
				c-0.34,0.04-0.63,0.06-1.06,0.14c-0.8,0.12-1.57,0.32-2.33,0.54c-1.52,0.47-2.98,1.13-4.38,2.05c-0.7,0.47-1.38,1-2.03,1.66
				c-0.32,0.33-0.64,0.7-0.94,1.11c-0.15,0.21-0.29,0.44-0.43,0.67c-0.07,0.11-0.13,0.25-0.2,0.37l-0.23,0.49
				c-0.37,1.03-0.48,2.16-0.19,3.24c0.29,1.14,0.76,1.86,1.24,2.5c0.97,1.28,2.04,2.11,3.14,2.88c2.16,1.51,4.71,2.41,6.96,3.08
				c4.56,1.31,9.11,2.29,13.75,3.27c4.62,0.93,9.3,1.88,14.05,2.83c2.35,0.49,4.73,0.98,7.11,1.48c1.18,0.27,2.37,0.52,3.54,0.81
				l1.79,0.43c0.64,0.14,1.29,0.31,1.92,0.43c5.09,1,10.08,1.55,15.12,2.22c5.03,0.65,10.08,1.34,15.07,2.32
				c2.5,0.48,4.98,1.06,7.41,1.74c2.43,0.68,4.82,1.49,7.05,2.51c4.43,2.01,8.36,5.07,8.78,9.18c0.3,2.02-0.17,4.37-1,6.49
				c-0.84,2.1-2.2,3.79-4.06,4.96c-1.85,1.18-4.17,1.84-6.64,2.14c-2.47,0.3-5.09,0.22-7.74-0.04c-2.66-0.26-5.3-0.72-8.05-1.26
				c-2.75-0.55-5.51-1.1-8.28-1.65c-5.54-1.13-11.13-2.3-16.79-3.41c-5.66-1.1-11.38-2.15-17.19-2.99c-2.9-0.44-5.83-0.79-8.76-1.12
				c-2.9-0.34-5.81-0.67-8.72-1.01c-5.83-0.68-11.69-1.36-17.57-2.04c-0.72-0.09-1.51-0.17-2.34-0.21
				c-0.84-0.04-1.73-0.06-2.79,0.11c-1.03,0.16-2.41,0.61-3.44,1.61c-0.51,0.48-0.9,1.02-1.18,1.52c-0.3,0.54-0.47,0.94-0.68,1.57
				c-0.39,1.19-0.36,2.6-0.01,3.76c0.35,1.18,0.95,2.11,1.58,2.9c0.64,0.78,1.34,1.41,2.06,1.97c0.67,0.49,1.27,0.94,1.92,1.38
				c5.11,3.54,10.53,6.3,15.68,9.21c1.3,0.73,2.55,1.46,3.82,2.23l3.9,2.32c2.61,1.53,5.23,3.04,7.86,4.54
				c5.25,2.97,10.51,5.94,15.78,8.92c2.61,1.49,5.27,3.01,7.79,4.53c2.5,1.51,4.85,3.17,6.84,5.05c0.97,0.95,1.88,1.94,2.54,3
				c0.73,1.05,1.18,2.16,1.44,3.27l0.16,0.84l0.02,0.85l0.02,0.43l-0.06,0.43l-0.1,0.86c-0.2,0.57-0.28,1.16-0.55,1.73
				c-0.28,0.57-0.46,1.17-0.83,1.71l-0.49,0.84l-0.56,0.75c-0.18,0.26-0.38,0.49-0.59,0.7c-0.21,0.21-0.4,0.46-0.63,0.64
				c-0.88,0.8-1.89,1.36-2.99,1.76c-1.1,0.41-2.33,0.54-3.61,0.54c-1.28,0.01-2.62-0.19-3.96-0.49c-2.69-0.6-5.39-1.67-8.03-2.9
				c-2.65-1.23-5.25-2.68-7.84-4.18l-7.83-4.67c-1.33-0.78-2.69-1.56-4.17-2.29l-4.04-2.01c-10.77-5.5-21.47-11.24-32.42-16.5
				c-2.73-1.32-5.51-2.58-8.33-3.79c-1.45-0.57-2.85-1.18-4.39-1.68c-0.39-0.13-0.74-0.27-1.15-0.38l-1.27-0.32l-0.64-0.15
				c-0.2-0.04-0.38-0.06-0.58-0.1l-1.14-0.18c-6.08-0.97-12.15-1.36-18.15-1.61c-11.99-0.48-23.76-0.33-35.03-2.43
				c-11.28-2.06-22.2-5.8-31.99-11.2c-4.88-2.73-9.64-5.99-14.89-8.64c-2.62-1.32-5.37-2.5-8.27-3.31c-2.89-0.82-5.97-1.26-9.03-1.1
				c-5.55,0.28-11.03,0.31-16.53,0.29c-1.37-0.01-2.74-0.02-4.1-0.03l-2.04-0.03l-1.02-0.02l-0.68-0.01l-0.63,0.07
				c-2.71,0.31-5.41,0.63-8.1,0.94c-21.5,2.5-42.22,4.91-61.97,7.21c-39.48,4.66-75.01,8.85-104.84,12.37
				c-29.82,3.57-53.94,6.52-70.6,8.65c-8.33,1.07-14.79,1.93-19.17,2.56s-6.67,1.04-6.66,1.19c0.01,0.17,2.33,0.06,6.73-0.29
				s10.88-0.94,19.23-1.76c16.7-1.63,40.85-4.13,70.71-7.32c29.85-3.23,65.41-7.09,104.93-11.37c19.75-2.17,40.49-4.46,62-6.82
				c2.69-0.3,5.39-0.6,8.1-0.9l0.47-0.05c0.04-0.01,0.02,0,0.25,0l1.03,0.02l2.06,0.04c1.38,0.02,2.75,0.04,4.13,0.06
				c5.52,0.05,11.12,0.06,16.76-0.21c5.06-0.26,10.15,1.47,14.99,3.94c4.88,2.47,9.55,5.69,14.67,8.6
				c10.31,5.76,21.65,9.69,33.44,11.9c5.89,1.1,11.93,1.69,17.88,1.97c5.97,0.32,11.92,0.41,17.83,0.67
				c5.91,0.26,11.79,0.66,17.57,1.6l1.08,0.18l0.54,0.09l0.46,0.12c0.6,0.15,1.2,0.29,1.88,0.55c1.31,0.42,2.67,1.01,4.02,1.54
				c2.7,1.17,5.41,2.4,8.1,3.71c10.79,5.21,21.43,10.95,32.28,16.53c1.35,0.7,2.75,1.39,4.12,2.06c1.24,0.61,2.53,1.35,3.81,2.1
				l7.83,4.69c2.67,1.55,5.38,3.08,8.25,4.43c2.86,1.34,5.85,2.56,9.1,3.31c1.62,0.38,3.32,0.64,5.08,0.65
				c1.75,0.03,3.6-0.17,5.38-0.78c1.77-0.6,3.48-1.54,4.86-2.81c1.35-1.26,2.54-2.69,3.36-4.22c0.89-1.51,1.56-3.2,2.01-5
				c0.32-1.83,0.47-3.79,0-5.65c-0.07-0.48-0.21-0.92-0.37-1.37c-0.16-0.44-0.29-0.9-0.48-1.32c-0.4-0.82-0.79-1.66-1.3-2.39
				c-0.95-1.52-2.11-2.79-3.31-3.97c-2.42-2.31-5.07-4.16-7.76-5.79c-2.68-1.61-5.27-3.1-7.92-4.62
				c-5.27-2.99-10.53-5.97-15.77-8.95c-2.61-1.49-5.21-2.99-7.78-4.51l-3.85-2.3c-1.3-0.78-2.64-1.57-3.96-2.31
				c-5.28-2.99-10.55-5.7-15.25-8.96c-0.59-0.4-1.17-0.84-1.71-1.23c-0.45-0.35-0.86-0.73-1.17-1.09c-0.3-0.37-0.5-0.72-0.57-0.98
				c-0.06-0.26-0.08-0.4-0.01-0.61c0.02-0.07,0.12-0.33,0.2-0.45c0.08-0.15,0.14-0.21,0.17-0.25c0.04-0.04,0.11-0.1,0.52-0.18
				c0.39-0.07,0.98-0.08,1.62-0.05s1.31,0.1,2.07,0.19c5.87,0.69,11.72,1.37,17.54,2.05c2.91,0.34,5.81,0.68,8.71,1.02
				c2.87,0.33,5.72,0.68,8.56,1.1c5.68,0.83,11.32,1.86,16.93,2.95c5.61,1.1,11.19,2.27,16.75,3.41c2.79,0.56,5.57,1.11,8.34,1.66
				c2.77,0.54,5.66,1.05,8.56,1.34c2.91,0.29,5.89,0.39,8.93,0.04c3.02-0.36,6.17-1.18,8.99-2.95c2.83-1.74,5.06-4.54,6.23-7.51
				c0.38-0.73,0.51-1.49,0.76-2.24l0.33-1.13l0.2-1.18l0.18-1.18c0.03-0.4,0.03-0.82,0.05-1.22c0.01-0.41,0.02-0.82,0.01-1.23
				l-0.15-1.25c-0.18-1.66-0.79-3.29-1.54-4.77c-0.41-0.72-0.88-1.41-1.35-2.07c-0.53-0.59-1.03-1.26-1.61-1.78
				c-2.28-2.18-4.87-3.68-7.46-4.88c-2.6-1.2-5.23-2.08-7.86-2.82c-2.63-0.73-5.25-1.34-7.86-1.84c-5.22-1.02-10.37-1.72-15.43-2.37
				c-5.05-0.67-10.06-1.22-14.72-2.15c-0.59-0.11-1.14-0.25-1.71-0.38l-1.82-0.44c-1.23-0.3-2.44-0.56-3.66-0.83
				c-2.42-0.5-4.81-1-7.2-1.49c-4.74-0.95-9.41-1.89-14.02-2.82c-4.57-0.96-9.09-1.93-13.3-3.14c-2.11-0.64-3.88-1.28-5.42-2.35
				c-0.75-0.51-1.44-1.1-1.81-1.61c-0.45-0.64-0.21-0.4-0.28-0.46c0,0.01-0.01,0.03-0.01,0.03c0.01-0.03,0.01-0.05,0.04-0.08
				l0.13-0.2c0.1-0.14,0.23-0.29,0.38-0.45c0.31-0.31,0.7-0.63,1.13-0.92c0.87-0.58,1.89-1.05,2.94-1.37
				c0.52-0.16,1.05-0.29,1.57-0.37c0.23-0.05,0.6-0.08,0.92-0.12l0.99-0.11c1.32-0.15,2.62-0.3,3.92-0.44
				c5.2-0.59,10.28-1.16,15.23-1.72c9.9-1.12,19.27-2.17,28.08-3.17c2.2-0.24,4.38-0.52,6.48-0.71s4.19-0.34,6.25-0.48
				c4.12-0.28,8.12-0.51,11.98-0.82C636.1,190.65,643.3,189.8,649.78,187.77z"/>
		</g>
	</g>
</g>
</svg>
