<?xml version="1.0" encoding="utf-8"?>
<!-- Generator: Adobe Illustrator 26.5.0, SVG Export Plug-In . SVG Version: 6.00 Build 0)  -->
<svg version="1.1" id="Layer_1" xmlns="http://www.w3.org/2000/svg" xmlns:xlink="http://www.w3.org/1999/xlink" x="0px" y="0px"
	 viewBox="0 0 807.99 405.59" style="enable-background:new 0 0 807.99 405.59;" xml:space="preserve">
<style type="text/css">
	.st0{fill:#E3B793;}
	.st1{fill:#231F20;}
</style>
<g>
	<g>
		<path class="st0" d="M62.14,170.32c48-5,154,19,178,19s128.1-0.64,128.1-0.64c8.83,0.73,34.87-2.6,40.94-7.19
			c0,0,27.73-14.58,48.85-23.28s41.57-11.94,53.81-12.94c16.64-1.36,35.88-9.76,49.22-19.03c13.15-9.14,23.66-18.18,34.6-29.88
			c7.39-7.9,21.43-20.99,32.72-12.74c8.53,6.23,7.1,22.2-3.23,36.15c-1.2,1.63-2.51,3.26-3.9,4.9
			c-16.1,19.25-57.06,49.24-56.58,50.15c0.34,0.73,17.88,0.59,22.18-0.02c18.11-2.56,34.76-8.25,52.31-12.92
			c10.72-2.85,27.89-6.84,33.34,6.44c8.28,20.17-18.2,31.35-52.87,39.67c-25.37,6.09-35.95,4.15-52.71,4.53
			c1.59,1.54,7.85,10.83,9.77,15.96c4.37,11.69,2.97,22.75-1.22,29.2c-8.03,12.36-15.53,15.13-32.33,14.65
			c-0.42-0.01-0.85-0.07-1.28-0.1c-2.96,7.89-6.02,14.12-16.35,18.11c-11.34,4.38-22.51,0.71-32.16-5.19
			c-26.16,2.86-48.52-5.58-62.16-15.55s-18.22-23.41-26.69-25.41l-12.39-0.81c-8.29,0.49-23.88,0.13-23.88,0.13
			s-188.1,20.8-272.1,30.8"/>
		<g>
			<g>
				<path class="st1" d="M605.03,168.46c-5.35,1.3-11.36,2.6-18.02,3.56c-1.51,0.24-3.19,0.31-4.95,0.39
					c-1.75,0.07-3.55,0.12-5.39,0.14c-0.92,0.01-1.85,0.01-2.78,0.02c-0.77,0-1.54-0.01-2.33-0.01c-0.07,0-0.09,0-0.13-0.01
					c-0.01-0.01,0.03-0.04,0.05-0.05c0.21-0.17,0.43-0.35,0.65-0.52c2.15-1.73,4.35-3.49,6.6-5.29c4.49-3.61,9.16-7.38,13.93-11.35
					c4.77-3.98,9.66-8.15,14.58-12.6c4.91-4.47,9.89-9.16,14.64-14.5c1.2-1.33,2.3-2.74,3.43-4.16c1.13-1.41,2.28-2.81,3.32-4.39
					c2.11-3.09,3.96-6.44,5.39-10.04c1.42-3.6,2.44-7.47,2.68-11.56l0.07-1.54c0-0.52-0.04-1.04-0.06-1.56
					c-0.01-1.04-0.2-2.1-0.37-3.16c-0.44-2.1-1.11-4.26-2.37-6.19c-0.54-1.01-1.37-1.86-2.12-2.75c-0.88-0.77-1.76-1.59-2.72-2.16
					c-1.9-1.24-4.17-2.09-6.49-2.39c-2.33-0.33-4.65-0.08-6.81,0.46c-2.17,0.54-4.17,1.4-6.05,2.39c-3.77,2-7.05,4.57-10.13,7.32
					c-3.08,2.73-5.89,5.83-8.6,8.66c-5.53,5.74-11.42,11.23-17.72,16.38c-3.15,2.58-6.4,5.07-9.74,7.49
					c-3.36,2.44-6.7,4.76-10.23,6.85c-7.06,4.19-14.62,7.75-22.51,10.42c-3.94,1.33-7.97,2.43-12.04,3.21
					c-2.03,0.4-4.08,0.71-6.13,0.9c-1,0.12-2.12,0.21-3.21,0.31l-3.27,0.35c-17.39,2.08-34.68,6.48-50.97,13.4
					c-8.1,3.41-16.03,7.13-23.9,10.93c-7.86,3.82-15.64,7.73-23.35,11.77l-0.04,0.02l-0.32,0.21c-0.82,0.53-1.91,1.1-3.13,1.54
					c-1.2,0.47-2.5,0.85-3.79,1.23c-2.63,0.71-5.32,1.29-8.04,1.8c-5.44,0.97-10.95,1.7-16.41,2.06c-1.37,0.1-2.72,0.15-4.07,0.19
					l-1.99,0.01l-0.96-0.04l-0.48-0.02l-0.39-0.02h-0.34c-2.79,0.02-5.56,0.04-8.34,0.06c-5.55,0.04-11.06,0.08-16.55,0.12
					c-21.95,0.17-43.38,0.34-64.01,0.5c-10.31,0.09-20.42,0.18-30.29,0.26c-2.47,0.02-4.92,0.04-7.36,0.07
					c-1.24,0.04-2.39-0.04-3.56-0.09c-1.17-0.07-2.33-0.08-3.51-0.19c-2.37-0.24-4.72-0.49-7.05-0.73c-2.34-0.3-4.67-0.6-6.97-0.9
					c-18.47-2.58-35.84-5.46-51.85-7.81c-16.01-2.37-30.65-4.38-43.64-5.76c-1.62-0.18-3.22-0.36-4.79-0.53
					c-1.57-0.14-3.12-0.29-4.63-0.43c-3.03-0.27-5.96-0.54-8.76-0.79c-2.81-0.18-5.51-0.35-8.08-0.52
					c-1.29-0.08-2.54-0.16-3.77-0.24c-1.23-0.06-2.43-0.08-3.59-0.12c-4.66-0.11-8.81-0.31-12.43-0.14c-1.81,0.05-3.47,0.09-5,0.13
					c-0.76,0.03-1.49,0.03-2.18,0.07c-0.69,0.07-1.35,0.13-1.97,0.19c-4.95,0.49-7.55,0.84-7.52,1.04c0.03,0.19,2.67,0.19,7.6,0.04
					c0.62-0.02,1.27-0.04,1.96-0.06c0.69,0.02,1.42,0.03,2.18,0.05c1.52,0.03,3.18,0.07,4.97,0.11c3.59-0.01,7.71,0.34,12.34,0.6
					c1.16,0.08,2.35,0.12,3.56,0.23c1.22,0.11,2.47,0.22,3.74,0.34c2.56,0.23,5.23,0.47,8.02,0.72c2.79,0.31,5.69,0.64,8.71,0.98
					c1.51,0.17,3.04,0.34,4.6,0.52c1.56,0.2,3.15,0.41,4.76,0.62c12.91,1.62,27.48,3.85,43.44,6.43
					c15.96,2.55,33.26,5.61,51.82,8.38c2.33,0.32,4.67,0.65,7.03,0.97c2.38,0.27,4.78,0.53,7.2,0.8c1.22,0.12,2.47,0.15,3.72,0.23
					c1.25,0.07,2.51,0.15,3.71,0.12c2.44,0,4.89-0.01,7.36-0.01c9.87-0.01,19.98-0.03,30.29-0.04c20.63-0.04,42.06-0.09,64.01-0.14
					c5.49-0.01,11-0.03,16.55-0.04c2.77-0.01,5.55-0.02,8.34-0.02h0.17c0.01,0-0.11-0.01,0.01,0l0.14,0.01l0.56,0.03l1.13,0.06h2.19
					c1.44-0.04,2.88-0.08,4.3-0.18c5.7-0.36,11.34-1.08,17-2.07c2.82-0.52,5.65-1.11,8.48-1.86c1.42-0.41,2.84-0.82,4.27-1.37
					c1.43-0.52,2.9-1.2,4.43-2.24l-0.35,0.23c7.65-3.97,15.42-7.85,23.23-11.61c7.82-3.75,15.7-7.42,23.67-10.75
					c15.82-6.67,32.64-10.92,49.53-12.9l3.16-0.33c1.06-0.1,2.08-0.18,3.22-0.3c2.24-0.21,4.44-0.54,6.62-0.96
					c4.36-0.83,8.62-1.99,12.77-3.38c8.3-2.79,16.18-6.49,23.59-10.87c3.71-2.19,7.26-4.65,10.65-7.11c3.41-2.47,6.76-5.02,10-7.67
					c6.49-5.29,12.56-10.94,18.22-16.81c2.86-2.99,5.44-5.83,8.32-8.38c2.84-2.54,5.84-4.86,9-6.53c3.14-1.68,6.5-2.67,9.5-2.25
					c1.5,0.2,2.92,0.71,4.21,1.56c0.69,0.4,1.17,0.93,1.75,1.39c0.45,0.58,1,1.07,1.34,1.75c1.62,2.52,2.09,5.88,1.9,9.18
					c-0.19,3.32-1.04,6.67-2.29,9.82c-1.25,3.16-2.9,6.15-4.8,8.94c-0.91,1.4-2.01,2.73-3.08,4.07c-1.06,1.34-2.11,2.68-3.24,3.93
					c-4.48,5.05-9.37,9.67-14.19,14.06c-4.84,4.38-9.67,8.52-14.4,12.46c-4.73,3.95-9.36,7.7-13.84,11.3
					c-2.24,1.8-4.44,3.57-6.6,5.31c-0.87,0.71-1.73,1.41-2.58,2.11c-1.05,0.86-2.07,1.73-2.97,2.58l-0.54,0.62
					c-0.11,0.11-0.15,0.2-0.19,0.29l-0.12,0.28c-0.12,0.2-0.08,0.34-0.08,0.49l0.01,0.43l0.02,0.75v0.19v0.11v0.06
					c-0.07,0.05,0.16,0-0.15,0.13c0.06,0.2,0.11,0.29,0.18,0.41c0.39,0.25,0.6,0.56,0.96,0.89l0.26,0.26
					c0.09,0.08,0.28,0.13,0.41,0.2c0.16,0.06,0.27,0.14,0.46,0.18l0.61,0.11c1.67,0.25,3.69,0.28,5.56,0.32
					c1.15,0.01,2.29,0.01,3.42,0.02c0.96-0.01,1.91-0.02,2.85-0.03c1.88-0.03,3.72-0.08,5.54-0.16c1.81-0.09,3.63-0.16,5.5-0.45
					c6.89-1.01,13.07-2.37,18.52-3.71c9.77-2.32,21.35-5.93,34.65-9.46c3.31-0.86,6.69-1.65,10.17-2.11
					c3.45-0.44,7.04-0.59,10.32,0.17c1.64,0.36,3.15,1.01,4.47,1.89c1.29,0.92,2.4,2.07,3.22,3.54c0.81,1.42,1.44,3.24,1.82,4.96
					c0.37,1.74,0.38,3.5,0.03,5.2c-0.67,3.41-3.02,6.57-6.12,9.22c-1.54,1.34-3.28,2.54-5.12,3.66c-1.83,1.13-3.78,2.16-5.8,3.12
					c-4.03,1.93-8.34,3.59-12.8,5.1c-4.45,1.51-9.07,2.86-13.79,4.12c-9.47,2.5-19.24,4.8-29.35,5.86
					c-5.05,0.54-10.18,0.74-15.44,0.73c-2.65-0.02-5.31-0.03-7.99-0.05h-2.37l-3.7,0.03c-2.61,0.04-5.22,0.08-7.84,0.11l2.3,2.5
					c0.77,0.84,1.52,1.63,2.21,2.42c0.56,0.75,1.24,1.52,1.71,2.25c0.48,0.7,1.14,1.62,1.27,1.84c0.99,1.48,1.94,3,2.85,4.54
					c0.9,1.54,1.76,3.11,2.48,4.65c0.37,0.78,0.63,1.48,0.93,2.35c0.3,0.82,0.55,1.65,0.79,2.5c0.96,3.36,1.42,6.85,1.41,10.33
					c-0.06,3.47-0.62,6.95-1.92,10.06c-0.64,1.58-1.44,2.88-2.53,4.44c-1.03,1.5-2.14,2.9-3.31,4.22c-2.39,2.57-5.12,4.62-8.34,5.79
					c-3.19,1.25-6.83,1.67-10.54,1.87c-1.86,0.09-3.75,0.09-5.66,0.06l-1.04-0.02l-1.45-0.1l-1.44-0.09
					c-0.11,0.01-0.26-0.05-0.34,0.01l-0.13,0.34l-0.26,0.68l-1.03,2.69c-0.18,0.43-0.34,0.88-0.53,1.3
					c-1.43,3.44-3.2,6.47-5.75,8.78c-2.49,2.32-5.81,3.98-9.23,5.11c-1.7,0.54-3.45,0.94-5.23,1.1c-1.77,0.21-3.58,0.18-5.37,0.01
					c-3.6-0.33-7.18-1.39-10.62-2.84c-1.72-0.76-3.41-1.58-5.07-2.51c-0.42-0.22-0.82-0.48-1.23-0.71l-1.17-0.69
					c-0.39-0.37-0.91-0.16-1.38-0.16l-3.31,0.28l-1.44,0.12l-1.44,0.05l-2.89,0.1c-0.96,0.01-1.93-0.03-2.89-0.04
					c-0.96-0.02-1.93-0.01-2.89-0.1l-2.89-0.19c-0.96-0.06-1.92-0.21-2.88-0.3c-1.92-0.18-3.82-0.54-5.72-0.83
					c-3.78-0.74-7.55-1.58-11.21-2.79c-7.33-2.33-14.36-5.62-20.69-9.84c-3.18-2.11-6.05-4.48-8.71-7.18
					c-2.67-2.68-5.1-5.63-7.55-8.68c-1.23-1.52-2.48-3.07-3.83-4.59c-1.34-1.53-2.85-3.04-4.65-4.37c-0.48-0.32-0.92-0.66-1.43-0.94
					l-1.58-0.8l-0.87-0.29l-0.93-0.3c-0.08-0.02-0.18-0.06-0.3-0.09l-0.34-0.02l-0.47-0.03l-0.73-0.05
					c-1.94-0.12-3.87-0.25-5.8-0.37l-2.89-0.18l-1.45-0.09l-0.72-0.05l-0.27-0.02c-0.12-0.01-0.22,0-0.35,0.01l-0.4,0.02
					c-1.87,0.11-3.78,0.16-5.68,0.2c-3.81,0.07-7.62,0.07-11.42,0.05c-1.9-0.02-3.79-0.05-5.68-0.07l-0.45-0.01
					c-0.19-0.02-0.5,0.05-0.57,0.05l-0.71,0.08l-1.41,0.16l-2.82,0.33c-3.76,0.44-7.49,0.87-11.21,1.3
					c-7.44,0.86-14.8,1.72-22.08,2.57c-14.55,1.7-28.75,3.35-42.5,4.96c-54.98,6.44-102.71,12.12-136.69,16.32
					c-16.99,2.1-30.53,3.83-39.83,5.1c-4.65,0.63-8.23,1.15-10.65,1.55c-2.42,0.39-3.68,0.66-3.66,0.79
					c0.01,0.14,1.29,0.13,3.73-0.02s6.05-0.44,10.71-0.85c9.33-0.83,22.92-2.16,39.94-3.9c34.04-3.49,81.83-8.61,136.86-14.63
					c13.76-1.51,27.97-3.07,42.53-4.67c7.28-0.8,14.65-1.62,22.09-2.44c3.72-0.41,7.46-0.83,11.22-1.24l2.82-0.31l1.41-0.16
					l0.71-0.08c0.37-0.03-0.01-0.02,0.39-0.01c1.91,0.03,3.82,0.07,5.73,0.1c3.83,0.05,7.68,0.07,11.56,0.01
					c1.94-0.03,3.89-0.07,5.86-0.17l0.37-0.02c0.02,0,0.01,0,0.05,0l0.72,0.05l1.45,0.1l2.89,0.2c1.93,0.13,3.86,0.26,5.8,0.39
					l0.73,0.05l0.31,0.02c0.02,0,0.01,0,0.04,0.01c0.07,0.03,0.26,0.1,0.43,0.15l0.51,0.16l1.01,0.51c0.34,0.17,0.66,0.45,1,0.66
					c2.65,1.95,5.02,5.03,7.47,8.06c2.45,3.06,5,6.19,7.86,9.1c2.84,2.91,6.07,5.6,9.47,7.87c6.78,4.57,14.23,8.07,21.99,10.57
					c3.87,1.29,7.86,2.21,11.86,3c2.02,0.32,4.02,0.71,6.06,0.9c1.01,0.11,2.03,0.26,3.04,0.33l3.06,0.21
					c1.02,0.09,2.04,0.09,3.06,0.11l3.06,0.05l3.06-0.1c1.02-0.02,2.04-0.07,3.05-0.17l2.65-0.22c0,0,0.01,0,0.02,0l0.07,0.04
					c0.45,0.26,0.88,0.53,1.34,0.78c1.8,1.02,3.66,1.94,5.57,2.78c3.84,1.63,7.94,2.88,12.23,3.29c2.13,0.21,4.31,0.24,6.46,0
					c2.16-0.19,4.28-0.67,6.34-1.31c2.07-0.65,3.98-1.49,5.9-2.5c1.9-1,3.73-2.28,5.36-3.76c1.64-1.49,3.06-3.22,4.23-5.05
					s2.1-3.74,2.9-5.62l0.6-1.47c0-0.01,0.01-0.01,0.02-0.01l0.41,0.01c1.99,0.04,3.99,0.05,6.02-0.05c1.01-0.04,2.02-0.1,3.05-0.21
					c1.02-0.07,2.04-0.23,3.07-0.39c1.02-0.13,2.06-0.41,3.08-0.62c1.02-0.32,2.05-0.55,3.05-0.97c2.03-0.72,3.95-1.79,5.72-3.01
					c1.79-1.22,3.32-2.7,4.76-4.2c1.38-1.54,2.66-3.15,3.79-4.8c1.11-1.56,2.33-3.52,3.11-5.48c1.64-3.93,2.28-8.06,2.37-12.12
					c0.02-4.06-0.51-8.08-1.6-11.9c-0.26-0.96-0.55-1.91-0.89-2.84c-0.3-0.9-0.69-1.94-1.12-2.84c-0.84-1.83-1.77-3.5-2.74-5.15
					c-0.97-1.64-1.97-3.24-3.02-4.82l-0.3-0.45c3.39,0.02,6.74,0.04,10.07,0.06c5.36,0.02,10.75-0.19,16.02-0.75
					c10.57-1.1,20.62-3.49,30.21-6.02c4.81-1.28,9.53-2.67,14.14-4.23s9.1-3.29,13.42-5.36c2.16-1.03,4.27-2.14,6.31-3.4
					c2.04-1.24,4.01-2.61,5.84-4.19s3.54-3.36,4.95-5.42c1.41-2.05,2.49-4.42,2.99-6.92c0.51-2.49,0.46-5.06-0.03-7.42
					c-0.27-1.17-0.56-2.33-0.98-3.4c-0.19-0.55-0.39-1.09-0.66-1.64c-0.23-0.55-0.52-1.08-0.82-1.61c-1.18-2.11-2.92-3.96-4.89-5.34
					c-2-1.35-4.2-2.23-6.36-2.71c-4.34-0.98-8.47-0.74-12.3-0.25c-3.84,0.51-7.43,1.37-10.83,2.26
					C626.07,162.56,614.6,166.16,605.03,168.46z"/>
			</g>
		</g>
	</g>
	<g>
		<g>
			<g>
				<g>
					<path class="st1" d="M496.27,221.02c0.46,0.36-0.09,1.56-0.81,3.61c-0.71,2.05-1.5,5.05-1.08,8.85
						c0.39,3.76,1.92,8.29,4.71,12.65c2.79,4.36,6.83,8.61,11.8,12.17c2.48,1.77,6.01,4,10.5,6.06c4.48,2.05,9.94,3.95,16,4.99
						c3.05,0.48,6.15,0.73,9.51,0.78c3.31,0.04,6.68-0.03,9.94-0.56c3.24-0.56,6.35-1.59,8.99-3.49c2.65-1.86,4.91-4.36,6.89-7.07
						c0.48-0.69,0.96-1.38,1.44-2.06c0.43-0.68,0.85-1.34,1.2-2.05c0.71-1.41,1.32-2.89,1.74-4.41c0.89-3.02,1.21-6.13,1.2-9.11
						c-0.08-5.96-1.72-11.37-3.8-15.52c-2.13-4.19-4.32-7.44-5.8-9.71c-1.5-2.26-2.36-3.53-2.24-3.62s1.21,0.99,2.95,3.1
						c1.72,2.12,4.16,5.22,6.6,9.43c2.42,4.24,4.41,9.84,4.75,16.24c0.14,3.19-0.08,6.56-0.96,9.92c-0.41,1.69-1.03,3.35-1.79,4.98
						c-0.37,0.82-0.84,1.61-1.31,2.39c-0.48,0.73-0.97,1.47-1.45,2.2c-2.01,2.91-4.4,5.77-7.45,8.02c-3.03,2.3-6.73,3.62-10.32,4.31
						c-3.61,0.67-7.17,0.81-10.6,0.84c-3.39,0.03-6.88-0.18-10.12-0.64c-6.51-1.01-12.33-2.94-17.13-5.07
						c-4.81-2.14-8.62-4.5-11.3-6.42c-5.36-3.84-9.81-8.5-12.88-13.45c-3.07-4.96-4.67-10.12-4.84-14.66
						c-0.2-4.55,1.24-8.19,2.64-10.22C494.68,221.45,495.91,220.73,496.27,221.02z"/>
				</g>
			</g>
		</g>
		<g>
			<g>
				<g>
					<path class="st1" d="M495.98,246.85c-0.03,0.56-0.97,0.89-2.59,1.21s-3.95,0.62-6.68,1.27c-2.69,0.68-5.93,1.75-8.29,4.02
						c-1.17,1.12-2.04,2.55-2.47,4.25c-0.33,1.45-0.06,3.4,0.58,5.34c0.64,1.94,1.84,4.6,3.8,7.49c1.94,2.88,4.55,6.08,7.88,8.77
						c1.68,1.34,3.63,2.71,5.6,3.98c1.98,1.29,4.07,2.48,6.24,3.54c4.33,2.12,9.06,3.65,13.76,3.96c2.35,0.21,4.67,0,6.9-0.37
						c0.55-0.12,1.1-0.23,1.65-0.34c0.55-0.12,1.07-0.32,1.6-0.47c1.06-0.29,2.08-0.71,3.07-1.11c3.95-1.64,7.07-4.06,9.13-6.64
						c2.09-2.57,3.31-5.11,4.2-6.83c0.87-1.74,1.37-2.73,1.52-2.67c0.13,0.05-0.09,1.13-0.7,3.01c-0.32,0.93-0.72,2.07-1.31,3.35
						c-0.57,1.28-1.32,2.71-2.34,4.17c-1.02,1.46-2.32,2.94-3.93,4.29c-1.6,1.34-3.48,2.55-5.55,3.55c-1.04,0.48-2.1,0.98-3.25,1.36
						c-0.57,0.19-1.13,0.43-1.72,0.59c-0.59,0.15-1.19,0.31-1.8,0.46c-2.43,0.53-5.01,0.86-7.61,0.74
						c-5.22-0.13-10.45-1.63-15.15-3.76c-2.36-1.07-4.62-2.26-6.74-3.57c-2.14-1.3-4.12-2.6-6.05-4.07
						c-3.86-2.98-6.74-6.38-8.94-9.53c-2.2-3.16-3.63-6.16-4.41-8.55c-0.76-2.38-1.28-4.97-0.65-7.76c0.63-2.49,2.02-4.72,3.74-6.29
						c1.71-1.59,3.62-2.6,5.42-3.31c1.81-0.72,3.54-1.05,5.1-1.32c3.14-0.44,5.67-0.31,7.39-0.03
						C495.1,245.87,496.01,246.35,495.98,246.85z"/>
				</g>
			</g>
		</g>
		<g>
			<g>
				<g>
					<path class="st1" d="M539.88,222.36c0.91-1.37,2.04-0.62,3.39,0.35c0.68,0.48,2.19,1.82,3.42,3.16s2.18,2.66,1.9,3.01
						c-0.29,0.35-1.76-0.33-3.33-1.18c-1.57-0.85-3.25-1.85-3.9-2.32C540.05,224.45,539.03,223.63,539.88,222.36z"/>
				</g>
			</g>
		</g>
		<g>
			<g>
				<g>
					<path class="st1" d="M544.72,225.83c-0.74-0.8,0.01-1.5,1.04-2.16c0.51-0.34,1.85-0.95,3.11-1.24
						c1.26-0.31,2.42-0.32,2.49-0.02c0.07,0.29-0.89,0.82-1.9,1.46c-1.03,0.62-2.08,1.36-2.51,1.65
						C546.06,226.08,545.42,226.58,544.72,225.83z"/>
				</g>
			</g>
		</g>
		<g>
			<g>
				<g>
					<path class="st1" d="M535.79,236.67c-0.34,2.48-0.77,5.98-1.48,10.06c-0.09,0.51-0.19,1.02-0.28,1.55
						c-0.11,0.51-0.22,1.03-0.33,1.55c-0.12,0.49-0.26,1-0.39,1.42c-0.03,0.06-0.06,0.12-0.08,0.19l-0.03,0.1l-0.01,0.05l-0.01,0.03
						l0.36,0.24c0.2,0.12-0.78-0.43-0.38-0.2l-0.01,0.02l-0.02,0.03l-0.04,0.06L533,251.9l-0.17,0.26c-0.98,1.36-2.8,2.48-5,3.11
						c-1.1,0.32-2.28,0.53-3.49,0.61c-0.61,0.04-1.21,0.06-1.82,0.03c-0.62-0.05-1.24-0.11-1.87-0.16
						c-2.49-0.35-4.96-1.22-7.25-2.56c-4.59-2.68-8.35-7.17-10.85-12.07c-2.56-4.91-3.68-10.27-3.9-15.32
						c-0.2-5.06,0.39-9.77,1.08-13.73c0.71-3.97,1.5-7.22,1.98-9.51s0.66-3.63,0.32-3.75c-0.3-0.11-1.05,1.02-2.04,3.18
						c-0.99,2.16-2.23,5.35-3.35,9.39c-1.1,4.04-2.06,8.97-2.12,14.51c-0.01,2.76,0.23,5.67,0.83,8.61
						c0.59,2.95,1.59,5.91,2.95,8.74c2.7,5.63,6.88,10.93,12.51,14.33c2.8,1.69,5.94,2.84,9.12,3.3c0.8,0.07,1.59,0.15,2.38,0.22
						c0.8,0.05,1.6,0.03,2.38-0.02c1.57-0.11,3.1-0.37,4.58-0.8c2.93-0.84,5.84-2.42,7.76-5.04c0.22-0.34,0.44-0.67,0.65-1.01
						c0.19-0.42,0.37-0.84,0.54-1.27c0.22-0.7,0.38-1.32,0.53-1.94c0.12-0.59,0.25-1.18,0.37-1.75c0.1-0.56,0.19-1.11,0.29-1.65
						c0.72-4.29,1.1-7.8,1.39-10.33c0.34-2.52,0.76-6.04,1.21-10.27c0.22-2.11,0.46-4.4,0.71-6.83c0.24-2.44,0.5-4.96,0.84-7.57
						c0.69-5.23,1.85-10.78,2.99-16.69c0.54-2.96,1.06-6.05,1.03-9.35c0.02-1.64-0.22-3.34-0.6-5c-0.25-0.82-0.48-1.65-0.82-2.43
						c-0.37-0.78-0.64-1.53-1.19-2.35c-1.01-1.56-2.24-2.72-3.48-3.74c-1.25-1.02-2.55-1.83-3.84-2.6c-2.59-1.49-5.2-2.66-7.72-3.66
						c-5.05-1.98-9.79-3.3-13.84-4.25c-4.06-0.94-7.44-1.45-9.82-1.63c-2.38-0.19-3.82,0.08-3.79,0.43
						c0.03,0.34,1.23,0.66,3.47,1.35c2.22,0.68,5.43,1.62,9.29,2.89c3.85,1.28,8.38,2.88,13.09,4.99c2.35,1.06,4.74,2.27,7.01,3.69
						c2.23,1.41,4.45,3.13,5.61,5.02c0.28,0.41,0.51,1.06,0.76,1.62c0.24,0.58,0.38,1.2,0.56,1.8c0.24,1.25,0.42,2.52,0.37,3.87
						c-0.02,2.69-0.52,5.53-1.08,8.39c-1.17,5.72-2.43,11.51-3.16,16.94c-0.36,2.73-0.63,5.34-0.86,7.75
						c-0.24,2.42-0.47,4.71-0.67,6.81C536.42,230.67,536.05,234.16,535.79,236.67z"/>
				</g>
			</g>
		</g>
		<g>
			<g>
				<g>
					<path class="st1" d="M502.04,198.8c0.76,0.26,0.59,1.86-0.35,4.23c-1.04,2.29-2.86,5.29-5.3,8.17
						c-0.3,0.37-0.64,0.81-1.05,1.28c-0.42,0.46-0.89,0.97-1.4,1.53c-1,1.13-2.26,2.35-3.6,3.66c-2.73,2.58-5.97,5.38-9.19,7.83
						c-6.41,4.93-12.56,8.57-12.82,8.18c-0.24-0.36,5.4-4.66,11.34-9.97c2.98-2.64,6-5.56,8.53-8.19c1.25-1.33,2.41-2.55,3.34-3.66
						c0.48-0.55,0.92-1.05,1.31-1.5c0.39-0.46,0.7-0.88,0.99-1.23c2.34-2.76,4.02-5.49,5.35-7.41
						C500.39,199.75,501.29,198.54,502.04,198.8z"/>
				</g>
			</g>
		</g>
	</g>
</g>
</svg>
