<?xml version="1.0" encoding="utf-8"?>
<!-- Generator: Adobe Illustrator 26.5.0, SVG Export Plug-In . SVG Version: 6.00 Build 0)  -->
<svg version="1.1" id="Layer_1" xmlns="http://www.w3.org/2000/svg" xmlns:xlink="http://www.w3.org/1999/xlink" x="0px" y="0px"
	 viewBox="0 0 807.99 405.59" style="enable-background:new 0 0 807.99 405.59;" xml:space="preserve">
<style type="text/css">
	.st0{fill:#E3B793;}
	.st1{fill:none;}
	.st2{fill:#231F20;}
</style>
<g>
	<g>
		<path class="st0" d="M96.14,274.24c84-10,272.1-30.8,272.1-30.8s15.59,0.18,23.88-0.13c24.98-0.94,41.73,8.52,41.73,8.52
			c7.45,7.5,12.5,13.71,21.22,18.97c4.75,2.87,14.1,8.36,19.42,9.92c6.12,1.8,16.24,4.26,24.78,4.58c3.44,1.63,7.03,2.65,10.14,3.07
			c8.69,1.19,18.41-0.19,24.26-7.36c2.89-3.54,3.88-8.06,4.17-12.55c5.39-0.99,10.47-3.43,13.58-7.99c4-5.85,6.26-14.9,5.06-21.87
			c-0.64-3.7-3.15-6.99-6.15-9.76c1.63-0.82,3.23-1.71,4.79-2.75c9.67-6.45,13.11-17.66,9.67-30.76c-1.3-4.97-4.64-9.39-8.78-12.6
			c1.99-2.34,3.49-5.06,4.21-8.1c1.39-5.83-2.02-15.07-5.36-19.54c-6.05-8.11-14.93-11.83-24.3-14.88
			c-10.26-3.34-22.01-3.04-32.8-2.63c-0.11,0-0.21,0.01-0.32,0.02c-4.24-2.49-8.95-3.65-13.18-4.4c-18.3-3.26-41.94,5.44-52.3,20.58
			c-2.39,3.49-5.41,8.47-7.35,17.87c-0.22,0.22-0.44,0.44-0.65,0.66c-3.03,3.08-6.08,7.19-10,9.07l-4.8,0.03
			c-6.07,4.59-32.11,7.92-40.94,7.19c0,0-104.1,0.64-128.1,0.64s-130-24-178-19"/>
		<g>
			<path class="st1" d="M96.14,274.24c84-10,272.1-30.8,272.1-30.8s15.59,0.18,23.88-0.13c24.98-0.94,41.73,8.52,41.73,8.52
				c7.45,7.5,12.5,13.71,21.22,18.97c4.75,2.87,14.1,8.36,19.42,9.92c6.12,1.8,16.24,4.26,24.78,4.58
				c3.44,1.63,7.03,2.65,10.14,3.07c8.69,1.19,18.41-0.19,24.26-7.36c2.89-3.54,3.88-8.06,4.17-12.55
				c5.39-0.99,10.47-3.43,13.58-7.99c4-5.85,6.26-14.9,5.06-21.87c-0.64-3.7-3.15-6.99-6.15-9.76c1.63-0.82,3.23-1.71,4.79-2.75
				c9.67-6.45,13.11-17.66,9.67-30.76c-1.3-4.97-4.64-9.39-8.78-12.6c1.99-2.34,3.49-5.06,4.21-8.1c1.39-5.83-2.02-15.07-5.36-19.54
				c-6.05-8.11-14.93-11.83-24.3-14.88c-10.26-3.34-22.01-3.04-32.8-2.63c-0.11,0-0.21,0.01-0.32,0.02
				c-4.24-2.49-8.95-3.65-13.18-4.4c-18.3-3.26-41.94,5.44-52.3,20.58c-2.39,3.49-5.41,8.47-7.35,17.87
				c-0.22,0.22-0.44,0.44-0.65,0.66c-3.03,3.08-6.08,7.19-10,9.07l-4.8,0.03c-6.07,4.59-32.11,7.92-40.94,7.19
				c0,0-104.1,0.64-128.1,0.64s-130-24-178-19"/>
			<g>
				<path class="st2" d="M560.34,191.59c0.64,1.11,1.19,2.32,1.61,3.61c0.2,0.62,0.36,1.35,0.53,2.11c0.19,0.74,0.32,1.51,0.44,2.28
					c0.49,3.1,0.68,6.47,0.04,9.86c-0.58,3.39-1.95,6.8-4.3,9.73c-1.14,1.49-2.57,2.8-4.17,3.98c-0.41,0.29-0.79,0.6-1.23,0.87
					l-0.66,0.42l-0.83,0.49c-1.93,1.12-4.11,2.15-6.19,3.23c1.37,1.32,2.94,2.71,4.27,4.1c0.17,0.17,0.34,0.35,0.5,0.53l0.38,0.44
					c0.14,0.16,0.27,0.33,0.4,0.49c0.26,0.33,0.51,0.67,0.75,1.02c0.94,1.38,1.62,2.85,1.88,4.34c0.56,3.44,0.22,7.33-0.78,11.11
					c-0.5,1.89-1.18,3.77-2.03,5.55c-0.44,0.88-0.9,1.76-1.44,2.58c-0.52,0.86-1.06,1.52-1.7,2.22c-1.26,1.36-2.85,2.46-4.63,3.33
					c-0.89,0.44-1.83,0.8-2.81,1.11c-0.24,0.08-0.49,0.15-0.74,0.22l-0.37,0.1l-0.09,0.03l-0.19,0.04l-0.4,0.09
					c-1.05,0.24-2.2,0.47-3.35,0.7c-0.1,1.32-0.2,2.74-0.33,4c-0.07,0.62-0.17,1.22-0.27,1.82c-0.22,1.2-0.53,2.36-0.95,3.46
					c-0.41,1.1-0.94,2.12-1.59,3.05c-0.31,0.47-0.68,0.9-1.09,1.34c-0.38,0.46-0.82,0.86-1.26,1.26c-1.76,1.61-3.96,2.77-6.33,3.6
					c-2.4,0.79-5,1.19-7.66,1.27c-2.65,0.05-5.46-0.15-8.05-0.71c-1.32-0.29-2.64-0.65-3.93-1.11c-0.65-0.23-1.29-0.47-1.92-0.74
					l-0.47-0.2l-0.61-0.27c-0.3-0.12-0.56-0.29-0.89-0.38l-1.07-0.06c-5.68-0.28-11.54-1.38-17.37-2.78
					c-1.46-0.35-2.92-0.74-4.37-1.14c-0.71-0.2-1.5-0.41-2.13-0.62c-0.63-0.19-1.3-0.45-1.97-0.72c-2.68-1.09-5.4-2.5-8.09-3.96
					c-2.7-1.47-5.38-3.03-8.06-4.64c-2.61-1.55-5.03-3.3-7.37-5.25c-2.33-1.96-4.55-4.12-6.76-6.38c-2.27-2.34-4.55-4.68-6.83-7.03
					c-0.15-0.13-0.26-0.3-0.44-0.4l-0.52-0.28l-0.66-0.34l-1.15-0.56c-0.77-0.36-1.54-0.7-2.31-1.02c-1.55-0.65-3.11-1.24-4.68-1.79
					c-3.16-1.09-6.37-1.98-9.63-2.72c-6.52-1.43-13.19-2.23-19.88-2.29l-5,0.08c-1.6,0.06-3.21,0.09-4.82,0.12
					c-3.23,0.05-6.47,0.07-9.71,0.07l-4.86-0.01l-2.43-0.01l-1.21-0.01c-0.16-0.03-0.85,0.03-0.92,0.05l-0.6,0.07
					c-3.22,0.37-6.45,0.74-9.66,1.11c-6.43,0.74-12.85,1.48-19.23,2.22c-25.52,2.97-50.52,5.89-74.19,8.64
					c-47.33,5.56-89.32,10.59-119.46,14.39c-15.07,1.9-27.17,3.49-35.5,4.68s-12.87,1.98-12.83,2.29c0.04,0.28,4.66,0.02,13.06-0.7
					s20.55-1.88,35.67-3.41c30.23-3.05,72.28-7.53,119.65-12.69c23.68-2.6,48.69-5.34,74.22-8.14c6.38-0.71,12.8-1.42,19.23-2.13
					c3.22-0.36,6.44-0.71,9.66-1.07l0.6-0.07c0.3-0.03-0.02-0.01,0.29-0.01l1.22,0.01l2.44,0.02l4.89,0.03
					c3.26,0.01,6.52,0,9.8-0.04c1.64-0.03,3.28-0.05,4.93-0.11l4.76-0.06c6.32,0.08,12.61,0.86,18.74,2.22
					c3.06,0.72,6.08,1.56,9.03,2.58c1.47,0.52,2.93,1.07,4.35,1.68c0.71,0.3,1.42,0.61,2.1,0.94l1.02,0.5l0.39,0.2
					c0.01,0,0.01,0,0.02,0.01c2.2,2.27,4.39,4.54,6.58,6.8c2.25,2.32,4.6,4.61,7.13,6.75c2.53,2.13,5.25,4.09,8.07,5.77
					c2.72,1.64,5.46,3.24,8.25,4.77c2.8,1.52,5.61,2.99,8.66,4.24c0.77,0.31,1.55,0.61,2.39,0.87c0.83,0.27,1.53,0.46,2.31,0.67
					c1.51,0.42,3.02,0.82,4.54,1.19c6.07,1.46,12.16,2.63,18.42,2.95c0.1,0.01,0.02,0,0.04,0l0,0l0.14,0.06l0.97,0.42
					c0.74,0.31,1.49,0.6,2.24,0.86c1.51,0.53,3.04,0.96,4.6,1.3c3.17,0.67,6.23,0.88,9.37,0.83c3.12-0.09,6.26-0.56,9.28-1.55
					c3-1.03,5.9-2.56,8.28-4.73c0.59-0.54,1.18-1.08,1.69-1.7c0.53-0.58,1.06-1.21,1.52-1.89c0.93-1.34,1.67-2.79,2.22-4.26
					s0.95-2.95,1.21-4.42c0.13-0.73,0.25-1.46,0.33-2.19v-0.04c-0.01,0-0.01,0,0.07-0.02l0.62-0.17c0.31-0.08,0.61-0.17,0.91-0.27
					c1.21-0.38,2.41-0.84,3.57-1.41c2.31-1.12,4.48-2.62,6.26-4.53c0.88-0.93,1.72-2.02,2.34-3.04c0.67-1.03,1.23-2.09,1.76-3.16
					c1.03-2.14,1.81-4.33,2.39-6.54c1.15-4.42,1.61-8.95,0.87-13.47c-0.43-2.49-1.51-4.68-2.77-6.52c-0.31-0.46-0.64-0.91-0.98-1.33
					c-0.17-0.21-0.34-0.43-0.51-0.63l-0.09-0.11l-0.02-0.01l0.02-0.01l0.63-0.38l0.76-0.49c0.51-0.32,1-0.71,1.5-1.06
					c1.97-1.46,3.76-3.12,5.21-5c2.97-3.72,4.69-8.07,5.38-12.21c0.75-4.16,0.51-8.12-0.07-11.68c-0.14-0.89-0.3-1.77-0.52-2.61
					c-0.19-0.84-0.38-1.67-0.66-2.55c-0.55-1.71-1.28-3.27-2.1-4.67c-0.86-1.5-1.91-2.96-3.13-4.35c-0.61-0.7-1.27-1.38-1.97-2.04
					l-0.16-0.15l0.03-0.03c0,0,0-0.01,0,0l0.13-0.2l0.33-0.52c0.22-0.35,0.43-0.71,0.63-1.08c0.81-1.47,1.47-3.09,1.92-4.82
					c0.48-1.84,0.57-3.8,0.43-5.6c-0.14-1.83-0.48-3.62-0.95-5.39c-0.47-1.77-1.08-3.52-1.83-5.25c-0.76-1.73-1.62-3.46-2.78-5.17
					c-0.59-0.89-1.22-1.63-1.85-2.43c-0.67-0.75-1.33-1.53-2.08-2.23c-1.45-1.44-3.05-2.79-4.77-3.98
					c-3.43-2.41-7.26-4.28-11.23-5.83c-1.99-0.78-4.01-1.49-6.05-2.16c-2.12-0.69-4.33-1.26-6.56-1.7
					c-4.47-0.86-9.07-1.25-13.71-1.36c-2.32-0.06-4.66-0.05-7.01-0.01c-1.17,0.03-2.35,0.06-3.53,0.09
					c-0.92,0.03-1.84,0.06-2.77,0.1l-0.22-0.12c-0.33-0.17-0.66-0.35-0.99-0.51c-0.67-0.33-1.34-0.63-2.03-0.91
					c-1.37-0.56-2.76-1.04-4.17-1.44c-2.84-0.79-5.6-1.36-8.6-1.7c-5.92-0.73-11.97-0.29-17.89,0.95
					c-5.92,1.25-11.75,3.32-17.27,6.25c-5.47,2.98-10.64,6.86-14.9,11.82c-0.52,0.63-1,1.3-1.5,1.95c-0.5,0.66-1,1.31-1.42,1.98
					c-0.89,1.34-1.74,2.75-2.5,4.21c-1.52,2.92-2.68,6.02-3.57,9.15c-0.22,0.78-0.43,1.57-0.62,2.36c-0.1,0.39-0.19,0.79-0.27,1.19
					l-0.07,0.33c0,0,0,0-0.01,0.01l-1.15,1.2l-1.6,1.75c-1.04,1.15-2.06,2.23-3.11,3.2c-0.53,0.47-1.05,0.93-1.59,1.32
					c-0.27,0.21-0.54,0.38-0.81,0.56l-0.53,0.32c-0.01,0.01-0.03,0.01-0.03,0.01h-0.16l-1.18,0.01l-2.71,0.02l-0.58,0.01
					c-0.09,0.01-0.2-0.02-0.28,0.03l-0.25,0.15l-1.02,0.62c-0.34,0.19-0.46,0.33-0.82,0.47c-0.63,0.27-1.21,0.59-1.92,0.82
					c-2.73,1.01-5.75,1.77-8.78,2.41c-6.09,1.25-12.37,2.11-18.63,2.59l-2.34,0.15l-2.33,0.09h-2.28l-1.1-0.05l-0.27-0.01l-0.3-0.01
					h-0.23h-0.6l-9.64,0.07c-6.43,0.05-12.86,0.09-19.28,0.14c-12.84,0.1-25.64,0.19-38.31,0.29c-12.66,0.1-25.19,0.2-37.48,0.3
					c-6.14,0.05-12.23,0.11-18.24,0.16c-1.5,0.01-3,0.02-4.49,0.04c-1.44-0.07-2.88-0.13-4.31-0.2c-1.43-0.05-2.9-0.27-4.35-0.39
					c-1.45-0.16-2.89-0.27-4.34-0.46c-11.55-1.41-22.8-3.23-33.61-4.87c-10.81-1.67-21.21-3.26-31.09-4.71
					c-19.76-2.88-37.48-5.07-52.35-6.28c-3.71-0.38-7.26-0.52-10.6-0.75c-1.67-0.1-3.3-0.2-4.87-0.3c-1.58-0.04-3.1-0.09-4.58-0.13
					c-2.95-0.06-5.69-0.18-8.21-0.16c-2.52,0.06-4.82,0.12-6.89,0.17c-1.03,0.03-2.01,0.06-2.92,0.09
					c-0.91,0.06-1.77,0.16-2.56,0.24c-1.58,0.16-2.92,0.31-3.99,0.44c-2.15,0.26-3.27,0.47-3.26,0.61c0.01,0.15,1.15,0.22,3.3,0.23
					c1.08,0,2.41-0.02,3.98-0.05c0.79-0.02,1.63-0.04,2.54-0.06c0.91,0.03,1.88,0.06,2.9,0.09c2.05,0.05,4.33,0.11,6.83,0.17
					c2.5,0.09,5.21,0.32,8.13,0.49c1.46,0.09,2.97,0.18,4.53,0.28c1.56,0.15,3.17,0.3,4.83,0.45c3.32,0.33,6.83,0.57,10.52,1.03
					c14.76,1.58,32.36,4.08,52.04,7.23c9.84,1.62,20.2,3.32,31,5.09c10.81,1.77,22.02,3.69,33.72,5.23
					c1.46,0.21,2.95,0.34,4.43,0.51c1.49,0.14,2.95,0.37,4.49,0.44c1.54,0.08,3.08,0.16,4.62,0.24c1.5,0,3,0,4.5,0
					c6.02-0.01,12.1-0.02,18.25-0.03c12.29-0.03,24.82-0.05,37.49-0.08c12.67-0.04,25.48-0.07,38.33-0.11
					c6.42-0.02,12.86-0.04,19.29-0.06l9.64-0.03h0.6c0.13,0,0.14,0,0.07,0l0.33,0.02l1.31,0.07c0.86,0.02,1.69,0.01,2.54,0.01
					l2.49-0.08l2.46-0.15c6.54-0.48,12.96-1.34,19.36-2.63c3.2-0.67,6.38-1.44,9.6-2.62c0.8-0.26,1.63-0.67,2.45-1.04
					c0.39-0.15,0.86-0.47,1.26-0.71c-0.05,0.01-0.01,0-0.01,0l2-0.01l1.18-0.01l1-0.01c0.19-0.02,0.4,0.03,0.58-0.04l0.51-0.26
					l0.51-0.26c0.17-0.09,0.36-0.18,0.43-0.23l0.6-0.36c0.39-0.25,0.78-0.51,1.14-0.78c0.74-0.53,1.4-1.11,2.04-1.69
					c1.26-1.16,2.39-2.37,3.46-3.54l1.57-1.71l0.77-0.81l1.33-1.35c0.08-0.05,0.1-0.15,0.11-0.25l0.06-0.28l0.13-0.57l0.18-0.84
					c0.08-0.37,0.16-0.73,0.25-1.09c0.17-0.72,0.36-1.44,0.57-2.15c0.81-2.84,1.84-5.57,3.16-8.11c0.66-1.27,1.4-2.49,2.2-3.71
					c0.4-0.63,0.83-1.19,1.26-1.74c0.43-0.56,0.84-1.13,1.29-1.68c3.7-4.29,8.32-7.79,13.3-10.5c5.01-2.66,10.36-4.56,15.77-5.7
					c5.4-1.13,10.89-1.51,16.09-0.87c2.57,0.29,5.27,0.83,7.72,1.52c1.24,0.35,2.43,0.76,3.58,1.23c0.58,0.23,1.14,0.49,1.68,0.76
					l0.81,0.42l1.54,0.87l0.89-0.05l0.77-0.03l0.88-0.03l1.75-0.06c1.16-0.03,2.31-0.06,3.46-0.09c2.29-0.05,4.54-0.05,6.76,0
					c4.43,0.1,8.72,0.47,12.78,1.25c2.03,0.4,3.97,0.91,5.89,1.52c1.98,0.64,3.91,1.32,5.76,2.04c3.71,1.44,7.13,3.13,10.08,5.19
					c1.49,1.02,2.83,2.16,4.05,3.37c0.63,0.59,1.18,1.24,1.74,1.87c0.51,0.66,1.08,1.32,1.5,1.95c1.77,2.66,3.07,5.79,3.87,8.76
					s1.12,5.93,0.53,8.19c-0.33,1.27-0.81,2.46-1.42,3.58c-0.15,0.28-0.31,0.55-0.47,0.82l-0.25,0.4l-0.17,0.25l-0.32,0.44
					c-0.83,1.14-1.83,2.26-2.7,3.34c0.71,0.57,1.42,1.14,2.12,1.71c0.35,0.28,0.7,0.57,1.04,0.85c0.16,0.14,0.34,0.29,0.49,0.43
					l0.36,0.33c0.58,0.54,1.12,1.1,1.62,1.67C558.81,189.25,559.66,190.41,560.34,191.59z"/>
			</g>
		</g>
	</g>
	<g>
		<g>
			<g>
				<g>
					<path class="st2" d="M489.18,254.63c0.4,0.39,0.21,1.09,0.03,2.09c-0.08,0.45-0.21,1.24-0.4,2.01
						c-0.11,0.39-0.17,0.82-0.28,1.26c-0.1,0.44-0.21,0.91-0.29,1.4c-0.37,1.95-0.62,4.28-0.34,6.76c0.18,1.23,0.47,2.5,0.96,3.76
						s1.19,2.48,2.05,3.65c0.87,1.16,2.19,2.68,4.12,4.15c1.91,1.49,4.39,2.94,7.27,4.13c2.89,1.18,6.11,2.1,9.53,2.5
						c3.42,0.41,6.96,0.51,10.24-0.13c1.64-0.31,3.21-0.79,4.67-1.43c1.44-0.66,2.75-1.49,3.92-2.41c0.56-0.49,1.13-0.95,1.61-1.48
						c0.51-0.51,0.97-1.02,1.36-1.56c0.81-1.07,1.41-2.19,1.89-3.27c0.94-2.17,1.39-4.12,1.7-5.47c0.31-1.36,0.49-2.14,0.64-2.13
						c0.14,0.01,0.26,0.81,0.23,2.23c-0.04,1.42-0.21,3.5-0.99,5.96c-0.39,1.22-0.94,2.54-1.76,3.84c-0.39,0.66-0.88,1.29-1.39,1.9
						c-0.49,0.64-1.09,1.21-1.69,1.81c-1.25,1.15-2.69,2.2-4.31,3.07c-1.62,0.84-3.39,1.49-5.23,1.95c-3.68,0.93-7.56,1-11.27,0.72
						c-3.73-0.28-7.4-1.15-10.62-2.35c-3.24-1.21-6.1-2.77-8.38-4.47c-2.3-1.67-3.97-3.51-5.05-4.96c-1.08-1.46-1.98-3.04-2.6-4.67
						s-0.98-3.28-1.15-4.86c-0.28-3.18,0.22-5.99,0.94-8.17c0.16-0.56,0.37-1.06,0.57-1.53c0.21-0.47,0.38-0.93,0.6-1.32
						c0.45-0.81,0.77-1.43,1.26-2.03C487.98,254.47,488.84,254.28,489.18,254.63z"/>
				</g>
			</g>
		</g>
		<g>
			<g>
				<g>
					<path class="st2" d="M491.13,225.52c0.15,0.23,0.07,0.55-0.06,0.97s-0.32,0.97-0.52,1.75c-0.39,1.7-1.14,4.13-1.6,7.17
						c-0.47,3.03-0.71,6.72,0,10.61c0.74,3.86,2.43,7.93,6.05,10.3c1.83,1.29,4.65,2.77,8.26,4.07c3.63,1.27,7.99,2.44,12.81,3.35
						c2.4,0.47,4.92,0.89,7.5,1.26c2.59,0.36,5.26,0.75,7.85,0.94c2.62,0.17,5.26,0.15,7.81-0.23c2.53-0.41,5.01-1.12,7.07-2.42
						c0.51-0.33,1.03-0.65,1.48-1.05c0.49-0.35,0.89-0.8,1.32-1.21c0.42-0.42,0.76-0.92,1.14-1.37c0.34-0.52,0.7-1.01,1.01-1.54
						c1.28-2.1,2.23-4.35,2.95-6.56c1.45-4.43,1.89-8.78,1.51-12.34c-0.15-1.76-0.72-3.26-1.38-4.55c-0.65-1.29-1.39-2.32-2.02-3.16
						c-1.27-1.67-2.1-2.54-1.98-2.66c0.09-0.1,1.11,0.55,2.65,2.09c0.76,0.78,1.65,1.77,2.48,3.09c0.83,1.3,1.62,2.99,1.94,4.95
						c0.68,3.83,0.47,8.48-0.85,13.28c-0.66,2.4-1.57,4.87-2.89,7.25c-0.31,0.6-0.69,1.18-1.05,1.77c-0.44,0.57-0.83,1.18-1.32,1.72
						c-0.5,0.53-0.98,1.09-1.56,1.55c-0.54,0.51-1.15,0.93-1.76,1.35c-2.47,1.66-5.33,2.59-8.18,3.14
						c-2.86,0.51-5.75,0.62-8.56,0.52c-2.84-0.13-5.52-0.45-8.16-0.75c-2.64-0.31-5.23-0.68-7.72-1.11
						c-4.98-0.83-9.58-1.96-13.5-3.27c-3.91-1.34-7.13-2.96-9.36-4.53c-0.55-0.41-1.11-0.75-1.64-1.26c-0.54-0.47-1.07-0.95-1.5-1.5
						l-0.68-0.79l-0.58-0.84l-0.56-0.84l-0.47-0.87c-1.23-2.33-1.93-4.73-2.33-7.02c-0.75-4.61-0.29-8.77,0.52-12.09
						c0.81-3.35,2.04-5.83,3.06-7.47c0.56-0.87,1.22-1.47,1.77-1.71C490.63,225.24,491,225.31,491.13,225.52z"/>
				</g>
			</g>
		</g>
		<g>
			<g>
				<g>
					<path class="st2" d="M486.18,216.29c0.54-0.15,1.14,0.68,2.04,2.09c0.91,1.4,2.15,3.4,4.2,5.35c0.51,0.48,1.08,0.98,1.68,1.41
						c0.58,0.42,1.23,0.82,1.97,1.2c1.46,0.75,3.18,1.41,5.07,1.95c3.77,1.1,8.16,1.85,12.81,2.29c2.32,0.24,5.5,0.47,9.28,0.59
						c1.88,0.07,3.96,0.1,6.07,0.1c2.1-0.03,4.31-0.18,6.59-0.5c4.54-0.65,9.34-2.01,13.84-4.26c2.24-1.12,4.47-2.44,6.4-3.95
						c1.94-1.53,3.64-3.34,4.97-5.36c1.33-2.02,2.3-4.24,2.9-6.51c0.59-2.28,0.83-4.59,0.83-6.81c0.03-2.23-0.25-4.38-0.59-6.38
						c-0.2-1-0.37-1.98-0.63-2.86c-0.25-0.89-0.57-1.73-0.91-2.53c-1.4-3.17-3.24-5.45-4.58-6.95c-1.34-1.51-2.2-2.28-2.1-2.41
						c0.08-0.11,1.12,0.44,2.71,1.78c1.58,1.34,3.73,3.54,5.49,6.84c0.43,0.83,0.83,1.72,1.18,2.69c0.35,0.98,0.58,1.97,0.86,3.01
						c0.49,2.08,0.91,4.34,1,6.75c0.11,2.4-0.02,4.95-0.57,7.52c-0.56,2.57-1.55,5.14-2.99,7.51c-1.43,2.37-3.3,4.52-5.44,6.32
						c-2.17,1.81-4.48,3.27-6.87,4.56c-4.8,2.58-9.97,4.2-14.88,5.02c-2.45,0.41-4.85,0.63-7.12,0.7c-2.26,0.05-4.32,0.06-6.27,0.01
						c-3.89-0.07-7.17-0.27-9.6-0.52c-4.85-0.47-9.47-1.25-13.62-2.54c-2.07-0.64-4.03-1.44-5.79-2.45
						c-0.88-0.5-1.71-1.07-2.47-1.71c-0.74-0.62-1.36-1.25-1.93-1.9c-2.27-2.59-3.34-5.21-3.76-7.02
						C485.53,217.48,485.71,216.41,486.18,216.29z"/>
				</g>
			</g>
		</g>
		<g>
			<g>
				<g>
					<path class="st2" d="M479.73,142.18c-0.28-0.43,1.05-1.84,4.12-3.33c3.05-1.49,7.87-2.83,13.87-3.18
						c5.81-0.33,12.82-0.73,20.7-0.04c3.93,0.37,8.08,1.03,12.27,2.34c4.07,1.3,8.24,2.76,12.39,4.84c2.06,1.05,4.47,2.4,6.94,4.33
						c2.48,1.94,5.01,4.36,7.21,7.58c2.11,3.28,3.68,7.01,4.68,11.24c0.46,2.12,0.82,4.36,0.65,6.8c-0.16,2.5-1.02,4.96-2.38,7.08
						c-1.35,2.14-3.12,3.88-4.92,5.44c-0.88,0.78-1.86,1.52-2.86,2.27c-1.03,0.69-2.05,1.41-3.15,1.98
						c-2.17,1.24-4.47,2.22-6.84,3.02c-2.37,0.8-4.8,1.44-7.25,1.9c-4.91,0.96-9.91,1.36-14.85,1.57c-4.93,0.17-9.88,0.27-14.8-0.12
						c-4.9-0.41-9.81-1.3-14.24-3.31c-2.21-0.99-4.3-2.26-6.1-3.85c-1.8-1.58-3.29-3.53-4.24-5.68c-0.94-2.15-1.37-4.45-1.26-6.68
						c0.09-2.22,0.68-4.33,1.54-6.19c0.85-1.88,2-3.51,3.25-4.92c1.24-1.42,2.59-2.64,3.98-3.65c2.75-2.08,5.65-3.37,8.26-4.2
						c2.61-0.8,4.95-1.17,6.85-1.38c3.83-0.38,5.97-0.17,5.97-0.05c0.01,0.18-2.14,0.27-5.85,0.92c-3.65,0.7-9.13,1.93-14.19,6.05
						c-1.27,1-2.48,2.18-3.58,3.53c-1.11,1.34-2.09,2.86-2.79,4.54c-1.45,3.33-1.7,7.42,0.04,11.01c1.68,3.59,5.19,6.31,9.23,7.99
						c4.06,1.72,8.66,2.48,13.35,2.77c4.7,0.28,9.55,0.1,14.41-0.16c4.84-0.29,9.66-0.76,14.29-1.75c2.32-0.48,4.58-1.11,6.75-1.88
						c2.18-0.76,4.26-1.69,6.17-2.82c0.98-0.53,1.87-1.18,2.77-1.8c0.85-0.67,1.72-1.32,2.54-2.08c1.65-1.46,3.1-2.97,4.11-4.62
						c1.02-1.64,1.6-3.44,1.69-5.21c0.12-1.83-0.19-3.76-0.62-5.59c-0.9-3.67-2.4-7.12-4.18-9.81c-1.85-2.66-4.12-4.84-6.3-6.52
						c-2.19-1.69-4.37-2.91-6.26-3.87c-3.79-1.91-7.82-3.33-11.72-4.59c-3.8-1.2-7.66-1.84-11.38-2.23
						c-7.46-0.74-14.34-0.51-20.14-0.46c-5.65,0.06-10.12,0.89-13.15,1.72C481.69,141.97,480.01,142.64,479.73,142.18z"/>
				</g>
			</g>
		</g>
		<g>
			<g>
				<g>
					<path class="st2" d="M509.51,156.01c-0.06-1.63,2.64-1.73,5.92-1.54c1.64,0.08,5.59,0.62,9.03,1.46
						c3.45,0.83,6.4,1.86,6.32,2.3c-0.09,0.45-3.2,0.22-6.67-0.01c-3.47-0.25-7.3-0.41-8.87-0.48
						C512.1,157.56,509.57,157.53,509.51,156.01z"/>
				</g>
			</g>
		</g>
		<g>
			<g>
				<g>
					<path class="st2" d="M524.58,157.13c-1.2-1.1-0.66-1.7,0.08-2.35c0.36-0.33,1.42-0.94,2.48-1.21c1.06-0.29,2.09-0.23,2.22,0.21
						c0.13,0.43-0.45,1.07-1.04,1.78c-0.6,0.69-1.22,1.43-1.51,1.69C526.22,157.77,525.71,158.16,524.58,157.13z"/>
				</g>
			</g>
		</g>
		<g>
			<path class="st0" d="M422.94,185c1.15-18.65,5.72-26.36,9.04-31.22c10.37-15.14,34-23.84,52.3-20.58
				c12.58,2.24,29.49,8.03,25.51,42.3c-1.02,8.81,0.84,19.02,0.61,27.88c-0.13,5.01-2.7,12.48-10.19,14.91
				c-6.96,2.26-19.13-2.64-22.68-10.46c-4.86-10.73-9.92-32.85-8.1-42.52"/>
			<g>
				<g>
					<path class="st2" d="M512.57,160.03c-0.03-0.42-0.06-0.86-0.09-1.32c-0.08-0.46-0.15-0.94-0.23-1.44
						c-0.17-1-0.33-2.08-0.55-3.22c-0.32-1.14-0.66-2.34-1.01-3.61c-0.43-1.25-1.02-2.54-1.58-3.9c-0.37-0.64-0.74-1.3-1.12-1.97
						s-0.77-1.36-1.29-1.98c-0.49-0.64-0.99-1.29-1.5-1.95c-0.59-0.59-1.19-1.19-1.8-1.81c-2.53-2.34-5.68-4.27-9.11-5.61
						c-3.45-1.34-7.06-2.19-10.83-2.73c-3.82-0.61-7.76-0.62-11.68-0.29c-1.97,0.13-3.92,0.47-5.87,0.78
						c-1.93,0.43-3.88,0.79-5.77,1.39c-1.91,0.51-3.77,1.21-5.62,1.87c-0.92,0.36-1.81,0.77-2.71,1.15
						c-0.91,0.37-1.78,0.81-2.65,1.26c-1.76,0.84-3.42,1.86-5.06,2.85c-0.82,0.51-1.59,1.08-2.37,1.62l-1.16,0.82l-1.1,0.89
						c-2.98,2.31-5.55,5-7.7,7.82c-0.52,0.72-1.05,1.43-1.54,2.14c-0.46,0.71-0.91,1.43-1.34,2.15c-0.86,1.44-1.6,2.92-2.23,4.37
						c-1.28,2.91-2.13,5.75-2.72,8.36c-1.16,5.25-1.46,9.6-1.5,12.61c-0.03,3.02,0.2,4.71,0.54,4.73c0.35,0.02,0.71-1.64,1.26-4.55
						c0.55-2.91,1.3-7.1,2.76-11.99c1.46-4.88,3.88-10.33,8.02-15.3c2.02-2.45,4.42-4.81,7.21-6.83l1.03-0.79l1.09-0.72
						c0.74-0.47,1.45-0.98,2.21-1.43c0.77-0.44,1.54-0.87,2.32-1.31c0.77-0.46,1.6-0.8,2.41-1.2s1.62-0.79,2.47-1.11
						c0.84-0.34,1.67-0.7,2.53-1.02c1.73-0.58,3.44-1.21,5.22-1.65c1.75-0.53,3.56-0.84,5.34-1.21c1.8-0.26,3.59-0.56,5.39-0.65
						c3.58-0.26,7.15-0.22,10.52,0.34c3.42,0.51,6.77,1.32,9.68,2.47c2.93,1.15,5.45,2.72,7.48,4.58c0.49,0.48,0.97,0.96,1.44,1.43
						c0.41,0.53,0.81,1.05,1.2,1.56c0.43,0.49,0.74,1.05,1.05,1.6c0.32,0.54,0.63,1.08,0.93,1.6c0.46,1.14,0.96,2.2,1.34,3.26
						c0.32,1.09,0.62,2.13,0.9,3.11c0.2,1.01,0.35,1.97,0.52,2.85c0.08,0.44,0.16,0.87,0.23,1.28c0.04,0.42,0.07,0.82,0.1,1.2
						c0.07,1.53,0.31,3.35,0.2,5.47c-0.02,1.06-0.03,2.18-0.05,3.36c-0.1,1.19-0.21,2.44-0.32,3.74c-0.12,1.36-0.24,2.78-0.37,4.25
						c-0.11,1.53-0.14,3.1-0.13,4.71c0.02,3.2,0.25,6.53,0.48,9.94c0.23,3.4,0.49,6.9,0.47,10.39c0,0.92-0.02,1.64-0.12,2.44
						c-0.1,0.78-0.25,1.57-0.47,2.35c-0.44,1.54-1.08,3.04-1.97,4.34s-2,2.41-3.3,3.24c-0.31,0.23-0.66,0.4-1.01,0.57
						c-0.34,0.2-0.71,0.33-1.08,0.47c-0.37,0.17-0.72,0.25-1.08,0.34c-0.34,0.12-0.73,0.15-1.11,0.2c-3.11,0.36-6.66-0.46-9.73-1.87
						c-1.56-0.69-3.01-1.58-4.31-2.59c-1.29-1.01-2.46-2.15-3.29-3.42c-0.25-0.3-0.4-0.64-0.58-0.96l-0.27-0.49l-0.26-0.58
						c-0.35-0.78-0.7-1.55-1.01-2.34c-0.65-1.57-1.22-3.15-1.76-4.71c-1.08-3.12-1.98-6.17-2.75-9.07
						c-0.79-2.89-1.42-5.63-1.95-8.16c-1.05-5.05-1.62-9.24-1.85-12.15c-0.23-2.91-0.15-4.57-0.5-4.64
						c-0.31-0.08-1.01,1.56-1.3,4.62c-0.3,3.05-0.16,7.44,0.54,12.69c0.35,2.63,0.83,5.48,1.48,8.48c0.64,3.01,1.42,6.19,2.42,9.47
						c0.5,1.64,1.04,3.31,1.67,5c0.29,0.85,0.65,1.69,1,2.55l0.27,0.65l0.36,0.7c0.25,0.46,0.46,0.95,0.77,1.37
						c1.11,1.78,2.56,3.27,4.14,4.57c1.58,1.31,3.31,2.41,5.17,3.28c3.69,1.76,7.8,2.91,12.3,2.5c0.56-0.06,1.12-0.12,1.7-0.28
						c0.57-0.13,1.15-0.28,1.66-0.49c0.52-0.19,1.05-0.38,1.55-0.65c0.51-0.24,1.01-0.5,1.48-0.81c1.92-1.19,3.56-2.8,4.82-4.6
						c1.26-1.81,2.13-3.79,2.72-5.82c0.3-1.01,0.5-2.04,0.64-3.08c0.15-1.03,0.18-2.14,0.18-3.04c0.04-3.79-0.22-7.38-0.45-10.79
						c-0.23-3.41-0.45-6.63-0.47-9.63c-0.01-1.5,0.02-2.94,0.11-4.31c0.12-1.43,0.23-2.81,0.34-4.13c0.11-1.38,0.21-2.71,0.31-3.97
						c0.01-1.27,0.02-2.48,0.03-3.62C512.96,163.72,512.69,161.7,512.57,160.03z"/>
				</g>
			</g>
		</g>
		<g>
			<g>
				<g>
					<path class="st2" d="M470.17,181.19c-0.41,1.57-2.1,1.16-4.08,0.37c-0.99-0.39-3.33-1.57-5.08-3.24
						c-0.88-0.82-1.59-1.78-1.89-2.63c-0.31-0.86-0.14-1.47,0.07-1.49c0.24-0.03,0.5,0.37,1.02,0.81c0.51,0.45,1.28,0.97,2.19,1.45
						c1.8,0.97,4.02,1.71,4.91,2.06C469.07,179.22,470.55,179.71,470.17,181.19z"/>
				</g>
			</g>
		</g>
	</g>
</g>
</svg>
