<?xml version="1.0" encoding="utf-8"?>
<!-- Generator: Adobe Illustrator 26.5.0, SVG Export Plug-In . SVG Version: 6.00 Build 0)  -->
<svg version="1.1" id="Layer_1" xmlns="http://www.w3.org/2000/svg" xmlns:xlink="http://www.w3.org/1999/xlink" x="0px" y="0px"
	 viewBox="0 0 1366 768" style="enable-background:new 0 0 1366 768;" xml:space="preserve">
<style type="text/css">
	.st0{fill:#E4B893;}
	.st1{fill:#3F3B3C;}
	.st2{display:none;}
	.st3{display:inline;}
	.st4{fill:none;}
</style>
<g id="Layer_1_00000087381622980110568960000003695357008978708927_">
	<g>
		<path class="st0" d="M-344.66,311.33c88.77-9.25,284.79,35.14,329.18,35.14s236.89-1.19,236.89-1.19
			c16.33,1.35,64.48-4.8,75.71-13.3c16.67-12.62,26.98-59.22,49.46-78.42c43.26-36.95,25.8-92.82,28.5-108.15
			c2.7-15.32,31.79-27.62,50.02,0c29.74,45.06-7.37,106.9,8.11,116.27c61.91-2.86,127.77-43.62,175.24-79.55
			c17.88-13.54,63.35-44.87,80.73-15.08c15.16,25.99-13.41,47.87-33.22,59.28c-19.8,11.4-40.05,23.55-59.74,35.64
			c-10.18,6.25-20.24,12.68-30.06,19.48c-5.09,3.52-22.29,12.73-17.29,21.03c1.92,3.18,4.09,3.89,15.94,3.71
			c21.63-0.34,100.04-14.31,139.97-23.25c16.92-3.79,56.32-6.27,60.12,24.38c4.96,39.98-56.78,36.38-98.69,40.43
			c-22.43,2.17-85.65,9.26-100.49,11.27c-7.15,0.96-14.31,5.18-16.11,9.69s4.51,9.71,10.82,12.51c12.96,5.75,59.12,13.04,80.1,18.36
			c30.19,7.66,115.82,5.86,106.35,47.77c-5.81,25.71-33.31,23.58-53.81,19.68c-32.13-6.12-63.42-13.81-96.07-17.38
			c-16.89-1.84-33.74-4.21-50.65-5.91c-7.17-0.72-10.36,0-12.17,4.51c-1.8,4.51,1.35,8.56,4.96,11.27
			c11.7,8.77,25.91,15.38,38.43,22.95c21.04,12.74,42.73,24.31,63.89,36.76c14.68,8.63,31.55,21.65,21.72,40.38
			c-17.24,32.85-62.76-4.91-82.58-14.47s-79.76-42.81-95.09-45.52c-27.07-4.78-54.59-3.12-81.82-5.5
			c-26.2-2.29-52.3-9.51-75.7-21.59c-19.54-10.09-39.06-27.46-62.39-26.09c-15.32,0.9-44.16,0.25-44.16,0.25
			s-347.85,38.47-503.19,56.96"/>
		<g>
			<g>
				<path class="st1" d="M742.05,343.74c2.78-0.93,5.63-1.93,8.49-3.34c2.87-1.33,5.74-3.06,8.47-5.24
					c2.75-2.13,5.28-4.96,7.22-8.26c1.94-3.29,3.26-7.11,3.66-10.95c0.06-0.48,0.16-0.97,0.18-1.44l0.05-1.44
					c0.01-0.95,0.12-1.94,0.02-2.88c-0.07-0.95-0.14-1.89-0.21-2.85c-0.05-0.95-0.28-1.91-0.41-2.87
					c-0.69-3.83-2.03-7.77-4.23-11.38c-2.16-3.63-5.24-6.79-8.74-9.22c-3.5-2.45-7.38-4.23-11.36-5.44
					c-7.99-2.45-16.33-3.01-24.7-2.66c-4.19,0.21-8.4,0.65-12.66,1.38c-2.12,0.36-4.33,0.85-6.28,1.28
					c-2.01,0.44-4.04,0.88-6.08,1.32c-16.35,3.45-33.64,6.81-51.72,10.05c-18.07,3.23-36.97,6.44-56.52,9.05
					c-4.88,0.64-9.82,1.25-14.72,1.68c-1.22,0.1-2.46,0.23-3.67,0.31c-1.19,0.06-2.39,0.11-3.59,0.17c-2.45,0.07-5,0.07-7.33-0.02
					c-1.14-0.06-2.28-0.15-3.13-0.31c-0.41-0.08-0.78-0.17-0.94-0.25c-0.22-0.07-0.18-0.09-0.2-0.09c0,0.01-0.02-0.03-0.06-0.06
					c-0.05-0.09-0.11-0.13-0.21-0.3c-0.12-0.17-0.13-0.23-0.17-0.3c-0.06-0.07-0.03-0.11-0.07-0.15c-0.05-0.14-0.05-0.23,0.08-0.71
					c0.14-0.45,0.52-1.16,1.09-1.89s1.29-1.51,2.1-2.26c1.63-1.52,3.58-2.98,5.63-4.39c1.03-0.71,2.09-1.4,3.19-2.11
					c1.11-0.71,2.21-1.4,3.45-2.23c2.2-1.5,4.41-3,6.63-4.51c4.42-2.96,8.92-5.89,13.49-8.78c9.1-5.82,18.65-11.36,28.21-17.09
					c9.58-5.71,19.27-11.49,29.06-17.33c4.93-2.93,9.88-5.88,14.86-8.84c5.12-3.06,10.13-6.42,14.92-10.24
					c4.78-3.82,9.38-8.08,13.36-13.15c3.95-5.04,7.38-11.03,8.75-17.98c0.68-3.45,0.8-7.08,0.29-10.61
					c-0.5-3.53-1.6-6.93-3.09-10.05c-1.5-3.05-3.42-6.05-5.84-8.75c-2.49-2.66-5.56-4.91-8.94-6.45c-3.38-1.53-7.02-2.4-10.54-2.6
					c-3.53-0.23-6.98,0.04-10.3,0.57c-6.64,1.15-12.79,3.36-18.67,5.97c-11.71,5.31-22.37,12.23-32.58,19.72
					c-2.49,1.87-4.99,3.74-7.49,5.61c-2.49,1.84-4.98,3.68-7.49,5.5c-5.03,3.63-10.1,7.22-15.26,10.72
					c-10.3,7.01-20.88,13.71-31.73,20.01c-21.71,12.54-44.62,23.56-68.76,30.88c-6.02,1.85-12.14,3.38-18.29,4.67
					c-3.07,0.67-6.17,1.18-9.27,1.7c-3.11,0.43-6.22,0.88-9.34,1.16c-1.56,0.18-3.12,0.29-4.68,0.38l-0.85,0.06
					c-0.02,0.01-0.04-0.01-0.05-0.02c-0.01-0.01-0.03-0.03-0.04-0.05c-0.12-0.32-0.3-0.73-0.4-1.26c-0.24-1.02-0.35-2.33-0.35-3.71
					c0-2.78,0.35-5.84,0.8-8.93c0.45-3.09,1.02-6.24,1.6-9.41c2.36-12.7,4.83-25.82,5.25-39.32c0.21-6.74-0.06-13.57-1.13-20.37
					c-1.06-6.79-2.92-13.54-5.73-19.92c-1.4-3.19-3.03-6.29-4.88-9.24c-0.9-1.48-1.95-2.94-2.99-4.39l-1.69-2.11
					c-0.57-0.7-1.21-1.35-1.82-2.03c-2.51-2.64-5.38-5.03-8.61-6.96c-3.23-1.91-6.82-3.38-10.59-4.09
					c-7.54-1.49-15.58-0.16-22.2,3.81c-0.84,0.47-1.63,1.05-2.43,1.59c-0.76,0.61-1.55,1.18-2.26,1.87
					c-1.46,1.31-2.8,2.81-3.94,4.51c-1.15,1.68-2.13,3.55-2.76,5.61c-0.66,2.06-0.92,4.28-0.96,6.07
					c-0.12,3.69,0.16,6.94,0.37,10.22c0.23,3.21,0.47,6.43,0.7,9.64c0.43,6.36,0.62,12.64,0.42,18.87
					c-0.44,12.42-2.57,24.69-7.49,35.74c-2.43,5.52-5.51,10.73-9.17,15.49c-0.46,0.59-0.9,1.2-1.38,1.78l-1.47,1.7l-1.48,1.7
					l-1.58,1.61l-1.57,1.62c-0.54,0.52-1.11,1.02-1.67,1.53l-3.54,3.22c-5.13,4.73-9.13,10.18-12.69,15.71
					c-3.52,5.56-6.56,11.27-9.41,16.99s-5.51,11.44-8.2,17.06c-2.7,5.61-5.42,11.13-8.47,16.24c-1.53,2.55-3.16,4.96-4.93,7.1
					c-1.78,2.13-3.66,3.98-5.66,5.01c-2.23,1.22-5.02,2.23-7.78,3.11c-2.8,0.88-5.69,1.64-8.6,2.33
					c-11.69,2.7-23.72,4.44-35.59,5.52c-5.92,0.5-11.91,0.87-17.53,0.65l-1.02-0.06c-0.07,0-0.43-0.04-0.82-0.04h-0.65l-2.25,0.02
					l-4.5,0.03c-3,0.02-5.99,0.04-8.98,0.07c-23.89,0.18-47.37,0.36-70.36,0.53c-45.99,0.38-90.03,0.74-131.5,1.09
					c-5.18,0.05-10.33,0.09-15.43,0.14c-1.26,0-2.57,0.04-3.79,0.01c-1.22-0.03-2.44-0.06-3.65-0.09c-2.47-0.17-4.92-0.26-7.39-0.52
					c-9.86-0.88-19.62-2.18-29.18-3.51c-19.13-2.7-37.55-5.62-55.19-8.34c-35.27-5.48-67.45-10.27-95.93-13.79
					c-28.47-3.56-53.25-5.88-73.64-6.97c-20.38-1.17-36.36-0.96-47.17-0.29c-2.7,0.21-5.08,0.4-7.14,0.56
					c-2.05,0.2-3.77,0.46-5.15,0.64c-2.76,0.39-4.16,0.68-4.13,0.86c0.02,0.16,1.47,0.2,4.26,0.13c1.39-0.02,3.12-0.13,5.17-0.17
					c2.05-0.03,4.44-0.06,7.13-0.1c10.79-0.07,26.67,0.29,46.93,1.97c20.26,1.61,44.91,4.4,73.26,8.4
					c28.36,3.96,60.41,9.14,95.62,15c17.61,2.91,36.01,6,55.21,8.89c9.61,1.42,19.41,2.82,29.53,3.79c1.26,0.14,2.54,0.24,3.82,0.32
					c1.29,0.09,2.56,0.2,3.87,0.26c1.31,0.04,2.63,0.08,3.95,0.12c1.3,0.03,2.55,0,3.84,0.01c5.1-0.01,10.25-0.01,15.43-0.02
					c41.48-0.07,85.53-0.15,131.53-0.23c23-0.05,46.48-0.11,70.38-0.17c2.99-0.01,5.98-0.02,8.98-0.02l4.5-0.01l2.26-0.01
					c0.23-0.03,1.26,0.08,2.03,0.11c6.4,0.25,12.51-0.13,18.68-0.62c12.29-1.08,24.55-2.79,36.86-5.59
					c3.08-0.72,6.16-1.52,9.25-2.49c1.55-0.48,3.1-1.02,4.66-1.63c0.78-0.29,1.57-0.66,2.35-0.98c0.8-0.4,1.58-0.72,2.39-1.21
					c0.41-0.24,0.8-0.44,1.22-0.71l1.24-0.85c0.73-0.58,1.45-1.16,2.12-1.77c1.32-1.23,2.52-2.51,3.61-3.84
					c2.18-2.65,4.02-5.4,5.71-8.19c3.34-5.58,6.17-11.28,8.92-16.96s5.41-11.34,8.21-16.9c2.8-5.55,5.74-10.99,9.02-16.12
					c3.3-5.09,6.95-9.93,11.22-13.8l3.56-3.21c0.61-0.57,1.26-1.11,1.85-1.7l1.77-1.8l1.76-1.8l1.66-1.91l1.66-1.91l1.55-2
					c4.12-5.35,7.6-11.22,10.33-17.41c5.53-12.4,7.84-25.94,8.32-39.21c0.23-6.65,0.02-13.28-0.4-19.81
					c-0.23-3.23-0.45-6.47-0.68-9.7c-0.21-3.17-0.43-6.38-0.31-9.15c0.03-1.47,0.22-2.42,0.56-3.48c0.34-1.05,0.87-2.1,1.58-3.08
					c0.7-0.99,1.52-1.94,2.5-2.78c0.95-0.85,2.01-1.63,3.16-2.28c2.26-1.35,4.84-2.22,7.46-2.67c2.63-0.43,5.33-0.35,7.94,0.17
					c5.24,1.07,10.06,4.12,13.96,8.3c0.99,1.03,1.89,2.18,2.79,3.32c0.84,1.2,1.7,2.39,2.48,3.69c1.58,2.56,2.98,5.24,4.18,8.01
					c2.41,5.54,4.02,11.44,4.94,17.51c0.92,6.07,1.17,12.29,0.95,18.53c-0.42,12.53-2.78,25.06-5.19,37.84
					c-0.59,3.21-1.18,6.44-1.67,9.77c-0.48,3.33-0.9,6.72-0.9,10.43c0.02,1.86,0.14,3.81,0.64,5.95c0.26,1.09,0.59,2.12,1.2,3.38
					c0.69,1.44,1.71,2.66,2.84,3.72c1.2,0.92,2.4,2.1,4,1.9c0.37,0.05,0.76,0.03,1.16,0l1.18-0.08l1.48-0.09l2.5-0.16l2.49-0.24
					c6.63-0.62,13.2-1.64,19.67-3s12.87-2.96,19.16-4.87c25.18-7.61,48.72-18.94,70.92-31.74c11.1-6.43,21.88-13.25,32.36-20.37
					c5.25-3.55,10.41-7.2,15.52-10.88c2.56-1.84,5.08-3.71,7.61-5.57c2.49-1.86,4.97-3.72,7.45-5.57
					c9.81-7.2,20.03-13.76,30.7-18.57c2.67-1.17,5.36-2.25,8.06-3.14c2.7-0.86,5.42-1.59,8.11-2.04c5.35-0.85,10.66-0.72,14.86,1.3
					c2.11,0.98,3.98,2.36,5.63,4.09c1.58,1.81,2.95,3.9,4.09,6.23c2.2,4.59,2.91,9.45,1.94,14.21c-0.94,4.77-3.48,9.4-6.78,13.58
					c-3.3,4.2-7.35,7.99-11.69,11.44s-8.99,6.58-13.79,9.44c-4.95,2.94-9.87,5.87-14.77,8.78c-9.84,5.87-19.57,11.67-29.18,17.4
					c-9.6,5.76-19.15,11.3-28.4,17.22c-4.63,2.93-9.21,5.91-13.71,8.93c-2.22,1.51-4.44,3.02-6.64,4.53
					c-2.02,1.33-4.44,2.81-6.71,4.39c-2.31,1.59-4.61,3.3-6.83,5.36c-1.11,1.04-2.2,2.18-3.24,3.52c-1.02,1.34-2.03,2.92-2.7,4.96
					c-0.67,2-0.9,4.65-0.1,6.98c0.2,0.57,0.39,1.15,0.67,1.65l0.4,0.76c0.14,0.25,0.26,0.42,0.39,0.63c0.52,0.8,1.24,1.76,2.26,2.6
					c0.98,0.82,2.15,1.47,3.15,1.82c1.03,0.4,1.93,0.59,2.78,0.76c1.68,0.3,3.12,0.38,4.54,0.46c2.8,0.11,5.38,0.1,8.02,0.02
					c1.35-0.06,2.69-0.13,4.04-0.19c1.32-0.09,2.6-0.22,3.9-0.33c5.17-0.46,10.19-1.08,15.16-1.73c19.86-2.67,38.81-5.91,56.98-9.17
					c18.17-3.27,35.52-6.66,52.02-10.16c4.1-0.86,8.3-1.89,11.97-2.54c3.81-0.67,7.63-1.07,11.39-1.26
					c7.5-0.34,14.83,0.22,21.21,2.19c6.38,1.94,11.6,5.43,14.46,10.24c1.46,2.4,2.4,5.09,2.92,7.92c0.09,0.72,0.29,1.41,0.31,2.14
					c0.06,0.72,0.11,1.44,0.16,2.15c0.09,0.72-0.02,1.39-0.01,2.09l-0.02,1.03c0,0.34-0.09,0.66-0.13,0.99
					c-0.26,2.66-1.12,5.03-2.35,7.13c-1.24,2.1-2.84,3.98-4.84,5.53c-1.97,1.57-4.15,2.93-6.5,4.02c-2.3,1.15-4.77,2.02-7.18,2.84
					c-10.56,3.3-23.32,4.86-37.31,5.93c-7.01,0.54-14.36,0.96-22.05,1.46c-3.84,0.25-7.77,0.53-11.79,0.89
					c-4.02,0.36-8.02,0.78-12.12,1.19c-16.36,1.7-33.75,3.61-52.1,5.67c-9.18,1.06-18.59,2.15-28.24,3.27
					c-2.42,0.3-4.85,0.59-7.3,0.89l-1.85,0.24c-0.63,0.08-1.19,0.14-1.97,0.28c-1.48,0.22-2.9,0.58-4.31,1.01
					c-2.81,0.87-5.51,2.09-8.09,3.79c-1.29,0.87-2.55,1.85-3.75,3.07l-0.89,0.97c-0.29,0.35-0.57,0.72-0.85,1.09
					c-0.28,0.38-0.53,0.82-0.79,1.24c-0.13,0.2-0.24,0.46-0.36,0.69c-0.14,0.28-0.29,0.6-0.42,0.91c-0.25,0.98-0.63,1.94-0.64,2.97
					c-0.05,0.51-0.03,1.01,0.03,1.52c0.05,0.51,0.11,1.01,0.26,1.5c0.14,0.48,0.27,1.01,0.46,1.44c0.19,0.44,0.37,0.82,0.56,1.22
					c0.4,0.69,0.82,1.41,1.27,1.96c1.8,2.37,3.77,3.91,5.8,5.32c3.99,2.79,8.72,4.46,12.87,5.7c8.44,2.43,16.86,4.24,25.43,6.04
					c8.56,1.78,17.23,3.47,25.98,5.24c4.38,0.88,8.76,1.79,13.15,2.73c2.18,0.49,4.39,0.96,6.55,1.49c1.1,0.27,2.2,0.53,3.31,0.8
					c1.2,0.3,2.38,0.55,3.56,0.79c9.4,1.85,18.64,2.85,27.96,4.09c9.3,1.21,18.64,2.48,27.88,4.28c4.62,0.9,9.21,1.93,13.71,3.2
					c4.5,1.26,8.91,2.76,13.03,4.65c4.11,1.88,7.97,4.18,10.91,7.03c2.98,2.84,4.83,6.18,5.36,9.94c0.28,1.88,0.22,3.88-0.12,5.93
					l-0.3,1.55l-0.41,1.56c-0.12,0.53-0.32,1.01-0.48,1.52l-0.25,0.75l-0.3,0.72c-1.57,3.87-4.08,7-7.51,9.16
					c-3.42,2.18-7.71,3.42-12.27,3.95c-4.58,0.54-9.42,0.41-14.31-0.07c-4.91-0.48-9.8-1.32-14.89-2.33
					c-5.08-0.97-10.19-2.01-15.31-3.04c-10.25-2.09-20.59-4.26-31.05-6.3c-10.47-2.04-21.05-3.97-31.79-5.53
					c-5.36-0.81-10.78-1.46-16.2-2.08c-5.33-0.58-10.68-1.22-16.06-1.87c-10.75-1.3-21.59-2.68-32.56-3.79
					c-1.34-0.14-2.79-0.29-4.34-0.38c-1.56-0.07-3.2-0.11-5.16,0.19c-1,0.18-2.03,0.39-3.17,0.89c-1.11,0.47-2.26,1.17-3.19,2.06
					c-0.49,0.43-0.87,0.91-1.27,1.38c-0.32,0.46-0.7,0.97-0.93,1.43c-0.27,0.47-0.51,0.94-0.69,1.39c-0.2,0.42-0.39,0.97-0.57,1.52
					c-0.73,2.19-0.7,4.8-0.05,6.96c0.63,2.19,1.74,3.92,2.91,5.38c1.18,1.46,2.48,2.62,3.81,3.66c0.66,0.51,1.19,0.87,1.79,1.32
					c0.58,0.43,1.17,0.84,1.76,1.25c9.46,6.55,19.47,11.65,29,17.03c2.4,1.34,4.72,2.71,7.07,4.12l7.21,4.29
					c4.82,2.84,9.67,5.63,14.53,8.39c9.71,5.49,19.44,10.99,29.18,16.5l7.26,4.17c2.39,1.39,4.88,2.82,7.16,4.2
					c4.61,2.8,9,5.83,12.65,9.33c3.66,3.47,6.49,7.46,7.39,11.59c0.49,2.06,0.44,4.17,0.04,6.3c-0.46,2.12-1.32,4.3-2.54,6.36
					l-0.9,1.55l-1.03,1.39l-0.51,0.7l-0.58,0.6c-0.39,0.39-0.75,0.84-1.16,1.19c-1.62,1.48-3.49,2.53-5.52,3.26
					c-2.02,0.76-4.32,1.01-6.68,1c-1.18,0.04-2.4-0.13-3.61-0.23c-1.23-0.22-2.46-0.35-3.7-0.68c-4.97-1.1-9.96-3.08-14.85-5.36
					c-4.9-2.28-9.71-4.96-14.5-7.73c-4.8-2.78-9.55-5.73-14.47-8.63c-2.47-1.45-4.97-2.89-7.71-4.23c-2.54-1.26-4.97-2.44-7.48-3.73
					c-19.91-10.17-39.71-20.8-59.96-30.51c-5.05-2.44-10.2-4.77-15.41-7.01c-2.68-1.06-5.26-2.18-8.12-3.1
					c-0.71-0.24-1.37-0.49-2.13-0.71l-2.35-0.59l-1.18-0.29c-0.38-0.08-0.71-0.12-1.07-0.18l-2.11-0.34
					c-11.24-1.79-22.47-2.52-33.57-2.98c-22.18-0.89-43.94-0.6-64.79-4.48c-10.44-1.92-20.7-4.56-30.61-8.04
					c-9.9-3.44-19.54-7.69-28.55-12.66c-9.02-5.06-17.83-11.08-27.53-15.97c-4.84-2.44-9.92-4.62-15.29-6.13
					c-1.36-0.33-2.7-0.71-4.07-1l-4.16-0.71l-4.22-0.35c-1.41-0.06-2.83,0.01-4.24,0.01c-2.57,0.1-5.13,0.21-7.68,0.31
					c-2.54,0.08-5.09,0.13-7.63,0.17c-5.09,0.07-10.18,0.08-15.25,0.05c-2.53-0.02-5.06-0.04-7.59-0.06l-3.78-0.05l-1.89-0.03
					l-1.24-0.02l-1.18,0.14c-5.01,0.58-10,1.16-14.97,1.74c-39.75,4.63-78.09,9.09-114.6,13.34c-73,8.61-138.71,16.36-193.88,22.87
					c-55.16,6.6-99.76,12.05-130.56,16c-15.4,1.97-27.35,3.57-35.45,4.74c-8.1,1.17-12.34,1.92-12.32,2.21
					c0.02,0.31,4.31,0.11,12.44-0.54s20.13-1.75,35.57-3.25c30.88-3.01,75.55-7.65,130.77-13.53s120.94-13.01,194-21.01
					c36.53-4.02,74.89-8.24,114.67-12.62c4.97-0.55,9.97-1.1,14.98-1.66l0.85-0.09c0.04,0,0.06-0.01,0.09,0l0.39,0.01l1.91,0.04
					l3.81,0.07c2.54,0.03,5.09,0.07,7.65,0.1c10.2,0.09,20.57,0.11,30.99-0.38c9.36-0.49,18.77,2.73,27.72,7.3
					c9.02,4.57,17.66,10.52,27.13,15.91c9.56,5.36,19.53,9.79,29.9,13.46c10.34,3.69,21.05,6.49,31.94,8.55
					c5.45,1,10.95,1.8,16.49,2.39c5.55,0.6,11.06,0.96,16.58,1.25c11.04,0.58,22.04,0.76,32.98,1.24
					c10.93,0.48,21.81,1.23,32.48,2.96l2,0.33l1,0.16l0.84,0.22l1.68,0.43c0.55,0.13,1.21,0.4,1.81,0.6
					c2.43,0.79,4.94,1.87,7.44,2.86c5,2.17,10,4.44,14.98,6.87c19.95,9.64,39.63,20.26,59.69,30.57c2.49,1.29,5.09,2.57,7.61,3.81
					c2.3,1.12,4.67,2.49,7.05,3.89c4.75,2.8,9.56,5.8,14.48,8.68c4.93,2.87,9.96,5.69,15.25,8.18c5.3,2.48,10.81,4.74,16.84,6.11
					c1.48,0.39,3.06,0.6,4.6,0.86c1.59,0.15,3.16,0.36,4.81,0.33c1.62,0.07,3.3-0.11,4.95-0.28l2.51-0.47
					c0.83-0.17,1.66-0.48,2.48-0.72c3.27-1.12,6.42-2.88,8.97-5.21c0.68-0.54,1.21-1.2,1.81-1.81l0.88-0.93
					c0.28-0.31,0.51-0.66,0.77-0.99l1.49-2c0.44-0.69,0.84-1.39,1.25-2.09c1.66-2.77,2.95-5.88,3.7-9.25
					c0.7-3.37,0.79-7.03,0.01-10.46c-0.72-3.46-2.21-6.61-3.98-9.38c-1.81-2.75-3.9-5.17-6.14-7.31c-4.47-4.3-9.39-7.66-14.35-10.7
					c-2.51-1.53-4.89-2.89-7.34-4.32l-7.31-4.21c-9.74-5.53-19.47-11.04-29.17-16.55c-4.83-2.76-9.63-5.53-14.4-8.34l-7.11-4.25
					c-2.4-1.45-4.88-2.91-7.32-4.28c-9.77-5.53-19.52-10.53-28.19-16.56c-1.08-0.73-2.17-1.55-3.16-2.28
					c-0.84-0.64-1.59-1.34-2.15-2.03c-0.55-0.68-0.92-1.34-1.05-1.8c-0.11-0.48-0.15-0.73-0.01-1.13c0.05-0.11,0.04-0.18,0.14-0.38
					c0.08-0.19,0.15-0.35,0.22-0.46c0.14-0.27,0.25-0.38,0.31-0.44c0.05-0.07,0.1-0.07,0.22-0.14c0.13-0.06,0.39-0.14,0.75-0.2
					c0.72-0.13,1.83-0.15,3-0.09c1.18,0.06,2.44,0.19,3.82,0.34c10.8,1.11,21.58,2.48,32.36,3.8c5.39,0.66,10.79,1.31,16.18,1.9
					c5.31,0.61,10.57,1.25,15.83,2.04c10.51,1.53,20.94,3.44,31.31,5.47s20.69,4.2,30.98,6.3c5.15,1.04,10.28,2.09,15.42,3.07
					c5.12,1.02,10.46,1.95,15.84,2.48c5.39,0.53,10.9,0.71,16.52,0.06c5.59-0.66,11.41-2.18,16.62-5.47
					c2.59-1.63,4.96-3.71,6.92-6.1c1.96-2.39,3.49-5.06,4.62-7.8c0.3-0.68,0.57-1.37,0.78-2.07c0.22-0.69,0.5-1.38,0.66-2.08
					l0.54-2.09l0.42-2.15c0.48-2.9,0.61-5.97,0.17-9.04c-0.43-3.07-1.43-6.11-2.9-8.83c-1.46-2.73-3.4-5.09-5.48-7.12
					c-4.21-4.05-9.01-6.8-13.79-9.01c-4.81-2.2-9.68-3.84-14.54-5.21s-9.71-2.46-14.53-3.4c-9.64-1.88-19.18-3.17-28.54-4.39
					c-9.33-1.23-18.6-2.26-27.24-3.96c-1.07-0.22-2.13-0.45-3.16-0.7c-1.12-0.27-2.24-0.54-3.36-0.81
					c-2.27-0.56-4.52-1.03-6.76-1.54c-4.48-0.96-8.91-1.88-13.31-2.76c-8.76-1.76-17.41-3.5-25.93-5.22
					c-8.46-1.77-16.81-3.58-24.6-5.81c-3.91-1.18-7.17-2.36-10.03-4.34c-1.39-0.94-2.67-2.04-3.35-2.98
					c-0.21-0.24-0.28-0.43-0.42-0.62c-0.02-0.07-0.06-0.16-0.08-0.18c-0.03-0.04-0.01-0.01-0.02-0.03c0.01,0-0.02-0.01,0.02-0.01
					c-0.01,0-0.02-0.01-0.01-0.01c0,0.02-0.01,0.05-0.01,0.05c0.03-0.05,0.02-0.09,0.08-0.15c0.09-0.12,0.14-0.23,0.23-0.36
					l0.31-0.41l0.39-0.43c0.58-0.58,1.3-1.16,2.09-1.7c1.61-1.07,3.5-1.94,5.43-2.53c0.97-0.29,1.94-0.54,2.91-0.68
					c0.43-0.08,1.1-0.16,1.69-0.24l1.8-0.24c2.42-0.3,4.83-0.6,7.23-0.89c9.62-1.12,19.01-2.22,28.16-3.29
					c18.32-2.08,35.69-4.01,51.99-5.72c4.07-0.42,8.1-0.85,11.99-1.2c3.89-0.36,7.75-0.64,11.56-0.89
					c7.61-0.51,15.01-0.94,22.16-1.51C716.75,349.06,730.07,347.5,742.05,343.74z"/>
			</g>
		</g>
	</g>
	<g class="st2">
		<g class="st3">
			<path class="st0" d="M-254.69,229.96c59.18-1.85,427.19,90.62,480.82,88.77s68.69,6.02,68.69,6.02
				c18,2.94,36.21,10.21,56.22,2.76c20.32-7.57,52.13-26.02,92.69-37.27s78.69-12.66,101.3-11.78c30.74,1.2,67.81-9.92,94.26-23.94
				c26.09-13.82,47.3-28.03,69.91-47.01c15.26-12.82,43.85-33.67,62.68-16.07c14.22,13.28,8.09,42.18-13.9,65.43
				c-2.56,2.71-5.32,5.42-8.22,8.11c-33.72,31.66-115.27,77.46-114.59,79.24c0.45,1.42,32.58,5.04,40.59,4.88
				c33.69-0.68,65.42-7.41,98.56-12.07c20.25-2.85,52.54-6.36,59.58,19.15c10.68,38.73-40.22,53.33-105.5,60.89
				c-47.75,5.53-66.68-0.35-97.44-3.36c2.58,3.16,11.96,21.55,14.34,31.37c5.42,22.35,0.41,42.28-8.69,53.16
				c-17.42,20.83-31.76,24.25-62.38,19.66c-0.77-0.12-1.55-0.32-2.32-0.47c-7.15,13.78-14.13,24.5-33.92,29.51
				c-21.72,5.5-41.34-3.67-57.7-16.6c-48.49-0.55-87.54-20.93-110.3-42.19c-22.76-21.25-28.16-46.85-43.22-52.4
				c-15.06-5.54-27.09-2.93-33.2-4.37c0,0-169.17,3.89-243.14,20.53c-73.97,16.64-297.74-12.95-305.13-18.49"/>
			<g>
				<g>
					<path class="st1" d="M730.63,338.71c-8.61,1.28-18.09,2.6-28.4,3.65c-2.58,0.29-5.2,0.47-7.88,0.72
						c-2.68,0.18-5.4,0.42-8.18,0.54c-1.39,0.07-2.79,0.14-4.2,0.21c-1.41,0.04-2.83,0.09-4.27,0.13c-0.71,0.02-1.43,0.04-2.14,0.06
						c-0.59,0.01-1.27-0.01-1.96-0.03c-1.39-0.05-2.84-0.14-4.31-0.24c-5.89-0.43-12.05-1.06-18.32-1.83
						c-0.91-0.12-1.83-0.23-2.75-0.35l-0.08-0.02c-0.02-0.01-0.05-0.01-0.07-0.02c-0.02-0.02,0.04-0.03,0.05-0.05
						c3.48-2.16,7.05-4.38,10.7-6.65c6.04-3.77,12.22-7.64,18.54-11.58c12.6-7.97,25.67-16.42,38.96-25.66
						c6.64-4.63,13.33-9.45,19.99-14.6c3.33-2.58,6.65-5.24,9.95-8.02c3.28-2.79,6.58-5.7,9.66-8.83c3.11-3.1,6.35-6.09,9.31-9.64
						c2.97-3.47,5.74-7.17,8.23-11.12c2.48-3.95,4.73-8.11,6.54-12.55c1.83-4.42,3.26-9.1,4.07-14.03
						c0.76-4.92,0.97-10.12-0.11-15.38c-1.04-5.23-3.47-10.55-7.44-14.66c-0.98-1.06-2.03-1.92-3.08-2.81
						c-1.11-0.82-2.21-1.68-3.45-2.36c-2.41-1.44-5.07-2.56-7.82-3.2c-2.75-0.67-5.55-0.94-8.29-0.89
						c-2.75,0.06-5.41,0.46-7.99,1.03c-2.59,0.57-5.07,1.36-7.47,2.29c-2.41,0.91-4.73,1.96-6.98,3.12
						c-4.51,2.29-8.76,4.94-12.84,7.78s-7.99,5.89-11.79,9.05c-3.73,3.11-7.37,6.13-11.17,9.11
						c-15.07,11.94-31.26,22.82-48.48,32.48c-2.15,1.21-4.32,2.41-6.49,3.59c-2.18,1.18-4.37,2.36-6.54,3.44
						c-4.34,2.24-8.83,4.26-13.36,6.19c-9.1,3.79-18.51,7.02-28.11,9.63c-9.61,2.56-19.42,4.48-29.29,5.52
						c-1.23,0.17-2.47,0.21-3.7,0.32c-1.23,0.08-2.47,0.21-3.71,0.26c-2.47,0.06-4.94,0.23-7.4,0.14l-3.72-0.05l-3.93-0.12
						c-2.62-0.04-5.23-0.09-7.85-0.07c-20.92,0.09-41.89,2-62.57,5.82c-10.34,1.91-20.6,4.3-30.72,7.22s-20.06,6.38-29.81,10.2
						c-9.75,3.83-19.31,8.02-28.72,12.35c-9.41,4.3-18.69,8.81-27.93,12.66l-3.46,1.36c-1.14,0.44-2.22,0.75-3.33,1.13
						c-1.1,0.37-2.25,0.58-3.36,0.88c-1.13,0.27-2.29,0.41-3.42,0.63c-4.6,0.69-9.34,0.67-14.13,0.17
						c-4.79-0.48-9.63-1.4-14.55-2.43c-2.49-0.53-4.97-1.05-7.46-1.57c-1.25-0.27-2.53-0.51-3.8-0.76
						c-0.63-0.13-1.28-0.24-1.92-0.35l-1.63-0.28c-0.01,0-0.03,0-0.04-0.01l-0.04-0.02c-2.5-1.03-4.97-1.7-7.36-2.28
						c-1.21-0.29-2.4-0.52-3.6-0.79l-3.58-0.65c-4.76-0.76-9.5-1.31-14.21-1.69c-9.43-0.78-18.77-0.97-28.04-0.89
						c-4.62-0.02-9.28,0.22-13.81,0.28l-3.19-0.05c-1.06-0.01-2.11-0.01-3.23-0.12c-2.2-0.18-4.39-0.32-6.6-0.53
						c-4.43-0.52-8.85-0.98-13.27-1.65c-2.21-0.31-4.41-0.63-6.61-0.94c-2.2-0.35-4.4-0.7-6.59-1.04
						c-17.55-2.82-34.82-6.04-51.77-9.29s-33.56-6.62-49.81-9.9c-64.98-13.28-124.1-25.88-174.21-35.92
						c-50.1-10.07-91.18-17.64-119.91-21.71c-14.35-2.08-25.64-3.18-33.33-3.51c-1.92-0.06-3.62-0.11-5.08-0.16
						c-1.47,0.03-2.7,0.11-3.69,0.17c-1.98,0.13-2.98,0.28-2.97,0.45c0.01,0.16,1.03,0.33,2.99,0.5c0.98,0.08,2.19,0.17,3.64,0.29
						c1.44,0.17,3.12,0.37,5.02,0.59c7.59,0.91,18.73,2.53,32.96,5.11c28.47,5.06,69.32,13.47,119.23,24.26
						c49.91,10.76,108.87,23.96,173.79,37.77c16.24,3.42,32.85,6.91,49.81,10.28c16.97,3.37,34.27,6.71,51.97,9.66
						c2.21,0.36,4.43,0.73,6.65,1.09c2.23,0.33,4.47,0.66,6.71,0.99c4.47,0.7,9.03,1.2,13.58,1.76c2.3,0.22,4.63,0.4,6.96,0.59
						c1.14,0.12,2.36,0.13,3.58,0.16l3.63,0.06c4.57-0.04,9.06-0.25,13.6-0.21c9.06-0.03,18.17,0.2,27.21,0.99
						c4.52,0.39,9.02,0.93,13.45,1.66l3.3,0.61c1.08,0.24,2.17,0.46,3.23,0.72c2.14,0.52,4.19,1.11,6.02,1.87
						c0.24,0.09,0.49,0.16,0.73,0.25l0.74,0.24l2.1,0.38c0.6,0.11,1.2,0.21,1.81,0.34l3.65,0.75c2.47,0.53,4.95,1.07,7.43,1.6
						c5.02,1.07,10.18,2.09,15.53,2.65c5.34,0.57,10.89,0.64,16.41-0.16c1.37-0.25,2.76-0.42,4.12-0.74
						c1.35-0.35,2.73-0.62,4.06-1.05c1.31-0.44,2.7-0.85,3.95-1.33l3.7-1.45c9.72-4.01,18.98-8.48,28.34-12.72
						c9.34-4.26,18.73-8.34,28.26-12.05c9.52-3.71,19.18-7.03,28.98-9.83c9.8-2.8,19.75-5.09,29.79-6.92
						c20.08-3.66,40.51-5.47,60.8-5.51c2.54-0.02,5.07,0.04,7.6,0.08l3.79,0.12l3.99,0.07c2.68,0.09,5.34-0.07,8-0.14
						c1.33-0.04,2.65-0.18,3.97-0.27c1.32-0.11,2.65-0.16,3.96-0.33c10.52-1.09,20.83-3.09,30.9-5.76
						c10.06-2.71,19.88-6.07,29.42-10.02c4.76-2.01,9.46-4.12,14.05-6.48c2.32-1.16,4.56-2.36,6.78-3.56
						c2.23-1.2,4.44-2.43,6.65-3.66c17.65-9.87,34.38-21.08,49.84-33.31c3.87-3.03,7.69-6.19,11.38-9.27
						c3.63-3.02,7.32-5.88,11.1-8.51c3.78-2.63,7.65-5.04,11.62-7.04c1.98-1.01,3.98-1.91,6-2.68c2.01-0.77,4.04-1.42,6.05-1.86
						s4.01-0.74,5.95-0.78c1.94-0.03,3.82,0.16,5.6,0.59c1.79,0.41,3.46,1.13,5.03,2.06c0.81,0.42,1.53,1.02,2.28,1.55
						c0.71,0.62,1.45,1.21,2.04,1.86c2.45,2.55,4.04,5.88,4.79,9.57c0.77,3.69,0.65,7.72,0.03,11.68
						c-1.32,7.98-4.75,15.74-9.14,22.71c-2.2,3.5-4.67,6.81-7.34,9.93c-2.6,3.13-5.7,6-8.65,8.94c-2.92,2.98-6,5.7-9.14,8.37
						c-3.14,2.66-6.35,5.23-9.59,7.74c-6.47,5.01-13.04,9.74-19.57,14.3c-13.08,9.11-26.03,17.51-38.55,25.44
						c-6.29,3.94-12.44,7.79-18.46,11.56c-3.02,1.88-6.01,3.74-8.96,5.58c-0.92,0.57-1.83,1.15-2.74,1.72
						c-1.45,0.92-2.89,1.84-4.32,2.75c-1.41,0.92-2.83,1.85-4.09,2.78c-1.28,0.93-2.19,1.88-2.64,2.72
						c-0.21,0.41-0.39,0.81-0.45,1.17c-0.04,0.36,0.02,0.68,0.03,0.99l0.05,0.91l0.01,0.26l0.01,0.17
						c-0.35,0.14-0.07,0.16-0.14,0.23c0.05,0.21,0.09,0.37,0.2,0.51c0.36,0.58,0.71,1.16,1.06,1.74c0.42,0.61,1.26,1.18,2.44,1.64
						c1.19,0.45,2.71,0.77,4.24,1.05c1.54,0.28,3.13,0.53,4.72,0.77c1.49,0.2,2.97,0.41,4.44,0.61c0.81,0.1,1.62,0.2,2.43,0.3
						c6.46,0.78,12.69,1.41,18.86,1.85c1.55,0.11,3.08,0.2,4.66,0.25c0.79,0.03,1.59,0.04,2.48,0.03c0.76-0.02,1.51-0.05,2.26-0.07
						c1.49-0.05,2.96-0.1,4.42-0.14c1.46-0.08,2.9-0.15,4.34-0.23c2.87-0.14,5.67-0.39,8.43-0.58c2.75-0.26,5.45-0.46,8.08-0.76
						c10.55-1.1,20.18-2.47,28.87-3.79c8.65-1.35,18.2-2.83,28.57-4.44c5.16-0.8,10.54-1.59,16.08-2.36
						c5.52-0.75,11.18-1.4,16.95-1.6c5.75-0.19,11.66,0.05,17.23,1.36c2.77,0.66,5.46,1.58,7.84,2.9s4.48,2.99,6.17,5.06
						c1.66,2.09,2.93,4.57,3.77,7.35c0.78,2.87,1.47,5.97,1.41,8.93c0.05,5.95-2.07,11.63-6.42,16.38c-2.15,2.37-4.75,4.53-7.6,6.49
						c-2.85,1.97-6.04,3.65-9.33,5.25c-6.64,3.11-13.87,5.63-21.42,7.71c-15.11,4.19-31.37,6.93-48.2,9.13
						c-8.44,1.09-16.97,2.05-25.61,2.69c-8.64,0.6-17.39,0.86-26.21,0.61c-8.83-0.24-17.72-1.1-26.81-2.22
						c-4.58-0.58-9.18-1.17-13.8-1.76l-1.75-0.22l-2.9-0.33c-2.13-0.24-4.27-0.48-6.4-0.72c-4.53-0.48-9.07-0.96-13.63-1.44
						l3.64,5.07l1.79,2.49c0.56,0.8,1.22,1.65,1.71,2.42l1.37,2.26l0.68,1.13l0.59,1.09c0.72,1.36,1.73,3.24,1.92,3.65
						c1.48,2.92,2.89,5.91,4.2,8.92s2.54,6.06,3.51,9.04l0.36,1.11l0.29,1.08c0.21,0.69,0.36,1.53,0.53,2.3l0.5,2.36l0.38,2.38
						c1.03,6.35,1.09,12.85,0.31,19.21c-0.45,3.17-1.12,6.31-2.04,9.35c-0.94,3.03-2.18,5.95-3.7,8.65
						c-1.53,2.76-3.26,4.97-5.62,7.57c-1.08,1.3-2.28,2.42-3.42,3.64c-0.56,0.62-1.19,1.13-1.78,1.7c-0.6,0.55-1.19,1.13-1.81,1.65
						l-1.88,1.51c-0.32,0.25-0.62,0.52-0.95,0.75l-0.98,0.67c-0.66,0.44-1.3,0.92-1.97,1.33l-2.05,1.16
						c-2.78,1.44-5.66,2.66-8.76,3.34l-1.15,0.3c-0.39,0.08-0.79,0.14-1.18,0.21l-2.37,0.41l-2.44,0.23l-1.22,0.12l-1.25,0.04
						l-2.5,0.07c-0.84,0.02-1.69-0.03-2.54-0.05c-0.85-0.03-1.69-0.02-2.55-0.08l-2.57-0.18c-3.44-0.25-6.92-0.67-10.41-1.17
						l-0.74-0.1c-0.45-0.07-0.92-0.11-1.36-0.21c-0.9-0.19-1.76-0.34-2.64-0.51l-2.63-0.49c-0.27-0.16-0.27,0.27-0.41,0.4
						l-0.31,0.59l-0.63,1.19l-1.25,2.38l-0.63,1.19l-0.52,0.95c-0.42,0.76-0.83,1.53-1.27,2.27c-3.41,5.99-7.37,11.14-12.6,14.76
						c-2.6,1.82-5.48,3.32-8.56,4.51c-3.09,1.16-6.41,2.1-9.63,2.72c-3.26,0.53-6.56,0.91-9.87,0.75l-1.24-0.02l-1.24-0.11
						c-0.83-0.08-1.66-0.14-2.48-0.24c-1.64-0.28-3.3-0.49-4.93-0.92c-1.64-0.33-3.25-0.87-4.87-1.34c-0.8-0.27-1.6-0.58-2.4-0.86
						l-1.2-0.44l-1.18-0.51c-3.17-1.28-6.23-2.92-9.23-4.66c-3.01-1.75-5.9-3.76-8.75-5.82l-2.7-2.06l-1.07-0.82
						c-0.18-0.14-0.35-0.31-0.59-0.26l-0.68-0.02l-2.57-0.09l-5.37-0.19c-1.79-0.02-3.57-0.25-5.36-0.38
						c-1.78-0.17-3.57-0.27-5.35-0.49l-5.33-0.73c-0.89-0.13-1.78-0.22-2.66-0.38l-2.64-0.5l-5.28-1l-5.23-1.24
						c-0.87-0.21-1.75-0.4-2.61-0.64l-2.58-0.75c-1.72-0.51-3.45-0.96-5.16-1.52c-6.83-2.2-13.51-4.82-20.02-7.82
						c-6.47-3.09-12.75-6.53-18.76-10.39c-6-3.88-11.69-8.19-16.98-12.89c-5.34-4.62-9.97-9.85-14.22-15.5
						c-4.25-5.66-8.01-11.73-11.91-17.96c-1.96-3.11-3.96-6.27-6.26-9.4c-2.32-3.1-4.93-6.25-8.46-8.86
						c-1.75-1.3-3.74-2.44-5.89-3.24l-2.79-0.95c-0.93-0.3-1.88-0.54-2.82-0.81c-3.78-1-7.64-1.65-11.47-1.96
						c-3.81-0.33-7.63-0.35-11.15-0.38c-1.74-0.02-3.47-0.06-4.8-0.24l-0.48-0.09c-0.47-0.05-0.84-0.2-1.28-0.18l-1.69,0.04
						l-2.7,0.08c-7.2,0.21-14.36,0.47-21.49,0.74c-28.53,1.12-56.59,2.58-84,4.45c-27.4,1.89-54.15,4.18-80.01,7.29
						c-3.23,0.35-6.45,0.79-9.65,1.23c-3.2,0.44-6.39,0.87-9.57,1.31c-3.18,0.39-6.33,0.97-9.47,1.47
						c-3.14,0.52-6.27,1.03-9.38,1.54c-3.11,0.55-6.2,1.24-9.27,1.85c-1.54,0.31-3.07,0.63-4.6,0.94c-1.5,0.31-2.99,0.62-4.47,0.93
						c-5.83,1.23-11.76,2.04-17.66,2.67c-11.8,1.25-23.5,1.74-34.92,1.98c-11.43,0.22-22.59,0.13-33.46-0.12
						c-21.73-0.51-42.24-1.63-61.32-2.92c-19.08-1.3-36.72-2.8-52.73-4.31c-32.03-3.03-57.56-6.08-75.06-8.41
						c-8.75-1.17-15.49-2.17-20.03-2.92c-2.27-0.38-3.99-0.69-5.13-0.94c-1.15-0.23-1.66-0.44-1.75-0.35
						c-0.1,0.09,0.39,0.58,1.5,1.04c1.1,0.49,2.79,1.04,5.02,1.65c4.48,1.22,11.17,2.65,19.87,4.23
						c17.41,3.16,42.89,6.96,74.92,10.66c16.02,1.84,33.67,3.66,52.79,5.26c19.12,1.59,39.7,2.99,61.56,3.77
						c10.93,0.38,22.19,0.6,33.75,0.5c11.56-0.12,23.43-0.49,35.58-1.66c6.08-0.59,12.22-1.37,18.44-2.61
						c1.52-0.3,3.05-0.61,4.58-0.92c1.5-0.29,3-0.58,4.5-0.88c3.01-0.57,6.02-1.21,9.08-1.74c3.07-0.48,6.16-0.96,9.26-1.44
						c3.1-0.47,6.2-1.02,9.36-1.38c3.15-0.4,6.31-0.81,9.48-1.22s6.36-0.83,9.57-1.15c25.67-2.9,52.32-5.01,79.64-6.73
						c27.32-1.71,55.32-3.01,83.77-3.99c7.11-0.21,14.25-0.43,21.42-0.64l2.68-0.07l1.1-0.02c0.02,0,0.05,0,0.06,0.01
						c-0.08-0.01,0.09,0.02,0.25,0.05l0.44,0.08c2.27,0.33,4.16,0.34,6.02,0.39c3.69,0.05,7.09,0.08,10.48,0.38
						c3.37,0.29,6.67,0.85,9.89,1.71l2.4,0.7l2.37,0.81c1.25,0.47,2.43,1.13,3.59,1.99c2.32,1.69,4.46,4.16,6.47,6.89
						c2.01,2.74,3.91,5.74,5.83,8.82c3.82,6.16,7.74,12.57,12.28,18.66c4.52,6.08,9.67,11.94,15.44,16.98
						c5.68,5.09,11.74,9.73,18.12,13.87c6.38,4.13,13.04,7.81,19.89,11.1c6.89,3.2,13.96,6,21.19,8.35c1.8,0.6,3.64,1.08,5.46,1.63
						l2.74,0.8c0.91,0.26,1.84,0.46,2.76,0.69l5.54,1.33c1.86,0.39,3.73,0.72,5.59,1.08l2.8,0.53c0.93,0.18,1.88,0.28,2.82,0.42
						l5.64,0.79c1.88,0.24,3.78,0.36,5.66,0.54c1.89,0.14,3.77,0.39,5.67,0.42l5.68,0.22l0.28,0.01h-0.03c-0.03,0-0.03,0-0.02,0
						s0.03,0.01,0.04,0.02l0.01,0.01l0.48,0.37l1.14,0.87c3.1,2.26,6.26,4.48,9.61,6.43c3.35,1.96,6.79,3.8,10.43,5.3
						c0.9,0.4,1.8,0.77,2.74,1.1c0.93,0.34,1.85,0.69,2.78,1.01c1.9,0.57,3.78,1.19,5.74,1.6c1.93,0.5,3.91,0.78,5.88,1.11
						c0.99,0.13,1.99,0.2,2.99,0.3l1.5,0.14l1.51,0.03c4.02,0.2,8.04-0.24,11.98-0.88c3.96-0.76,7.7-1.8,11.45-3.2
						c3.73-1.44,7.38-3.3,10.74-5.65c3.37-2.34,6.4-5.19,8.97-8.28c2.58-3.09,4.73-6.39,6.63-9.68c0.49-0.82,0.94-1.65,1.39-2.47
						l0.16-0.29c0-0.01,0.01-0.01,0.02-0.01h0.02c0.01,0-0.01,0-0.02,0l0.56,0.08c3.65,0.52,7.33,0.97,11.06,1.25
						c1.87,0.14,3.73,0.28,5.64,0.3c0.95,0.02,1.89,0.07,2.85,0.06l2.88-0.08l1.44-0.05l1.45-0.13l2.9-0.27l2.92-0.49
						c0.49-0.09,0.97-0.16,1.46-0.26l1.45-0.36c3.88-0.86,7.65-2.41,11.17-4.24l2.59-1.47c0.84-0.52,1.63-1.09,2.45-1.64
						s1.62-1.11,2.36-1.73l2.26-1.82c0.73-0.62,1.41-1.28,2.12-1.92c0.69-0.65,1.43-1.27,2.06-1.96c1.28-1.36,2.66-2.67,3.83-4.08
						c1.22-1.41,2.42-2.69,3.66-4.37c0.64-0.79,1.17-1.62,1.72-2.45c0.57-0.82,1.06-1.67,1.53-2.53c1.92-3.42,3.43-6.99,4.57-10.63
						c1.11-3.64,1.91-7.34,2.43-11.05c0.93-7.43,0.84-14.9-0.32-22.13l-0.44-2.71l-0.57-2.68c-0.2-0.9-0.35-1.75-0.63-2.71
						l-0.38-1.4l-0.42-1.33c-1.14-3.52-2.47-6.79-3.86-10.01c-1.4-3.22-2.88-6.35-4.45-9.46l-0.44-0.87l0,0
						c5.63,0.72,11.21,1.43,16.73,2.13c9.24,1.14,18.55,2.04,27.77,2.3c9.22,0.27,18.33-0.01,27.25-0.63
						c8.92-0.66,17.67-1.65,26.21-2.75c17.12-2.25,33.76-5.03,49.64-9.44c7.94-2.2,15.68-4.87,23.06-8.34
						c3.67-1.79,7.29-3.69,10.69-6.04c3.4-2.34,6.64-5,9.48-8.14c2.85-3.12,5.21-6.84,6.77-10.86c1.57-4.02,2.27-8.32,2.24-12.45
						c-0.04-1.03-0.09-2.05-0.13-3.08c-0.14-1-0.27-1.99-0.41-2.99c-0.1-1.01-0.39-1.94-0.59-2.9c-0.23-0.96-0.4-1.9-0.74-2.87
						c-1.17-3.85-3.05-7.6-5.62-10.8c-2.59-3.19-5.83-5.72-9.22-7.58c-3.4-1.86-6.94-3.04-10.4-3.86
						c-6.95-1.61-13.62-1.8-19.92-1.59c-6.31,0.23-12.29,0.94-17.97,1.72c-5.65,0.79-11.06,1.61-16.26,2.42
						C748.79,335.83,739.27,337.34,730.63,338.71z"/>
				</g>
			</g>
		</g>
		<g class="st3">
			<g>
				<g>
					<g>
						<path class="st1" d="M499.79,413.6c0.36,0.36,0.27,1.1-0.19,2.16c-0.23,0.53-0.56,1.12-0.89,1.85
							c-0.33,0.73-0.82,1.48-1.21,2.42c-1.75,3.59-3.86,8.91-3.93,15.95c-0.05,3.5,0.37,7.37,1.31,11.47
							c0.94,4.11,2.43,8.42,4.48,12.72c4.08,8.63,10.63,17.25,18.92,24.86c4.14,3.8,10.09,8.69,17.86,13.44
							c7.74,4.76,17.32,9.41,28.18,12.65c2.72,0.79,5.51,1.5,8.37,2.08c2.82,0.57,5.84,0.98,8.87,1.44
							c6.05,0.8,12.23,1.43,18.3,1.17l2.26-0.17l1.13-0.08c0.37-0.04,0.74-0.11,1.11-0.16l2.23-0.33c0.74-0.13,1.45-0.34,2.18-0.5
							c1.47-0.28,2.84-0.85,4.26-1.29c0.69-0.26,1.36-0.59,2.04-0.88s1.37-0.59,2.01-0.98c5.27-2.81,9.95-6.9,14.17-11.4
							c1.04-1.15,2.07-2.3,3.1-3.45c0.94-1.14,1.85-2.26,2.66-3.49c1.62-2.43,3.06-4.99,4.16-7.68c2.3-5.33,3.58-10.96,4.2-16.4
							c1.17-10.93-0.64-21.18-3.53-29.23c-2.97-8.14-6.26-14.57-8.47-19.04c-2.25-4.47-3.53-6.98-3.3-7.13
							c0.23-0.15,1.99,2.08,4.71,6.32c1.36,2.12,2.95,4.75,4.67,7.87c1.71,3.12,3.57,6.71,5.31,10.85c0.45,1.03,0.83,2.12,1.27,3.21
							c0.37,1.12,0.8,2.26,1.12,3.44s0.65,2.39,0.98,3.61c0.26,1.25,0.52,2.51,0.79,3.8c0.92,5.18,1.37,10.82,0.94,16.69
							c-0.44,5.86-1.6,11.99-3.94,17.94c-1.12,3-2.62,5.91-4.38,8.72c-0.87,1.41-1.9,2.77-2.93,4.09c-1.04,1.23-2.09,2.47-3.14,3.71
							c-4.32,4.88-9.33,9.58-15.4,13.03c-0.73,0.47-1.53,0.84-2.32,1.2s-1.57,0.77-2.38,1.09c-1.65,0.58-3.27,1.27-4.97,1.65
							c-0.84,0.21-1.68,0.46-2.53,0.64l-2.55,0.44c-0.42,0.07-0.85,0.15-1.27,0.21l-1.27,0.12l-2.54,0.24
							c-6.76,0.43-13.29-0.11-19.57-0.81c-3.12-0.4-6.21-0.77-9.34-1.33c-3.1-0.56-6.11-1.28-9.04-2.07
							c-11.7-3.26-21.93-8.05-30.24-13.03c-8.34-4.97-14.76-10.16-19.23-14.26c-8.94-8.21-16.15-17.66-20.61-27.44
							c-2.24-4.88-3.82-9.77-4.73-14.48c-0.92-4.71-1.21-9.27-0.86-13.42c0.34-4.15,1.33-7.88,2.65-10.93
							c0.29-0.78,0.7-1.48,1.04-2.17c0.18-0.34,0.35-0.67,0.53-1c0.19-0.32,0.39-0.62,0.58-0.92c0.39-0.59,0.75-1.16,1.13-1.69
							c0.41-0.5,0.8-0.97,1.16-1.42c0.71-0.91,1.51-1.57,2.16-2.17c0.64-0.6,1.28-1.01,1.82-1.32
							C498.76,413.41,499.46,413.26,499.79,413.6z"/>
					</g>
				</g>
			</g>
			<g>
				<g>
					<g>
						<path class="st1" d="M493.56,460.78c-0.18,1.01-1.96,1.41-5,1.63c-3.03,0.23-7.36,0.24-12.51,0.85
							c-2.56,0.32-5.34,0.78-8.12,1.63c-2.78,0.83-5.57,2.06-7.95,3.87c-2.38,1.8-4.29,4.23-5.44,7.24c-0.95,2.54-0.9,6.2-0.15,9.89
							c0.73,3.7,2.4,8.83,5.31,14.55c2.9,5.7,6.99,12.11,12.47,17.81c1.33,1.38,2.97,2.82,4.5,4.27c1.6,1.39,3.19,2.87,4.88,4.22
							c3.33,2.81,6.9,5.43,10.63,7.87c3.71,2.47,7.68,4.56,11.74,6.35c4.06,1.83,8.31,3.09,12.56,3.93
							c4.25,0.91,8.55,1.04,12.7,0.85c1.04-0.09,2.07-0.18,3.09-0.26c1.02-0.09,2.02-0.34,3.02-0.5c2-0.3,3.96-0.84,5.86-1.34
							c3.79-1.08,7.26-2.53,10.31-4.26c3.06-1.73,5.67-3.76,7.87-5.87s4.01-4.27,5.49-6.27c1.5-1.99,2.7-3.81,3.71-5.3
							c1.97-3,3.12-4.69,3.37-4.55c0.24,0.12-0.42,2.05-1.95,5.35c-0.79,1.64-1.78,3.63-3.13,5.84c-1.32,2.22-3.02,4.66-5.21,7.11
							c-2.18,2.45-4.9,4.87-8.13,6.98c-3.23,2.1-6.93,3.9-10.94,5.27c-2.01,0.65-4.06,1.33-6.24,1.77c-1.09,0.23-2.17,0.54-3.29,0.7
							c-1.12,0.15-2.25,0.3-3.39,0.45c-4.57,0.43-9.36,0.47-14.09-0.34c-4.73-0.74-9.48-1.97-13.97-3.8
							c-4.5-1.79-8.87-3.93-12.92-6.44c-4.07-2.48-7.95-5.16-11.54-8.02c-1.83-1.38-3.53-2.88-5.25-4.3
							c-1.67-1.5-3.29-2.86-4.94-4.47c-6.38-6.33-10.91-13.17-14.24-19.43c-3.31-6.27-5.3-12.06-6.2-16.61
							c-0.45-2.27-0.74-4.6-0.72-7c0.02-2.39,0.35-4.89,1.27-7.34c1.68-4.41,4.73-8.2,8.22-10.7c3.48-2.54,7.21-3.98,10.66-4.84
							c3.47-0.88,6.71-1.18,9.63-1.27c5.85-0.13,10.45,0.67,13.53,1.57C492.15,458.81,493.72,459.87,493.56,460.78z"/>
					</g>
				</g>
			</g>
			<g>
				<g>
					<g>
						<path class="st1" d="M579.28,425.69c1.97-2.3,3.87-0.68,6.12,1.39c1.13,1.03,3.61,3.81,5.56,6.54
							c1.96,2.72,3.41,5.35,2.8,5.93s-3.14-1-5.83-2.89c-2.68-1.9-5.53-4.11-6.63-5.11C579.13,429.54,577.45,427.83,579.28,425.69z"
							/>
					</g>
				</g>
			</g>
			<g>
				<g>
					<g>
						<path class="st1" d="M587.37,433.1c-1.18-1.62,0.36-2.74,2.38-3.71c0.51-0.24,1.4-0.59,2.47-0.9c1.07-0.3,2.31-0.55,3.5-0.69
							c2.37-0.29,4.49-0.06,4.55,0.51c0.06,0.55-1.8,1.31-3.8,2.25c-2.01,0.91-4.1,2.03-4.96,2.47
							C589.77,433.86,588.48,434.63,587.37,433.1z"/>
					</g>
				</g>
			</g>
			<g>
				<g>
					<g>
						<path class="st1" d="M568.63,450.96c-1.17,4.47-2.74,10.77-4.94,18.08c-0.55,1.82-1.15,3.71-1.82,5.53
							c-0.33,0.91-0.69,1.81-1.04,2.54l-0.24,0.48c-0.03,0.06-0.04,0.06-0.06,0.09l-0.02,0.04c0.02,0.02-0.05-0.02,0.04,0.06
							l0.59,0.46c0.3,0.23-1.33-0.97-0.66-0.46l-0.02,0.03l-0.05,0.05l-0.09,0.11l-0.19,0.22l-0.36,0.44
							c-2.09,2.28-5.68,3.91-9.84,4.58c-2.08,0.34-4.29,0.46-6.52,0.35c-1.12-0.06-2.22-0.16-3.33-0.35
							c-1.12-0.23-2.25-0.47-3.38-0.7c-4.48-1.19-8.81-3.33-12.69-6.29c-7.81-5.92-13.69-14.96-17.19-24.48
							c-1.76-4.78-2.94-9.67-3.49-14.54c-0.57-4.87-0.59-9.71-0.25-14.36c0.75-9.3,2.88-17.79,5.02-24.89
							c2.18-7.1,4.35-12.88,5.73-16.96c1.38-4.09,2.01-6.49,1.41-6.79c-0.53-0.26-2.14,1.64-4.43,5.38
							c-2.28,3.73-5.27,9.29-8.21,16.44c-2.9,7.15-5.76,15.96-7.08,26.07c-0.62,5.05-0.83,10.42-0.38,15.94
							c0.43,5.53,1.61,11.17,3.46,16.63c1.85,5.47,4.39,10.82,7.66,15.77c3.27,4.95,7.3,9.51,12.06,13.22
							c4.74,3.71,10.24,6.51,15.95,8.06c1.44,0.31,2.88,0.62,4.3,0.93c1.45,0.26,2.92,0.4,4.36,0.48c2.89,0.15,5.75,0.01,8.56-0.44
							c2.81-0.46,5.57-1.23,8.2-2.45c2.62-1.21,5.1-2.9,7.11-5.07c0.48-0.57,0.95-1.12,1.41-1.7c0.27-0.4,0.56-0.84,0.78-1.23
							l0.5-0.99c0.58-1.24,1-2.34,1.39-3.41c0.77-2.14,1.38-4.14,1.95-6.06c2.24-7.68,3.74-14.02,4.83-18.59
							c1.17-4.54,2.72-10.88,4.48-18.51c0.87-3.82,1.81-7.95,2.81-12.34c0.49-2.18,1-4.43,1.51-6.74c0.55-2.26,1.12-4.56,1.69-6.92
							c1.25-4.69,2.62-9.55,4.21-14.51c1.62-5.02,3.27-10.16,4.95-15.36c1.64-5.3,3.27-10.84,3.95-16.89
							c0.07-0.76,0.18-1.5,0.22-2.27l0.05-2.33l0.02-1.16l-0.09-1.18l-0.19-2.35c-0.1-0.78-0.28-1.56-0.42-2.33
							c-0.17-0.77-0.26-1.56-0.53-2.3c-0.51-1.51-0.84-2.95-1.66-4.55c-1.5-3.08-3.5-5.48-5.54-7.61c-2.05-2.15-4.26-3.91-6.45-5.61
							c-4.42-3.3-8.92-6.02-13.31-8.4c-8.81-4.73-17.18-8.21-24.39-10.83c-7.21-2.61-13.29-4.3-17.61-5.15
							c-2.16-0.42-3.91-0.61-5.12-0.6c-1.22,0.01-1.91,0.26-1.92,0.55c-0.01,0.34,0.52,0.67,1.54,1.19
							c1.02,0.52,2.54,1.19,4.51,2.05c3.92,1.73,9.58,4.16,16.36,7.35c6.76,3.2,14.69,7.12,22.85,12.03
							c4.06,2.47,8.17,5.2,12.01,8.3c1.88,1.57,3.77,3.19,5.35,4.96c1.59,1.75,2.99,3.63,3.81,5.46c0.43,0.81,0.7,2.05,1.04,3.13
							c0.2,0.55,0.24,1.13,0.35,1.7c0.09,0.57,0.22,1.14,0.28,1.71c0.16,2.33,0.21,4.7-0.18,7.17c-0.63,4.91-2.17,10.01-3.82,15.11
							c-1.73,5.18-3.43,10.3-5.1,15.31c-1.66,5.07-3.11,10.11-4.42,14.99c-0.62,2.45-1.21,4.86-1.77,7.21
							c-0.52,2.32-1.03,4.59-1.52,6.79c-0.97,4.38-1.89,8.51-2.74,12.32C571.15,440.14,569.69,446.45,568.63,450.96z"/>
					</g>
				</g>
			</g>
			<g>
				<g>
					<g>
						<path class="st1" d="M515.25,374.21c1.33,0.63,0.79,3.61-1.56,7.67c-2.34,4.04-6.46,8.98-11.5,13.78
							c-2.49,2.44-6.98,6.35-12.53,10.48c-5.53,4.15-12.14,8.5-18.55,12.29c-12.81,7.62-24.89,12.9-25.26,12.13
							c-0.37-0.73,10.92-7.31,22.95-15.73c6.02-4.19,12.24-8.81,17.43-13.08c5.21-4.25,9.39-8.13,11.76-10.44
							c4.81-4.59,8.65-9.11,11.41-12.39C512.16,375.64,513.95,373.58,515.25,374.21z"/>
					</g>
				</g>
			</g>
		</g>
	</g>
	<g class="st2">
		<g class="st3">
			<path class="st0" d="M-163.62,536.17c96.16-3.77,251.47-42.72,251.47-42.72c86.89-35.2,352.01-53.42,352.01-53.42
				c7.9,0.04,15.79,0.13,23.69,0.26c8.4,0.14,16.88,0.33,25.05,2.25c19.03,4.48,36.13,14.01,49.92,27.87
				c13.79,13.86,23.14,25.33,39.27,35.05c8.79,5.3,26.08,15.44,35.94,18.32c11.33,3.31,30.04,7.86,45.83,8.43
				c6.36,3.01,13.01,4.88,18.75,5.67c16.07,2.2,34.04-0.38,44.86-13.64c5.34-6.54,7.17-14.91,7.7-23.22
				c9.96-1.83,19.35-6.36,25.11-14.79c7.39-10.82,11.55-27.57,9.33-40.44c-1.18-6.85-5.83-12.93-11.39-18.04
				c3.01-1.52,5.98-3.17,8.85-5.09c17.87-11.93,24.22-32.67,17.85-56.9c-2.42-9.19-8.6-17.35-16.25-23.29
				c3.68-4.33,6.45-9.37,7.78-14.98c2.55-10.78-3.75-27.86-9.94-36.14c-11.21-15-27.62-21.86-44.95-27.49
				c-18.98-6.17-40.71-5.6-60.66-4.82c-0.2,0.01-0.4,0.03-0.6,0.04c-7.85-4.61-16.56-6.74-24.37-8.13
				c-33.85-6-77.54,10.12-96.7,38.13c-4.41,6.45-9.99,15.66-13.57,33.06c-0.4,0.41-0.81,0.81-1.21,1.22
				c-5.59,5.7-11.24,13.3-18.48,16.79c-8.6,4.14-18.4,4.99-27.74,6.26c0,0-20.59,0.23-34.15-0.35c0,0-235.57-37.63-433.45-44.88
				s-229.28,40.85-229.28,40.85"/>
			<g>
				<path class="st4" d="M-163.62,536.17c96.16-3.77,251.47-42.72,251.47-42.72c86.89-35.2,352.01-53.42,352.01-53.42
					c7.9,0.04,15.79,0.13,23.69,0.26c8.4,0.14,16.88,0.33,25.05,2.25c19.03,4.48,36.13,14.01,49.92,27.87
					c13.79,13.86,23.14,25.33,39.27,35.05c8.79,5.3,26.08,15.44,35.94,18.32c11.33,3.31,30.04,7.86,45.83,8.43
					c6.36,3.01,13.01,4.88,18.75,5.67c16.07,2.2,34.04-0.38,44.86-13.64c5.34-6.54,7.17-14.91,7.7-23.22
					c9.96-1.83,19.35-6.36,25.11-14.79c7.39-10.82,11.55-27.57,9.33-40.44c-1.18-6.85-5.83-12.93-11.39-18.04
					c3.01-1.52,5.98-3.17,8.85-5.09c17.87-11.93,24.22-32.67,17.85-56.9c-2.42-9.19-8.6-17.35-16.25-23.29
					c3.68-4.33,6.45-9.37,7.78-14.98c2.55-10.78-3.75-27.86-9.94-36.14c-11.21-15-27.62-21.86-44.95-27.49
					c-18.98-6.17-40.71-5.6-60.66-4.82c-0.2,0.01-0.4,0.03-0.6,0.04c-7.85-4.61-16.56-6.74-24.37-8.13
					c-33.85-6-77.54,10.12-96.7,38.13c-4.41,6.45-9.99,15.66-13.57,33.06c-0.4,0.41-0.81,0.81-1.21,1.22
					c-5.59,5.7-11.24,13.3-18.48,16.79c-8.6,4.14-18.4,4.99-27.74,6.26c0,0-20.59,0.23-34.15-0.35c0,0-235.57-37.63-433.45-44.88
					s-229.28,40.85-229.28,40.85"/>
				<g>
					<path class="st1" d="M773.89,361.8c0.24,0.52,0.48,1.05,0.68,1.59c0.23,0.54,0.42,1.08,0.6,1.64c0.21,0.55,0.35,1.12,0.52,1.69
						c0.17,0.56,0.3,1.25,0.45,1.88c0.28,1.29,0.64,2.59,0.83,3.93c0.21,1.34,0.51,2.7,0.61,4.08c0.64,5.53,0.56,11.45-0.72,17.38
						c-1.4,5.87-3.98,11.76-8.28,16.76c-2.13,2.5-4.59,4.85-7.46,6.83c-0.7,0.51-1.4,1.03-2.19,1.52l-1.16,0.73l-0.59,0.36
						l-1.19,0.69c-3.39,1.94-7.21,3.75-10.83,5.63c1.32,1.24,2.64,2.48,3.96,3.73l2.01,1.9c0.67,0.63,1.26,1.28,1.9,1.92
						c0.32,0.32,0.62,0.65,0.92,0.97l0.71,0.83c0.26,0.3,0.5,0.61,0.75,0.91c0.49,0.61,0.95,1.24,1.38,1.88
						c1.74,2.54,3,5.26,3.48,8.01c1.05,6.34,0.42,13.54-1.41,20.52c-0.93,3.5-2.17,6.97-3.75,10.28c-0.82,1.63-1.67,3.26-2.65,4.77
						l-0.73,1.14l-0.75,1.03c-0.53,0.66-1.05,1.34-1.66,1.95c-2.33,2.52-5.27,4.57-8.56,6.18c-1.64,0.81-3.4,1.48-5.21,2.06
						c-0.45,0.15-0.91,0.28-1.37,0.41l-0.69,0.19l-0.17,0.05l-0.34,0.08l-0.75,0.16l-3.03,0.65l-3.18,0.64c-0.1,1.33-0.2,2.66-0.3,4
						l-0.16,2.01c-0.03,0.34-0.05,0.66-0.1,1.01l-0.07,0.62c-0.14,1.22-0.34,2.42-0.56,3.61c-0.48,2.36-1.1,4.66-2,6.78
						c-0.88,2.14-2.01,4.11-3.39,5.87c-0.31,0.45-0.77,0.88-1.14,1.32c-0.41,0.43-0.76,0.91-1.2,1.3c-0.87,0.8-1.7,1.65-2.67,2.34
						c-3.71,2.98-8.28,5.01-13.18,6.3c-2.47,0.6-5.02,1.04-7.63,1.28c-2.62,0.2-5.27,0.32-7.96,0.17c-1.34-0.02-2.69-0.18-4.04-0.28
						c-1.35-0.16-2.72-0.29-4.01-0.52c-2.62-0.44-5.26-1.08-7.85-1.89c-1.3-0.41-2.59-0.86-3.86-1.35c-0.64-0.24-1.27-0.51-1.9-0.77
						l-0.94-0.41l-1.6-0.73c-0.51-0.37-1.31-0.31-2.06-0.36l-1.37-0.07c-0.71-0.03-1.41-0.07-2.13-0.14
						c-1.42-0.1-2.85-0.24-4.29-0.39c-11.48-1.29-23.22-3.88-34.83-7.15c-0.7-0.21-1.51-0.42-2.1-0.62c-0.64-0.2-1.27-0.4-1.94-0.66
						c-1.31-0.47-2.66-1.04-4-1.63c-2.69-1.19-5.41-2.51-8.11-3.91c-5.41-2.8-10.8-5.86-16.17-9.03c-1.34-0.8-2.68-1.6-4.03-2.4
						c-1.27-0.81-2.57-1.57-3.81-2.43c-2.52-1.65-4.94-3.47-7.31-5.36c-4.74-3.8-9.21-8.09-13.66-12.6
						c-4.44-4.51-8.89-9.23-13.52-13.88c-4.82-4.77-10.03-9.21-15.7-13.04c-11.28-7.76-24.11-13.27-37.61-16.32
						c-6.96-1.52-13.9-1.9-20.6-2.06c-6.68-0.14-13.26-0.15-19.9-0.23l-4.97-0.05l-2.49-0.02l-0.62-0.01
						c-0.15-0.02-0.83,0.01-0.99,0.03l-1.25,0.09l-9.93,0.75l-19.84,1.61c-26.44,2.24-52.84,4.76-78.98,7.57
						c-52.27,5.65-103.53,12.28-151.83,21.12c-24.13,4.53-47.55,9.46-69.74,16.17c-2.79,0.78-5.52,1.75-8.25,2.65
						c-1.37,0.46-2.73,0.91-4.09,1.36c-1.35,0.51-2.69,1.02-4.03,1.53s-2.67,1.02-4.01,1.53l-0.6,0.23l-0.89,0.23l-2.01,0.51
						c-2.69,0.66-5.36,1.33-8.02,1.98c-10.65,2.6-21.09,5.07-31.28,7.4c-20.37,4.67-39.73,8.87-57.86,12.54
						c-9.05,1.89-17.82,3.53-26.22,5.18c-8.41,1.6-16.5,3.04-24.2,4.45c-7.72,1.3-15.06,2.54-22,3.71
						c-6.95,1.07-13.5,2.08-19.62,3.03c-6.13,0.84-11.84,1.62-17.08,2.34c-2.62,0.39-5.14,0.66-7.53,0.93
						c-2.4,0.28-4.67,0.55-6.83,0.8c-8.62,1.13-15.32,1.62-19.86,2.18c-4.53,0.53-6.9,0.94-6.88,1.23c0.02,0.27,2.42,0.38,7.01,0.36
						c4.58-0.05,11.37-0.08,20.07-0.76c2.18-0.15,4.48-0.31,6.9-0.47c2.42-0.17,4.96-0.33,7.61-0.62
						c5.29-0.53,11.05-1.11,17.24-1.74c6.17-0.77,12.78-1.59,19.79-2.47c7-0.95,14.39-2.06,22.17-3.19
						c7.76-1.25,15.9-2.52,24.37-3.97c8.46-1.49,17.29-2.99,26.4-4.74c18.25-3.38,37.72-7.31,58.22-11.75
						c10.25-2.22,20.75-4.56,31.47-7.06c2.68-0.63,5.38-1.27,8.09-1.91l2.04-0.49l1.23-0.3l1.26-0.47c1.28-0.47,2.57-0.95,3.86-1.43
						c1.29-0.47,2.59-0.95,3.88-1.43c1.32-0.43,2.65-0.85,3.98-1.28c2.66-0.85,5.32-1.76,8.06-2.49
						c21.76-6.34,45.02-11.04,68.98-15.35c48.01-8.41,99.14-14.73,151.27-20.11c26.07-2.68,52.41-5.09,78.78-7.23l19.78-1.54
						l9.88-0.72l1.23-0.09c-0.08-0.01,0.48,0,0.87,0.01l2.48,0.03l4.95,0.06c6.58,0.1,13.23,0.12,19.74,0.28
						c6.48,0.17,12.77,0.57,18.68,1.89c12.16,2.79,23.84,7.83,34.02,14.88c5.13,3.48,9.84,7.52,14.21,11.86
						c4.5,4.54,8.9,9.21,13.46,13.86c4.56,4.64,9.33,9.24,14.52,13.41c2.6,2.08,5.26,4.08,8.04,5.91c1.37,0.95,2.8,1.79,4.2,2.68
						c1.37,0.82,2.74,1.64,4.1,2.45c5.48,3.25,11.01,6.39,16.67,9.33c2.83,1.47,5.71,2.88,8.69,4.2c1.49,0.66,3,1.29,4.6,1.87
						c0.77,0.3,1.61,0.57,2.44,0.83c0.87,0.29,1.55,0.46,2.33,0.69c12.09,3.41,24.19,6.1,36.53,7.5c1.54,0.17,3.09,0.32,4.64,0.43
						c0.77,0.07,1.55,0.11,2.33,0.15l0.59,0.03l0.27,0.01h-0.02c-0.02,0-0.03-0.01,0.1,0.05l1.54,0.68c0.74,0.31,1.47,0.61,2.22,0.9
						c1.49,0.57,2.99,1.1,4.5,1.57c3.03,0.95,6.11,1.7,9.25,2.22c1.59,0.27,3.13,0.42,4.67,0.61c1.55,0.12,3.09,0.29,4.65,0.32
						c6.2,0.27,12.46-0.24,18.56-1.76c6.07-1.58,12.02-4.2,17.02-8.19c1.29-0.94,2.42-2.06,3.58-3.15c0.59-0.53,1.08-1.16,1.62-1.74
						c0.52-0.61,1.07-1.14,1.55-1.81c2.02-2.57,3.62-5.4,4.81-8.3c1.22-2.89,2.01-5.85,2.59-8.76c0.28-1.46,0.51-2.91,0.68-4.34
						l0.03-0.27c0.01-0.13,0.02-0.13,0.01-0.1c0,0.02,0,0.01,0,0.01l0,0l0,0l0.13-0.03l1.16-0.32c0.57-0.15,1.13-0.32,1.7-0.51
						c2.25-0.71,4.47-1.56,6.6-2.62c4.27-2.09,8.29-4.87,11.57-8.42c0.84-0.86,1.59-1.81,2.33-2.75l1.06-1.45l0.92-1.43
						c1.23-1.91,2.26-3.87,3.24-5.85c1.89-3.96,3.33-8.02,4.4-12.11s1.78-8.23,2.09-12.38c0.3-4.16,0.2-8.34-0.52-12.52
						c-0.81-4.6-2.81-8.63-5.13-12.02c-0.58-0.85-1.19-1.67-1.82-2.46c-0.32-0.39-0.62-0.79-0.95-1.16l-0.16-0.19l-0.03-0.03
						l0.04-0.03l0.77-0.46l1.34-0.84c0.89-0.55,1.76-1.18,2.63-1.82c3.52-2.45,6.62-5.4,9.3-8.56c5.43-6.34,8.71-13.86,10.38-21.11
						c1.56-7.3,1.6-14.36,0.84-20.77c-0.13-1.62-0.47-3.17-0.71-4.71c-0.23-1.55-0.63-3.02-0.96-4.48
						c-0.18-0.74-0.31-1.43-0.54-2.19c-0.22-0.76-0.43-1.52-0.69-2.25c-0.25-0.73-0.51-1.46-0.8-2.15
						c-0.27-0.71-0.58-1.39-0.89-2.06c-1.6-3.51-3.74-6.93-6.35-10.15c-1.3-1.61-2.71-3.19-4.26-4.68c-0.36-0.34-0.72-0.69-1.1-1.05
						l0.05-0.06c0,0.01,0.02-0.02-0.01,0.01l0.32-0.48c0.22-0.32,0.41-0.65,0.62-0.98c0.41-0.66,0.8-1.34,1.18-2.04
						c1.5-2.78,2.73-5.83,3.54-9.08c0.21-0.81,0.35-1.76,0.51-2.65c0.15-0.9,0.18-1.76,0.26-2.66c0.08-1.75,0.04-3.48-0.11-5.18
						c-0.3-3.4-0.96-6.72-1.87-10.01c-0.91-3.28-2.07-6.52-3.49-9.74c-1.43-3.21-3.09-6.4-5.28-9.56
						c-4.32-6.09-9.84-11.38-16.21-15.78c-6.37-4.36-13.45-7.79-20.77-10.6c-3.66-1.42-7.39-2.71-11.14-3.93
						c-3.94-1.26-7.98-2.27-12.08-3.07c-8.22-1.55-16.66-2.25-25.18-2.43c-4.26-0.1-8.55-0.09-12.85,0.01
						c-2.15,0.06-4.3,0.12-6.47,0.18c-1.68,0.06-3.37,0.12-5.07,0.18l-0.15-0.09l-0.4-0.21c-0.66-0.34-1.31-0.69-1.98-1.01
						c-1.33-0.65-2.68-1.23-4.05-1.79c-2.73-1.1-5.53-1.99-8.33-2.75c-2.81-0.76-5.64-1.37-8.46-1.9c-1.39-0.28-2.88-0.45-4.34-0.65
						c-1.47-0.18-2.94-0.43-4.42-0.55c-11.83-0.93-23.87,0.24-35.61,3.21c-1.46,0.41-2.92,0.83-4.38,1.24l-2.19,0.63l-2.16,0.75
						c-1.44,0.51-2.88,1.02-4.33,1.52c-1.44,0.53-2.83,1.17-4.26,1.76c-2.87,1.13-5.61,2.57-8.39,3.95
						c-1.41,0.65-2.72,1.51-4.08,2.28c-1.34,0.81-2.72,1.54-4.03,2.41c-2.58,1.79-5.27,3.44-7.71,5.5c-1.23,1-2.52,1.94-3.71,3.01
						c-1.18,1.09-2.35,2.18-3.53,3.27c-1.22,1.05-2.26,2.3-3.36,3.49l-1.64,1.8l-0.82,0.9l-0.75,0.97
						c-0.99,1.31-1.98,2.62-2.97,3.93s-1.81,2.63-2.7,4.01c-3.5,5.49-6.32,11.55-8.41,17.73c-1.06,3.09-1.96,6.23-2.71,9.39
						c-0.2,0.79-0.38,1.58-0.55,2.37l-0.12,0.55l0,0c-0.01,0.02,0.03-0.02-0.03,0.04l-0.83,0.85c-0.58,0.6-1.12,1.19-1.67,1.78
						c-2.17,2.36-4.21,4.66-6.27,6.76c-2.06,2.09-4.17,3.96-6.34,5.37c-2.02,1.3-4.71,2.41-7.41,3.26
						c-2.72,0.87-5.62,1.49-8.59,2.01c-2.99,0.51-6.07,0.92-9.24,1.33l-2.39,0.32c-0.69,0.08-0.01,0.03-0.56,0.05l-1.19,0.01
						l-4.77,0.03c-6.36,0.02-12.75,0-19.12-0.11l-4.77-0.12l-2.37-0.08l-0.85-0.03l-0.96-0.15c-3.19-0.49-6.39-0.98-9.59-1.47
						c-6.4-0.95-12.8-1.89-19.22-2.84c-102.69-14.86-208.18-26.83-303.36-33.73c-23.79-1.76-46.95-3.07-69.23-4.14
						c-11.15-0.44-22.08-0.92-32.77-1.28c-10.71-0.16-21.18-0.32-31.37-0.47c-40.79,0.02-77.31,2.64-107.47,7.71
						c-30.17,5.01-53.78,13.01-68.87,20.9c-7.47,4.11-12.92,7.91-16.16,11.05c-3.26,3.11-4.46,5.22-4.23,5.38
						c0.22,0.15,1.76-1.52,5.21-4.16c3.44-2.66,8.97-5.97,16.44-9.58c15.11-6.92,38.45-14.02,68.33-18.3
						c29.87-4.33,66.08-6.33,106.57-5.84c10.12,0.27,20.52,0.55,31.15,0.84c10.64,0.47,21.53,1.08,32.64,1.62
						c22.21,1.29,45.28,2.8,69,4.74c94.87,7.62,200.16,20.05,302.61,35.15c6.4,0.96,12.79,1.92,19.16,2.88
						c3.18,0.5,6.36,0.99,9.54,1.49l1.38,0.22c0.95,0.09,1.17,0.06,1.62,0.09l2.45,0.09l4.88,0.13c6.49,0.13,12.93,0.17,19.36,0.16
						l4.82-0.02l1.21-0.01l0.92-0.01l0.91-0.12l2.35-0.31c3.15-0.41,6.38-0.82,9.65-1.37c3.28-0.57,6.6-1.26,9.92-2.31
						c3.32-1.06,6.57-2.3,9.88-4.38c3.14-2.03,5.74-4.39,8.1-6.76c2.35-2.37,4.47-4.77,6.53-7.01l1.54-1.63l2.43-2.47l0.38-0.39
						c0.11-0.14,0.1-0.37,0.16-0.55l0.25-1.14l0.39-1.77c0.16-0.73,0.32-1.46,0.51-2.18c0.69-2.9,1.51-5.73,2.46-8.49
						c1.89-5.54,4.3-10.73,7.39-15.57c0.77-1.2,1.57-2.47,2.43-3.6l2.55-3.37l0.64-0.84l0.72-0.78l1.43-1.56
						c0.96-1.03,1.86-2.13,2.94-3.05l3.12-2.89c1.05-0.95,2.21-1.78,3.31-2.67c2.16-1.83,4.6-3.31,6.92-4.93
						c9.57-6.08,20.13-10.42,30.82-13.24c10.73-2.72,21.68-3.75,32.15-2.93c1.31,0.1,2.59,0.33,3.88,0.49
						c1.29,0.18,2.56,0.31,3.89,0.58c2.62,0.49,5.18,1.04,7.66,1.71c2.48,0.68,4.89,1.44,7.19,2.37c1.15,0.47,2.28,0.95,3.37,1.49
						c0.56,0.26,1.08,0.55,1.62,0.82l0.2,0.1l0.37,0.21l0.8,0.45l1.6,0.9l1.62-0.1l0.81-0.04l0.61-0.02l1.61-0.06
						c1.07-0.04,2.14-0.08,3.2-0.11c2.12-0.06,4.24-0.12,6.34-0.18c4.2-0.1,8.33-0.11,12.4-0.01c8.14,0.17,16.02,0.83,23.49,2.23
						c3.73,0.72,7.34,1.63,10.83,2.73c3.65,1.19,7.19,2.41,10.62,3.73c6.86,2.62,13.17,5.71,18.68,9.46
						c2.75,1.87,5.26,3.95,7.55,6.16c2.3,2.17,4.35,4.65,6.1,7.04c1.66,2.38,3.11,5.1,4.33,7.84c1.22,2.75,2.23,5.56,3,8.33
						c1.54,5.51,2.22,11.12,1.17,15.32c-0.59,2.38-1.48,4.63-2.61,6.73c-0.28,0.53-0.58,1.04-0.89,1.55
						c-0.16,0.25-0.31,0.51-0.47,0.75l-0.24,0.37c-0.21,0.32-0.39,0.56-0.6,0.84c-0.78,1.09-1.64,2.15-2.52,3.2
						c-0.86,1.05-1.72,2.08-2.58,3.12c1.59,1.28,3.16,2.55,4.72,3.81c0.78,0.63,1.56,1.26,2.26,1.92l0.64,0.59
						c0.17,0.15,0.32,0.31,0.48,0.46c1.27,1.22,2.42,2.51,3.49,3.81C770.94,356.37,772.64,359.09,773.89,361.8z"/>
				</g>
			</g>
		</g>
		<g class="st3">
			<g>
				<g>
					<g>
						<path class="st1" d="M640.84,475.52c0.73,0.72,0.4,2.02,0.06,3.87c-0.09,0.49-0.18,1.04-0.29,1.64
							c-0.12,0.65-0.28,1.33-0.46,2.07c-0.21,0.72-0.32,1.52-0.51,2.34c-0.18,0.82-0.4,1.68-0.53,2.59
							c-0.68,3.61-1.14,7.91-0.62,12.5c0.33,2.28,0.88,4.63,1.78,6.95s2.2,4.59,3.8,6.75c1.61,2.14,4.05,4.96,7.63,7.67
							c3.53,2.76,8.13,5.44,13.44,7.63c2.66,1.09,5.5,2.06,8.45,2.85c2.96,0.81,5.97,1.35,9.18,1.76
							c6.33,0.75,12.86,0.94,18.93-0.26c3.03-0.58,5.94-1.46,8.63-2.64c2.67-1.22,5.09-2.76,7.25-4.46c1.04-0.9,2.08-1.76,2.97-2.75
							c0.94-0.94,1.79-1.88,2.51-2.89c1.49-1.98,2.61-4.06,3.49-6.06c1.74-4.01,2.57-7.62,3.14-10.12c0.57-2.51,0.9-3.95,1.19-3.93
							c0.27,0.02,0.48,1.49,0.43,4.13c-0.07,2.63-0.39,6.47-1.82,11.02c-0.72,2.27-1.74,4.7-3.24,7.11
							c-0.72,1.22-1.62,2.39-2.57,3.52c-0.91,1.18-2.01,2.24-3.12,3.36c-2.31,2.12-4.98,4.08-7.96,5.68c-3,1.55-6.27,2.76-9.66,3.61
							c-3.39,0.86-6.9,1.33-10.4,1.51c-3.5,0.19-7.01,0.11-10.45-0.16c-3.4-0.28-6.91-0.76-10.18-1.53c-3.3-0.75-6.47-1.7-9.46-2.81
							c-5.99-2.24-11.29-5.11-15.5-8.25c-4.26-3.08-7.34-6.48-9.34-9.17c-2-2.7-3.66-5.62-4.81-8.63s-1.82-6.07-2.14-8.99
							c-0.52-5.87,0.41-11.07,1.73-15.11c0.29-1.03,0.68-1.96,1.05-2.84c0.38-0.87,0.7-1.71,1.11-2.44
							c0.39-0.74,0.78-1.41,1.14-2.02c0.19-0.31,0.35-0.58,0.55-0.88c0.2-0.31,0.42-0.59,0.63-0.85c0.85-1.03,1.72-1.64,2.41-1.9
							C639.98,475.12,640.51,475.2,640.84,475.52z"/>
					</g>
				</g>
			</g>
			<g>
				<g>
					<g>
						<path class="st1" d="M644.41,421.67c0.27,0.43,0.13,1.02-0.11,1.79c-0.25,0.78-0.6,1.79-0.95,3.23
							c-0.71,3.15-2.1,7.65-2.95,13.27c-0.1,0.7-0.21,1.42-0.32,2.16c-0.1,0.74-0.14,1.49-0.22,2.26c-0.19,1.54-0.21,3.14-0.27,4.79
							c0,3.3,0.12,6.83,0.83,10.41c1.37,7.13,4.51,14.66,11.21,19.04c3.38,2.39,8.6,5.11,15.29,7.51
							c6.71,2.35,14.78,4.51,23.69,6.19c4.45,0.87,9.09,1.63,13.88,2.32c2.39,0.35,4.81,0.67,7.26,0.98
							c2.46,0.33,4.83,0.56,7.27,0.75c4.84,0.31,9.73,0.26,14.45-0.43c1.16-0.23,2.36-0.36,3.48-0.68l1.71-0.42l1.66-0.53
							c1.13-0.31,2.15-0.83,3.23-1.24c0.52-0.23,1.01-0.52,1.52-0.77c0.5-0.26,1.02-0.5,1.48-0.83l1.41-0.91
							c0.47-0.3,0.88-0.69,1.32-1.02c0.91-0.66,1.65-1.47,2.44-2.25c0.41-0.37,0.73-0.82,1.08-1.25l1.03-1.28
							c0.63-0.95,1.3-1.87,1.86-2.86c2.36-3.88,4.12-8.04,5.45-12.13c2.68-8.2,3.48-16.24,2.77-22.82
							c-0.29-3.25-1.34-6.04-2.56-8.41c-1.21-2.38-2.58-4.3-3.73-5.85c-2.35-3.08-3.88-4.7-3.67-4.92c0.17-0.18,2.06,1.02,4.9,3.86
							c1.4,1.43,3.05,3.28,4.59,5.72c1.54,2.41,3.01,5.52,3.59,9.15c1.27,7.08,0.88,15.67-1.55,24.57c-1.22,4.45-2.9,9-5.33,13.41
							c-0.57,1.12-1.28,2.18-1.95,3.28l-1.18,1.61c-0.4,0.53-0.78,1.09-1.26,1.57c-0.92,0.99-1.81,2.02-2.88,2.87
							c-0.52,0.43-1.01,0.92-1.57,1.31l-1.68,1.18c-0.55,0.42-1.15,0.73-1.75,1.07c-0.6,0.33-1.19,0.69-1.8,0.99
							c-1.24,0.54-2.47,1.19-3.76,1.61l-1.92,0.69l-1.95,0.55c-1.3,0.41-2.63,0.6-3.94,0.91c-5.29,0.95-10.63,1.15-15.83,0.97
							c-2.59-0.12-5.21-0.31-7.69-0.57c-2.49-0.24-4.96-0.51-7.41-0.8c-4.89-0.57-9.67-1.24-14.28-2.04
							c-9.21-1.53-17.71-3.61-24.96-6.04c-7.24-2.48-13.2-5.46-17.31-8.37c-1.02-0.76-2.05-1.38-3.03-2.34
							c-0.49-0.44-0.98-0.89-1.47-1.33c-0.49-0.44-0.87-0.96-1.31-1.44c-0.42-0.49-0.84-0.98-1.26-1.46
							c-0.37-0.51-0.72-1.04-1.08-1.55c-0.35-0.52-0.7-1.04-1.04-1.55c-0.29-0.54-0.58-1.08-0.87-1.61
							c-2.29-4.3-3.57-8.75-4.31-12.99c-1.39-8.52-0.55-16.21,0.95-22.36c1.5-6.19,3.76-10.78,5.64-13.81
							c1.04-1.61,2.26-2.71,3.27-3.17C643.49,421.16,644.17,421.29,644.41,421.67z"/>
					</g>
				</g>
			</g>
			<g>
				<g>
					<g>
						<path class="st1" d="M635.24,404.61c1-0.28,2.1,1.26,3.78,3.86c1.68,2.59,3.99,6.28,7.78,9.89c0.95,0.88,2,1.81,3.11,2.61
							c1.06,0.78,2.28,1.52,3.64,2.21c2.71,1.39,5.89,2.61,9.38,3.6c6.98,2.02,15.09,3.4,23.69,4.22c4.3,0.44,10.17,0.86,17.16,1.08
							c1.75,0.06,3.57,0.12,5.45,0.13c1.87,0.01,3.86,0.08,5.78,0.04c3.89-0.05,7.98-0.33,12.18-0.94c8.4-1.21,17.26-3.73,25.58-7.9
							c4.15-2.08,8.26-4.52,11.82-7.31c3.59-2.83,6.72-6.18,9.18-9.92c2.46-3.74,4.25-7.84,5.36-12.04
							c1.09-4.21,1.52-8.49,1.53-12.6c0.05-4.13-0.47-8.09-1.11-11.8c-0.38-1.84-0.69-3.67-1.16-5.3c-0.47-1.65-1.06-3.21-1.68-4.68
							c-2.6-5.85-6-10.08-8.47-12.84c-2.49-2.78-4.07-4.22-3.88-4.46c0.15-0.2,2.07,0.81,5.02,3.3c2.92,2.48,6.9,6.53,10.16,12.64
							c0.79,1.54,1.54,3.19,2.18,4.97c0.65,1.8,1.08,3.65,1.59,5.57c0.9,3.85,1.69,8.03,1.86,12.49c0.21,4.44-0.03,9.16-1.05,13.91
							c-1.03,4.75-2.87,9.51-5.52,13.89c-2.64,4.39-6.1,8.36-10.06,11.7c-4.01,3.35-8.27,6.05-12.7,8.44
							c-8.87,4.78-18.44,7.78-27.5,9.3c-4.54,0.76-8.96,1.17-13.16,1.3c-2.12,0.09-4.07,0.05-6.01,0.07
							c-1.93,0.02-3.79-0.01-5.59-0.04c-7.19-0.12-13.27-0.49-17.75-0.95c-8.96-0.85-17.52-2.3-25.2-4.69
							c-3.84-1.18-7.45-2.66-10.71-4.52c-1.63-0.93-3.17-1.98-4.58-3.16c-1.37-1.14-2.51-2.31-3.57-3.5
							c-4.21-4.79-6.19-9.63-6.97-12.97C634.04,406.83,634.37,404.85,635.24,404.61z"/>
					</g>
				</g>
			</g>
			<g>
				<g>
					<g>
						<path class="st1" d="M623.22,267.58c-0.51-0.8,1.93-3.41,7.61-6.16c5.64-2.76,14.55-5.24,25.64-5.9
							c5.38-0.33,11.3-0.64,17.71-0.75c6.4-0.11,13.3,0.01,20.57,0.65c7.27,0.68,14.95,1.89,22.7,4.3
							c3.81,1.19,7.54,2.48,11.39,3.93c3.83,1.45,7.7,3.09,11.52,5.02c3.81,1.94,8.27,4.43,12.85,7.99
							c1.13,0.91,2.32,1.81,3.44,2.86c0.57,0.52,1.17,1.01,1.73,1.57s1.12,1.12,1.7,1.69c0.59,0.56,1.11,1.18,1.67,1.8
							c0.54,0.63,1.13,1.22,1.65,1.89c1.05,1.33,2.13,2.65,3.16,4.2c2,3.03,3.64,6.28,5.1,9.73c1.44,3.46,2.67,7.13,3.57,11.04
							c0.47,1.95,0.8,3.98,1.04,6.07c0.13,1.04,0.16,2.12,0.24,3.19c-0.02,1.1,0.04,2.19-0.07,3.32c-0.29,4.62-1.87,9.17-4.38,13.1
							c-2.5,3.95-5.77,7.18-9.1,10.07c-0.85,0.72-1.64,1.43-2.55,2.12s-1.81,1.39-2.73,2.09c-0.92,0.68-1.91,1.27-2.86,1.91
							c-0.49,0.31-0.96,0.64-1.46,0.93l-1.51,0.84c-1.99,1.18-4.09,2.11-6.18,3.11c-2.14,0.86-4.27,1.77-6.47,2.48
							c-4.38,1.49-8.87,2.66-13.41,3.52c-9.08,1.79-18.32,2.53-27.46,2.92c-9.12,0.33-18.26,0.51-27.36-0.2
							c-9.06-0.75-18.14-2.4-26.35-6.1c-2.05-0.91-4.03-1.96-5.92-3.14c-1.9-1.16-3.69-2.51-5.36-3.97
							c-3.34-2.92-6.09-6.52-7.85-10.49c-0.88-1.98-1.49-4.05-1.91-6.12c-0.18-1.04-0.26-2.09-0.39-3.12
							c-0.08-0.52-0.06-1.04-0.06-1.56l0.01-1.55c0.16-4.11,1.25-8.01,2.84-11.46c0.43-0.85,0.79-1.73,1.28-2.52
							c0.48-0.79,0.96-1.58,1.44-2.36c1.07-1.47,2.1-2.94,3.28-4.22c0.57-0.67,1.13-1.32,1.76-1.9c0.61-0.6,1.2-1.21,1.81-1.77
							c1.27-1.08,2.48-2.18,3.79-3.09c5.09-3.84,10.44-6.25,15.26-7.77c4.83-1.48,9.14-2.18,12.67-2.56
							c7.07-0.7,11.05-0.33,11.05-0.1c0.02,0.33-3.95,0.51-10.82,1.72c-3.42,0.63-7.57,1.56-12.14,3.22
							c-0.57,0.22-1.14,0.44-1.72,0.66c-0.57,0.25-1.15,0.51-1.74,0.77c-1.19,0.48-2.34,1.15-3.55,1.76
							c-2.36,1.35-4.79,2.87-7.09,4.79c-1.19,0.9-2.28,1.98-3.43,3.02c-0.55,0.55-1.07,1.13-1.62,1.7
							c-0.56,0.56-1.06,1.18-1.56,1.81c-1.05,1.22-1.94,2.59-2.87,3.96c-0.4,0.72-0.81,1.44-1.22,2.17
							c-0.42,0.72-0.7,1.52-1.07,2.28c-1.31,3.1-2.13,6.5-2.17,9.99l0.03,1.31c0.01,0.44,0,0.88,0.09,1.31
							c0.14,0.87,0.23,1.75,0.4,2.63c0.41,1.74,0.96,3.46,1.75,5.1c1.57,3.28,3.94,6.25,6.9,8.71c1.48,1.23,3.07,2.38,4.79,3.37
							c1.71,1.01,3.51,1.91,5.39,2.69c7.51,3.18,16.01,4.57,24.69,5.11c8.7,0.51,17.67,0.17,26.66-0.32
							c8.95-0.54,17.87-1.42,26.43-3.25c4.29-0.88,8.46-2.05,12.48-3.48c2.03-0.68,3.95-1.54,5.89-2.35
							c1.87-0.93,3.77-1.8,5.52-2.88l1.34-0.77c0.44-0.26,0.85-0.56,1.28-0.84c0.84-0.58,1.7-1.11,2.51-1.72
							c0.79-0.62,1.58-1.24,2.36-1.86c0.78-0.61,1.58-1.33,2.34-2c3.05-2.71,5.74-5.5,7.6-8.55c1.88-3.02,2.96-6.35,3.12-9.63
							c0.08-0.83,0.01-1.72,0.03-2.56c-0.08-0.88-0.1-1.74-0.23-2.61c-0.22-1.74-0.52-3.47-0.95-5.17
							c-1.67-6.79-4.45-13.16-7.74-18.13c-0.8-1.19-1.77-2.37-2.7-3.52c-0.45-0.58-0.97-1.1-1.45-1.64
							c-0.49-0.53-0.95-1.08-1.46-1.56c-0.5-0.49-1-0.98-1.49-1.47c-0.49-0.48-1.02-0.91-1.52-1.36c-0.99-0.91-2.04-1.7-3.04-2.5
							c-4.05-3.12-8.09-5.37-11.58-7.15c-7-3.53-14.47-6.15-21.67-8.47c-7.03-2.21-14.18-3.4-21.05-4.11
							c-6.89-0.68-13.53-0.92-19.77-0.95c-6.25-0.05-12.1,0.06-17.47,0.13c-10.45,0.11-18.72,1.66-24.32,3.2
							C626.84,267.18,623.74,268.43,623.22,267.58z"/>
					</g>
				</g>
			</g>
			<g>
				<g>
					<g>
						<path class="st1" d="M678.31,293.11c-0.11-3.02,4.88-3.2,10.95-2.85c3.04,0.14,10.34,1.13,16.7,2.7
							c6.38,1.53,11.84,3.43,11.68,4.24c-0.16,0.83-5.91,0.42-12.33,0c-6.42-0.46-13.5-0.75-16.4-0.88
							C683.09,295.97,678.42,295.93,678.31,293.11z"/>
					</g>
				</g>
			</g>
			<g>
				<g>
					<g>
						<path class="st1" d="M706.18,295.16c-2.22-2.04-1.23-3.15,0.14-4.34c0.67-0.6,2.62-1.74,4.59-2.25
							c1.95-0.55,3.86-0.43,4.11,0.39c0.24,0.79-0.83,1.98-1.92,3.29c-1.11,1.28-2.25,2.65-2.8,3.14
							C709.2,296.34,708.26,297.07,706.18,295.16z"/>
					</g>
				</g>
			</g>
			<g>
				<path class="st0" d="M518.24,346.84c2.1-34.49,10.54-48.76,16.68-57.75c19.15-28.01,62.84-44.13,96.7-38.13
					c23.27,4.12,54.55,14.81,47.23,78.19c-1.88,16.3,1.58,35.16,1.17,51.57c-0.23,9.26-4.98,23.09-18.83,27.59
					c-12.87,4.18-35.39-4.85-41.95-19.31c-9-19.84-18.39-60.74-15.03-78.62"/>
				<g>
					<g>
						<path class="st1" d="M684.03,300.52c-0.07-0.78-0.15-1.59-0.23-2.44c-0.12-0.85-0.24-1.74-0.37-2.67
							c-0.22-1.85-0.67-3.84-1.09-5.95c-0.96-4.22-2.42-8.96-4.8-13.87c-1.26-2.43-2.64-4.94-4.42-7.34
							c-0.84-1.24-1.85-2.38-2.82-3.58c-1.06-1.13-2.11-2.3-3.3-3.36c-2.34-2.17-4.95-4.18-7.8-5.91s-5.9-3.21-9.07-4.45
							c-3.17-1.24-6.46-2.24-9.81-3.06c-1.67-0.42-3.36-0.77-5.05-1.11c-0.85-0.17-1.69-0.31-2.54-0.47
							c-0.86-0.14-1.75-0.24-2.63-0.37c-0.88-0.12-1.77-0.23-2.66-0.35c-0.89-0.11-1.78-0.27-2.68-0.28
							c-1.79-0.09-3.59-0.19-5.4-0.28c-1.81-0.07-3.61,0.04-5.43,0.06c-0.91,0.03-1.82,0.02-2.73,0.08l-2.72,0.25l-2.72,0.25
							l-1.36,0.13l-1.35,0.21c-1.8,0.29-3.61,0.57-5.42,0.86c-1.8,0.35-3.57,0.78-5.36,1.18c-0.89,0.21-1.79,0.37-2.67,0.63
							l-2.64,0.77l-2.63,0.77l-1.32,0.39l-1.29,0.46c-1.72,0.62-3.43,1.24-5.15,1.86c-1.69,0.67-3.35,1.43-5.02,2.14
							c-0.83,0.37-1.67,0.7-2.48,1.1l-2.42,1.23l-2.41,1.23c-0.8,0.4-1.6,0.82-2.36,1.3c-1.54,0.92-3.07,1.84-4.6,2.75
							c-1.51,0.94-2.93,2.01-4.39,3c-0.72,0.51-1.45,1-2.15,1.52c-0.68,0.55-1.36,1.1-2.04,1.65s-1.35,1.1-2.02,1.64
							c-0.67,0.55-1.35,1.07-1.96,1.69c-1.25,1.19-2.49,2.37-3.71,3.54c-0.63,0.56-1.18,1.22-1.74,1.85s-1.12,1.26-1.67,1.89
							s-1.1,1.25-1.65,1.87c-0.52,0.64-0.99,1.33-1.48,1.99c-0.96,1.33-1.95,2.64-2.85,3.95c-0.85,1.31-1.68,2.64-2.47,3.97
							c-1.58,2.67-2.96,5.39-4.12,8.09c-2.36,5.38-3.93,10.63-5.02,15.47c-2.14,9.7-2.7,17.75-2.76,23.33
							c-0.07,2.79,0.09,4.97,0.25,6.45c0.18,1.48,0.43,2.27,0.75,2.29c0.3,0.02,0.65-0.74,1.02-2.18c0.39-1.43,0.75-3.56,1.29-6.25
							c1.01-5.39,2.39-13.14,5.08-22.17c1.36-4.51,3.14-9.29,5.55-14.09c1.2-2.4,2.55-4.8,4.11-7.18c0.78-1.19,1.59-2.39,2.45-3.59
							c0.88-1.16,1.8-2.28,2.7-3.44c0.46-0.57,0.89-1.17,1.39-1.73c0.51-0.54,1.03-1.08,1.55-1.63c0.52-0.55,1.04-1.1,1.56-1.65
							s1.03-1.12,1.63-1.61c1.15-1.03,2.3-2.06,3.47-3.1c0.56-0.54,1.21-1,1.84-1.48s1.26-0.96,1.89-1.45
							c0.63-0.48,1.26-0.97,1.9-1.46c0.67-0.44,1.34-0.89,2.02-1.33c1.36-0.87,2.68-1.82,4.09-2.65c1.42-0.81,2.86-1.62,4.29-2.43
							c0.71-0.43,1.45-0.79,2.2-1.14l2.25-1.09l2.25-1.09c0.76-0.36,1.54-0.64,2.32-0.97c1.56-0.62,3.1-1.3,4.67-1.89
							c1.59-0.54,3.19-1.09,4.79-1.63l1.2-0.41l1.22-0.34l2.44-0.67l2.44-0.68c0.81-0.23,1.65-0.36,2.47-0.55
							c1.65-0.34,3.3-0.72,4.95-1.02c1.66-0.24,3.32-0.49,4.98-0.73l1.24-0.18l1.25-0.1l2.49-0.2l2.48-0.2
							c0.83-0.05,1.65-0.03,2.47-0.05c1.64,0,3.29-0.1,4.91-0.02c1.62,0.1,3.24,0.19,4.84,0.29c0.81,0.02,1.59,0.17,2.38,0.27
							c0.79,0.11,1.57,0.22,2.36,0.33s1.56,0.2,2.35,0.33c0.79,0.15,1.59,0.29,2.37,0.45c1.56,0.32,3.11,0.65,4.61,1.03
							c3.01,0.75,5.89,1.64,8.6,2.71c5.42,2.12,10.13,4.98,13.84,8.47c0.96,0.84,1.79,1.78,2.64,2.67c0.77,0.96,1.59,1.86,2.26,2.86
							c1.44,1.91,2.57,3.96,3.62,5.95c3.98,8.13,5.16,16.03,5.77,21.61c0.49,5.62,0.7,13.61-0.29,23.27
							c-0.12,1.21-0.25,2.44-0.37,3.69c-0.12,1.33-0.29,2.76-0.38,4.16c-0.2,2.83-0.26,5.74-0.24,8.7
							c0.05,5.93,0.46,12.09,0.91,18.38c0.43,6.3,0.92,12.76,0.89,19.21c-0.01,1.7-0.03,3.04-0.22,4.51
							c-0.18,1.45-0.46,2.91-0.87,4.34c-0.8,2.86-1.99,5.62-3.63,8.03c-1.64,2.4-3.7,4.45-6.1,5.99c-0.3,0.19-0.59,0.41-0.91,0.57
							l-0.96,0.49c-0.62,0.36-1.31,0.61-1.99,0.87c-0.34,0.12-0.68,0.3-1.01,0.37l-0.98,0.25c-0.33,0.07-0.63,0.21-1,0.24
							l-1.06,0.14c-2.85,0.35-5.97,0.11-9.03-0.49c-3.08-0.59-6.09-1.67-8.96-2.96c-0.7-0.35-1.45-0.63-2.12-1.03l-2.05-1.14
							c-1.3-0.85-2.63-1.65-3.8-2.62c-2.39-1.87-4.55-3.97-6.1-6.33c-0.46-0.56-0.73-1.18-1.08-1.78l-0.51-0.9
							c-0.17-0.33-0.32-0.72-0.48-1.07c-0.64-1.44-1.3-2.86-1.87-4.33c-0.59-1.46-1.18-2.9-1.7-4.36c-0.53-1.46-1.09-2.89-1.56-4.35
							c-2-5.77-3.67-11.42-5.1-16.77c-1.46-5.35-2.63-10.41-3.61-15.08c-1.95-9.34-3.01-17.09-3.43-22.48
							c-0.44-5.39-0.28-8.44-0.94-8.59c-0.58-0.14-1.86,2.89-2.4,8.55c-0.54,5.64-0.28,13.75,1.02,23.47
							c0.65,4.86,1.54,10.12,2.75,15.69c1.18,5.57,2.64,11.44,4.48,17.51c0.43,1.52,0.96,3.05,1.46,4.59
							c0.49,1.55,1.06,3.1,1.63,4.66c0.54,1.57,1.21,3.13,1.86,4.72l0.5,1.19l0.66,1.29c0.46,0.85,0.86,1.76,1.43,2.53
							c2.05,3.3,4.74,6.04,7.66,8.45c1.44,1.25,3.02,2.27,4.59,3.33l2.45,1.43c0.81,0.49,1.68,0.86,2.53,1.3
							c3.42,1.62,7.01,2.99,10.82,3.8c3.8,0.82,7.78,1.24,11.94,0.81c1.04-0.12,2.08-0.22,3.14-0.52l1.58-0.4
							c0.53-0.13,0.98-0.34,1.48-0.51c0.97-0.36,1.94-0.71,2.86-1.21l1.4-0.7c0.46-0.24,0.89-0.54,1.34-0.81
							c3.55-2.2,6.58-5.18,8.9-8.51c2.33-3.34,3.93-7.02,5.01-10.76c0.55-1.87,0.93-3.78,1.19-5.7c0.27-1.91,0.32-3.96,0.33-5.63
							c0.07-7.01-0.42-13.65-0.84-19.96c-0.43-6.3-0.83-12.26-0.89-17.81c-0.02-2.77,0.03-5.44,0.2-7.97
							c0.07-1.28,0.22-2.48,0.32-3.73c0.13-1.33,0.25-2.63,0.38-3.9C684.96,315.39,684.68,306.72,684.03,300.52z"/>
					</g>
				</g>
			</g>
			<g>
				<g>
					<g>
						<path class="st1" d="M605.58,339.73c-0.76,2.91-3.88,2.15-7.55,0.68c-1.83-0.71-6.16-2.9-9.4-5.98
							c-1.62-1.52-2.95-3.29-3.5-4.87c-0.57-1.59-0.27-2.72,0.12-2.75c0.44-0.05,0.93,0.69,1.88,1.49c0.94,0.83,2.37,1.79,4.04,2.67
							c3.32,1.78,7.44,3.16,9.09,3.8C603.55,336.09,606.3,336.99,605.58,339.73z"/>
					</g>
				</g>
			</g>
		</g>
	</g>
</g>
</svg>
