<?xml version="1.0" encoding="utf-8"?>
<!-- Generator: Adobe Illustrator 26.5.0, SVG Export Plug-In . SVG Version: 6.00 Build 0)  -->
<svg version="1.1" id="Layer_1" xmlns="http://www.w3.org/2000/svg" xmlns:xlink="http://www.w3.org/1999/xlink" x="0px" y="0px"
	 viewBox="0 0 1366 768" style="enable-background:new 0 0 1366 768;" xml:space="preserve">
<style type="text/css">
	.st0{display:none;}
	.st1{display:inline;fill:#E4B893;}
	.st2{display:inline;}
	.st3{fill:#3F3B3C;}
	.st4{fill:#E4B893;}
	.st5{fill:none;}
</style>
<g id="Layer_1_copy">
	<g class="st0">
		<path class="st1" d="M1780.32,311.36c-88.77-9.25-284.79,35.14-329.18,35.14s-236.89-1.19-236.89-1.19
			c-16.33,1.35-64.48-4.8-75.71-13.3c-16.67-12.62-26.98-59.22-49.46-78.42c-43.26-36.95-25.8-92.82-28.5-108.15
			c-2.7-15.32-31.79-27.62-50.02,0c-29.74,45.06,7.37,106.9-8.11,116.27c-61.91-2.86-127.77-43.62-175.24-79.55
			c-17.88-13.54-63.35-44.87-80.73-15.08c-15.16,25.99,13.41,47.87,33.22,59.28c19.8,11.4,40.05,23.55,59.74,35.64
			c10.18,6.25,20.24,12.68,30.06,19.48c5.09,3.52,22.29,12.73,17.29,21.03c-1.92,3.18-4.08,3.89-15.94,3.71
			c-21.63-0.34-100.04-14.31-139.97-23.25c-16.92-3.79-56.32-6.27-60.12,24.38c-4.96,39.98,56.78,36.38,98.69,40.43
			c22.43,2.17,85.65,9.26,100.49,11.27c7.15,0.96,14.31,5.18,16.11,9.69s-4.51,9.71-10.82,12.51c-12.96,5.75-59.12,13.04-80.1,18.36
			c-30.19,7.66-115.82,5.86-106.35,47.77c5.81,25.71,33.31,23.58,53.81,19.68c32.13-6.12,63.42-13.81,96.07-17.38
			c16.89-1.84,33.74-4.21,50.65-5.91c7.17-0.72,10.36,0,12.17,4.51c1.8,4.51-1.35,8.56-4.96,11.27
			c-11.7,8.77-25.91,15.38-38.43,22.95c-21.04,12.74-42.73,24.3-63.89,36.76c-14.68,8.63-31.55,21.65-21.72,40.38
			c17.24,32.85,62.76-4.91,82.58-14.47c19.83-9.56,79.76-42.81,95.09-45.52c27.07-4.78,54.59-3.12,81.82-5.5
			c26.2-2.29,52.3-9.51,75.7-21.59c19.54-10.09,39.06-27.46,62.39-26.09c15.32,0.9,44.16,0.25,44.16,0.25s347.85,38.47,503.19,56.96
			"/>
		<g class="st2">
			<g>
				<path class="st3" d="M696.65,334.29c-2.42-0.82-4.88-1.69-7.19-2.84c-2.36-1.09-4.54-2.46-6.51-4.03
					c-2.01-1.55-3.62-3.44-4.85-5.54c-1.23-2.11-2.09-4.48-2.35-7.15c-0.04-0.33-0.13-0.65-0.13-0.99l-0.02-1.03l-0.03-1.04
					c-0.02-0.34-0.03-0.69,0.02-1.05c0.05-0.72,0.11-1.43,0.16-2.16c0.03-0.73,0.22-1.42,0.31-2.14c0.52-2.83,1.47-5.53,2.93-7.93
					c2.88-4.83,8.1-8.32,14.49-10.26c6.39-1.97,13.72-2.53,21.23-2.18c3.76,0.19,7.59,0.6,11.4,1.26c3.67,0.65,7.87,1.68,11.97,2.54
					c16.5,3.51,33.86,6.9,52.03,10.17c18.18,3.26,37.13,6.5,56.99,9.18c4.98,0.65,9.99,1.28,15.16,1.73c1.3,0.11,2.58,0.24,3.9,0.33
					c1.34,0.06,2.69,0.13,4.04,0.19c2.65,0.07,5.22,0.08,8.03-0.03c1.42-0.08,2.86-0.17,4.55-0.47c0.86-0.17,1.75-0.36,2.79-0.77
					c1-0.36,2.17-1.01,3.14-1.85c0.51-0.42,0.91-0.86,1.31-1.32c0.34-0.43,0.69-0.89,0.93-1.27c0.25-0.36,0.53-0.88,0.79-1.4
					c0.27-0.49,0.46-1.09,0.66-1.65c0.77-2.35,0.53-4.98-0.15-6.97c-0.68-2.03-1.68-3.59-2.71-4.93c-1.04-1.34-2.13-2.48-3.24-3.51
					c-2.22-2.06-4.52-3.77-6.83-5.36c-1.15-0.79-2.31-1.55-3.45-2.28c-1.13-0.73-2.29-1.45-3.26-2.1c-2.21-1.51-4.43-3.02-6.65-4.53
					c-4.5-3.02-9.08-6-13.71-8.93c-9.25-5.92-18.8-11.46-28.41-17.22c-9.61-5.74-19.34-11.54-29.18-17.41
					c-4.9-2.91-9.82-5.84-14.76-8.79c-4.8-2.87-9.45-5.99-13.78-9.45c-4.33-3.45-8.38-7.24-11.67-11.45
					c-3.29-4.19-5.82-8.82-6.74-13.59c-0.96-4.76-0.22-9.61,1.98-14.2c1.15-2.33,2.52-4.41,4.1-6.21c1.64-1.73,3.52-3.09,5.63-4.06
					c4.21-2,9.51-2.12,14.86-1.25c5.38,0.92,10.84,2.84,16.16,5.2c10.67,4.82,20.88,11.39,30.69,18.59
					c2.48,1.86,4.97,3.72,7.45,5.58c2.53,1.87,5.05,3.74,7.61,5.57c5.11,3.68,10.27,7.33,15.52,10.88
					c10.49,7.12,21.27,13.95,32.37,20.38c22.21,12.8,45.77,24.13,70.96,31.73c6.29,1.92,12.69,3.51,19.17,4.87
					c3.23,0.69,6.51,1.23,9.78,1.78c3.29,0.46,6.58,0.93,9.9,1.21c1.65,0.19,3.32,0.3,4.99,0.4l1.61,0.1
					c0.79,0.04,1.6,0.15,2.34,0.04l1.13-0.09c0.37-0.05,0.65-0.4,0.98-0.58c0.64-0.44,1.27-0.89,1.84-1.41
					c1.14-1.07,2.09-2.36,2.79-3.81c0.52-1.16,0.9-2.28,1.13-3.34c0.48-2.13,0.59-4.08,0.6-5.94c-0.01-3.7-0.44-7.09-0.92-10.42
					c-0.49-3.32-1.08-6.56-1.68-9.76c-2.41-12.78-4.75-25.3-5.16-37.83c-0.45-12.47,1.09-24.92,5.95-35.99
					c1.21-2.76,2.61-5.43,4.2-7.99c0.79-1.3,1.64-2.48,2.49-3.67l1.36-1.7c0.46-0.56,0.96-1.07,1.43-1.6
					c3.9-4.15,8.71-7.18,13.95-8.19c5.19-1.04,10.8-0.12,15.32,2.58c0.58,0.31,1.09,0.71,1.64,1.07c0.5,0.41,1.03,0.78,1.48,1.23
					c0.96,0.84,1.78,1.79,2.45,2.78c0.68,0.99,1.23,2.02,1.54,3.06c0.32,1.03,0.48,2.05,0.52,3.49c0.11,2.79-0.12,6-0.33,9.17
					c-0.23,3.24-0.45,6.47-0.68,9.71c-0.42,6.54-0.62,13.17-0.38,19.83c0.5,13.28,2.84,26.83,8.41,39.24
					c2.75,6.2,6.24,12.07,10.38,17.42c0.52,0.67,1.02,1.35,1.56,2l1.66,1.91l1.67,1.9l1.77,1.8l1.77,1.8
					c0.61,0.58,1.24,1.13,1.86,1.7l3.53,3.19c4.25,3.88,7.89,8.72,11.18,13.82c3.27,5.13,6.2,10.57,9,16.12
					c2.79,5.56,5.45,11.22,8.2,16.9c2.76,5.68,5.58,11.38,8.95,16.97c1.69,2.79,3.55,5.55,5.75,8.2c0.54,0.66,1.16,1.31,1.74,1.96
					c0.61,0.64,1.28,1.26,1.92,1.88c0.72,0.6,1.38,1.19,2.18,1.76l1.25,0.84l1.22,0.69c3.22,1.73,6.32,2.78,9.42,3.77
					c3.1,0.96,6.18,1.76,9.26,2.48c12.32,2.79,24.58,4.5,36.88,5.57c6.17,0.48,12.28,0.86,18.71,0.59l1.23-0.08
					c0.31-0.02,0.32-0.02,0.3-0.02h0.48l2.26,0.01l4.5,0.01c3,0.01,5.99,0.02,8.98,0.02c23.89,0.06,47.38,0.12,70.38,0.17
					c46,0.08,90.05,0.16,131.53,0.23c5.18,0.01,10.33,0.01,15.43,0.02c1.29-0.01,2.52,0.02,3.84-0.02c1.32-0.04,2.64-0.08,3.95-0.12
					c2.58-0.19,5.17-0.32,7.69-0.6c10.12-0.99,19.92-2.39,29.53-3.81c19.21-2.89,37.6-5.99,55.21-8.9
					c35.21-5.86,67.25-11.05,95.59-15.01c28.34-4,52.96-6.8,73.21-8.42c20.24-1.69,36.09-2.06,46.86-2.01
					c2.69,0.03,5.07,0.06,7.12,0.09c2.05,0.06,3.77,0.11,5.15,0.16c2.77,0.06,4.21,0.01,4.22-0.17c0.01-0.16-1.41-0.44-4.18-0.82
					c-1.39-0.18-3.11-0.44-5.17-0.63c-2.06-0.16-4.45-0.34-7.16-0.54c-10.84-0.65-26.84-0.83-47.23,0.35
					c-20.4,1.11-45.19,3.45-73.67,7.02c-28.49,3.53-60.67,8.33-95.95,13.82c-17.64,2.72-36.06,5.64-55.2,8.34
					c-9.56,1.32-19.32,2.63-29.19,3.5c-1.24,0.13-2.47,0.21-3.7,0.28s-2.47,0.17-3.69,0.22c-1.22,0.03-2.44,0.06-3.66,0.09
					c-1.24,0.01-2.53-0.02-3.8-0.02c-5.1-0.05-10.25-0.09-15.43-0.14c-41.47-0.34-85.52-0.71-131.5-1.09
					c-22.99-0.18-46.47-0.35-70.36-0.54c-2.99-0.02-5.98-0.04-8.98-0.07l-4.5-0.03l-2.25-0.02c-1.28,0-1.74,0.09-2.47,0.11
					c-5.64,0.2-11.63-0.18-17.55-0.68c-11.88-1.09-23.9-2.84-35.6-5.55c-2.91-0.69-5.8-1.46-8.6-2.35c-1.4-0.44-2.77-0.92-4.09-1.44
					c-0.67-0.25-1.28-0.54-1.93-0.81c-0.58-0.3-1.24-0.57-1.75-0.89c-1.97-1.02-3.9-2.98-5.66-5.1c-1.77-2.15-3.39-4.59-4.92-7.14
					c-3.04-5.13-5.77-10.65-8.46-16.26c-2.69-5.62-5.35-11.34-8.21-17.06c-2.85-5.71-5.9-11.42-9.43-16.97
					c-3.56-5.52-7.57-10.96-12.71-15.67l-3.52-3.2c-0.55-0.51-1.13-1-1.66-1.54l-1.58-1.62l-1.57-1.62l-1.47-1.71l-1.48-1.71
					l-1.37-1.79c-3.66-4.77-6.72-9.99-9.15-15.53c-4.9-11.07-7.01-23.36-7.43-35.79c-0.2-6.23,0.01-12.52,0.44-18.88
					c0.23-3.21,0.47-6.42,0.7-9.64c0.22-3.28,0.49-6.54,0.35-10.24c-0.03-1.77-0.34-4.05-1.02-6.06c-0.66-2.03-1.63-3.9-2.8-5.55
					c-1.16-1.66-2.49-3.16-3.96-4.45c-1.46-1.31-3.03-2.46-4.7-3.42c-3.31-1.97-6.98-3.23-10.74-3.88
					c-3.77-0.62-7.67-0.53-11.41,0.21c-3.75,0.75-7.32,2.22-10.53,4.14c-3.22,1.93-6.07,4.33-8.55,6.98
					c-1.26,1.32-2.38,2.72-3.49,4.13c-1.03,1.45-2.07,2.91-2.97,4.38c-1.84,2.96-3.46,6.05-4.85,9.24
					c-2.79,6.38-4.63,13.12-5.68,19.9c-1.05,6.79-1.32,13.62-1.1,20.35c0.43,13.48,2.91,26.6,5.27,39.29
					c0.58,3.17,1.15,6.32,1.59,9.41c0.45,3.08,0.79,6.14,0.78,8.92c-0.01,1.38-0.13,2.67-0.37,3.69c-0.1,0.49-0.31,0.99-0.39,1.19
					c-0.01,0.03-0.03,0.05-0.06,0.08c-0.02,0.02-0.05,0.04-0.08,0.03l-1-0.07l-2.34-0.15l-2.34-0.24
					c-6.24-0.6-12.46-1.57-18.61-2.88c-6.15-1.3-12.26-2.84-18.29-4.68c-24.14-7.33-47.04-18.36-68.74-30.91
					c-10.85-6.3-21.42-13.01-31.72-20.02c-5.16-3.49-10.23-7.09-15.26-10.72c-2.5-1.84-5-3.67-7.49-5.5c-2.5-1.87-5-3.75-7.49-5.61
					c-10.2-7.49-20.87-14.4-32.57-19.7c-2.95-1.29-5.94-2.5-9.05-3.52c-3.11-1-6.3-1.86-9.62-2.42c-3.33-0.53-6.77-0.79-10.3-0.55
					c-3.52,0.22-7.15,1.07-10.52,2.63c-3.38,1.54-6.42,3.81-8.91,6.47c-2.41,2.71-4.31,5.7-5.8,8.76c-1.5,3.11-2.57,6.52-3.07,10.05
					s-0.38,7.16,0.32,10.6c1.39,6.94,4.83,12.91,8.78,17.95c3.99,5.07,8.58,9.32,13.36,13.13c4.79,3.81,9.8,7.17,14.92,10.23
					c4.98,2.96,9.93,5.91,14.86,8.84c9.79,5.84,19.48,11.62,29.05,17.33c9.55,5.73,19.1,11.27,28.2,17.09
					c4.57,2.89,9.07,5.82,13.49,8.78c2.22,1.51,4.43,3.02,6.63,4.52c2.43,1.61,4.56,2.9,6.64,4.34c2.05,1.41,3.99,2.87,5.62,4.39
					c0.81,0.75,1.53,1.53,2.09,2.26c0.57,0.73,0.94,1.43,1.08,1.87c0.12,0.47,0.13,0.55,0.07,0.69c-0.03,0.04-0.01,0.09-0.07,0.16
					c-0.02,0.03-0.03,0.07-0.05,0.1c-0.02,0.04-0.09,0.13-0.13,0.2c-0.19,0.28-0.26,0.36-0.26,0.34c-0.02,0,0.03,0.02-0.2,0.09
					c-0.17,0.08-0.54,0.16-0.95,0.25c-0.86,0.16-2,0.24-3.14,0.3c-2.33,0.09-4.88,0.09-7.33,0.02c-1.2-0.06-2.39-0.11-3.59-0.17
					c-1.23-0.1-2.45-0.21-3.67-0.31c-4.9-0.43-9.84-1.04-14.72-1.68c-19.55-2.62-38.44-5.83-56.51-9.06
					c-18.07-3.24-35.36-6.6-51.71-10.05c-2.04-0.44-4.06-0.88-6.08-1.32c-1.95-0.43-4.16-0.92-6.28-1.28
					c-4.25-0.74-8.47-1.17-12.66-1.38c-8.37-0.35-16.71,0.21-24.71,2.66c-3.99,1.21-7.87,2.99-11.37,5.44
					c-3.5,2.43-6.58,5.6-8.75,9.23c-2.2,3.62-3.54,7.56-4.23,11.39c-0.14,0.96-0.37,1.92-0.41,2.87c-0.07,0.96-0.14,1.91-0.21,2.85
					c-0.1,0.94,0.01,1.93,0.02,2.88l0.05,1.44c0.02,0.48,0.12,0.97,0.18,1.45c0.4,3.85,1.73,7.67,3.67,10.97s4.47,6.14,7.23,8.27
					c2.74,2.18,5.61,3.92,8.48,5.25c2.86,1.41,5.71,2.41,8.49,3.34c11.98,3.76,25.3,5.32,39.58,6.45
					c7.15,0.57,14.55,0.99,22.16,1.51c3.81,0.26,7.67,0.53,11.56,0.89c3.89,0.35,7.92,0.78,11.99,1.2
					c16.3,1.71,33.67,3.64,51.99,5.72c9.15,1.07,18.54,2.16,28.16,3.29c2.4,0.3,4.8,0.59,7.23,0.89l1.8,0.24
					c0.59,0.08,1.26,0.16,1.69,0.24c0.97,0.14,1.94,0.39,2.91,0.68c1.93,0.6,3.82,1.46,5.43,2.53c0.79,0.54,1.52,1.11,2.09,1.69
					l0.39,0.43l0.31,0.41c0.1,0.13,0.14,0.25,0.23,0.36c0.05,0.06,0.05,0.1,0.08,0.15c0,0-0.02-0.03-0.02-0.05
					c0.01,0,0,0.01-0.02,0.01c0.03,0,0.01,0,0.02,0c-0.01,0.01,0.02-0.02-0.02,0.02c-0.02,0.02-0.06,0.11-0.08,0.18
					c-0.14,0.19-0.21,0.37-0.41,0.61c-0.68,0.94-1.96,2.04-3.35,2.97c-2.85,1.98-6.12,3.17-10.02,4.34
					c-7.79,2.24-16.14,4.05-24.59,5.82c-8.52,1.72-17.16,3.46-25.92,5.22c-4.4,0.88-8.83,1.8-13.31,2.76
					c-2.24,0.5-4.48,0.98-6.76,1.54c-1.12,0.27-2.24,0.54-3.36,0.81c-1.03,0.25-2.08,0.48-3.16,0.7c-8.63,1.7-17.9,2.73-27.23,3.97
					c-9.36,1.21-18.89,2.51-28.54,4.39c-4.82,0.94-9.67,2.03-14.53,3.4c-4.86,1.37-9.73,3-14.53,5.2c-4.78,2.21-9.58,4.96-13.79,9
					c-2.08,2.02-4.02,4.37-5.49,7.1c-1.48,2.71-2.48,5.75-2.91,8.82c-0.45,3.07-0.32,6.14,0.15,9.04l0.42,2.15l0.54,2.09
					c0.16,0.7,0.43,1.39,0.65,2.08l0.35,1.04l0.43,1.03c1.13,2.74,2.65,5.41,4.6,7.8c1.95,2.39,4.32,4.47,6.9,6.11
					c5.2,3.3,11.02,4.83,16.61,5.49c5.62,0.66,11.13,0.47,16.52-0.05c5.37-0.53,10.72-1.46,15.83-2.48
					c5.14-0.99,10.27-2.03,15.42-3.08c10.29-2.1,20.6-4.27,30.97-6.31c10.37-2.03,20.8-3.94,31.31-5.47
					c5.26-0.8,10.52-1.44,15.83-2.05c5.4-0.6,10.79-1.24,16.18-1.9c10.78-1.32,21.56-2.7,32.36-3.81c1.38-0.14,2.65-0.28,3.84-0.34
					c1.17-0.06,2.29-0.05,3.04,0.07c0.34,0.07,0.67,0.13,0.78,0.2c0.15,0.07,0.19,0.08,0.25,0.15c0.04,0,0.07,0.09,0.13,0.13
					c0.05,0.11,0.12,0.14,0.19,0.3c0.13,0.19,0.35,0.73,0.38,0.86c0.14,0.42,0.12,0.68,0.01,1.16c-0.11,0.46-0.49,1.12-1.03,1.81
					c-0.55,0.69-1.31,1.39-2.14,2.04c-0.43,0.34-1.03,0.76-1.54,1.13c-0.52,0.39-1.06,0.77-1.61,1.14
					c-8.67,6.04-18.41,11.05-28.18,16.57c-2.44,1.37-4.91,2.82-7.32,4.27l-7.11,4.25c-4.76,2.81-9.56,5.58-14.39,8.34
					c-9.7,5.5-19.42,11.02-29.16,16.55l-7.31,4.21c-2.45,1.43-4.82,2.8-7.34,4.32c-4.95,3.04-9.87,6.39-14.34,10.67
					c-2.23,2.13-4.33,4.53-6.15,7.27c-1.78,2.75-3.28,5.88-4.02,9.32c-0.8,3.42-0.73,7.06-0.05,10.43c0.73,3.37,2.01,6.47,3.65,9.25
					l1.24,2.09l1.48,2l0.75,0.99l0.87,0.93c0.6,0.61,1.14,1.25,1.79,1.81c2.55,2.32,5.66,4.1,8.92,5.24
					c3.28,1.18,6.68,1.53,9.92,1.51c1.64,0.03,3.21-0.17,4.8-0.32c1.54-0.26,3.11-0.46,4.6-0.85c6.02-1.37,11.54-3.61,16.84-6.08
					c5.3-2.48,10.32-5.3,15.25-8.17c4.92-2.87,9.72-5.87,14.48-8.68c2.37-1.4,4.75-2.77,7.05-3.9c2.49-1.24,5.11-2.52,7.59-3.81
					c20.06-10.31,39.73-20.93,59.68-30.58c4.98-2.43,9.98-4.71,14.98-6.88c2.49-0.99,5.01-2.09,7.45-2.88
					c0.61-0.2,1.24-0.45,1.82-0.62l1.69-0.43l0.84-0.22c0.29-0.07,0.66-0.11,0.98-0.17l2-0.33c10.68-1.74,21.56-2.49,32.49-2.98
					c10.94-0.47,21.93-0.66,32.97-1.24c5.52-0.29,11.03-0.65,16.57-1.25c5.53-0.59,11.03-1.38,16.48-2.37
					c21.78-4.07,42.75-11.32,61.81-21.93c9.47-5.38,18.11-11.33,27.14-15.92c4.5-2.3,9.07-4.26,13.72-5.59
					c1.17-0.29,2.33-0.63,3.5-0.88l3.52-0.62l3.52-0.31c1.17-0.06,2.34,0.01,3.51,0c2.6,0.09,5.19,0.18,7.78,0.28
					c2.6,0.07,5.2,0.11,7.78,0.13c5.17,0.04,10.3,0.03,15.4-0.02c2.55-0.03,5.1-0.07,7.64-0.1l3.81-0.07l1.9-0.04l0.66-0.02
					l0.7,0.08c5.02,0.55,10.01,1.11,14.98,1.65c39.78,4.38,78.13,8.6,114.66,12.61c73.08,7.92,138.85,15.05,194.07,21.04
					c55.23,5.9,99.93,10.55,130.83,13.59c15.45,1.52,27.46,2.64,35.62,3.3c8.16,0.67,12.46,0.88,12.51,0.6
					c0.05-0.3-4.16-1.07-12.24-2.26s-20.01-2.8-35.39-4.78c-30.77-3.97-75.35-9.44-130.49-16.05s-120.84-14.36-193.86-22.89
					c-36.51-4.25-74.85-8.71-114.6-13.34c-4.97-0.58-9.96-1.15-14.98-1.74l-1.03-0.12c-0.28-0.05-0.57-0.05-0.85-0.04l-0.55,0.01
					l-1.88,0.03l-3.78,0.05c-2.52,0.02-5.05,0.04-7.59,0.06c-10.15,0.04-20.32,0.01-30.54-0.52c-5.68-0.32-11.37,0.5-16.74,1.99
					c-5.39,1.5-10.48,3.66-15.34,6.1c-9.72,4.89-18.53,10.91-27.55,15.98c-8.98,4.99-18.62,9.24-28.51,12.69
					c-9.9,3.49-20.16,6.13-30.59,8.06c-20.84,3.91-42.59,3.63-64.78,4.52c-11.1,0.46-22.34,1.18-33.59,2.97l-2.11,0.34l-1.05,0.17
					l-1.18,0.28l-2.36,0.59c-0.8,0.2-1.43,0.47-2.15,0.7c-2.86,0.92-5.46,2.04-8.14,3.1c-5.22,2.24-10.36,4.57-15.42,7.01
					c-20.25,9.71-40.05,20.34-59.97,30.52c-2.5,1.28-4.94,2.48-7.46,3.72c-2.75,1.34-5.25,2.78-7.73,4.23
					c-4.94,2.9-9.68,5.85-14.48,8.64c-4.79,2.78-9.6,5.46-14.5,7.74c-4.89,2.28-9.87,4.27-14.84,5.39c-1.24,0.33-2.47,0.47-3.7,0.69
					c-1.21,0.09-2.44,0.28-3.61,0.24c-2.37,0.03-4.64-0.23-6.67-0.96c-2.03-0.72-3.9-1.73-5.51-3.21c-0.43-0.32-0.77-0.79-1.16-1.18
					l-0.58-0.6c-0.19-0.2-0.34-0.46-0.52-0.68l-1.03-1.38l-0.91-1.53c-1.24-2.04-2.09-4.22-2.57-6.33c-0.42-2.13-0.48-4.22,0-6.27
					c0.86-4.12,3.67-8.1,7.31-11.57c3.64-3.49,8.02-6.54,12.62-9.34c2.28-1.38,4.76-2.81,7.16-4.2l7.26-4.17
					c9.75-5.51,19.48-11.01,29.18-16.5c4.86-2.77,9.71-5.56,14.53-8.4l7.21-4.3c2.36-1.41,4.67-2.77,7.07-4.12
					c9.53-5.39,19.55-10.49,29.01-17.04c1.2-0.81,2.32-1.65,3.54-2.55c1.34-1.03,2.64-2.2,3.83-3.64c1.18-1.45,2.29-3.18,2.95-5.35
					c0.66-2.15,0.74-4.77,0.04-6.99c-0.17-0.53-0.37-1.13-0.57-1.55c-0.19-0.45-0.4-0.91-0.68-1.39c-0.51-0.93-1.23-1.94-2.15-2.83
					c-0.91-0.91-2.07-1.63-3.18-2.13c-1.13-0.5-2.2-0.76-3.19-0.93c-1.99-0.33-3.64-0.28-5.2-0.22c-1.55,0.08-3.02,0.24-4.36,0.37
					c-10.97,1.12-21.81,2.49-32.57,3.8c-5.38,0.66-10.73,1.29-16.06,1.88c-5.41,0.61-10.84,1.27-16.2,2.08
					c-10.74,1.56-21.33,3.49-31.8,5.53s-20.81,4.22-31.06,6.31c-5.13,1.04-10.23,2.07-15.32,3.05c-5.09,1.01-9.98,1.86-14.9,2.34
					c-4.89,0.48-9.73,0.62-14.31,0.08c-4.57-0.53-8.86-1.76-12.28-3.93c-3.43-2.15-5.95-5.28-7.53-9.14
					c-0.21-0.47-0.4-0.96-0.56-1.47s-0.37-0.99-0.48-1.52l-0.41-1.56l-0.3-1.55c-0.34-2.05-0.41-4.06-0.13-5.94
					c0.52-3.76,2.37-7.11,5.34-9.95c2.94-2.85,6.79-5.15,10.9-7.04c4.12-1.89,8.54-3.39,13.03-4.66c4.5-1.27,9.09-2.31,13.71-3.21
					c9.24-1.8,18.58-3.08,27.88-4.29c9.32-1.24,18.56-2.24,27.96-4.09c1.18-0.24,2.36-0.49,3.56-0.79c1.1-0.27,2.21-0.53,3.31-0.8
					c2.16-0.53,4.37-1,6.55-1.49c4.39-0.95,8.78-1.86,13.16-2.74c8.75-1.77,17.43-3.46,25.99-5.24c8.57-1.8,16.99-3.61,25.43-6.04
					c4.16-1.24,8.88-2.91,12.87-5.7c2.02-1.41,4-2.95,5.79-5.31c0.45-0.56,0.87-1.27,1.27-1.96c0.19-0.4,0.37-0.78,0.56-1.22
					c0.19-0.42,0.32-0.95,0.45-1.43c0.15-0.49,0.21-0.99,0.26-1.5c0.06-0.51,0.08-1.01,0.03-1.52c-0.01-1.03-0.39-1.98-0.64-2.96
					c-0.13-0.3-0.28-0.63-0.42-0.91c-0.12-0.23-0.23-0.49-0.36-0.69c-0.26-0.41-0.51-0.85-0.79-1.23c-0.28-0.37-0.56-0.74-0.85-1.09
					l-0.89-0.97c-1.2-1.21-2.46-2.19-3.75-3.06c-2.58-1.7-5.28-2.91-8.08-3.78c-1.41-0.42-2.84-0.78-4.31-1
					c-0.78-0.13-1.34-0.19-1.97-0.28l-1.85-0.24c-2.45-0.3-4.88-0.6-7.3-0.89c-9.65-1.12-19.06-2.21-28.24-3.27
					c-18.35-2.06-35.73-3.97-52.1-5.67c-4.1-0.41-8.1-0.84-12.12-1.19c-4.02-0.36-7.95-0.64-11.79-0.89
					c-7.69-0.51-15.04-0.92-22.05-1.46C719.97,339.15,707.21,337.59,696.65,334.29z"/>
			</g>
		</g>
	</g>
	<g>
		<g>
			<path class="st4" d="M1776.35,229.99c-59.18-1.85-427.19,90.62-480.82,88.77s-68.69,6.02-68.69,6.02
				c-18,2.94-36.21,10.21-56.22,2.76c-20.32-7.57-52.13-26.02-92.69-37.27c-40.56-11.25-78.69-12.66-101.3-11.78
				c-30.74,1.2-67.81-9.92-94.26-23.94c-26.09-13.82-47.3-28.03-69.91-47.01c-15.26-12.82-43.85-33.67-62.68-16.07
				c-14.22,13.28-8.09,42.18,13.9,65.43c2.56,2.71,5.32,5.42,8.22,8.11c33.72,31.66,115.27,77.46,114.59,79.24
				c-0.45,1.42-32.58,5.04-40.59,4.88c-33.69-0.68-65.42-7.41-98.56-12.07c-20.25-2.85-52.54-6.36-59.58,19.15
				c-10.68,38.73,40.22,53.33,105.5,60.89c47.75,5.53,66.68-0.35,97.44-3.36c-2.58,3.16-11.96,21.55-14.34,31.37
				c-5.42,22.35-0.41,42.28,8.69,53.16c17.42,20.83,31.76,24.25,62.38,19.66c0.77-0.12,1.55-0.32,2.32-0.47
				c7.15,13.78,14.13,24.5,33.92,29.51c21.72,5.5,41.34-3.67,57.7-16.6c48.49-0.55,87.54-20.93,110.3-42.19
				c22.76-21.25,28.16-46.85,43.22-52.4s27.09-2.93,33.2-4.37c0,0,169.17,3.89,243.14,20.53s297.74-12.95,305.13-18.49"/>
			<g>
				<g>
					<path class="st3" d="M789.54,348.59c8.69,1.32,18.32,2.69,28.87,3.79c2.63,0.3,5.34,0.5,8.08,0.76
						c2.76,0.19,5.56,0.44,8.43,0.58c1.43,0.08,2.88,0.15,4.34,0.23c1.46,0.05,2.93,0.1,4.42,0.15c0.75,0.02,1.5,0.05,2.26,0.07
						c0.88,0.01,1.68-0.01,2.47-0.03c1.58-0.05,3.12-0.15,4.66-0.25c6.16-0.44,12.4-1.07,18.85-1.85c0.81-0.1,1.62-0.2,2.43-0.3
						c1.47-0.2,2.94-0.4,4.42-0.61c1.59-0.23,3.17-0.48,4.71-0.76c1.53-0.28,3.04-0.6,4.23-1.04c1.17-0.45,2.02-1.02,2.45-1.63
						c0.36-0.58,0.71-1.15,1.07-1.74c0.11-0.14,0.15-0.3,0.2-0.51c-0.07-0.07,0.2-0.08-0.14-0.22l0.01-0.18l0.01-0.26l0.04-0.91
						c0-0.31,0.05-0.63,0.02-0.99c-0.06-0.35-0.24-0.75-0.45-1.16c-0.44-0.83-1.35-1.78-2.62-2.71c-1.26-0.93-2.66-1.85-4.07-2.77
						c-1.43-0.91-2.87-1.83-4.31-2.75c-0.91-0.57-1.83-1.15-2.74-1.72c-2.95-1.84-5.94-3.7-8.96-5.58
						c-6.01-3.77-12.17-7.62-18.46-11.56c-12.52-7.93-25.47-16.33-38.55-25.44c-6.53-4.56-13.1-9.3-19.57-14.31
						c-3.23-2.5-6.44-5.08-9.59-7.74c-3.13-2.67-6.22-5.39-9.14-8.37c-2.95-2.94-6.05-5.81-8.65-8.94
						c-2.67-3.12-5.15-6.43-7.34-9.93c-4.39-6.97-7.83-14.73-9.14-22.71c-0.62-3.97-0.74-7.99,0.03-11.68
						c0.75-3.7,2.33-7.02,4.78-9.57c0.58-0.64,1.33-1.24,2.03-1.85c0.75-0.53,1.47-1.13,2.28-1.55c1.57-0.94,3.24-1.65,5.03-2.06
						c1.78-0.43,3.66-0.62,5.6-0.59c1.94,0.04,3.94,0.33,5.95,0.78c2.01,0.44,4.04,1.08,6.05,1.86c2.01,0.76,4.02,1.66,5.99,2.68
						c3.96,2,7.83,4.41,11.61,7.04c3.78,2.63,7.47,5.5,11.1,8.52c3.69,3.08,7.51,6.24,11.38,9.27
						c15.46,12.23,32.19,23.46,49.83,33.33c2.2,1.24,4.42,2.46,6.65,3.66c2.22,1.2,4.46,2.4,6.78,3.56
						c4.59,2.36,9.3,4.47,14.06,6.49c9.54,3.96,19.36,7.32,29.42,10.03c10.07,2.67,20.39,4.68,30.91,5.77
						c1.31,0.17,2.64,0.22,3.96,0.33c1.32,0.09,2.64,0.22,3.97,0.27c2.66,0.06,5.32,0.23,8,0.14l3.99-0.07l3.79-0.12
						c2.53-0.04,5.06-0.1,7.6-0.08c20.29,0.04,40.72,1.86,60.79,5.52c10.04,1.83,19.99,4.12,29.79,6.92
						c9.79,2.8,19.45,6.12,28.97,9.83s18.91,7.79,28.25,12.05c9.36,4.24,18.62,8.71,28.34,12.73l3.71,1.45
						c1.25,0.47,2.64,0.89,3.95,1.33c1.33,0.43,2.71,0.7,4.07,1.05c1.36,0.32,2.75,0.5,4.13,0.74c5.53,0.8,11.09,0.73,16.44,0.16
						c5.36-0.56,10.53-1.58,15.54-2.65c2.48-0.53,4.96-1.07,7.43-1.6l3.65-0.75c0.61-0.13,1.21-0.23,1.81-0.34l2.11-0.38l0.74-0.24
						c0.24-0.09,0.5-0.16,0.74-0.25c1.82-0.76,3.87-1.34,6.01-1.87c1.06-0.26,2.16-0.48,3.23-0.72l3.29-0.61
						c4.43-0.73,8.93-1.27,13.44-1.66c9.04-0.79,18.15-1.02,27.21-0.99c4.55-0.05,9.03,0.17,13.61,0.21l3.64-0.06
						c1.22-0.02,2.44-0.03,3.58-0.16c2.32-0.2,4.66-0.37,6.96-0.6c4.56-0.56,9.12-1.06,13.59-1.76c2.24-0.33,4.48-0.66,6.72-0.99
						c2.22-0.37,4.44-0.73,6.66-1.09c17.71-2.95,35.01-6.29,51.99-9.66c16.97-3.38,33.58-6.86,49.83-10.28
						c64.95-13.81,123.91-27.02,173.83-37.79c49.9-10.81,90.75-19.23,119.2-24.31c14.22-2.59,25.35-4.22,32.92-5.15
						c1.89-0.23,3.57-0.43,5.01-0.61c1.44-0.12,2.65-0.22,3.63-0.3c1.95-0.19,2.96-0.37,2.96-0.54c0-0.16-1.01-0.3-3-0.41
						c-0.99-0.05-2.23-0.13-3.71-0.15c-1.47,0.05-3.17,0.11-5.09,0.17c-7.71,0.36-19,1.47-33.35,3.57
						c-28.74,4.11-69.82,11.69-119.91,21.77c-50.1,10.04-109.2,22.64-174.17,35.93c-16.25,3.29-32.86,6.65-49.8,9.9
						c-16.94,3.24-34.21,6.47-51.75,9.28c-2.19,0.35-4.39,0.7-6.59,1.04c-2.2,0.31-4.4,0.63-6.61,0.94
						c-4.42,0.67-8.83,1.12-13.27,1.65c-2.2,0.2-4.4,0.35-6.6,0.53c-1.12,0.12-2.17,0.11-3.23,0.12l-3.19,0.05
						c-4.54-0.06-9.18-0.31-13.8-0.28c-9.26-0.08-18.6,0.11-28.02,0.89c-4.71,0.38-9.44,0.93-14.2,1.69l-3.57,0.64
						c-1.2,0.26-2.39,0.49-3.59,0.79c-2.39,0.58-4.85,1.24-7.34,2.27l-0.04,0.02c-0.01,0.01-0.03,0.01-0.05,0.01l-1.63,0.28
						c-0.64,0.11-1.29,0.22-1.92,0.35c-1.27,0.25-2.55,0.49-3.8,0.76c-2.48,0.52-4.97,1.05-7.46,1.57
						c-4.92,1.03-9.77,1.95-14.56,2.43c-4.8,0.49-9.54,0.51-14.15-0.18c-1.14-0.22-2.3-0.36-3.43-0.63
						c-1.12-0.3-2.27-0.52-3.37-0.89c-1.11-0.39-2.19-0.7-3.33-1.14l-3.46-1.37c-9.25-3.86-18.53-8.36-27.93-12.67
						c-9.41-4.33-18.97-8.53-28.71-12.35c-9.74-3.83-19.68-7.29-29.8-10.21c-10.12-2.92-20.38-5.31-30.71-7.22
						c-20.67-3.82-41.63-5.74-62.55-5.83c-2.62-0.02-5.23,0.03-7.85,0.07l-3.93,0.12l-3.72,0.05c-2.46,0.09-4.94-0.08-7.4-0.14
						c-1.23-0.04-2.47-0.17-3.71-0.26c-1.24-0.11-2.47-0.15-3.71-0.32c-9.88-1.04-19.69-2.96-29.3-5.53
						c-9.6-2.61-19.01-5.84-28.11-9.63c-4.54-1.93-9.02-3.95-13.36-6.19c-2.17-1.09-4.36-2.26-6.54-3.44
						c-2.18-1.18-4.34-2.38-6.49-3.59c-17.23-9.66-33.41-20.55-48.48-32.49c-3.79-2.98-7.44-6-11.17-9.11
						c-3.8-3.16-7.71-6.21-11.79-9.05c-4.08-2.84-8.32-5.5-12.84-7.79c-2.25-1.15-4.57-2.2-6.98-3.12c-2.4-0.92-4.88-1.72-7.46-2.29
						c-2.58-0.57-5.24-0.97-7.99-1.03c-2.74-0.05-5.54,0.22-8.29,0.88c-2.75,0.64-5.41,1.76-7.82,3.19
						c-1.24,0.68-2.34,1.53-3.45,2.36c-1.05,0.89-2.1,1.75-3.08,2.81c-3.96,4.11-6.41,9.43-7.44,14.65
						c-1.08,5.26-0.87,10.46-0.11,15.38c0.81,4.92,2.23,9.61,4.07,14.03c1.81,4.44,4.06,8.6,6.53,12.55
						c2.48,3.95,5.25,7.65,8.22,11.13c2.96,3.55,6.2,6.54,9.31,9.64c3.08,3.13,6.37,6.04,9.65,8.83c3.29,2.79,6.61,5.45,9.94,8.02
						c6.66,5.15,13.35,9.97,19.99,14.6c13.28,9.24,26.35,17.7,38.95,25.67c6.32,3.95,12.5,7.81,18.54,11.59
						c3.02,1.87,6,3.73,8.94,5.56c0.55,0.35,1.11,0.69,1.66,1.04l0.02,0.01l0.04,0.02c0.05,0.02,0.03,0.04-0.01,0.04l-0.04,0.01
						c-0.92,0.12-1.82,0.23-2.73,0.35c-6.28,0.77-12.44,1.4-18.32,1.83c-1.47,0.1-2.92,0.19-4.31,0.24
						c-0.69,0.03-1.37,0.04-1.96,0.03c-0.72-0.02-1.43-0.04-2.14-0.06c-1.44-0.04-2.86-0.09-4.27-0.13
						c-1.41-0.07-2.81-0.14-4.2-0.21c-2.77-0.13-5.5-0.36-8.18-0.54c-2.68-0.25-5.3-0.44-7.88-0.72c-10.3-1.05-19.78-2.37-28.4-3.65
						c-8.64-1.37-18.17-2.88-28.52-4.51c-5.2-0.82-10.61-1.63-16.26-2.42c-5.67-0.78-11.66-1.49-17.97-1.72
						c-6.31-0.21-12.99-0.02-19.94,1.6c-3.46,0.83-7,2-10.4,3.87c-3.39,1.86-6.63,4.4-9.23,7.6c-2.58,3.2-4.46,6.96-5.62,10.82
						c-0.34,0.97-0.51,1.91-0.74,2.87c-0.2,0.96-0.48,1.89-0.59,2.9c-0.14,0.99-0.27,1.99-0.41,2.99c-0.04,1.02-0.09,2.05-0.13,3.08
						c-0.02,4.13,0.68,8.44,2.25,12.46s3.92,7.75,6.78,10.87c2.84,3.14,6.08,5.8,9.48,8.14c3.4,2.35,7.02,4.25,10.7,6.04
						c7.39,3.47,15.13,6.14,23.07,8.33c15.88,4.41,32.52,7.19,49.64,9.43c8.55,1.1,17.29,2.09,26.21,2.75
						c8.92,0.62,18.03,0.89,27.25,0.63c9.22-0.25,18.53-1.16,27.77-2.3c5.53-0.71,11.12-1.42,16.76-2.14l-0.45,0.89
						c-1.56,3.1-3.04,6.24-4.44,9.46s-2.72,6.49-3.86,10.01l-0.42,1.33l-0.38,1.4c-0.28,0.95-0.42,1.81-0.63,2.71l-0.57,2.67
						l-0.44,2.71c-1.15,7.23-1.24,14.69-0.32,22.12c0.52,3.71,1.31,7.41,2.43,11.05c1.14,3.64,2.64,7.2,4.56,10.62
						c0.48,0.86,0.96,1.71,1.53,2.53c0.55,0.83,1.07,1.66,1.71,2.45c1.24,1.68,2.44,2.96,3.66,4.37c1.18,1.41,2.55,2.72,3.83,4.07
						c0.63,0.69,1.37,1.31,2.06,1.96c0.71,0.64,1.38,1.3,2.12,1.92l2.26,1.82c0.38,0.3,0.75,0.61,1.14,0.9l1.21,0.83
						c0.82,0.55,1.61,1.12,2.45,1.64l2.59,1.47c3.52,1.84,7.28,3.38,11.16,4.24l1.45,0.36c0.48,0.1,0.97,0.17,1.45,0.26l2.91,0.49
						l2.9,0.27l1.45,0.13l1.44,0.05l2.88,0.08c0.96,0.02,1.9-0.04,2.84-0.05c0.94-0.03,1.9-0.03,2.83-0.1l2.8-0.2
						c3.73-0.28,7.41-0.73,11.06-1.25l0.6-0.08c-0.01,0-0.02,0-0.01,0l0.03-0.01c0.02-0.01,0.04-0.01,0.04,0.02l0.16,0.28
						c0.45,0.82,0.9,1.64,1.39,2.47c1.9,3.28,4.04,6.58,6.61,9.67c2.57,3.09,5.59,5.93,8.95,8.28c3.36,2.35,7.01,4.21,10.73,5.65
						c3.75,1.39,7.47,2.45,11.43,3.2c3.94,0.65,7.96,1.08,11.97,0.89l1.5-0.03l1.5-0.13c1-0.1,2-0.17,2.99-0.3
						c1.97-0.33,3.95-0.6,5.88-1.1c1.95-0.41,3.83-1.02,5.73-1.59c0.94-0.31,1.85-0.67,2.78-1l1.39-0.51l1.35-0.58
						c3.64-1.49,7.08-3.34,10.43-5.29c3.35-1.96,6.51-4.16,9.61-6.42l1.68-1.29c0.02-0.01,0.03-0.03,0.05-0.03c0.01,0,0.02,0,0,0
						h-0.02c-0.06,0,0.09,0,0.21-0.01l5.68-0.22c1.9-0.03,3.78-0.27,5.67-0.42c1.89-0.18,3.78-0.3,5.66-0.54l5.63-0.79
						c0.94-0.14,1.88-0.24,2.81-0.41l2.8-0.53c1.86-0.36,3.73-0.7,5.59-1.08l5.54-1.33c0.92-0.23,1.85-0.43,2.76-0.68l2.73-0.8
						c1.82-0.54,3.65-1.03,5.46-1.62c7.22-2.35,14.29-5.15,21.17-8.34c6.84-3.29,13.5-6.97,19.88-11.08
						c6.37-4.14,12.42-8.77,18.1-13.85c5.77-5.03,10.92-10.87,15.44-16.95c4.54-6.08,8.46-12.49,12.28-18.65
						c1.91-3.08,3.82-6.08,5.83-8.83c2.01-2.74,4.15-5.22,6.48-6.94c1.16-0.87,2.35-1.55,3.6-2.02l2.36-0.81
						c0.79-0.26,1.6-0.47,2.4-0.7c3.22-0.86,6.52-1.44,9.9-1.74c3.39-0.31,6.79-0.35,10.48-0.39c1.85-0.04,3.74-0.05,5.97-0.36
						l0.84-0.16c-0.03,0,0.04-0.01,0.05-0.01l1.01,0.02l2.68,0.07c7.16,0.21,14.3,0.43,21.41,0.64c28.45,0.97,56.45,2.28,83.76,3.98
						c27.31,1.72,53.96,3.82,79.64,6.72c3.22,0.32,6.4,0.74,9.57,1.15c3.17,0.41,6.33,0.81,9.48,1.22c3.16,0.37,6.26,0.91,9.36,1.38
						c3.1,0.48,6.19,0.97,9.26,1.44c3.06,0.52,6.07,1.16,9.08,1.73c1.51,0.29,3.01,0.59,4.51,0.88l2.25,0.44l2.33,0.48
						c6.21,1.25,12.35,2.03,18.42,2.62c12.15,1.17,24.01,1.54,35.57,1.67c11.56,0.1,22.81-0.12,33.75-0.49
						c21.87-0.77,42.44-2.16,61.56-3.75c19.12-1.59,36.78-3.4,52.8-5.24c32.04-3.69,57.53-7.47,74.97-10.6
						c8.72-1.57,15.42-2.99,19.92-4.19c2.25-0.6,3.94-1.14,5.05-1.62c1.12-0.46,1.63-0.94,1.54-1.03c-0.09-0.1-0.61,0.1-1.75,0.32
						c-1.13,0.24-2.85,0.54-5.11,0.91c-4.53,0.74-11.26,1.73-20,2.88c-17.48,2.31-42.99,5.34-75.02,8.36
						c-16.01,1.5-33.65,3-52.72,4.29s-39.58,2.4-61.31,2.91c-10.86,0.24-22.03,0.34-33.45,0.12c-11.42-0.24-23.11-0.72-34.91-1.97
						c-5.89-0.63-11.82-1.44-17.65-2.66c-1.49-0.31-2.97-0.62-4.47-0.93c-1.53-0.31-3.06-0.62-4.6-0.94
						c-3.08-0.61-6.16-1.29-9.27-1.85c-3.11-0.51-6.24-1.03-9.38-1.54c-3.14-0.5-6.3-1.08-9.47-1.48c-3.18-0.43-6.37-0.87-9.57-1.31
						s-6.42-0.89-9.66-1.24c-25.86-3.12-52.62-5.4-80.03-7.3c-27.41-1.87-55.48-3.33-84.02-4.45c-7.14-0.27-14.3-0.53-21.49-0.74
						l-2.7-0.08l-1.6-0.04c-0.43-0.05-0.84,0.06-1.27,0.14l-0.63,0.11c-1.29,0.19-3.01,0.23-4.75,0.26
						c-3.51,0.03-7.34,0.05-11.15,0.37c-3.83,0.31-7.7,0.95-11.49,1.95c-0.94,0.27-1.89,0.52-2.83,0.81l-2.79,0.94
						c-2.16,0.79-4.17,1.93-5.94,3.23c-3.56,2.62-6.19,5.77-8.52,8.87c-2.31,3.13-4.32,6.29-6.28,9.41
						c-3.9,6.24-7.65,12.31-11.9,17.97s-8.87,10.89-14.2,15.51c-5.28,4.7-10.96,9.03-16.96,12.9c-6.01,3.86-12.29,7.31-18.75,10.4
						c-6.51,2.99-13.19,5.62-20.01,7.83c-1.7,0.56-3.44,1.01-5.16,1.52l-2.58,0.75c-0.86,0.25-1.74,0.42-2.61,0.64l-5.23,1.25
						c-1.75,0.36-3.52,0.67-5.28,1.01l-2.64,0.5c-0.88,0.17-1.77,0.25-2.66,0.39l-5.32,0.73c-1.78,0.23-3.57,0.33-5.35,0.5
						c-1.79,0.13-3.56,0.37-5.36,0.39l-5.37,0.19l-2.53,0.09l-0.68,0.02c-0.23-0.01-0.46,0.01-0.62,0.19l-1.08,0.83l-2.76,2.11
						c-2.85,2.07-5.74,4.09-8.74,5.83c-3,1.75-6.06,3.38-9.22,4.67c-0.78,0.35-1.57,0.67-2.37,0.95c-0.8,0.29-1.59,0.59-2.4,0.86
						c-1.62,0.47-3.23,1.01-4.87,1.34c-1.63,0.43-3.28,0.64-4.92,0.92c-0.82,0.11-1.65,0.16-2.48,0.24l-1.24,0.12l-1.24,0.02
						c-3.31,0.17-6.61-0.22-9.86-0.74c-3.22-0.62-6.53-1.55-9.62-2.7c-3.08-1.19-5.95-2.68-8.55-4.5
						c-5.23-3.61-9.19-8.75-12.6-14.73c-0.44-0.73-0.85-1.5-1.27-2.26l-0.5-0.91l-0.63-1.2l-1.26-2.39l-0.63-1.19l-0.31-0.6
						c-0.13-0.15-0.15-0.52-0.37-0.48l-2.64,0.49c-0.88,0.17-1.75,0.32-2.65,0.51c-0.44,0.1-0.91,0.15-1.36,0.22l-0.78,0.11
						c-3.49,0.5-6.97,0.92-10.41,1.17c-1.72,0.13-3.44,0.26-5.12,0.27c-0.85,0.01-1.7,0.06-2.54,0.05l-2.5-0.07l-1.25-0.04
						l-1.22-0.12l-2.44-0.23l-2.37-0.4c-0.39-0.07-0.79-0.12-1.18-0.2l-1.15-0.3c-3.1-0.68-5.98-1.9-8.75-3.33l-2.05-1.16
						c-0.67-0.41-1.31-0.89-1.97-1.33c-1.34-0.84-2.54-1.95-3.81-2.93c-0.62-0.52-1.21-1.1-1.81-1.65c-0.59-0.57-1.22-1.08-1.78-1.7
						c-1.14-1.22-2.34-2.34-3.42-3.64c-2.36-2.61-4.1-4.81-5.62-7.57c-1.51-2.7-2.75-5.61-3.7-8.64c-0.92-3.04-1.6-6.17-2.04-9.34
						c-0.79-6.36-0.72-12.86,0.3-19.21l0.38-2.38l0.5-2.36c0.18-0.77,0.32-1.61,0.53-2.3l0.29-1.08l0.36-1.11
						c0.96-2.98,2.2-6.04,3.5-9.05c1.31-3.01,2.72-6,4.2-8.92c0.19-0.41,1.2-2.29,1.92-3.66l0.59-1.09l0.69-1.13l1.37-2.26
						c0.49-0.77,1.15-1.62,1.71-2.43l1.79-2.5l3.65-5.08c-4.56,0.48-9.11,0.97-13.65,1.45c-2.14,0.24-4.28,0.48-6.41,0.72l-2.9,0.33
						l-1.75,0.22c-4.62,0.59-9.22,1.18-13.8,1.77c-9.08,1.12-17.98,1.98-26.81,2.22c-8.82,0.26-17.57-0.01-26.21-0.61
						c-8.64-0.64-17.17-1.59-25.61-2.68c-16.83-2.2-33.1-4.93-48.21-9.12c-7.55-2.08-14.79-4.59-21.43-7.7
						c-3.28-1.6-6.48-3.28-9.33-5.25c-2.86-1.96-5.45-4.11-7.61-6.49c-4.36-4.75-6.48-10.45-6.43-16.4
						c-0.06-2.95,0.64-6.06,1.41-8.93c0.84-2.79,2.11-5.27,3.78-7.36c1.69-2.07,3.8-3.75,6.18-5.07c2.39-1.32,5.08-2.24,7.85-2.9
						c5.57-1.31,11.48-1.55,17.24-1.36c5.77,0.2,11.43,0.85,16.95,1.6c5.55,0.77,10.92,1.56,16.08,2.36
						C771.35,345.76,780.89,347.24,789.54,348.59z"/>
				</g>
			</g>
		</g>
		<g>
			<g>
				<g>
					<g>
						<path class="st3" d="M1021.88,413.63c0.35-0.36,1.07-0.24,2.15,0.36c0.54,0.3,1.19,0.7,1.84,1.3
							c0.65,0.59,1.46,1.26,2.17,2.16c0.37,0.45,0.76,0.92,1.17,1.42c0.38,0.52,0.74,1.09,1.13,1.69c0.19,0.3,0.4,0.6,0.59,0.92
							c0.17,0.33,0.35,0.66,0.53,1.01c0.34,0.69,0.76,1.39,1.04,2.18c1.33,3.06,2.32,6.8,2.65,10.97c0.34,4.16,0.05,8.73-0.89,13.45
							c-0.92,4.71-2.51,9.6-4.77,14.49c-4.48,9.78-11.71,19.22-20.65,27.43c-4.47,4.1-10.89,9.3-19.23,14.26
							c-8.32,4.98-18.55,9.77-30.24,13.03c-2.93,0.79-5.94,1.51-9.04,2.07c-3.13,0.57-6.22,0.93-9.34,1.33
							c-6.28,0.7-12.82,1.25-19.57,0.81l-2.54-0.24l-1.27-0.12c-0.42-0.06-0.85-0.14-1.27-0.21l-2.55-0.44
							c-0.85-0.17-1.69-0.42-2.53-0.64c-1.7-0.38-3.32-1.07-4.97-1.65c-0.81-0.33-1.59-0.73-2.38-1.09
							c-0.79-0.37-1.58-0.74-2.32-1.2c-6.07-3.45-11.08-8.15-15.4-13.03c-1.05-1.24-2.1-2.48-3.14-3.71
							c-1.03-1.32-2.06-2.68-2.93-4.09c-1.76-2.82-3.26-5.73-4.38-8.72c-2.34-5.96-3.5-12.08-3.94-17.94
							c-0.43-5.88,0.02-11.52,0.94-16.69c0.27-1.29,0.53-2.55,0.79-3.8c0.33-1.23,0.66-2.43,0.98-3.61
							c0.31-1.18,0.75-2.32,1.12-3.44c0.43-1.09,0.82-2.18,1.27-3.21c1.74-4.13,3.6-7.73,5.31-10.85c1.72-3.11,3.31-5.75,4.67-7.87
							c2.72-4.24,4.48-6.47,4.71-6.32c0.24,0.15-1.05,2.66-3.3,7.13c-2.21,4.47-5.5,10.91-8.47,19.04
							c-2.89,8.05-4.7,18.3-3.53,29.23c0.62,5.44,1.9,11.06,4.2,16.4c1.1,2.69,2.54,5.25,4.16,7.68c0.81,1.23,1.72,2.35,2.66,3.49
							c1.03,1.15,2.06,2.3,3.1,3.45c4.22,4.51,8.9,8.59,14.17,11.4c0.64,0.39,1.32,0.68,2.01,0.98c0.68,0.29,1.35,0.62,2.04,0.88
							c1.42,0.44,2.79,1.01,4.26,1.29c0.73,0.16,1.44,0.37,2.18,0.5l2.23,0.33c0.37,0.05,0.74,0.12,1.11,0.16l1.13,0.08l2.26,0.17
							c6.07,0.26,12.26-0.37,18.3-1.17c3.03-0.46,6.05-0.87,8.87-1.44c2.86-0.58,5.65-1.29,8.37-2.08
							c10.87-3.23,20.44-7.88,28.18-12.65c7.78-4.75,13.72-9.64,17.86-13.44c8.29-7.61,14.85-16.21,18.95-24.84
							c2.06-4.29,3.57-8.6,4.52-12.71c0.96-4.1,1.39-7.98,1.35-11.49c-0.05-7.05-2.16-12.41-3.93-16.01
							c-0.4-0.94-0.89-1.69-1.23-2.42c-0.34-0.73-0.68-1.32-0.91-1.85C1021.66,414.69,1021.55,413.96,1021.88,413.63z"/>
					</g>
				</g>
			</g>
			<g>
				<g>
					<g>
						<path class="st3" d="M1028.11,460.81c-0.18-0.98,1.37-2.08,4.46-3.01c3.08-0.92,7.69-1.71,13.55-1.56
							c2.93,0.1,6.17,0.42,9.65,1.31c3.45,0.88,7.19,2.33,10.67,4.88c3.48,2.52,6.53,6.31,8.21,10.73c0.92,2.46,1.24,4.96,1.26,7.35
							c0.02,2.4-0.27,4.73-0.72,7c-0.9,4.55-2.89,10.34-6.2,16.61c-3.33,6.26-7.86,13.11-14.24,19.43
							c-1.64,1.61-3.27,2.97-4.94,4.47c-1.72,1.42-3.42,2.91-5.25,4.3c-3.59,2.85-7.47,5.54-11.54,8.02
							c-4.05,2.51-8.42,4.65-12.92,6.44c-4.49,1.83-9.23,3.06-13.97,3.8c-4.74,0.81-9.53,0.77-14.09,0.34
							c-1.14-0.15-2.27-0.3-3.39-0.45c-1.12-0.16-2.2-0.47-3.29-0.7c-2.18-0.44-4.23-1.12-6.24-1.77
							c-4.01-1.37-7.72-3.17-10.94-5.27c-3.23-2.1-5.95-4.53-8.13-6.98c-2.19-2.45-3.89-4.89-5.21-7.11
							c-1.35-2.21-2.34-4.2-3.13-5.84c-1.53-3.3-2.19-5.23-1.95-5.35c0.26-0.14,1.4,1.55,3.37,4.55c1,1.49,2.2,3.31,3.71,5.3
							c1.48,2.01,3.29,4.16,5.49,6.27c2.2,2.11,4.81,4.14,7.87,5.87c3.05,1.73,6.52,3.18,10.31,4.26c1.9,0.51,3.86,1.05,5.86,1.34
							c1,0.16,2,0.4,3.02,0.5c1.02,0.09,2.06,0.18,3.09,0.26c4.15,0.19,8.45,0.06,12.7-0.85c4.25-0.84,8.5-2.1,12.56-3.93
							c4.06-1.79,8.03-3.89,11.74-6.35c3.73-2.43,7.3-5.06,10.63-7.87c1.7-1.35,3.28-2.83,4.88-4.22c1.53-1.45,3.16-2.9,4.5-4.27
							c5.48-5.69,9.57-12.11,12.47-17.81c2.91-5.73,4.58-10.85,5.31-14.55c0.75-3.68,0.81-7.34-0.14-9.89
							c-1.14-3.02-3.04-5.45-5.42-7.27c-2.37-1.83-5.17-3.07-7.95-3.92c-2.78-0.86-5.56-1.34-8.13-1.67
							c-5.16-0.62-9.49-0.65-12.53-0.86C1030.06,462.11,1028.28,461.75,1028.11,460.81z"/>
					</g>
				</g>
			</g>
			<g>
				<g>
					<g>
						<path class="st3" d="M942.38,425.72c1.97,2.3,0.15,3.85-2.03,5.86c-1.1,1-3.95,3.2-6.63,5.11c-2.69,1.89-5.22,3.47-5.83,2.89
							c-0.6-0.57,0.84-3.21,2.8-5.93c1.95-2.72,4.42-5.51,5.56-6.54C938.51,425.04,940.55,423.58,942.38,425.72z"/>
					</g>
				</g>
			</g>
			<g>
				<g>
					<g>
						<path class="st3" d="M934.29,433.13c-1.19,1.65-2.4,0.76-4.14-0.08c-0.86-0.43-2.94-1.55-4.96-2.47c-2-0.94-3.86-1.7-3.8-2.25
							c0.06-0.56,2.18-0.79,4.55-0.51c1.18,0.14,2.42,0.39,3.5,0.69c1.07,0.31,1.96,0.66,2.47,0.9
							C933.94,430.39,935.39,431.62,934.29,433.13z"/>
					</g>
				</g>
			</g>
			<g>
				<g>
					<g>
						<path class="st3" d="M944.05,453.2c1.09,4.57,2.58,10.91,4.82,18.59c0.57,1.93,1.18,3.93,1.95,6.07
							c0.39,1.07,0.81,2.17,1.38,3.42l0.5,0.99c0.22,0.39,0.51,0.83,0.78,1.23c0.46,0.58,0.93,1.14,1.41,1.7
							c2,2.17,4.49,3.86,7.1,5.07c2.62,1.22,5.39,2,8.2,2.46s5.67,0.6,8.56,0.45c1.44-0.08,2.92-0.22,4.37-0.48
							c1.43-0.31,2.86-0.61,4.31-0.92c5.72-1.55,11.22-4.34,15.98-8.05c4.77-3.71,8.81-8.27,12.09-13.22
							c3.28-4.96,5.83-10.31,7.69-15.79c1.86-5.47,3.04-11.12,3.47-16.66c0.45-5.53,0.24-10.91-0.38-15.97
							c-1.32-10.13-4.18-18.94-7.09-26.1c-2.95-7.15-5.95-12.7-8.25-16.42c-2.31-3.72-3.95-5.61-4.52-5.31
							c-0.56,0.29,0.1,2.68,1.51,6.76c1.41,4.08,3.59,9.85,5.78,16.96c2.15,7.1,4.28,15.6,5.03,24.91c0.34,4.65,0.32,9.5-0.26,14.38
							c-0.56,4.87-1.75,9.77-3.52,14.56c-3.51,9.53-9.42,18.57-17.25,24.48c-3.9,2.96-8.24,5.09-12.72,6.27
							c-1.14,0.23-2.26,0.47-3.39,0.7c-1.11,0.19-2.22,0.29-3.33,0.35c-2.23,0.1-4.44-0.02-6.52-0.37c-4.16-0.67-7.75-2.31-9.83-4.6
							l-0.36-0.44l-0.18-0.22l-0.09-0.11l-0.05-0.05l-0.02-0.03c0.65-0.5-0.95,0.67-0.64,0.45l0.59-0.46
							c0.07-0.06,0.01-0.03,0.03-0.05l-0.02-0.04c-0.02-0.03-0.03-0.03-0.06-0.09l-0.24-0.48c-0.34-0.74-0.7-1.64-1.03-2.55
							c-0.67-1.83-1.26-3.72-1.81-5.53c-2.18-7.31-3.76-13.61-4.92-18.08c-1.06-4.51-2.52-10.81-4.23-18.41
							c-0.85-3.81-1.78-7.93-2.76-12.31c-0.5-2.2-1-4.47-1.53-6.79c-0.57-2.34-1.15-4.76-1.78-7.2c-1.32-4.87-2.78-9.91-4.44-14.98
							c-1.67-5-3.39-10.12-5.12-15.3c-1.66-5.1-3.21-10.2-3.85-15.11c-0.07-0.61-0.18-1.23-0.22-1.84l-0.07-1.81l-0.04-0.9
							l0.05-0.88l0.1-1.76c0.06-0.58,0.19-1.15,0.28-1.72c0.11-0.57,0.14-1.16,0.34-1.7c0.34-1.08,0.61-2.33,1.04-3.15
							c0.82-1.85,2.22-3.73,3.82-5.49c1.59-1.78,3.47-3.4,5.35-4.98c3.85-3.1,7.96-5.84,12.02-8.32
							c8.16-4.92,16.09-8.84,22.86-12.03c6.79-3.18,12.46-5.6,16.39-7.31c1.97-0.85,3.5-1.51,4.53-2.01s1.56-0.81,1.55-1.13
							c0-0.32-0.69-0.59-1.91-0.62s-2.96,0.15-5.13,0.56c-4.34,0.82-10.41,2.5-17.63,5.1c-7.21,2.62-15.59,6.09-24.41,10.83
							c-4.4,2.39-8.9,5.11-13.32,8.42c-2.19,1.7-4.4,3.46-6.46,5.62c-2.05,2.14-4.05,4.55-5.56,7.64c-0.82,1.62-1.16,3.06-1.67,4.57
							c-0.27,0.74-0.37,1.53-0.53,2.31c-0.14,0.78-0.32,1.56-0.42,2.34l-0.19,2.36l-0.09,1.18l0.02,1.16l0.05,2.33
							c0.04,0.77,0.15,1.52,0.22,2.28c0.69,6.06,2.33,11.6,3.97,16.9c1.68,5.2,3.35,10.34,4.97,15.35
							c1.59,4.96,2.98,9.82,4.23,14.51c0.58,2.36,1.15,4.66,1.7,6.92c0.52,2.3,1.03,4.55,1.52,6.74c1,4.39,1.95,8.53,2.82,12.34
							C941.32,442.32,942.88,448.66,944.05,453.2z"/>
					</g>
				</g>
			</g>
			<g>
				<g>
					<g>
						<path class="st3" d="M1006.41,374.24c1.4-0.69,3.18,1.37,5.91,4.65c2.74,3.29,6.54,7.85,11.35,12.44
							c2.37,2.32,6.56,6.19,11.76,10.44c5.19,4.27,11.4,8.89,17.43,13.08c12.03,8.42,23.32,15.01,22.95,15.73
							c-0.38,0.77-12.45-4.51-25.27-12.13c-6.41-3.79-13.02-8.14-18.55-12.29c-5.55-4.13-10.04-8.04-12.53-10.48
							c-5.04-4.8-9.12-9.77-11.43-13.82C1005.72,377.81,1005.18,374.84,1006.41,374.24z"/>
					</g>
				</g>
			</g>
		</g>
	</g>
	<g class="st0">
		<g class="st2">
			<path class="st4" d="M1744.6,342.07c0,0-31.4-48.1-229.28-40.85s-433.45,44.88-433.45,44.88c-13.56,0.58-34.15,0.35-34.15,0.35
				c-9.33-1.27-19.13-2.12-27.74-6.26c-7.24-3.49-12.89-11.09-18.48-16.79c-0.4-0.41-0.81-0.81-1.21-1.22
				c-3.58-17.39-9.16-26.61-13.57-33.06c-19.15-28.01-62.84-44.13-96.7-38.13c-7.81,1.38-16.52,3.52-24.37,8.13
				c-0.2-0.01-0.4-0.03-0.6-0.04c-19.95-0.77-41.67-1.35-60.66,4.82c-17.32,5.63-33.74,12.49-44.95,27.49
				c-6.18,8.28-12.49,25.36-9.94,36.14c1.33,5.61,4.1,10.65,7.78,14.98c-7.65,5.94-13.83,14.1-16.25,23.29
				c-6.37,24.23-0.02,44.97,17.85,56.9c2.87,1.92,5.84,3.57,8.85,5.09c-5.56,5.12-10.21,11.2-11.39,18.04
				c-2.22,12.87,1.94,29.63,9.33,40.44c5.76,8.43,15.14,12.96,25.11,14.79c0.54,8.31,2.36,16.67,7.7,23.22
				c10.82,13.26,28.79,15.84,44.86,13.64c5.74-0.78,12.38-2.65,18.75-5.67c15.79-0.57,34.5-5.12,45.83-8.43
				c9.85-2.88,27.14-13.03,35.94-18.32c16.13-9.72,25.48-21.19,39.27-35.05c13.78-13.86,30.89-23.4,49.92-27.87
				c8.18-1.92,16.65-2.12,25.05-2.25c7.9-0.13,15.79-0.21,23.69-0.26c0,0,265.12,18.22,352.01,53.42c0,0,155.31,38.95,251.47,42.72"
				/>
			<g>
				<path class="st5" d="M1744.6,342.07c0,0-31.4-48.1-229.28-40.85s-433.45,44.88-433.45,44.88c-13.56,0.58-34.15,0.35-34.15,0.35
					c-9.33-1.27-19.13-2.12-27.74-6.26c-7.24-3.49-12.89-11.09-18.48-16.79c-0.4-0.41-0.81-0.81-1.21-1.22
					c-3.58-17.39-9.16-26.61-13.57-33.06c-19.15-28.01-62.84-44.13-96.7-38.13c-7.81,1.38-16.52,3.52-24.37,8.13
					c-0.2-0.01-0.4-0.03-0.6-0.04c-19.95-0.77-41.67-1.35-60.66,4.82c-17.32,5.63-33.74,12.49-44.95,27.49
					c-6.18,8.28-12.49,25.36-9.94,36.14c1.33,5.61,4.1,10.65,7.78,14.98c-7.65,5.94-13.83,14.1-16.25,23.29
					c-6.37,24.23-0.02,44.97,17.85,56.9c2.87,1.92,5.84,3.57,8.85,5.09c-5.56,5.12-10.21,11.2-11.39,18.04
					c-2.22,12.87,1.94,29.63,9.33,40.44c5.76,8.43,15.14,12.96,25.11,14.79c0.54,8.31,2.36,16.67,7.7,23.22
					c10.82,13.26,28.79,15.84,44.86,13.64c5.74-0.78,12.38-2.65,18.75-5.67c15.79-0.57,34.5-5.12,45.83-8.43
					c9.85-2.88,27.14-13.03,35.94-18.32c16.13-9.72,25.48-21.19,39.27-35.05c13.78-13.86,30.89-23.4,49.92-27.87
					c8.18-1.92,16.65-2.12,25.05-2.25c7.9-0.13,15.79-0.21,23.69-0.26c0,0,265.12,18.22,352.01,53.42c0,0,155.31,38.95,251.47,42.72
					"/>
				<g>
					<path class="st3" d="M747.77,361.83c1.25-2.7,2.94-5.42,5.07-8.02c1.06-1.3,2.21-2.58,3.49-3.81c0.16-0.15,0.31-0.31,0.48-0.46
						l0.63-0.59c0.7-0.66,1.48-1.29,2.26-1.92c1.56-1.26,3.13-2.52,4.72-3.81c-0.85-1.03-1.71-2.07-2.58-3.12
						c-0.88-1.05-1.74-2.11-2.52-3.2c-0.21-0.28-0.39-0.52-0.6-0.84l-0.24-0.37c-0.17-0.24-0.31-0.5-0.47-0.75
						c-0.31-0.51-0.61-1.02-0.89-1.55c-1.13-2.1-2.02-4.36-2.61-6.73c-1.05-4.2-0.37-9.81,1.17-15.32c0.78-2.77,1.78-5.58,3-8.33
						c1.22-2.74,2.67-5.46,4.33-7.84c1.74-2.38,3.79-4.87,6.09-7.04c2.3-2.2,4.8-4.28,7.55-6.16c5.51-3.75,11.82-6.84,18.68-9.46
						c3.42-1.32,6.97-2.55,10.62-3.73c3.49-1.11,7.1-2.01,10.83-2.73c7.47-1.4,15.35-2.06,23.49-2.23c4.07-0.09,8.2-0.08,12.4,0.01
						c2.1,0.06,4.22,0.12,6.34,0.18c1.07,0.04,2.13,0.08,3.2,0.11l1.61,0.06l0.61,0.02l0.81,0.04l1.62,0.1l1.6-0.9l0.8-0.45
						l0.37-0.21l0.2-0.1c0.54-0.28,1.07-0.57,1.62-0.82c1.09-0.54,2.22-1.02,3.37-1.49c2.3-0.93,4.71-1.69,7.19-2.37
						c2.48-0.67,5.04-1.22,7.66-1.71c1.33-0.27,2.6-0.39,3.89-0.58c1.29-0.15,2.57-0.39,3.88-0.49c10.48-0.82,21.43,0.21,32.15,2.92
						c10.69,2.82,21.25,7.16,30.82,13.24c2.32,1.62,4.76,3.1,6.92,4.93c1.1,0.89,2.26,1.72,3.31,2.67l3.12,2.89
						c1.09,0.92,1.98,2.02,2.94,3.05l1.43,1.56l0.72,0.78l0.64,0.84l2.55,3.37c0.86,1.13,1.66,2.4,2.43,3.6
						c3.09,4.84,5.5,10.03,7.39,15.57c0.95,2.76,1.77,5.6,2.46,8.49c0.19,0.72,0.35,1.45,0.51,2.18l0.39,1.76l0.25,1.14
						c0.05,0.18,0.05,0.4,0.15,0.55l0.38,0.39l2.44,2.48l1.54,1.63c2.06,2.24,4.19,4.63,6.53,7.01c2.36,2.37,4.96,4.73,8.09,6.76
						c3.32,2.09,6.56,3.32,9.88,4.39c3.32,1.05,6.65,1.74,9.92,2.31c3.27,0.55,6.51,0.97,9.66,1.37l2.35,0.31l0.9,0.12l0.93,0.01
						l1.21,0.01l4.82,0.02c6.43,0.01,12.87-0.03,19.36-0.16l4.88-0.13l2.45-0.09c0.45-0.03,0.66,0,1.61-0.09l1.38-0.22
						c3.17-0.49,6.35-0.99,9.53-1.49c6.38-0.96,12.77-1.92,19.16-2.88c102.45-15.1,207.73-27.52,302.61-35.15
						c23.72-1.94,46.79-3.45,69-4.74c11.11-0.55,22-1.09,32.64-1.62c10.64-0.29,21.03-0.57,31.15-0.84
						c40.5-0.5,76.7,1.51,106.57,5.84c29.89,4.28,53.23,11.38,68.34,18.3c7.46,3.62,13,6.92,16.44,9.58
						c3.45,2.63,4.99,4.31,5.21,4.16c0.24-0.15-0.97-2.27-4.23-5.38c-3.23-3.14-8.69-6.94-16.16-11.05
						c-15.09-7.89-38.71-15.89-68.88-20.9c-30.16-5.07-66.68-7.69-107.47-7.71c-10.2,0.15-20.66,0.31-31.37,0.47
						c-10.69,0.36-21.62,0.84-32.77,1.28c-22.29,1.07-45.44,2.38-69.24,4.15c-95.18,6.9-200.67,18.88-303.36,33.73
						c-6.42,0.95-12.83,1.9-19.22,2.84c-3.2,0.49-6.4,0.98-9.59,1.47l-0.95,0.15l-0.86,0.03l-2.37,0.08l-4.77,0.12
						c-6.37,0.12-12.75,0.14-19.12,0.11l-4.77-0.03l-1.19-0.01c-0.54-0.02,0.12,0.03-0.57-0.05l-2.39-0.32
						c-3.17-0.41-6.25-0.82-9.24-1.33c-2.98-0.53-5.88-1.14-8.59-2.01c-2.71-0.85-5.39-1.95-7.41-3.26
						c-2.17-1.41-4.27-3.28-6.34-5.37c-2.07-2.1-4.1-4.4-6.27-6.76c-0.55-0.59-1.09-1.18-1.67-1.78l-0.82-0.85
						c-0.06-0.06-0.02-0.03-0.03-0.04l0,0l-0.12-0.56c-0.17-0.79-0.35-1.58-0.55-2.37c-0.75-3.16-1.65-6.29-2.71-9.39
						c-2.09-6.18-4.91-12.24-8.41-17.73c-0.88-1.38-1.71-2.7-2.7-4.01s-1.98-2.62-2.97-3.93c-0.25-0.32-0.49-0.66-0.75-0.97
						l-0.82-0.9l-1.64-1.8c-1.1-1.19-2.15-2.44-3.37-3.49c-1.18-1.09-2.36-2.18-3.53-3.27c-1.19-1.07-2.48-2-3.71-3
						c-2.44-2.06-5.13-3.71-7.71-5.5c-1.31-0.87-2.69-1.6-4.03-2.41c-1.36-0.77-2.67-1.62-4.08-2.28c-2.78-1.38-5.52-2.83-8.39-3.95
						c-1.42-0.59-2.82-1.23-4.26-1.76c-1.44-0.51-2.89-1.02-4.33-1.52l-2.16-0.75l-2.19-0.63c-1.46-0.42-2.92-0.83-4.38-1.24
						c-11.74-2.97-23.78-4.14-35.61-3.21c-1.48,0.11-2.95,0.37-4.42,0.55c-1.46,0.21-2.96,0.37-4.34,0.65
						c-2.82,0.53-5.65,1.14-8.46,1.9c-2.81,0.77-5.6,1.65-8.33,2.75c-1.36,0.55-2.72,1.13-4.05,1.79c-0.67,0.31-1.32,0.67-1.98,1
						l-0.4,0.21l-0.15,0.09c-1.7-0.06-3.39-0.12-5.07-0.18c-2.17-0.06-4.32-0.12-6.47-0.18c-4.3-0.1-8.59-0.11-12.85-0.01
						c-8.52,0.18-16.96,0.88-25.18,2.43c-4.1,0.8-8.15,1.81-12.08,3.07c-3.76,1.23-7.48,2.52-11.14,3.93
						c-7.32,2.81-14.4,6.24-20.77,10.6c-6.37,4.4-11.89,9.69-16.21,15.78c-2.2,3.17-3.85,6.35-5.28,9.56
						c-1.42,3.21-2.58,6.46-3.49,9.74s-1.57,6.6-1.87,10.01c-0.15,1.7-0.18,3.43-0.11,5.18c0.08,0.89,0.11,1.76,0.26,2.66
						c0.16,0.88,0.31,1.84,0.51,2.65c0.81,3.25,2.04,6.3,3.54,9.08c0.37,0.7,0.77,1.37,1.18,2.04c0.21,0.33,0.41,0.66,0.62,0.98
						l0.32,0.48c-0.02-0.04,0-0.01-0.01-0.01l0.05,0.06c-0.37,0.36-0.74,0.71-1.1,1.05c-1.54,1.5-2.95,3.07-4.26,4.68
						c-2.61,3.22-4.74,6.64-6.35,10.15c-0.31,0.67-0.62,1.35-0.89,2.06c-0.29,0.7-0.55,1.42-0.8,2.15
						c-0.27,0.73-0.47,1.49-0.69,2.24c-0.23,0.77-0.36,1.45-0.54,2.19c-0.33,1.46-0.73,2.93-0.96,4.48
						c-0.25,1.54-0.58,3.09-0.71,4.7c-0.76,6.41-0.73,13.46,0.83,20.76c1.67,7.25,4.95,14.77,10.38,21.11
						c2.68,3.17,5.78,6.12,9.3,8.57c0.87,0.64,1.74,1.27,2.63,1.82l1.34,0.84l0.77,0.47l0.04,0.03l-0.03,0.03l-0.16,0.19
						c-0.33,0.37-0.63,0.77-0.95,1.16c-0.63,0.79-1.23,1.6-1.82,2.46c-2.32,3.39-4.32,7.42-5.13,12.02
						c-0.71,4.18-0.81,8.36-0.52,12.52c0.3,4.16,1.01,8.29,2.09,12.38s2.52,8.14,4.4,12.11c0.98,1.97,2.01,3.94,3.24,5.85l0.92,1.43
						l1.06,1.45c0.74,0.94,1.49,1.89,2.33,2.75c3.28,3.54,7.3,6.33,11.57,8.42c2.14,1.05,4.35,1.91,6.6,2.62
						c0.56,0.19,1.13,0.35,1.7,0.51l1.16,0.32l0.13,0.03l0,0l0,0c0,0,0,0.01,0-0.01c0-0.02,0-0.02,0.01,0.1l0.03,0.27
						c0.17,1.44,0.4,2.88,0.68,4.34c0.58,2.91,1.38,5.86,2.59,8.76c1.19,2.9,2.78,5.73,4.81,8.3c0.49,0.67,1.04,1.21,1.56,1.81
						c0.54,0.58,1.03,1.21,1.62,1.74c1.16,1.09,2.29,2.21,3.58,3.15c5,4,10.95,6.61,17.02,8.19c6.1,1.51,12.36,2.03,18.56,1.76
						c1.55-0.03,3.1-0.2,4.65-0.32c1.54-0.19,3.08-0.33,4.67-0.61c3.14-0.53,6.22-1.27,9.25-2.22c1.51-0.48,3.01-1,4.5-1.57
						c0.74-0.28,1.48-0.59,2.22-0.9l1.54-0.68c0.13-0.06,0.11-0.05,0.1-0.05h-0.02l0.28-0.01l0.59-0.03
						c0.78-0.03,1.56-0.08,2.33-0.15c1.56-0.11,3.1-0.26,4.64-0.43c12.34-1.4,24.44-4.09,36.53-7.5c0.78-0.23,1.46-0.4,2.33-0.69
						c0.83-0.27,1.67-0.53,2.44-0.83c1.59-0.58,3.1-1.21,4.6-1.87c2.98-1.32,5.86-2.72,8.69-4.2c5.66-2.94,11.19-6.08,16.67-9.33
						c1.37-0.82,2.73-1.63,4.1-2.45c1.4-0.89,2.83-1.73,4.2-2.68c2.78-1.83,5.45-3.83,8.04-5.91c5.19-4.17,9.96-8.77,14.52-13.41
						c4.56-4.65,8.96-9.32,13.46-13.86c4.37-4.34,9.08-8.38,14.21-11.86c10.18-7.05,21.86-12.09,34.02-14.88
						c5.91-1.32,12.2-1.72,18.69-1.89c6.51-0.16,13.16-0.18,19.74-0.28l4.95-0.06l2.48-0.03l0.62-0.01c0.31,0,0.13-0.01,0.25,0
						l1.23,0.09l9.88,0.72l19.78,1.54c26.37,2.14,52.71,4.55,78.78,7.23c52.13,5.39,103.26,11.71,151.27,20.11
						c23.97,4.31,47.23,9.01,68.98,15.35c2.74,0.74,5.39,1.65,8.06,2.49c1.33,0.43,2.66,0.85,3.98,1.28
						c1.3,0.48,2.59,0.95,3.88,1.43c1.29,0.48,2.58,0.95,3.86,1.43l1.26,0.47l1.23,0.3l2.04,0.49c2.71,0.64,5.41,1.27,8.09,1.91
						c10.72,2.5,21.22,4.85,31.47,7.06c20.49,4.43,39.97,8.37,58.22,11.75c9.11,1.75,17.94,3.24,26.4,4.74
						c8.47,1.44,16.62,2.72,24.37,3.97c7.78,1.12,15.17,2.24,22.17,3.19c7.01,0.87,13.62,1.7,19.79,2.47
						c6.19,0.62,11.95,1.2,17.24,1.74c2.64,0.29,5.19,0.45,7.61,0.62s4.72,0.32,6.9,0.47c8.7,0.69,15.49,0.71,20.07,0.76
						c4.59,0.03,6.99-0.09,7.01-0.36c0.02-0.29-2.35-0.7-6.88-1.23c-4.53-0.56-11.24-1.05-19.86-2.18c-2.16-0.25-4.43-0.52-6.83-0.8
						c-2.4-0.28-4.91-0.54-7.53-0.93c-5.24-0.72-10.95-1.5-17.08-2.34c-6.12-0.94-12.67-1.95-19.62-3.03
						c-6.94-1.17-14.28-2.41-22-3.71c-7.7-1.41-15.78-2.85-24.2-4.45c-8.41-1.65-17.17-3.29-26.22-5.18
						c-18.13-3.66-37.49-7.87-57.86-12.54c-10.19-2.33-20.63-4.8-31.28-7.4c-2.66-0.66-5.33-1.32-8.02-1.98l-2.01-0.51l-0.89-0.23
						l-0.59-0.23c-1.33-0.51-2.67-1.02-4.01-1.53s-2.68-1.02-4.03-1.53c-1.36-0.45-2.72-0.91-4.09-1.36
						c-2.73-0.9-5.47-1.87-8.25-2.65c-22.2-6.71-45.62-11.64-69.74-16.17c-48.3-8.84-99.56-15.47-151.83-21.12
						c-26.14-2.81-52.54-5.33-78.98-7.57l-19.84-1.61l-9.93-0.75l-1.25-0.09l-0.5-0.04h-0.49l-0.62,0.01l-2.49,0.02l-4.97,0.05
						c-6.64,0.08-13.22,0.09-19.9,0.23c-6.7,0.16-13.64,0.54-20.6,2.05c-13.5,3.05-26.33,8.56-37.61,16.32
						c-5.67,3.83-10.88,8.26-15.7,13.04c-4.63,4.65-9.08,9.36-13.52,13.88c-4.45,4.52-8.92,8.8-13.66,12.6
						c-2.38,1.89-4.79,3.71-7.31,5.36c-1.24,0.86-2.54,1.62-3.81,2.43c-1.34,0.8-2.69,1.6-4.03,2.4
						c-5.37,3.17-10.77,6.23-16.17,9.03c-2.7,1.4-5.42,2.72-8.11,3.91c-0.67,0.31-1.34,0.58-2.01,0.85
						c-0.67,0.29-1.33,0.54-1.99,0.77c-0.67,0.26-1.3,0.46-1.94,0.66c-0.6,0.21-1.4,0.42-2.1,0.62
						c-11.62,3.27-23.35,5.86-34.83,7.15c-1.43,0.15-2.86,0.29-4.29,0.39c-0.71,0.06-1.42,0.11-2.13,0.14l-1.36,0.07
						c-0.75,0.05-1.55-0.01-2.07,0.36l-1.6,0.73l-0.94,0.41c-0.63,0.26-1.26,0.52-1.9,0.77c-1.27,0.49-2.56,0.94-3.86,1.35
						c-2.6,0.82-5.23,1.45-7.85,1.89c-1.29,0.23-2.66,0.36-4.01,0.52c-1.35,0.1-2.7,0.25-4.04,0.28c-2.69,0.15-5.34,0.03-7.96-0.17
						c-2.61-0.24-5.16-0.68-7.63-1.27c-4.9-1.29-9.47-3.31-13.18-6.3c-0.97-0.7-1.8-1.54-2.67-2.34c-0.45-0.39-0.8-0.87-1.2-1.3
						c-0.37-0.44-0.83-0.87-1.14-1.32c-1.39-1.76-2.52-3.73-3.39-5.87c-0.9-2.13-1.52-4.43-2-6.78c-0.23-1.19-0.42-2.39-0.56-3.61
						l-0.07-0.62c-0.04-0.35-0.07-0.67-0.1-1.01l-0.16-2.01c-0.1-1.34-0.2-2.67-0.3-4l-3.18-0.64l-3.03-0.65l-0.75-0.16l-0.34-0.08
						l-0.17-0.05l-0.69-0.19c-0.46-0.12-0.92-0.26-1.37-0.41c-1.81-0.57-3.56-1.24-5.21-2.06c-3.29-1.61-6.23-3.67-8.56-6.19
						c-0.6-0.61-1.13-1.28-1.66-1.95l-0.75-1.03l-0.73-1.14c-0.99-1.51-1.84-3.14-2.65-4.77c-1.58-3.31-2.82-6.78-3.74-10.28
						c-1.83-6.98-2.46-14.19-1.41-20.52c0.48-2.74,1.74-5.46,3.48-8.01c0.43-0.64,0.9-1.26,1.38-1.88c0.25-0.3,0.48-0.62,0.75-0.91
						l0.71-0.83c0.3-0.33,0.6-0.66,0.92-0.97c0.64-0.64,1.23-1.29,1.9-1.92l2.01-1.9c1.33-1.25,2.65-2.49,3.96-3.73
						c-3.62-1.88-7.44-3.69-10.83-5.63l-1.19-0.69l-0.59-0.36l-1.16-0.73c-0.78-0.48-1.49-1-2.19-1.52
						c-2.88-1.98-5.34-4.34-7.47-6.84c-4.3-5-6.88-10.89-8.28-16.76c-1.28-5.93-1.35-11.85-0.71-17.38c0.1-1.39,0.4-2.74,0.61-4.08
						c0.18-1.34,0.54-2.64,0.83-3.93c0.15-0.63,0.28-1.32,0.45-1.88c0.17-0.57,0.31-1.14,0.52-1.69c0.18-0.56,0.38-1.11,0.6-1.64
						C747.3,362.87,747.53,362.35,747.77,361.83z"/>
				</g>
			</g>
		</g>
		<g class="st2">
			<g>
				<g>
					<g>
						<path class="st3" d="M880.82,475.55c0.36-0.35,0.9-0.44,1.62-0.19c0.71,0.25,1.59,0.85,2.46,1.89
							c0.22,0.26,0.43,0.54,0.64,0.85c0.2,0.31,0.37,0.57,0.56,0.89c0.37,0.61,0.75,1.29,1.14,2.03c0.42,0.73,0.73,1.57,1.11,2.44
							c0.37,0.88,0.75,1.82,1.04,2.85c1.31,4.05,2.21,9.26,1.67,15.14c-0.34,2.93-1.02,5.98-2.17,8.99
							c-1.15,3.01-2.82,5.93-4.82,8.63c-2.01,2.69-5.09,6.09-9.34,9.17c-4.22,3.14-9.52,6.01-15.5,8.25c-3,1.11-6.16,2.07-9.46,2.81
							c-3.28,0.77-6.78,1.24-10.18,1.53c-3.44,0.27-6.94,0.35-10.45,0.16c-3.5-0.18-7.01-0.65-10.4-1.51
							c-3.39-0.84-6.66-2.05-9.66-3.61c-2.99-1.6-5.66-3.56-7.96-5.68c-1.11-1.11-2.21-2.17-3.12-3.36
							c-0.95-1.13-1.85-2.3-2.57-3.52c-1.5-2.4-2.52-4.84-3.24-7.11c-1.42-4.55-1.75-8.39-1.82-11.02
							c-0.05-2.64,0.16-4.11,0.43-4.13c0.29-0.02,0.62,1.42,1.19,3.93c0.57,2.5,1.4,6.11,3.14,10.12c0.88,1.99,2,4.08,3.49,6.06
							c0.72,1.01,1.57,1.94,2.51,2.89c0.88,0.99,1.93,1.84,2.97,2.75c2.16,1.7,4.58,3.24,7.25,4.46c2.69,1.18,5.6,2.06,8.63,2.64
							c6.07,1.2,12.6,1.01,18.93,0.26c3.2-0.41,6.21-0.95,9.18-1.76c2.95-0.79,5.79-1.76,8.45-2.85c5.32-2.2,9.91-4.88,13.44-7.63
							c3.58-2.72,6.02-5.53,7.63-7.67c1.6-2.16,2.9-4.42,3.81-6.74c0.91-2.32,1.47-4.66,1.81-6.95c0.55-4.59,0.12-8.9-0.55-12.53
							c-0.13-0.91-0.34-1.78-0.52-2.6c-0.19-0.82-0.3-1.62-0.5-2.34c-0.18-0.73-0.33-1.42-0.46-2.07c-0.11-0.6-0.21-1.16-0.3-1.65
							C880.51,477.51,880.14,476.23,880.82,475.55z"/>
					</g>
				</g>
			</g>
			<g>
				<g>
					<g>
						<path class="st3" d="M877.25,421.7c0.26-0.42,0.95-0.57,1.98-0.11c1.03,0.44,2.27,1.55,3.32,3.17
							c1.9,3.03,4.16,7.64,5.64,13.85c1.48,6.17,2.3,13.87,0.88,22.4c-0.75,4.24-2.05,8.69-4.34,12.99
							c-0.29,0.54-0.58,1.07-0.87,1.61c-0.35,0.52-0.7,1.03-1.05,1.55c-0.36,0.52-0.7,1.04-1.08,1.55
							c-0.42,0.49-0.84,0.97-1.26,1.46c-0.44,0.48-0.82,1-1.31,1.44s-0.98,0.88-1.47,1.33c-0.98,0.95-2.01,1.58-3.03,2.34
							c-4.12,2.9-10.07,5.89-17.31,8.37c-7.25,2.42-15.75,4.51-24.96,6.04c-4.6,0.79-9.39,1.46-14.28,2.04
							c-2.45,0.29-4.92,0.56-7.41,0.8c-2.47,0.26-5.1,0.45-7.69,0.57c-5.21,0.18-10.54-0.02-15.83-0.97c-1.32-0.3-2.64-0.5-3.94-0.9
							l-1.95-0.55l-1.92-0.69c-1.29-0.42-2.51-1.06-3.76-1.61c-0.61-0.3-1.2-0.66-1.8-0.99c-0.59-0.34-1.2-0.66-1.75-1.07
							l-1.68-1.18c-0.56-0.39-1.05-0.88-1.57-1.31c-1.07-0.85-1.96-1.88-2.88-2.87c-0.48-0.48-0.85-1.04-1.26-1.57l-1.18-1.61
							c-0.67-1.1-1.37-2.16-1.95-3.28c-2.43-4.41-4.11-8.96-5.33-13.41c-2.43-8.9-2.82-17.49-1.55-24.57
							c0.58-3.63,2.05-6.74,3.59-9.15c1.54-2.44,3.19-4.28,4.59-5.72c2.84-2.83,4.73-4.04,4.9-3.86c0.21,0.22-1.32,1.85-3.67,4.92
							c-1.15,1.55-2.53,3.47-3.73,5.85c-1.22,2.37-2.27,5.16-2.56,8.41c-0.71,6.58,0.1,14.62,2.77,22.82
							c1.33,4.09,3.09,8.25,5.45,12.13c0.56,0.99,1.23,1.91,1.86,2.86l1.03,1.28c0.35,0.42,0.66,0.88,1.08,1.25
							c0.79,0.77,1.53,1.59,2.44,2.25c0.44,0.34,0.84,0.72,1.32,1.02l1.41,0.91c0.46,0.33,0.97,0.57,1.48,0.83
							c0.51,0.25,1,0.54,1.52,0.77c1.07,0.41,2.1,0.93,3.23,1.24l1.66,0.53l1.71,0.42c1.13,0.32,2.33,0.45,3.48,0.68
							c4.72,0.69,9.61,0.74,14.45,0.43c2.44-0.19,4.8-0.42,7.27-0.75c2.45-0.31,4.87-0.63,7.26-0.98c4.78-0.68,9.43-1.45,13.88-2.32
							c8.91-1.68,16.98-3.84,23.69-6.19c6.69-2.4,11.9-5.12,15.29-7.51c6.7-4.38,9.85-11.9,11.25-19.03
							c0.72-3.58,0.85-7.12,0.87-10.42c-0.06-1.66-0.07-3.26-0.26-4.8c-0.08-0.77-0.12-1.53-0.21-2.27
							c-0.11-0.74-0.21-1.46-0.32-2.16c-0.83-5.63-2.21-10.14-2.94-13.3c-0.37-1.45-0.74-2.48-1.01-3.25
							C877.17,422.67,877,422.11,877.25,421.7z"/>
					</g>
				</g>
			</g>
			<g>
				<g>
					<g>
						<path class="st3" d="M886.42,404.64c0.94,0.25,1.31,2.23,0.54,5.63c-0.77,3.36-2.76,8.21-7,13c-1.07,1.19-2.22,2.36-3.59,3.5
							c-1.42,1.18-2.96,2.22-4.6,3.15c-3.28,1.85-6.9,3.32-10.74,4.49c-7.69,2.36-16.25,3.79-25.21,4.65
							c-4.48,0.46-10.56,0.83-17.75,0.95c-1.8,0.04-3.66,0.07-5.59,0.04c-1.94-0.02-3.88,0.01-6.01-0.07
							c-4.2-0.14-8.62-0.54-13.16-1.3c-9.07-1.52-18.63-4.52-27.5-9.3c-4.43-2.4-8.7-5.09-12.7-8.44
							c-3.96-3.34-7.42-7.31-10.06-11.7c-2.65-4.38-4.49-9.14-5.52-13.89c-1.02-4.76-1.26-9.47-1.05-13.91
							c0.17-4.46,0.95-8.64,1.86-12.49c0.51-1.92,0.94-3.76,1.59-5.57c0.64-1.78,1.4-3.43,2.18-4.97
							c3.27-6.11,7.24-10.16,10.16-12.64c2.94-2.49,4.87-3.49,5.02-3.3c0.19,0.24-1.39,1.68-3.88,4.46
							c-2.47,2.77-5.87,6.99-8.47,12.84c-0.62,1.47-1.21,3.03-1.68,4.68c-0.47,1.63-0.78,3.45-1.16,5.3
							c-0.64,3.71-1.16,7.67-1.11,11.8c0.01,4.12,0.44,8.4,1.53,12.6c1.11,4.2,2.9,8.31,5.36,12.04c2.46,3.74,5.59,7.09,9.18,9.92
							c3.56,2.79,7.68,5.23,11.82,7.31c8.32,4.17,17.18,6.69,25.58,7.9c4.2,0.61,8.3,0.89,12.18,0.94c1.92,0.05,3.91-0.02,5.78-0.04
							c1.88-0.01,3.7-0.07,5.45-0.13c6.99-0.23,12.87-0.64,17.16-1.08c8.61-0.82,16.71-2.18,23.7-4.18c3.5-0.98,6.68-2.19,9.4-3.57
							c1.36-0.69,2.59-1.43,3.66-2.21c1.12-0.8,2.18-1.73,3.13-2.61c3.82-3.6,6.15-7.31,7.82-9.91
							C884.42,405.95,885.49,404.39,886.42,404.64z"/>
					</g>
				</g>
			</g>
			<g>
				<g>
					<g>
						<path class="st3" d="M898.44,267.61c-0.54,0.92-3.64-0.29-9.24-1.79c-5.59-1.52-13.84-3.08-24.28-3.21
							c-5.37-0.08-11.23-0.2-17.47-0.16c-6.25,0.03-12.88,0.25-19.77,0.92c-6.88,0.7-14.02,1.88-21.06,4.09
							c-7.21,2.31-14.68,4.93-21.68,8.46c-3.49,1.78-7.53,4.02-11.58,7.15c-1,0.8-2.05,1.59-3.04,2.5c-0.5,0.45-1.03,0.88-1.52,1.36
							c-0.49,0.48-0.99,0.97-1.49,1.47c-0.52,0.48-0.98,1.03-1.46,1.56c-0.47,0.54-0.99,1.06-1.45,1.64
							c-0.92,1.15-1.9,2.33-2.7,3.52c-3.29,4.97-6.07,11.35-7.74,18.13c-0.43,1.7-0.73,3.43-0.95,5.17
							c-0.13,0.87-0.14,1.73-0.23,2.61c0.02,0.85-0.06,1.73,0.03,2.56c0.16,3.27,1.24,6.6,3.12,9.63c1.86,3.05,4.55,5.84,7.6,8.55
							c0.76,0.66,1.55,1.39,2.34,2c0.79,0.62,1.57,1.24,2.36,1.86c0.8,0.61,1.67,1.14,2.51,1.72c0.43,0.28,0.83,0.58,1.28,0.84
							l1.34,0.77c1.75,1.08,3.65,1.95,5.52,2.88c1.94,0.81,3.86,1.67,5.89,2.35c4.01,1.44,8.19,2.6,12.48,3.48
							c8.56,1.83,17.48,2.72,26.43,3.25c8.99,0.49,17.96,0.83,26.66,0.32c8.68-0.54,17.19-1.93,24.69-5.11
							c1.88-0.78,3.68-1.68,5.39-2.69c1.72-0.99,3.31-2.14,4.79-3.37c2.96-2.46,5.33-5.43,6.9-8.71c0.78-1.64,1.34-3.36,1.75-5.1
							c0.17-0.87,0.26-1.76,0.4-2.63c0.09-0.44,0.08-0.88,0.09-1.31l0.03-1.31c-0.04-3.49-0.86-6.89-2.17-9.99
							c-0.36-0.76-0.65-1.56-1.07-2.28c-0.41-0.73-0.82-1.45-1.22-2.17c-0.93-1.37-1.81-2.74-2.87-3.96c-0.5-0.63-1-1.25-1.56-1.81
							c-0.55-0.57-1.07-1.16-1.62-1.7c-1.15-1.05-2.23-2.12-3.43-3.02c-2.3-1.91-4.74-3.44-7.09-4.79
							c-1.21-0.61-2.36-1.29-3.55-1.76c-0.59-0.26-1.17-0.51-1.74-0.77c-0.58-0.23-1.16-0.45-1.72-0.66
							c-4.56-1.66-8.72-2.59-12.14-3.22c-6.87-1.21-10.83-1.39-10.82-1.72c0-0.23,3.97-0.6,11.05,0.1
							c3.53,0.38,7.84,1.07,12.67,2.56c4.82,1.52,10.17,3.93,15.26,7.77c1.31,0.91,2.52,2.01,3.79,3.09
							c0.61,0.57,1.2,1.17,1.81,1.77c0.62,0.58,1.19,1.23,1.76,1.9c1.19,1.28,2.21,2.75,3.28,4.22c0.48,0.78,0.95,1.57,1.44,2.36
							c0.49,0.79,0.85,1.67,1.28,2.52c1.59,3.45,2.68,7.34,2.84,11.46l0.01,1.55c0,0.52,0.02,1.04-0.06,1.56
							c-0.13,1.03-0.22,2.08-0.39,3.12c-0.42,2.07-1.02,4.13-1.91,6.12c-1.76,3.97-4.51,7.57-7.85,10.49
							c-1.67,1.46-3.45,2.81-5.36,3.97c-1.89,1.18-3.87,2.23-5.92,3.14c-8.21,3.7-17.29,5.34-26.35,6.1
							c-9.1,0.71-18.24,0.53-27.36,0.2c-9.14-0.38-18.38-1.13-27.46-2.92c-4.54-0.86-9.03-2.03-13.41-3.52
							c-2.2-0.7-4.34-1.61-6.47-2.48c-2.09-0.99-4.19-1.93-6.18-3.11l-1.51-0.84c-0.5-0.28-0.97-0.62-1.46-0.93
							c-0.96-0.64-1.94-1.23-2.86-1.91c-0.91-0.7-1.82-1.39-2.73-2.09c-0.91-0.7-1.7-1.4-2.55-2.12c-3.32-2.88-6.6-6.11-9.1-10.07
							c-2.51-3.93-4.09-8.48-4.38-13.1c-0.11-1.14-0.05-2.22-0.07-3.32c0.08-1.07,0.1-2.15,0.24-3.19c0.24-2.09,0.58-4.12,1.04-6.07
							c0.9-3.91,2.13-7.58,3.57-11.04c1.46-3.46,3.1-6.71,5.1-9.73c1.03-1.55,2.11-2.88,3.16-4.2c0.52-0.67,1.1-1.27,1.65-1.89
							c0.55-0.61,1.08-1.24,1.67-1.8c0.57-0.57,1.14-1.13,1.7-1.69s1.16-1.05,1.73-1.57c1.13-1.05,2.31-1.95,3.44-2.86
							c4.58-3.56,9.04-6.05,12.85-7.99c3.82-1.93,7.69-3.56,11.52-5.01c3.85-1.45,7.59-2.74,11.39-3.92
							c7.75-2.4,15.43-3.61,22.69-4.27c7.27-0.63,14.16-0.75,20.56-0.62c6.4,0.12,12.32,0.44,17.7,0.78
							c11.07,0.67,19.96,3.15,25.6,5.89C896.43,264.28,898.9,266.86,898.44,267.61z"/>
					</g>
				</g>
			</g>
			<g>
				<g>
					<g>
						<path class="st3" d="M843.35,293.14c-0.11,3.04-4.78,2.86-10.6,3.2c-2.91,0.14-9.99,0.42-16.4,0.88
							c-6.41,0.42-12.16,0.83-12.33,0c-0.16-0.81,5.3-2.71,11.68-4.24c6.36-1.56,13.66-2.55,16.7-2.7
							C838.48,289.93,843.46,290.34,843.35,293.14z"/>
					</g>
				</g>
			</g>
			<g>
				<g>
					<g>
						<path class="st3" d="M815.48,295.19c-2.24,2.06-3.02,1.19-4.12,0.23c-0.54-0.48-1.69-1.85-2.8-3.14
							c-1.09-1.31-2.16-2.51-1.92-3.29c0.24-0.82,2.16-0.94,4.11-0.39c1.97,0.51,3.91,1.65,4.59,2.25
							C816.71,292.05,817.55,293.29,815.48,295.19z"/>
					</g>
				</g>
			</g>
			<g>
				<path class="st4" d="M1003.42,346.87c-2.1-34.49-10.54-48.76-16.68-57.75c-19.15-28.01-62.84-44.13-96.7-38.13
					c-23.27,4.12-54.55,14.81-47.23,78.19c1.88,16.3-1.58,35.16-1.17,51.57c0.23,9.26,4.98,23.09,18.83,27.59
					c12.87,4.18,35.39-4.85,41.95-19.31c9-19.84,18.39-60.74,15.03-78.62"/>
				<g>
					<g>
						<path class="st3" d="M846.84,301.46c0.62-5.58,1.8-13.49,5.79-21.62c1.05-1.98,2.18-4.04,3.63-5.95
							c0.67-1,1.49-1.89,2.27-2.86c0.86-0.89,1.69-1.83,2.65-2.67c3.72-3.48,8.43-6.34,13.86-8.45c2.71-1.06,5.59-1.95,8.6-2.7
							c1.5-0.38,3.04-0.71,4.61-1.03c0.79-0.15,1.58-0.3,2.37-0.45c0.79-0.13,1.56-0.22,2.35-0.33c0.78-0.11,1.57-0.22,2.36-0.32
							s1.57-0.25,2.38-0.27c1.61-0.09,3.22-0.19,4.84-0.28c1.62-0.08,3.27,0.02,4.91,0.02c0.82,0.02,1.65,0,2.47,0.05l2.48,0.21
							l2.49,0.2l1.25,0.1l1.24,0.18c1.66,0.24,3.32,0.49,4.98,0.74c1.65,0.3,3.3,0.69,4.95,1.03c0.82,0.19,1.66,0.32,2.47,0.55
							l2.44,0.68l2.44,0.67l1.22,0.34l1.2,0.41c1.6,0.55,3.19,1.09,4.79,1.64c1.57,0.59,3.11,1.27,4.67,1.89
							c0.77,0.33,1.56,0.62,2.31,0.97l2.25,1.09l2.24,1.09c0.75,0.35,1.49,0.72,2.2,1.15c1.44,0.81,2.86,1.62,4.29,2.43
							c1.41,0.83,2.73,1.78,4.08,2.65c0.67,0.45,1.35,0.88,2.01,1.33c0.63,0.49,1.27,0.97,1.89,1.46c0.63,0.48,1.26,0.97,1.89,1.45
							c0.62,0.48,1.27,0.94,1.83,1.48c1.16,1.04,2.32,2.08,3.46,3.1c0.6,0.49,1.1,1.06,1.62,1.61s1.04,1.1,1.56,1.65
							s1.03,1.09,1.55,1.63c0.49,0.56,0.92,1.15,1.38,1.73c7.63,9.18,12.09,19.24,14.79,28.26c2.7,9.02,4.09,16.77,5.12,22.14
							c0.56,2.69,0.93,4.81,1.34,6.24c0.39,1.43,0.76,2.18,1.09,2.16c0.3-0.02,0.53-0.81,0.69-2.3c0.14-1.48,0.29-3.67,0.21-6.46
							c-0.09-5.57-0.67-13.62-2.81-23.31c-1.09-4.84-2.68-10.07-5.03-15.45c-1.17-2.69-2.54-5.41-4.12-8.07
							c-0.79-1.34-1.61-2.66-2.46-3.97c-0.9-1.31-1.88-2.62-2.84-3.94c-0.49-0.66-0.96-1.35-1.48-1.98
							c-0.55-0.62-1.09-1.24-1.64-1.87s-1.11-1.26-1.67-1.89s-1.11-1.28-1.74-1.84c-1.23-1.17-2.46-2.35-3.71-3.54
							c-0.61-0.62-1.29-1.13-1.96-1.69c-0.67-0.55-1.34-1.09-2.02-1.64c-0.68-0.55-1.36-1.1-2.04-1.65
							c-0.71-0.5-1.43-1.01-2.15-1.51c-1.45-0.99-2.87-2.06-4.38-2.99c-1.52-0.91-3.05-1.83-4.59-2.75
							c-0.76-0.48-1.55-0.89-2.36-1.29l-2.4-1.23l-2.41-1.23c-0.81-0.4-1.65-0.73-2.48-1.1c-1.67-0.71-3.32-1.47-5.01-2.14
							c-1.71-0.62-3.43-1.24-5.14-1.86l-1.29-0.46l-1.31-0.39l-2.63-0.77l-2.63-0.77c-0.88-0.26-1.78-0.42-2.67-0.64
							c-1.79-0.39-3.56-0.83-5.36-1.18c-1.81-0.29-3.61-0.58-5.41-0.87l-1.35-0.21l-1.36-0.13l-2.72-0.25
							c-7.25-0.62-14.54-0.6-21.6,0.51c-0.88,0.12-1.77,0.22-2.63,0.36c-0.85,0.16-1.69,0.3-2.54,0.47
							c-1.69,0.33-3.38,0.69-5.05,1.1c-3.34,0.82-6.63,1.81-9.81,3.05c-3.17,1.24-6.22,2.72-9.07,4.44c-2.85,1.73-5.46,3.74-7.8,5.9
							c-1.19,1.06-2.25,2.23-3.31,3.36c-0.98,1.2-1.99,2.34-2.83,3.58c-1.79,2.4-3.17,4.91-4.43,7.34
							c-2.39,4.92-3.85,9.65-4.81,13.88c-0.42,2.12-0.87,4.1-1.09,5.96c-0.13,0.92-0.25,1.81-0.37,2.67
							c-0.08,0.85-0.16,1.67-0.23,2.44c-0.65,6.19-0.93,14.87,0.06,25.06c0.12,1.27,0.25,2.57,0.38,3.9
							c0.11,1.25,0.25,2.45,0.33,3.73c0.17,2.54,0.23,5.2,0.21,7.97c-0.05,5.55-0.44,11.5-0.86,17.8c-0.41,6.3-0.9,12.95-0.82,19.95
							c0.01,1.67,0.07,3.71,0.34,5.62c0.26,1.92,0.64,3.82,1.19,5.69c1.08,3.74,2.69,7.41,5.01,10.74s5.34,6.3,8.88,8.49
							c0.44,0.27,0.87,0.57,1.33,0.81l1.39,0.69c0.92,0.49,1.89,0.85,2.85,1.2c0.49,0.17,0.94,0.38,1.47,0.51l1.58,0.39
							c0.52,0.11,1.06,0.29,1.58,0.34l1.56,0.19c4.15,0.43,8.12,0.01,11.91-0.81c3.8-0.81,7.38-2.17,10.79-3.79
							c3.42-1.62,6.62-3.65,9.54-6.05c2.91-2.4,5.59-5.14,7.63-8.42c0.57-0.76,0.98-1.66,1.43-2.51l0.66-1.29
							c0.19-0.41,0.33-0.8,0.5-1.19c0.64-1.58,1.31-3.15,1.85-4.71c0.57-1.56,1.14-3.11,1.63-4.65c0.5-1.54,1.02-3.07,1.46-4.59
							c1.85-6.07,3.3-11.94,4.48-17.5c1.21-5.56,2.1-10.82,2.76-15.68c1.31-9.71,1.59-17.82,1.07-23.46
							c-0.51-5.66-1.76-8.7-2.29-8.58c-0.7,0.14-0.59,3.2-1.05,8.58c-0.45,5.38-1.52,13.12-3.48,22.45
							c-0.98,4.66-2.16,9.73-3.62,15.07c-1.43,5.35-3.1,10.99-5.1,16.76c-0.47,1.45-1.03,2.89-1.56,4.35
							c-0.52,1.47-1.11,2.91-1.7,4.36c-0.56,1.47-1.22,2.89-1.86,4.33l-0.48,1.07l-0.51,0.89c-0.35,0.59-0.61,1.22-1.07,1.77
							c-1.53,2.35-3.69,4.45-6.06,6.31c-1.16,0.97-2.49,1.77-3.78,2.62l-2.04,1.14c-0.67,0.4-1.41,0.68-2.11,1.03
							c-2.86,1.28-5.87,2.37-8.94,2.96c-3.05,0.61-6.16,0.85-9,0.51c-0.71-0.09-1.42-0.16-2.05-0.37l-0.98-0.25
							c-0.33-0.07-0.67-0.25-1.01-0.37c-0.68-0.26-1.36-0.5-1.98-0.86l-0.96-0.49c-0.32-0.16-0.6-0.38-0.91-0.57
							c-2.4-1.53-4.46-3.57-6.1-5.96c-1.64-2.4-2.83-5.16-3.64-8.01c-0.41-1.43-0.69-2.89-0.88-4.33c-0.19-1.46-0.22-2.8-0.23-4.5
							c-0.04-6.45,0.44-12.92,0.87-19.21c0.44-6.3,0.85-12.46,0.89-18.39c0.02-2.97-0.05-5.87-0.25-8.7
							c-0.09-1.4-0.26-2.83-0.38-4.16c-0.13-1.26-0.25-2.49-0.38-3.69C846.15,315.08,846.35,307.08,846.84,301.46z"/>
					</g>
				</g>
			</g>
			<g>
				<g>
					<g>
						<path class="st3" d="M916.08,339.76c-0.78-2.95,2.02-3.63,5.33-4.96c1.65-0.64,5.76-2.01,9.09-3.8
							c1.67-0.88,3.1-1.84,4.04-2.67c0.95-0.81,1.44-1.55,1.88-1.49c0.38,0.02,0.69,1.16,0.12,2.75c-0.55,1.58-1.88,3.35-3.5,4.87
							c-3.25,3.08-7.57,5.27-9.4,5.98C919.96,341.91,916.79,342.46,916.08,339.76z"/>
					</g>
				</g>
			</g>
		</g>
	</g>
</g>
</svg>
